<svg width="35" height="35" viewBox="0 0 35 35" fill="none" xmlns="http://www.w3.org/2000/svg">
<path d="M17.5 0C7.8498 0 0 7.84979 0 17.5C0 27.1502 7.8498 35 17.5 35C27.1502 35 35 27.1502 35 17.5C35 7.84979 27.1502 0 17.5 0ZM28.9475 11.0874C28.6344 11.9923 28.0019 12.9317 27.0218 13.9461C27.4351 15.0546 27.6637 16.2507 27.6637 17.5C27.6637 23.1048 23.1048 27.6637 17.5 27.6637C16.2006 27.6637 14.9606 27.4164 13.8178 26.9717C13.6424 27.2661 13.4295 27.5416 13.1759 27.7952C12.3367 28.6344 11.3254 29.079 10.2483 29.079C10.17 29.079 10.0917 29.079 10.0134 29.0727C8.92378 29.007 7.9406 28.5686 7.17033 27.7984C6.40007 27.0281 5.94919 26.0449 5.87091 24.9647C5.81142 24.1474 5.98676 22.9294 7.14529 21.7709C7.40517 21.511 7.69324 21.2918 7.99696 21.1133C7.56799 19.9924 7.33316 18.7744 7.33316 17.5063C7.33316 11.9015 11.8921 7.34255 17.4969 7.34255C18.718 7.34255 19.8922 7.5586 20.9787 7.95625C21.1572 7.76838 21.3169 7.60243 21.4578 7.46153C22.4347 6.48461 23.5181 5.9711 24.6797 5.9304C24.7267 5.9304 24.7768 5.9304 24.8238 5.9304C25.9572 5.9304 27.0093 6.38442 27.8704 7.24548C29.4203 8.7954 29.2074 10.3203 28.9412 11.0937L28.9475 11.0874Z" fill="white"/>
<path d="M14.9575 17.3371L20.3431 11.1812C21.3951 9.98514 22.1654 9.13973 22.657 8.65127C23.3239 7.98434 24.019 7.63991 24.7423 7.61486C25.4656 7.58981 26.1106 7.86222 26.6805 8.43522C27.3725 9.12721 27.5948 9.82546 27.3506 10.5362C27.1063 11.247 26.5333 12.0517 25.6347 12.9503C25.1055 13.4795 24.5388 13.9899 23.9376 14.4815L17.4812 19.9015C16.7172 20.5528 16.0565 20.9724 15.4929 21.1665C14.9293 21.3606 14.4377 21.2416 14.0119 20.8158C13.586 20.39 13.4608 19.8984 13.658 19.3629C13.8553 18.8275 14.2905 18.1512 14.9637 17.334L14.9575 17.3371ZM8.3664 26.6022C7.87481 26.1106 7.60867 25.525 7.55857 24.8425C7.5116 24.1599 7.77149 23.5336 8.34135 22.9638C8.83921 22.4659 9.43725 22.2185 10.1355 22.2154C10.8337 22.2154 11.4381 22.469 11.9422 22.9732C12.4463 23.4773 12.7062 24.0847 12.7124 24.7924C12.7187 25.5 12.4745 26.1012 11.9766 26.599C11.413 27.1626 10.793 27.4225 10.1105 27.3818C9.42786 27.3411 8.84546 27.0812 8.36327 26.599L8.3664 26.6022Z" fill="white"/>
</svg>
