<svg width="116" height="37" viewBox="0 0 116 37" fill="none" xmlns="http://www.w3.org/2000/svg">
<g id="64791b63d98fbc88523e62c1_Logo-NoPorts-Final(060123)" clip-path="url(#clip0_8_8749)">
<path id="Vector" d="M19.438 31.5497L19.3832 31.6164C19.2262 31.8164 19.0439 31.9957 18.8395 32.1483C18.6291 32.3068 18.3861 32.4164 18.1298 32.4712C17.912 32.5201 17.6868 32.5201 17.469 32.4712C17.1846 32.4075 16.9401 32.2268 16.7935 31.9749C16.6883 31.8016 16.6186 31.609 16.5875 31.409C16.5431 31.1334 16.5327 30.8549 16.5579 30.5778C16.6275 29.597 17.0009 28.6636 17.6246 27.9051C17.8617 27.6162 18.1491 27.3732 18.4706 27.185C18.6913 27.0562 18.9343 26.9687 19.1862 26.9243C19.3951 26.8858 19.6084 26.8932 19.8144 26.9465C20.0188 27.0043 20.2055 27.1154 20.3551 27.2665L20.4144 27.3258C20.4396 27.2339 20.4648 27.1465 20.4885 27.0606H21.3596C21.3596 27.0739 21.3596 27.0887 21.3596 27.1021C21.1315 27.8962 20.9344 28.7007 20.7492 29.5052C20.6529 29.9215 20.5581 30.3363 20.447 30.7467C20.4248 30.8356 20.4025 30.926 20.3773 31.0119C20.3344 31.1645 20.3047 31.3216 20.2884 31.4786C20.2484 31.7512 20.2322 32.0253 20.2381 32.3009C20.244 32.5305 20.2914 32.7572 20.3773 32.9705C20.4218 33.0802 20.487 33.1794 20.5685 33.2654C20.6648 33.3631 20.7951 33.4209 20.9329 33.4268C21.0974 33.4328 21.2589 33.3987 21.407 33.3276C21.5611 33.2579 21.7063 33.1676 21.8337 33.0565C21.9152 32.9868 21.9982 32.9172 22.0826 32.8535C22.2426 32.7335 22.4323 32.6609 22.6308 32.6431C22.7701 32.6313 22.9093 32.6579 23.0323 32.7231C23.1597 32.7853 23.2901 32.8402 23.4249 32.8846C23.6649 32.9646 23.9168 32.9972 24.1701 32.9809C24.3701 32.9705 24.5657 32.9098 24.7361 32.8046C24.7702 32.7824 24.8042 32.7587 24.8353 32.732C24.982 32.6194 25.0457 32.4283 24.9968 32.2505C24.9968 32.1912 24.9568 32.1334 24.9391 32.0742C24.9213 32.0149 24.8976 31.9305 24.8813 31.8579C24.8665 31.7957 24.8842 31.7305 24.9287 31.6845C24.9761 31.6297 25.0279 31.5749 25.0828 31.523C25.1465 31.4638 25.1998 31.3956 25.2413 31.3201C25.2754 31.2608 25.2887 31.1941 25.2828 31.126C25.2798 31.0652 25.2443 31.0119 25.1909 30.9838C25.1376 30.9541 25.0783 30.9408 25.0176 30.9423H24.7939H24.8383C24.9124 30.9319 24.985 30.9171 25.0561 30.8978C25.1761 30.8623 25.2828 30.7926 25.3643 30.6963C25.4176 30.6386 25.4295 30.5526 25.3939 30.483C25.3732 30.4341 25.3435 30.3897 25.305 30.3541C25.2724 30.32 25.2354 30.2874 25.2028 30.2519C25.1124 30.1719 25.1035 30.0341 25.1835 29.9437C25.1894 29.9363 25.1954 29.9304 25.2028 29.9244C25.2591 29.8696 25.3198 29.8193 25.3835 29.7733C25.4635 29.7111 25.548 29.6548 25.6324 29.5926C25.6961 29.5422 25.7539 29.4844 25.8013 29.4192C25.8754 29.3333 25.8754 29.2059 25.8013 29.1214C25.7495 29.0592 25.6932 29 25.6324 28.9451C25.4769 28.8074 25.3346 28.6562 25.2057 28.4933C25.0946 28.351 25.0042 28.194 24.9376 28.0266C24.8887 27.8873 24.862 27.7406 24.8576 27.5925C24.8516 27.4162 24.8561 27.2399 24.8694 27.0636C24.8783 26.871 24.8502 26.6769 24.785 26.4946C24.6694 26.1568 24.465 25.8576 24.1924 25.6279C23.9479 25.4205 23.6694 25.2575 23.3686 25.1494C22.9715 24.9998 22.5582 24.8931 22.1374 24.8338C21.6826 24.7701 21.2218 24.7464 20.7625 24.7642C19.9862 24.7923 19.2188 24.942 18.4884 25.2057C17.7965 25.4531 17.149 25.8087 16.5697 26.2606C16.4231 26.3806 16.2838 26.5095 16.1534 26.6472C15.8008 27.0073 15.4926 27.4102 15.2393 27.8458C15.0052 28.2488 14.8245 28.6814 14.703 29.1318C14.6659 29.2652 14.6289 29.4 14.6037 29.5392C14.5282 29.9422 14.5 30.3511 14.5222 30.76C14.5504 31.3319 14.6867 31.8934 14.9222 32.4164C15.2349 33.1039 15.709 33.7054 16.3045 34.1691C16.669 34.4639 17.069 34.7143 17.4942 34.9143C17.9876 35.138 18.5106 35.2936 19.0454 35.3781C19.4277 35.4373 19.8144 35.461 20.1996 35.4477C20.5181 35.4373 20.8351 35.4032 21.1478 35.3455C21.5552 35.2788 21.9552 35.1766 22.3449 35.0373C22.4989 34.9825 22.6471 34.9158 22.7967 34.8536H22.8293L23.0204 35.4003L22.9953 35.4151C22.3611 35.784 21.6752 36.0551 20.9596 36.2196C20.6292 36.2966 20.2929 36.3485 19.9536 36.3766C19.6129 36.4033 19.2691 36.4033 18.9284 36.3766C17.7772 36.3055 16.6705 35.9159 15.7282 35.2492C14.9563 34.7054 14.3356 33.975 13.9207 33.1261C13.7177 32.7261 13.5577 32.3053 13.4466 31.8697C13.2955 31.2712 13.2392 30.6534 13.2807 30.037C13.3222 29.4429 13.4451 28.8592 13.6481 28.2992C13.7296 28.074 13.8126 27.8473 13.9118 27.6295C14.2674 26.8724 14.7741 26.1968 15.4008 25.6442C16.0897 25.0294 16.8898 24.5523 17.7594 24.2397C18.2854 24.0471 18.8306 23.9123 19.3847 23.8382C19.8855 23.7656 20.3922 23.7345 20.8988 23.7464C21.4633 23.7671 22.0219 23.8575 22.5641 24.0116C22.9138 24.1064 23.2545 24.2323 23.5819 24.3893C23.9997 24.5923 24.3775 24.8679 24.699 25.2042C25.0176 25.5361 25.2309 25.9539 25.3124 26.4057C25.3494 26.628 25.3494 26.8561 25.3124 27.0784C25.2843 27.2354 25.2724 27.3954 25.2783 27.5554C25.2857 27.871 25.4057 28.1732 25.6161 28.4073C25.7406 28.5496 25.865 28.6859 25.9954 28.8236L26.191 29.034C26.2473 29.0903 26.2665 29.1733 26.2428 29.2503C26.225 29.3244 26.1939 29.394 26.151 29.4563C26.0621 29.5867 25.9524 29.7037 25.828 29.8015C25.748 29.8652 25.665 29.923 25.5791 29.9778C25.5198 30.0089 25.4961 30.083 25.5272 30.1422C25.5332 30.1526 25.5406 30.163 25.5495 30.1719C25.5939 30.2193 25.6309 30.2726 25.6606 30.3304C25.7154 30.44 25.7213 30.5689 25.6754 30.683C25.6502 30.7497 25.6132 30.8104 25.5658 30.8638L25.4917 30.9482C25.4769 30.9689 25.4769 30.9971 25.4917 31.0178C25.5065 31.0475 25.5183 31.0771 25.5317 31.1067C25.5672 31.1853 25.5702 31.2741 25.5435 31.3556C25.508 31.4623 25.4457 31.5571 25.3628 31.6342L25.2887 31.7112C25.2398 31.769 25.2072 31.8401 25.1939 31.9142C25.1865 31.969 25.1954 32.0238 25.2191 32.0727C25.2368 32.1171 25.2561 32.1616 25.2769 32.2046C25.3228 32.3009 25.3509 32.4046 25.3613 32.5098C25.3924 32.7468 25.2828 32.9794 25.0813 33.1083C24.8753 33.2476 24.6398 33.3409 24.3938 33.3794C24.1479 33.4194 23.8975 33.4283 23.6486 33.4017C23.4427 33.3854 23.2382 33.3557 23.0353 33.3142C22.7997 33.2728 22.5582 33.3246 22.3597 33.458C22.2323 33.5365 22.1167 33.6313 22.0145 33.7409C21.9063 33.8565 21.7863 33.9617 21.6589 34.0565C21.4692 34.2002 21.25 34.301 21.0189 34.3543C20.7744 34.4106 20.5166 34.3795 20.2914 34.2669C20.1314 34.1869 19.9892 34.0743 19.8751 33.9365C19.7077 33.7291 19.5877 33.4876 19.5225 33.2283C19.4173 32.8505 19.3684 32.4609 19.3788 32.0697C19.3817 31.9068 19.4025 31.7438 19.441 31.5853C19.441 31.5734 19.4366 31.5616 19.4336 31.5512L19.438 31.5497ZM17.5298 31.1527C17.5298 31.3067 17.5431 31.4608 17.5742 31.6119C17.5994 31.7438 17.6528 31.8697 17.7313 31.9794C17.8276 32.1127 17.992 32.1779 18.1535 32.1453C18.2854 32.1231 18.4113 32.0727 18.5239 31.9986C18.6632 31.9082 18.7906 31.8016 18.9032 31.6786C19.1417 31.4193 19.3314 31.1186 19.4588 30.7897C19.7729 30.0133 19.9995 29.2029 20.1344 28.3762C20.161 28.1895 20.161 28.0014 20.1344 27.8147C20.1225 27.6873 20.084 27.5643 20.0232 27.4517C19.9492 27.3139 19.8173 27.2176 19.6632 27.188C19.5684 27.1687 19.4706 27.1687 19.3758 27.188C19.2054 27.2236 19.0454 27.2991 18.9091 27.4088C18.761 27.5258 18.6291 27.6636 18.5165 27.8162C18.315 28.0844 18.1476 28.3777 18.0202 28.6873C17.8394 29.1274 17.7046 29.5852 17.6202 30.0533C17.549 30.4119 17.5105 30.7749 17.5061 31.1408L17.5313 31.1512L17.5298 31.1527Z" fill="#FF5C35"/>
<path id="Vector_2" d="M28.9393 28.9496C29.1452 28.5689 29.4252 28.2711 29.7793 28.0607C30.1334 27.8488 30.526 27.7437 30.9557 27.7437C31.3423 27.7437 31.6816 27.8192 31.9705 27.9718C32.2594 28.1244 32.4905 28.3126 32.6639 28.5393V27.8237H33.6921V32.7498H32.6639V32.0165C32.4905 32.2491 32.255 32.4432 31.9572 32.5972C31.6594 32.7528 31.3186 32.8298 30.9379 32.8298C30.5141 32.8298 30.1275 32.7217 29.7763 32.5039C29.4252 32.2861 29.1467 31.9824 28.9407 31.5913C28.7348 31.2016 28.6326 30.7586 28.6326 30.2638C28.6326 29.7689 28.7348 29.3304 28.9407 28.9496H28.9393ZM32.452 29.3971C32.3113 29.1467 32.129 28.9556 31.9024 28.8252C31.6757 28.6948 31.4312 28.6281 31.169 28.6281C30.9068 28.6281 30.6623 28.6918 30.4356 28.8207C30.2089 28.9496 30.0252 29.1363 29.886 29.3837C29.7452 29.6312 29.6756 29.9245 29.6756 30.2638C29.6756 30.6031 29.7452 30.9023 29.886 31.1572C30.0252 31.4135 30.2104 31.609 30.4401 31.7424C30.6697 31.8772 30.9127 31.9439 31.169 31.9439C31.4253 31.9439 31.6757 31.8787 31.9024 31.7468C32.129 31.6164 32.3128 31.4238 32.452 31.1705C32.5913 30.9171 32.6624 30.6208 32.6624 30.2816C32.6624 29.9423 32.5928 29.6475 32.452 29.3971Z" fill="white"/>
<path id="Vector_3" d="M36.0418 28.6548V31.3809C36.0418 31.566 36.0848 31.6979 36.1722 31.7794C36.2581 31.8594 36.4063 31.8994 36.6152 31.8994H37.2404V32.7483H36.4359C35.9766 32.7483 35.6255 32.6417 35.381 32.4268C35.1366 32.212 35.0151 31.8638 35.0151 31.3809V28.6548H34.4343V27.8236H35.0151V26.5984H36.0433V27.8236H37.2419V28.6548H36.0433H36.0418Z" fill="white"/>
<path id="Vector_4" d="M38.7472 32.6195C38.4405 32.4802 38.1975 32.2891 38.0182 32.0476C37.839 31.8061 37.7442 31.5365 37.7323 31.2387H38.7872C38.8049 31.4476 38.9042 31.6224 39.0864 31.7617C39.2687 31.9024 39.4968 31.972 39.7709 31.972C40.045 31.972 40.2791 31.9172 40.4376 31.8061C40.5962 31.6965 40.6747 31.5542 40.6747 31.3809C40.6747 31.1957 40.5873 31.0594 40.411 30.969C40.2347 30.8801 39.9561 30.7809 39.5754 30.6742C39.2064 30.5735 38.9042 30.4742 38.6731 30.3794C38.4405 30.2846 38.239 30.1379 38.0701 29.9408C37.8997 29.7438 37.8153 29.4845 37.8153 29.163C37.8153 28.9008 37.8923 28.6608 38.0479 28.443C38.2034 28.2252 38.4242 28.0548 38.7146 27.9289C39.0035 27.8044 39.3353 27.7407 39.7117 27.7407C40.2717 27.7407 40.7236 27.883 41.0658 28.1659C41.408 28.4489 41.5918 28.8356 41.6155 29.323H40.5962C40.5784 29.1023 40.4895 28.9274 40.328 28.7956C40.1665 28.6652 39.9487 28.5985 39.6746 28.5985C39.4005 28.5985 39.2005 28.6489 39.0583 28.7511C38.9146 28.8519 38.8435 28.9867 38.8435 29.1541C38.8435 29.286 38.8909 29.3956 38.9872 29.4845C39.082 29.5734 39.199 29.6445 39.3353 29.6949C39.4731 29.7453 39.6746 29.8105 39.9428 29.8875C40.2998 29.9823 40.5932 30.0801 40.8228 30.1779C41.0525 30.2757 41.251 30.4209 41.4169 30.612C41.5843 30.8031 41.6703 31.0564 41.6762 31.372C41.6762 31.652 41.5992 31.9024 41.4436 32.1232C41.288 32.3439 41.0703 32.5173 40.7858 32.6417C40.5028 32.7662 40.1709 32.8299 39.7887 32.8299C39.4065 32.8299 39.0538 32.7602 38.7472 32.6195Z" fill="white"/>
<path id="Vector_5" d="M42.6496 26.9821C42.5251 26.8576 42.4614 26.7021 42.4614 26.5169C42.4614 26.3317 42.5236 26.1776 42.6496 26.0517C42.7755 25.9257 42.9296 25.8635 43.1148 25.8635C43.3 25.8635 43.4452 25.9257 43.5711 26.0517C43.697 26.1776 43.7593 26.3317 43.7593 26.5169C43.7593 26.7021 43.697 26.8562 43.5711 26.9821C43.4452 27.108 43.2941 27.1703 43.1148 27.1703C42.9355 27.1703 42.7755 27.108 42.6496 26.9821ZM43.6156 27.8221V32.7483H42.5962V27.8221H43.6156Z" fill="white"/>
<path id="Vector_6" d="M47.7758 27.9703C48.0706 28.1229 48.3017 28.3111 48.4691 28.5378V27.8222H49.4973V32.8284C49.4973 33.2817 49.4025 33.6847 49.2114 34.0403C49.0203 34.3944 48.7447 34.6729 48.3847 34.8759C48.0247 35.0789 47.5935 35.1796 47.0928 35.1796C46.4246 35.1796 45.8705 35.0226 45.4305 34.7099C44.989 34.3973 44.7386 33.9721 44.6793 33.4358H45.6897C45.7668 33.6921 45.9327 33.8995 46.1861 34.0566C46.4394 34.2151 46.7416 34.2936 47.0928 34.2936C47.5046 34.2936 47.8365 34.1692 48.0899 33.9188C48.3432 33.6684 48.4691 33.3054 48.4691 32.8284V32.0061C48.2958 32.2387 48.0617 32.4343 47.7669 32.5913C47.4721 32.7498 47.1372 32.8284 46.7609 32.8284C46.3313 32.8284 45.9401 32.7202 45.5845 32.5024C45.2305 32.2846 44.9504 31.9809 44.7445 31.5898C44.5386 31.2001 44.4363 30.7572 44.4363 30.2623C44.4363 29.7675 44.5386 29.3289 44.7445 28.9482C44.9504 28.5674 45.2305 28.2696 45.5845 28.0592C45.9386 27.8474 46.3313 27.7422 46.7609 27.7422C47.1417 27.7422 47.4809 27.8177 47.7758 27.9703ZM48.2588 29.3956C48.118 29.1452 47.9358 28.9541 47.7091 28.8237C47.4824 28.6933 47.238 28.6267 46.9757 28.6267C46.7135 28.6267 46.469 28.6904 46.2424 28.8193C46.0157 28.9482 45.832 29.1349 45.6927 29.3823C45.552 29.6297 45.4823 29.923 45.4823 30.2623C45.4823 30.6016 45.552 30.9009 45.6927 31.1557C45.832 31.412 46.0172 31.6076 46.2468 31.7409C46.4764 31.8757 46.7194 31.9424 46.9757 31.9424C47.232 31.9424 47.4824 31.8772 47.7091 31.7454C47.9358 31.615 48.1195 31.4224 48.2588 31.169C48.398 30.9157 48.4691 30.6194 48.4691 30.2801C48.4691 29.9408 48.3995 29.646 48.2588 29.3956Z" fill="white"/>
<path id="Vector_7" d="M54.1865 27.9837C54.4932 28.1452 54.7332 28.3837 54.9065 28.6993C55.0799 29.0149 55.1658 29.3971 55.1658 29.8431V32.7484H54.1554V29.9942C54.1554 29.5527 54.0457 29.2149 53.825 28.9793C53.6042 28.7437 53.3035 28.6267 52.9227 28.6267C52.542 28.6267 52.2382 28.7437 52.016 28.9793C51.7923 29.2149 51.6812 29.5527 51.6812 29.9942V32.7484H50.6619V27.8222H51.6812V28.3852C51.8486 28.1822 52.0605 28.0252 52.3197 27.9111C52.579 27.7985 52.8546 27.7407 53.1464 27.7407C53.5331 27.7407 53.8813 27.8207 54.188 27.9822L54.1865 27.9837Z" fill="white"/>
<path id="Vector_8" d="M16.7934 18.7728H12.2199L4.57357 7.19296V18.7728H0V0H4.57357L12.2214 11.6332V0H16.7949V18.7728H16.7934Z" fill="white"/>
<path id="Vector_9" d="M22.9582 18.0513C21.7908 17.4276 20.8722 16.5357 20.204 15.3771C19.5358 14.2185 19.201 12.8629 19.201 11.3117C19.201 9.7605 19.5388 8.42858 20.2173 7.25963C20.8944 6.09216 21.8219 5.19582 22.9982 4.57209C24.1746 3.94835 25.4946 3.63574 26.9555 3.63574C28.4163 3.63574 29.7363 3.94835 30.9127 4.57209C32.0891 5.19582 33.0165 6.09216 33.6936 7.25963C34.3707 8.4271 34.7099 9.77828 34.7099 11.3117C34.7099 12.8451 34.3662 14.1963 33.6802 15.3637C32.9943 16.5312 32.0579 17.4276 30.8727 18.0513C29.6874 18.675 28.3629 18.9876 26.9021 18.9876C25.4413 18.9876 24.1257 18.6765 22.9582 18.0513ZM29.1348 14.0674C29.7497 13.4259 30.0578 12.5073 30.0578 11.3132C30.0578 10.119 29.7586 9.20047 29.1615 8.55896C28.5644 7.91744 27.8281 7.59594 26.9555 7.59594C26.0828 7.59594 25.3243 7.913 24.7361 8.54562C24.1479 9.17825 23.8531 10.1013 23.8531 11.3132C23.8531 12.5251 24.142 13.4259 24.7228 14.0674C25.302 14.7089 26.028 15.0304 26.9021 15.0304C27.7762 15.0304 28.52 14.7089 29.1348 14.0674Z" fill="white"/>
<path id="Vector_10" d="M56.3718 9.02565C55.8725 9.92643 55.105 10.6524 54.0724 11.205C53.0383 11.7576 51.7552 12.0347 50.2218 12.0347H47.3876V18.7743H42.814V0H50.2218C51.7197 0 52.9849 0.259273 54.019 0.774854C55.0532 1.29192 55.828 2.00455 56.3451 2.91422C56.8621 3.8239 57.1199 4.86692 57.1199 6.04327C57.1199 7.13073 56.8696 8.12486 56.3718 9.02565ZM51.8263 7.78262C52.2545 7.37223 52.4679 6.79294 52.4679 6.04475C52.4679 5.29657 52.2545 4.71728 51.8263 4.30689C51.3982 3.8965 50.7478 3.69204 49.8736 3.69204H47.3861V8.39895H49.8736C50.7463 8.39895 51.3982 8.19449 51.8263 7.7841V7.78262Z" fill="white"/>
<path id="Vector_11" d="M83.1139 4.39861C83.9154 3.926 84.8073 3.69043 85.7881 3.69043V8.53068H84.5317C83.3909 8.53068 82.5346 8.77662 81.9642 9.26553C81.3938 9.75593 81.1078 10.6167 81.1078 11.8464V18.7727H76.5343V3.85044H81.1078V6.33797C81.6427 5.51867 82.3109 4.87123 83.1139 4.39861Z" fill="white"/>
<path id="Vector_12" d="M96.2968 14.8956V18.7728H93.9707C92.3129 18.7728 91.0195 18.3669 90.0935 17.5565C89.166 16.7461 88.7023 15.4216 88.7023 13.5859V7.64931H86.8844V3.85208H88.7023V0.213379H93.2759V3.8506H96.2716V7.64783H93.2759V13.6378C93.2759 14.0837 93.3825 14.4052 93.5974 14.6008C93.8107 14.7978 94.1678 14.8956 94.667 14.8956H96.2982H96.2968Z" fill="white"/>
<path id="Vector_13" d="M101.432 18.318C100.416 17.872 99.614 17.2616 99.0258 16.4868C98.4376 15.7119 98.1072 14.8422 98.0361 13.8792H102.555C102.608 14.3963 102.85 14.8156 103.276 15.1356C103.705 15.4571 104.231 15.6171 104.854 15.6171C105.425 15.6171 105.866 15.506 106.177 15.2823C106.488 15.06 106.645 14.7696 106.645 14.4126C106.645 13.9844 106.422 13.6688 105.977 13.4629C105.531 13.2585 104.81 13.0303 103.811 12.7814C102.742 12.5325 101.85 12.2688 101.137 11.9917C100.424 11.7162 99.8081 11.2791 99.2925 10.682C98.7754 10.085 98.5176 9.27751 98.5176 8.26116C98.5176 7.40482 98.7532 6.62552 99.2258 5.92178C99.6984 5.21805 100.393 4.66098 101.312 4.25059C102.23 3.8402 103.322 3.63574 104.588 3.63574C106.46 3.63574 107.934 4.09947 109.013 5.02692C110.092 5.95438 110.711 7.18407 110.871 8.71748H106.645C106.574 8.20042 106.346 7.79003 105.964 7.48779C105.58 7.18555 105.076 7.03295 104.453 7.03295C103.918 7.03295 103.508 7.13518 103.223 7.34112C102.937 7.54705 102.795 7.82707 102.795 8.18412C102.795 8.61229 103.022 8.93231 103.476 9.14713C103.931 9.36048 104.639 9.5753 105.602 9.78865C106.708 10.0746 107.608 10.3546 108.303 10.6317C108.998 10.9087 109.609 11.3532 110.135 11.968C110.66 12.5829 110.932 13.4081 110.951 14.4422C110.951 15.3163 110.705 16.0956 110.216 16.7816C109.726 17.4676 109.022 18.0083 108.103 18.3995C107.185 18.7921 106.12 18.9876 104.908 18.9876C103.605 18.9876 102.447 18.7654 101.432 18.3195V18.318Z" fill="white"/>
<path id="Vector_14" d="M1.83711 28.0222C2.1349 27.8726 2.46529 27.797 2.83124 27.797C3.26089 27.797 3.64906 27.9007 3.99722 28.1066C4.34539 28.3126 4.61799 28.6059 4.818 28.9852C5.01801 29.3645 5.11876 29.8001 5.11876 30.2875C5.11876 30.7749 5.01801 31.2135 4.818 31.5987C4.61799 31.9839 4.34242 32.2846 3.99278 32.4995C3.64165 32.7143 3.25496 32.8224 2.83124 32.8224C2.45492 32.8224 2.12009 32.7484 1.82822 32.6017C1.53635 32.455 1.30523 32.2654 1.13485 32.0357V32.7424H0.128876V26.2058H1.13633V28.6C1.30671 28.3644 1.5408 28.1718 1.83859 28.0222H1.83711ZM3.8861 29.4178C3.74832 29.1734 3.56461 28.9882 3.33793 28.8608C3.11125 28.7348 2.86827 28.6711 2.609 28.6711C2.34973 28.6711 2.11564 28.7363 1.88897 28.8652C1.66229 28.9941 1.48006 29.1837 1.34079 29.4312C1.203 29.6786 1.13337 29.9704 1.13337 30.3053C1.13337 30.6401 1.203 30.9335 1.34079 31.1838C1.47857 31.4342 1.66229 31.6239 1.88897 31.7542C2.11564 31.8831 2.35566 31.9483 2.609 31.9483C2.86235 31.9483 3.11125 31.8817 3.33793 31.7498C3.56461 31.6179 3.74684 31.4239 3.8861 31.1705C4.02389 30.9172 4.09352 30.6223 4.09352 30.2875C4.09352 29.9527 4.02389 29.6623 3.8861 29.4178Z" fill="white"/>
<path id="Vector_15" d="M10.4983 27.877L7.51295 35.0314H6.46993L7.45962 32.6639L5.54248 27.877H6.66402L8.03298 31.5868L9.45527 27.877H10.4968H10.4983Z" fill="white"/>
<path id="Vector_16" d="M110.874 2.41333H112.646V2.82372H112.023V4.99124H111.496L111.503 2.82372H110.874V2.41333ZM116 2.41333V4.99124H115.51L115.502 3.123L114.704 4.99124H114.33L113.539 3.09485V4.99124H113.056V2.41333H113.738L114.536 4.36899L115.357 2.41333H116.001H116Z" fill="white"/>
<path id="Vector_17" d="M62.0298 13.5371C61.9646 13.5816 61.9039 13.6319 61.8446 13.6912C61.575 13.9608 61.4505 14.2571 61.4743 14.5801C61.4965 14.9031 61.6239 15.1802 61.8565 15.4128C62.0847 15.6409 62.3602 15.7639 62.6832 15.7831C62.7054 15.7831 62.7262 15.7846 62.7469 15.7846C63.0447 15.7846 63.3173 15.6602 63.5662 15.4128C63.6225 15.3565 63.6714 15.2972 63.7144 15.235C63.021 14.8201 62.4402 14.2334 62.0298 13.5371Z" fill="#FF5C35"/>
<path id="Vector_18" d="M69.6436 6.427C69.6302 6.427 69.6154 6.427 69.6021 6.427C69.2598 6.43885 68.9309 6.60183 68.6154 6.9174C68.6065 6.92629 68.5961 6.93666 68.5872 6.94555C69.2954 7.35742 69.888 7.94412 70.3088 8.64786C70.5725 8.34266 70.7488 8.06412 70.8362 7.80929C70.9518 7.47298 70.8466 7.14111 70.5192 6.81517C70.2599 6.5559 69.968 6.427 69.6421 6.427H69.6436Z" fill="#FF5C35"/>
<path id="Vector_19" d="M66.1767 2.8252C61.6106 2.8252 57.8963 6.53946 57.8963 11.1056C57.8963 15.6718 61.6106 19.386 66.1767 19.386C70.7429 19.386 74.4571 15.6718 74.4571 11.1056C74.4571 6.53946 70.7429 2.8252 66.1767 2.8252ZM71.5933 8.07139C71.4451 8.49956 71.1459 8.94403 70.6821 9.42405C70.8777 9.94852 70.9859 10.5145 70.9859 11.1056C70.9859 13.7576 68.8287 15.9148 66.1767 15.9148C65.5619 15.9148 64.9752 15.7977 64.4344 15.5873C64.3514 15.7266 64.2507 15.857 64.1307 15.977C63.7336 16.374 63.2551 16.5844 62.7454 16.5844C62.7084 16.5844 62.6714 16.5844 62.6343 16.5815C62.1187 16.5503 61.6535 16.3429 61.2891 15.9785C60.9246 15.614 60.7113 15.1488 60.6742 14.6377C60.6461 14.251 60.729 13.6746 61.2772 13.1265C61.4002 13.0035 61.5365 12.8998 61.6802 12.8153C61.4772 12.2849 61.3661 11.7086 61.3661 11.1086C61.3661 8.45659 63.5233 6.29945 66.1752 6.29945C66.753 6.29945 67.3086 6.40167 67.8227 6.58983C67.9072 6.50094 67.9827 6.42242 68.0494 6.35575C68.5117 5.8935 69.0243 5.65052 69.5739 5.63126C69.5962 5.63126 69.6199 5.63126 69.6421 5.63126C70.1784 5.63126 70.6762 5.84609 71.0836 6.25352C71.817 6.98689 71.7163 7.70841 71.5903 8.07435L71.5933 8.07139Z" fill="#FF5C35"/>
<path id="Vector_20" d="M64.9737 11.0287L67.522 8.11598C68.0198 7.55002 68.3842 7.15 68.6168 6.91888C68.9324 6.60331 69.2613 6.44034 69.6035 6.42848C69.9458 6.41663 70.251 6.54553 70.5206 6.81665C70.8481 7.14407 70.9532 7.47446 70.8377 7.81078C70.7221 8.14709 70.451 8.52785 70.0258 8.95306C69.7754 9.20344 69.5072 9.44493 69.2228 9.67754L66.1678 12.2421C65.8063 12.5503 65.4937 12.7488 65.227 12.8407C64.9604 12.9325 64.7277 12.8762 64.5263 12.6747C64.3248 12.4732 64.2655 12.2406 64.3588 11.9873C64.4522 11.7339 64.6581 11.4139 64.9766 11.0272L64.9737 11.0287ZM61.855 15.4126C61.6224 15.18 61.4965 14.903 61.4728 14.58C61.4505 14.257 61.5735 13.9607 61.8432 13.6911C62.0787 13.4555 62.3617 13.3385 62.6921 13.337C63.0225 13.337 63.3084 13.457 63.5469 13.6955C63.7855 13.9341 63.9084 14.2215 63.9114 14.5563C63.9144 14.8911 63.7988 15.1756 63.5632 15.4112C63.2966 15.6778 63.0032 15.8008 62.6802 15.7816C62.3573 15.7623 62.0817 15.6393 61.8535 15.4112L61.855 15.4126Z" fill="#FF5C35"/>
</g>
<defs>
<clipPath id="clip0_8_8749">
<rect width="116" height="36.3959" fill="white"/>
</clipPath>
</defs>
</svg>
