<svg width="78" height="61" viewBox="0 0 78 61" fill="none" xmlns="http://www.w3.org/2000/svg">
<g filter="url(#filter0_b_394_5300)">
<rect width="78" height="60.1724" rx="10" fill="#793020"/>
</g>
<path d="M48.8 18L34.1 26.487L34.1 9.51295L48.8 18Z" stroke="white" stroke-width="2.2"/>
<path d="M18.9257 37.51C18.9257 36.83 19.0823 36.22 19.3957 35.68C19.7157 35.14 20.1457 34.72 20.6857 34.42C21.2323 34.1133 21.829 33.96 22.4757 33.96C23.2157 33.96 23.8723 34.1433 24.4457 34.51C25.0257 34.87 25.4457 35.3833 25.7057 36.05H24.3357C24.1557 35.6833 23.9057 35.41 23.5857 35.23C23.2657 35.05 22.8957 34.96 22.4757 34.96C22.0157 34.96 21.6057 35.0633 21.2457 35.27C20.8857 35.4767 20.6023 35.7733 20.3957 36.16C20.1957 36.5467 20.0957 36.9967 20.0957 37.51C20.0957 38.0233 20.1957 38.4733 20.3957 38.86C20.6023 39.2467 20.8857 39.5467 21.2457 39.76C21.6057 39.9667 22.0157 40.07 22.4757 40.07C22.8957 40.07 23.2657 39.98 23.5857 39.8C23.9057 39.62 24.1557 39.3467 24.3357 38.98H25.7057C25.4457 39.6467 25.0257 40.16 24.4457 40.52C23.8723 40.88 23.2157 41.06 22.4757 41.06C21.8223 41.06 21.2257 40.91 20.6857 40.61C20.1457 40.3033 19.7157 39.88 19.3957 39.34C19.0823 38.8 18.9257 38.19 18.9257 37.51ZM32.03 35.49V41H30.89V40.35C30.71 40.5767 30.4734 40.7567 30.18 40.89C29.8934 41.0167 29.5867 41.08 29.26 41.08C28.8267 41.08 28.4367 40.99 28.09 40.81C27.75 40.63 27.48 40.3633 27.28 40.01C27.0867 39.6567 26.99 39.23 26.99 38.73V35.49H28.12V38.56C28.12 39.0533 28.2434 39.4333 28.49 39.7C28.7367 39.96 29.0734 40.09 29.5 40.09C29.9267 40.09 30.2634 39.96 30.51 39.7C30.7634 39.4333 30.89 39.0533 30.89 38.56V35.49H32.03ZM34.6742 36.29C34.8408 36.01 35.0608 35.7933 35.3342 35.64C35.6142 35.48 35.9442 35.4 36.3242 35.4V36.58H36.0342C35.5875 36.58 35.2475 36.6933 35.0142 36.92C34.7875 37.1467 34.6742 37.54 34.6742 38.1V41H33.5342V35.49H34.6742V36.29ZM38.5121 36.29C38.6787 36.01 38.8987 35.7933 39.1721 35.64C39.4521 35.48 39.7821 35.4 40.1621 35.4V36.58H39.8721C39.4254 36.58 39.0854 36.6933 38.8521 36.92C38.6254 37.1467 38.5121 37.54 38.5121 38.1V41H37.3721V35.49H38.5121V36.29ZM46.26 38.11C46.26 38.3167 46.2466 38.5033 46.22 38.67H42.01C42.0433 39.11 42.2066 39.4633 42.5 39.73C42.7933 39.9967 43.1533 40.13 43.58 40.13C44.1933 40.13 44.6266 39.8733 44.88 39.36H46.11C45.9433 39.8667 45.64 40.2833 45.2 40.61C44.7666 40.93 44.2266 41.09 43.58 41.09C43.0533 41.09 42.58 40.9733 42.16 40.74C41.7466 40.5 41.42 40.1667 41.18 39.74C40.9466 39.3067 40.83 38.8067 40.83 38.24C40.83 37.6733 40.9433 37.1767 41.17 36.75C41.4033 36.3167 41.7266 35.9833 42.14 35.75C42.56 35.5167 43.04 35.4 43.58 35.4C44.1 35.4 44.5633 35.5133 44.97 35.74C45.3766 35.9667 45.6933 36.2867 45.92 36.7C46.1466 37.1067 46.26 37.5767 46.26 38.11ZM45.07 37.75C45.0633 37.33 44.9133 36.9933 44.62 36.74C44.3266 36.4867 43.9633 36.36 43.53 36.36C43.1366 36.36 42.8 36.4867 42.52 36.74C42.24 36.9867 42.0733 37.3233 42.02 37.75H45.07ZM50.1618 35.4C50.5952 35.4 50.9818 35.49 51.3218 35.67C51.6685 35.85 51.9385 36.1167 52.1318 36.47C52.3252 36.8233 52.4218 37.25 52.4218 37.75V41H51.2918V37.92C51.2918 37.4267 51.1685 37.05 50.9218 36.79C50.6752 36.5233 50.3385 36.39 49.9118 36.39C49.4852 36.39 49.1452 36.5233 48.8918 36.79C48.6452 37.05 48.5218 37.4267 48.5218 37.92V41H47.3818V35.49H48.5218V36.12C48.7085 35.8933 48.9452 35.7167 49.2318 35.59C49.5252 35.4633 49.8352 35.4 50.1618 35.4ZM55.206 36.42V39.47C55.206 39.6767 55.2526 39.8267 55.346 39.92C55.446 40.0067 55.6126 40.05 55.846 40.05H56.546V41H55.646C55.1326 41 54.7393 40.88 54.466 40.64C54.1926 40.4 54.056 40.01 54.056 39.47V36.42H53.406V35.49H54.056V34.12H55.206V35.49H56.546V36.42H55.206ZM7.45105 48.51C7.45105 47.83 7.60772 47.22 7.92105 46.68C8.24105 46.14 8.67105 45.72 9.21105 45.42C9.75772 45.1133 10.3544 44.96 11.0011 44.96C11.7411 44.96 12.3977 45.1433 12.9711 45.51C13.5511 45.87 13.9711 46.3833 14.2311 47.05H12.8611C12.6811 46.6833 12.4311 46.41 12.1111 46.23C11.7911 46.05 11.4211 45.96 11.0011 45.96C10.5411 45.96 10.1311 46.0633 9.77105 46.27C9.41105 46.4767 9.12772 46.7733 8.92105 47.16C8.72105 47.5467 8.62105 47.9967 8.62105 48.51C8.62105 49.0233 8.72105 49.4733 8.92105 49.86C9.12772 50.2467 9.41105 50.5467 9.77105 50.76C10.1311 50.9667 10.5411 51.07 11.0011 51.07C11.4211 51.07 11.7911 50.98 12.1111 50.8C12.4311 50.62 12.6811 50.3467 12.8611 49.98H14.2311C13.9711 50.6467 13.5511 51.16 12.9711 51.52C12.3977 51.88 11.7411 52.06 11.0011 52.06C10.3477 52.06 9.75105 51.91 9.21105 51.61C8.67105 51.3033 8.24105 50.88 7.92105 50.34C7.60772 49.8 7.45105 49.19 7.45105 48.51ZM17.9554 52.09C17.4354 52.09 16.9654 51.9733 16.5454 51.74C16.1254 51.5 15.7954 51.1667 15.5554 50.74C15.3154 50.3067 15.1954 49.8067 15.1954 49.24C15.1954 48.68 15.3188 48.1833 15.5654 47.75C15.8121 47.3167 16.1488 46.9833 16.5754 46.75C17.0021 46.5167 17.4788 46.4 18.0054 46.4C18.5321 46.4 19.0088 46.5167 19.4354 46.75C19.8621 46.9833 20.1988 47.3167 20.4454 47.75C20.6921 48.1833 20.8154 48.68 20.8154 49.24C20.8154 49.8 20.6888 50.2967 20.4354 50.73C20.1821 51.1633 19.8354 51.5 19.3954 51.74C18.9621 51.9733 18.4821 52.09 17.9554 52.09ZM17.9554 51.1C18.2488 51.1 18.5221 51.03 18.7754 50.89C19.0354 50.75 19.2454 50.54 19.4054 50.26C19.5654 49.98 19.6454 49.64 19.6454 49.24C19.6454 48.84 19.5688 48.5033 19.4154 48.23C19.2621 47.95 19.0588 47.74 18.8054 47.6C18.5521 47.46 18.2788 47.39 17.9854 47.39C17.6921 47.39 17.4188 47.46 17.1654 47.6C16.9188 47.74 16.7221 47.95 16.5754 48.23C16.4288 48.5033 16.3554 48.84 16.3554 49.24C16.3554 49.8333 16.5054 50.2933 16.8054 50.62C17.1121 50.94 17.4954 51.1 17.9554 51.1ZM24.7224 46.4C25.1557 46.4 25.5424 46.49 25.8824 46.67C26.229 46.85 26.499 47.1167 26.6924 47.47C26.8857 47.8233 26.9824 48.25 26.9824 48.75V52H25.8524V48.92C25.8524 48.4267 25.729 48.05 25.4824 47.79C25.2357 47.5233 24.899 47.39 24.4724 47.39C24.0457 47.39 23.7057 47.5233 23.4524 47.79C23.2057 48.05 23.0824 48.4267 23.0824 48.92V52H21.9424V46.49H23.0824V47.12C23.269 46.8933 23.5057 46.7167 23.7924 46.59C24.0857 46.4633 24.3957 46.4 24.7224 46.4ZM31.2165 46.4C31.6499 46.4 32.0365 46.49 32.3765 46.67C32.7232 46.85 32.9932 47.1167 33.1865 47.47C33.3799 47.8233 33.4765 48.25 33.4765 48.75V52H32.3465V48.92C32.3465 48.4267 32.2232 48.05 31.9765 47.79C31.7299 47.5233 31.3932 47.39 30.9665 47.39C30.5399 47.39 30.1999 47.5233 29.9465 47.79C29.6999 48.05 29.5765 48.4267 29.5765 48.92V52H28.4365V46.49H29.5765V47.12C29.7632 46.8933 29.9999 46.7167 30.2865 46.59C30.5799 46.4633 30.8899 46.4 31.2165 46.4ZM39.9807 49.11C39.9807 49.3167 39.9673 49.5033 39.9407 49.67H35.7307C35.764 50.11 35.9273 50.4633 36.2207 50.73C36.514 50.9967 36.874 51.13 37.3007 51.13C37.914 51.13 38.3473 50.8733 38.6007 50.36H39.8307C39.664 50.8667 39.3607 51.2833 38.9207 51.61C38.4873 51.93 37.9473 52.09 37.3007 52.09C36.774 52.09 36.3007 51.9733 35.8807 51.74C35.4673 51.5 35.1407 51.1667 34.9007 50.74C34.6673 50.3067 34.5507 49.8067 34.5507 49.24C34.5507 48.6733 34.664 48.1767 34.8907 47.75C35.124 47.3167 35.4473 46.9833 35.8607 46.75C36.2807 46.5167 36.7607 46.4 37.3007 46.4C37.8207 46.4 38.284 46.5133 38.6907 46.74C39.0973 46.9667 39.414 47.2867 39.6407 47.7C39.8673 48.1067 39.9807 48.5767 39.9807 49.11ZM38.7907 48.75C38.784 48.33 38.634 47.9933 38.3407 47.74C38.0473 47.4867 37.684 47.36 37.2507 47.36C36.8573 47.36 36.5207 47.4867 36.2407 47.74C35.9607 47.9867 35.794 48.3233 35.7407 48.75H38.7907ZM40.7225 49.24C40.7225 48.6733 40.8359 48.1767 41.0625 47.75C41.2959 47.3167 41.6159 46.9833 42.0225 46.75C42.4292 46.5167 42.8959 46.4 43.4225 46.4C44.0892 46.4 44.6392 46.56 45.0725 46.88C45.5125 47.1933 45.8092 47.6433 45.9625 48.23H44.7325C44.6325 47.9567 44.4725 47.7433 44.2525 47.59C44.0325 47.4367 43.7559 47.36 43.4225 47.36C42.9559 47.36 42.5825 47.5267 42.3025 47.86C42.0292 48.1867 41.8925 48.6467 41.8925 49.24C41.8925 49.8333 42.0292 50.2967 42.3025 50.63C42.5825 50.9633 42.9559 51.13 43.4225 51.13C44.0825 51.13 44.5192 50.84 44.7325 50.26H45.9625C45.8025 50.82 45.5025 51.2667 45.0625 51.6C44.6225 51.9267 44.0759 52.09 43.4225 52.09C42.8959 52.09 42.4292 51.9733 42.0225 51.74C41.6159 51.5 41.2959 51.1667 41.0625 50.74C40.8359 50.3067 40.7225 49.8067 40.7225 49.24ZM48.4286 47.42V50.47C48.4286 50.6767 48.4753 50.8267 48.5686 50.92C48.6686 51.0067 48.8353 51.05 49.0686 51.05H49.7686V52H48.8686C48.3553 52 47.962 51.88 47.6886 51.64C47.4153 51.4 47.2786 51.01 47.2786 50.47V47.42H46.6286V46.49H47.2786V45.12H48.4286V46.49H49.7686V47.42H48.4286ZM51.3993 45.76C51.1927 45.76 51.0193 45.69 50.8793 45.55C50.7393 45.41 50.6693 45.2367 50.6693 45.03C50.6693 44.8233 50.7393 44.65 50.8793 44.51C51.0193 44.37 51.1927 44.3 51.3993 44.3C51.5993 44.3 51.7693 44.37 51.9093 44.51C52.0493 44.65 52.1193 44.8233 52.1193 45.03C52.1193 45.2367 52.0493 45.41 51.9093 45.55C51.7693 45.69 51.5993 45.76 51.3993 45.76ZM51.9593 46.49V52H50.8193V46.49H51.9593ZM55.8461 52.09C55.3261 52.09 54.8561 51.9733 54.4361 51.74C54.0161 51.5 53.6861 51.1667 53.4461 50.74C53.2061 50.3067 53.0861 49.8067 53.0861 49.24C53.0861 48.68 53.2094 48.1833 53.4561 47.75C53.7027 47.3167 54.0394 46.9833 54.4661 46.75C54.8927 46.5167 55.3694 46.4 55.8961 46.4C56.4227 46.4 56.8994 46.5167 57.3261 46.75C57.7527 46.9833 58.0894 47.3167 58.3361 47.75C58.5827 48.1833 58.7061 48.68 58.7061 49.24C58.7061 49.8 58.5794 50.2967 58.3261 50.73C58.0727 51.1633 57.7261 51.5 57.2861 51.74C56.8527 51.9733 56.3727 52.09 55.8461 52.09ZM55.8461 51.1C56.1394 51.1 56.4127 51.03 56.6661 50.89C56.9261 50.75 57.1361 50.54 57.2961 50.26C57.4561 49.98 57.5361 49.64 57.5361 49.24C57.5361 48.84 57.4594 48.5033 57.3061 48.23C57.1527 47.95 56.9494 47.74 56.6961 47.6C56.4427 47.46 56.1694 47.39 55.8761 47.39C55.5827 47.39 55.3094 47.46 55.0561 47.6C54.8094 47.74 54.6127 47.95 54.4661 48.23C54.3194 48.5033 54.2461 48.84 54.2461 49.24C54.2461 49.8333 54.3961 50.2933 54.6961 50.62C55.0027 50.94 55.3861 51.1 55.8461 51.1ZM62.613 46.4C63.0463 46.4 63.433 46.49 63.773 46.67C64.1197 46.85 64.3897 47.1167 64.583 47.47C64.7763 47.8233 64.873 48.25 64.873 48.75V52H63.743V48.92C63.743 48.4267 63.6197 48.05 63.373 47.79C63.1263 47.5233 62.7897 47.39 62.363 47.39C61.9363 47.39 61.5963 47.5233 61.343 47.79C61.0963 48.05 60.973 48.4267 60.973 48.92V52H59.833V46.49H60.973V47.12C61.1597 46.8933 61.3963 46.7167 61.683 46.59C61.9763 46.4633 62.2863 46.4 62.613 46.4ZM68.3271 52.09C67.8938 52.09 67.5038 52.0133 67.1571 51.86C66.8171 51.7 66.5471 51.4867 66.3471 51.22C66.1471 50.9467 66.0405 50.6433 66.0271 50.31H67.2071C67.2271 50.5433 67.3371 50.74 67.5371 50.9C67.7438 51.0533 68.0005 51.13 68.3071 51.13C68.6271 51.13 68.8738 51.07 69.0471 50.95C69.2271 50.8233 69.3171 50.6633 69.3171 50.47C69.3171 50.2633 69.2171 50.11 69.0171 50.01C68.8238 49.91 68.5138 49.8 68.0871 49.68C67.6738 49.5667 67.3371 49.4567 67.0771 49.35C66.8171 49.2433 66.5905 49.08 66.3971 48.86C66.2105 48.64 66.1171 48.35 66.1171 47.99C66.1171 47.6967 66.2038 47.43 66.3771 47.19C66.5505 46.9433 66.7971 46.75 67.1171 46.61C67.4438 46.47 67.8171 46.4 68.2371 46.4C68.8638 46.4 69.3671 46.56 69.7471 46.88C70.1338 47.1933 70.3405 47.6233 70.3671 48.17H69.2271C69.2071 47.9233 69.1071 47.7267 68.9271 47.58C68.7471 47.4333 68.5038 47.36 68.1971 47.36C67.8971 47.36 67.6671 47.4167 67.5071 47.53C67.3471 47.6433 67.2671 47.7933 67.2671 47.98C67.2671 48.1267 67.3205 48.25 67.4271 48.35C67.5338 48.45 67.6638 48.53 67.8171 48.59C67.9705 48.6433 68.1971 48.7133 68.4971 48.8C68.8971 48.9067 69.2238 49.0167 69.4771 49.13C69.7371 49.2367 69.9605 49.3967 70.1471 49.61C70.3338 49.8233 70.4305 50.1067 70.4371 50.46C70.4371 50.7733 70.3505 51.0533 70.1771 51.3C70.0038 51.5467 69.7571 51.74 69.4371 51.88C69.1238 52.02 68.7538 52.09 68.3271 52.09Z" fill="white"/>
<defs>
<filter id="filter0_b_394_5300" x="-187" y="-187" width="452" height="434.172" filterUnits="userSpaceOnUse" color-interpolation-filters="sRGB">
<feFlood flood-opacity="0" result="BackgroundImageFix"/>
<feGaussianBlur in="BackgroundImageFix" stdDeviation="93.5"/>
<feComposite in2="SourceAlpha" operator="in" result="effect1_backgroundBlur_394_5300"/>
<feBlend mode="normal" in="SourceGraphic" in2="effect1_backgroundBlur_394_5300" result="shape"/>
</filter>
</defs>
</svg>
