<svg width="64" height="48" viewBox="0 0 64 48" fill="none" xmlns="http://www.w3.org/2000/svg">
<path d="M41.8 12L27.1 20.487L27.1 3.51295L41.8 12Z" stroke="white" stroke-width="2.2"/>
<path d="M11.9257 31.51C11.9257 30.83 12.0823 30.22 12.3957 29.68C12.7157 29.14 13.1457 28.72 13.6857 28.42C14.2323 28.1133 14.829 27.96 15.4757 27.96C16.2157 27.96 16.8723 28.1433 17.4457 28.51C18.0257 28.87 18.4457 29.3833 18.7057 30.05H17.3357C17.1557 29.6833 16.9057 29.41 16.5857 29.23C16.2657 29.05 15.8957 28.96 15.4757 28.96C15.0157 28.96 14.6057 29.0633 14.2457 29.27C13.8857 29.4767 13.6023 29.7733 13.3957 30.16C13.1957 30.5467 13.0957 30.9967 13.0957 31.51C13.0957 32.0233 13.1957 32.4733 13.3957 32.86C13.6023 33.2467 13.8857 33.5467 14.2457 33.76C14.6057 33.9667 15.0157 34.07 15.4757 34.07C15.8957 34.07 16.2657 33.98 16.5857 33.8C16.9057 33.62 17.1557 33.3467 17.3357 32.98H18.7057C18.4457 33.6467 18.0257 34.16 17.4457 34.52C16.8723 34.88 16.2157 35.06 15.4757 35.06C14.8223 35.06 14.2257 34.91 13.6857 34.61C13.1457 34.3033 12.7157 33.88 12.3957 33.34C12.0823 32.8 11.9257 32.19 11.9257 31.51ZM25.03 29.49V35H23.89V34.35C23.71 34.5767 23.4734 34.7567 23.18 34.89C22.8934 35.0167 22.5867 35.08 22.26 35.08C21.8267 35.08 21.4367 34.99 21.09 34.81C20.75 34.63 20.48 34.3633 20.28 34.01C20.0867 33.6567 19.99 33.23 19.99 32.73V29.49H21.12V32.56C21.12 33.0533 21.2434 33.4333 21.49 33.7C21.7367 33.96 22.0734 34.09 22.5 34.09C22.9267 34.09 23.2634 33.96 23.51 33.7C23.7634 33.4333 23.89 33.0533 23.89 32.56V29.49H25.03ZM27.6742 30.29C27.8408 30.01 28.0608 29.7933 28.3342 29.64C28.6142 29.48 28.9442 29.4 29.3242 29.4V30.58H29.0342C28.5875 30.58 28.2475 30.6933 28.0142 30.92C27.7875 31.1467 27.6742 31.54 27.6742 32.1V35H26.5342V29.49H27.6742V30.29ZM31.5121 30.29C31.6787 30.01 31.8987 29.7933 32.1721 29.64C32.4521 29.48 32.7821 29.4 33.1621 29.4V30.58H32.8721C32.4254 30.58 32.0854 30.6933 31.8521 30.92C31.6254 31.1467 31.5121 31.54 31.5121 32.1V35H30.3721V29.49H31.5121V30.29ZM39.26 32.11C39.26 32.3167 39.2466 32.5033 39.22 32.67H35.01C35.0433 33.11 35.2066 33.4633 35.5 33.73C35.7933 33.9967 36.1533 34.13 36.58 34.13C37.1933 34.13 37.6266 33.8733 37.88 33.36H39.11C38.9433 33.8667 38.64 34.2833 38.2 34.61C37.7666 34.93 37.2266 35.09 36.58 35.09C36.0533 35.09 35.58 34.9733 35.16 34.74C34.7466 34.5 34.42 34.1667 34.18 33.74C33.9466 33.3067 33.83 32.8067 33.83 32.24C33.83 31.6733 33.9433 31.1767 34.17 30.75C34.4033 30.3167 34.7266 29.9833 35.14 29.75C35.56 29.5167 36.04 29.4 36.58 29.4C37.1 29.4 37.5633 29.5133 37.97 29.74C38.3766 29.9667 38.6933 30.2867 38.92 30.7C39.1466 31.1067 39.26 31.5767 39.26 32.11ZM38.07 31.75C38.0633 31.33 37.9133 30.9933 37.62 30.74C37.3266 30.4867 36.9633 30.36 36.53 30.36C36.1366 30.36 35.8 30.4867 35.52 30.74C35.24 30.9867 35.0733 31.3233 35.02 31.75H38.07ZM43.1618 29.4C43.5952 29.4 43.9818 29.49 44.3218 29.67C44.6685 29.85 44.9385 30.1167 45.1318 30.47C45.3252 30.8233 45.4218 31.25 45.4218 31.75V35H44.2918V31.92C44.2918 31.4267 44.1685 31.05 43.9218 30.79C43.6752 30.5233 43.3385 30.39 42.9118 30.39C42.4852 30.39 42.1452 30.5233 41.8918 30.79C41.6452 31.05 41.5218 31.4267 41.5218 31.92V35H40.3818V29.49H41.5218V30.12C41.7085 29.8933 41.9452 29.7167 42.2318 29.59C42.5252 29.4633 42.8352 29.4 43.1618 29.4ZM48.206 30.42V33.47C48.206 33.6767 48.2526 33.8267 48.346 33.92C48.446 34.0067 48.6126 34.05 48.846 34.05H49.546V35H48.646C48.1326 35 47.7393 34.88 47.466 34.64C47.1926 34.4 47.056 34.01 47.056 33.47V30.42H46.406V29.49H47.056V28.12H48.206V29.49H49.546V30.42H48.206ZM0.451055 42.51C0.451055 41.83 0.607721 41.22 0.921055 40.68C1.24105 40.14 1.67105 39.72 2.21105 39.42C2.75772 39.1133 3.35439 38.96 4.00105 38.96C4.74105 38.96 5.39772 39.1433 5.97106 39.51C6.55106 39.87 6.97106 40.3833 7.23106 41.05H5.86105C5.68105 40.6833 5.43105 40.41 5.11105 40.23C4.79105 40.05 4.42105 39.96 4.00105 39.96C3.54105 39.96 3.13105 40.0633 2.77105 40.27C2.41105 40.4767 2.12772 40.7733 1.92105 41.16C1.72105 41.5467 1.62105 41.9967 1.62105 42.51C1.62105 43.0233 1.72105 43.4733 1.92105 43.86C2.12772 44.2467 2.41105 44.5467 2.77105 44.76C3.13105 44.9667 3.54105 45.07 4.00105 45.07C4.42105 45.07 4.79105 44.98 5.11105 44.8C5.43105 44.62 5.68105 44.3467 5.86105 43.98H7.23106C6.97106 44.6467 6.55106 45.16 5.97106 45.52C5.39772 45.88 4.74105 46.06 4.00105 46.06C3.34772 46.06 2.75105 45.91 2.21105 45.61C1.67105 45.3033 1.24105 44.88 0.921055 44.34C0.607721 43.8 0.451055 43.19 0.451055 42.51ZM10.9554 46.09C10.4354 46.09 9.96543 45.9733 9.54543 45.74C9.12543 45.5 8.79543 45.1667 8.55543 44.74C8.31543 44.3067 8.19543 43.8067 8.19543 43.24C8.19543 42.68 8.31876 42.1833 8.56543 41.75C8.8121 41.3167 9.14876 40.9833 9.57543 40.75C10.0021 40.5167 10.4788 40.4 11.0054 40.4C11.5321 40.4 12.0088 40.5167 12.4354 40.75C12.8621 40.9833 13.1988 41.3167 13.4454 41.75C13.6921 42.1833 13.8154 42.68 13.8154 43.24C13.8154 43.8 13.6888 44.2967 13.4354 44.73C13.1821 45.1633 12.8354 45.5 12.3954 45.74C11.9621 45.9733 11.4821 46.09 10.9554 46.09ZM10.9554 45.1C11.2488 45.1 11.5221 45.03 11.7754 44.89C12.0354 44.75 12.2454 44.54 12.4054 44.26C12.5654 43.98 12.6454 43.64 12.6454 43.24C12.6454 42.84 12.5688 42.5033 12.4154 42.23C12.2621 41.95 12.0588 41.74 11.8054 41.6C11.5521 41.46 11.2788 41.39 10.9854 41.39C10.6921 41.39 10.4188 41.46 10.1654 41.6C9.91876 41.74 9.7221 41.95 9.57543 42.23C9.42876 42.5033 9.35543 42.84 9.35543 43.24C9.35543 43.8333 9.50543 44.2933 9.80543 44.62C10.1121 44.94 10.4954 45.1 10.9554 45.1ZM17.7224 40.4C18.1557 40.4 18.5424 40.49 18.8824 40.67C19.229 40.85 19.499 41.1167 19.6924 41.47C19.8857 41.8233 19.9824 42.25 19.9824 42.75V46H18.8524V42.92C18.8524 42.4267 18.729 42.05 18.4824 41.79C18.2357 41.5233 17.899 41.39 17.4724 41.39C17.0457 41.39 16.7057 41.5233 16.4524 41.79C16.2057 42.05 16.0824 42.4267 16.0824 42.92V46H14.9424V40.49H16.0824V41.12C16.269 40.8933 16.5057 40.7167 16.7924 40.59C17.0857 40.4633 17.3957 40.4 17.7224 40.4ZM24.2165 40.4C24.6499 40.4 25.0365 40.49 25.3765 40.67C25.7232 40.85 25.9932 41.1167 26.1865 41.47C26.3799 41.8233 26.4765 42.25 26.4765 42.75V46H25.3465V42.92C25.3465 42.4267 25.2232 42.05 24.9765 41.79C24.7299 41.5233 24.3932 41.39 23.9665 41.39C23.5399 41.39 23.1999 41.5233 22.9465 41.79C22.6999 42.05 22.5765 42.4267 22.5765 42.92V46H21.4365V40.49H22.5765V41.12C22.7632 40.8933 22.9999 40.7167 23.2865 40.59C23.5799 40.4633 23.8899 40.4 24.2165 40.4ZM32.9807 43.11C32.9807 43.3167 32.9673 43.5033 32.9407 43.67H28.7307C28.764 44.11 28.9273 44.4633 29.2207 44.73C29.514 44.9967 29.874 45.13 30.3007 45.13C30.914 45.13 31.3473 44.8733 31.6007 44.36H32.8307C32.664 44.8667 32.3607 45.2833 31.9207 45.61C31.4873 45.93 30.9473 46.09 30.3007 46.09C29.774 46.09 29.3007 45.9733 28.8807 45.74C28.4673 45.5 28.1407 45.1667 27.9007 44.74C27.6673 44.3067 27.5507 43.8067 27.5507 43.24C27.5507 42.6733 27.664 42.1767 27.8907 41.75C28.124 41.3167 28.4473 40.9833 28.8607 40.75C29.2807 40.5167 29.7607 40.4 30.3007 40.4C30.8207 40.4 31.284 40.5133 31.6907 40.74C32.0973 40.9667 32.414 41.2867 32.6407 41.7C32.8673 42.1067 32.9807 42.5767 32.9807 43.11ZM31.7907 42.75C31.784 42.33 31.634 41.9933 31.3407 41.74C31.0473 41.4867 30.684 41.36 30.2507 41.36C29.8573 41.36 29.5207 41.4867 29.2407 41.74C28.9607 41.9867 28.794 42.3233 28.7407 42.75H31.7907ZM33.7225 43.24C33.7225 42.6733 33.8359 42.1767 34.0625 41.75C34.2959 41.3167 34.6159 40.9833 35.0225 40.75C35.4292 40.5167 35.8959 40.4 36.4225 40.4C37.0892 40.4 37.6392 40.56 38.0725 40.88C38.5125 41.1933 38.8092 41.6433 38.9625 42.23H37.7325C37.6325 41.9567 37.4725 41.7433 37.2525 41.59C37.0325 41.4367 36.7559 41.36 36.4225 41.36C35.9559 41.36 35.5825 41.5267 35.3025 41.86C35.0292 42.1867 34.8925 42.6467 34.8925 43.24C34.8925 43.8333 35.0292 44.2967 35.3025 44.63C35.5825 44.9633 35.9559 45.13 36.4225 45.13C37.0825 45.13 37.5192 44.84 37.7325 44.26H38.9625C38.8025 44.82 38.5025 45.2667 38.0625 45.6C37.6225 45.9267 37.0759 46.09 36.4225 46.09C35.8959 46.09 35.4292 45.9733 35.0225 45.74C34.6159 45.5 34.2959 45.1667 34.0625 44.74C33.8359 44.3067 33.7225 43.8067 33.7225 43.24ZM41.4286 41.42V44.47C41.4286 44.6767 41.4753 44.8267 41.5686 44.92C41.6686 45.0067 41.8353 45.05 42.0686 45.05H42.7686V46H41.8686C41.3553 46 40.962 45.88 40.6886 45.64C40.4153 45.4 40.2786 45.01 40.2786 44.47V41.42H39.6286V40.49H40.2786V39.12H41.4286V40.49H42.7686V41.42H41.4286ZM44.3993 39.76C44.1927 39.76 44.0193 39.69 43.8793 39.55C43.7393 39.41 43.6693 39.2367 43.6693 39.03C43.6693 38.8233 43.7393 38.65 43.8793 38.51C44.0193 38.37 44.1927 38.3 44.3993 38.3C44.5993 38.3 44.7693 38.37 44.9093 38.51C45.0493 38.65 45.1193 38.8233 45.1193 39.03C45.1193 39.2367 45.0493 39.41 44.9093 39.55C44.7693 39.69 44.5993 39.76 44.3993 39.76ZM44.9593 40.49V46H43.8193V40.49H44.9593ZM48.8461 46.09C48.3261 46.09 47.8561 45.9733 47.4361 45.74C47.0161 45.5 46.6861 45.1667 46.4461 44.74C46.2061 44.3067 46.0861 43.8067 46.0861 43.24C46.0861 42.68 46.2094 42.1833 46.4561 41.75C46.7027 41.3167 47.0394 40.9833 47.4661 40.75C47.8927 40.5167 48.3694 40.4 48.8961 40.4C49.4227 40.4 49.8994 40.5167 50.3261 40.75C50.7527 40.9833 51.0894 41.3167 51.3361 41.75C51.5827 42.1833 51.7061 42.68 51.7061 43.24C51.7061 43.8 51.5794 44.2967 51.3261 44.73C51.0727 45.1633 50.7261 45.5 50.2861 45.74C49.8527 45.9733 49.3727 46.09 48.8461 46.09ZM48.8461 45.1C49.1394 45.1 49.4127 45.03 49.6661 44.89C49.9261 44.75 50.1361 44.54 50.2961 44.26C50.4561 43.98 50.5361 43.64 50.5361 43.24C50.5361 42.84 50.4594 42.5033 50.3061 42.23C50.1527 41.95 49.9494 41.74 49.6961 41.6C49.4427 41.46 49.1694 41.39 48.8761 41.39C48.5827 41.39 48.3094 41.46 48.0561 41.6C47.8094 41.74 47.6127 41.95 47.4661 42.23C47.3194 42.5033 47.2461 42.84 47.2461 43.24C47.2461 43.8333 47.3961 44.2933 47.6961 44.62C48.0027 44.94 48.3861 45.1 48.8461 45.1ZM55.613 40.4C56.0463 40.4 56.433 40.49 56.773 40.67C57.1197 40.85 57.3897 41.1167 57.583 41.47C57.7763 41.8233 57.873 42.25 57.873 42.75V46H56.743V42.92C56.743 42.4267 56.6197 42.05 56.373 41.79C56.1263 41.5233 55.7897 41.39 55.363 41.39C54.9363 41.39 54.5963 41.5233 54.343 41.79C54.0963 42.05 53.973 42.4267 53.973 42.92V46H52.833V40.49H53.973V41.12C54.1597 40.8933 54.3963 40.7167 54.683 40.59C54.9763 40.4633 55.2863 40.4 55.613 40.4ZM61.3271 46.09C60.8938 46.09 60.5038 46.0133 60.1571 45.86C59.8171 45.7 59.5471 45.4867 59.3471 45.22C59.1471 44.9467 59.0405 44.6433 59.0271 44.31H60.2071C60.2271 44.5433 60.3371 44.74 60.5371 44.9C60.7438 45.0533 61.0005 45.13 61.3071 45.13C61.6271 45.13 61.8738 45.07 62.0471 44.95C62.2271 44.8233 62.3171 44.6633 62.3171 44.47C62.3171 44.2633 62.2171 44.11 62.0171 44.01C61.8238 43.91 61.5138 43.8 61.0871 43.68C60.6738 43.5667 60.3371 43.4567 60.0771 43.35C59.8171 43.2433 59.5905 43.08 59.3971 42.86C59.2105 42.64 59.1171 42.35 59.1171 41.99C59.1171 41.6967 59.2038 41.43 59.3771 41.19C59.5505 40.9433 59.7971 40.75 60.1171 40.61C60.4438 40.47 60.8171 40.4 61.2371 40.4C61.8638 40.4 62.3671 40.56 62.7471 40.88C63.1338 41.1933 63.3405 41.6233 63.3671 42.17H62.2271C62.2071 41.9233 62.1071 41.7267 61.9271 41.58C61.7471 41.4333 61.5038 41.36 61.1971 41.36C60.8971 41.36 60.6671 41.4167 60.5071 41.53C60.3471 41.6433 60.2671 41.7933 60.2671 41.98C60.2671 42.1267 60.3205 42.25 60.4271 42.35C60.5338 42.45 60.6638 42.53 60.8171 42.59C60.9705 42.6433 61.1971 42.7133 61.4971 42.8C61.8971 42.9067 62.2238 43.0167 62.4771 43.13C62.7371 43.2367 62.9605 43.3967 63.1471 43.61C63.3338 43.8233 63.4305 44.1067 63.4371 44.46C63.4371 44.7733 63.3505 45.0533 63.1771 45.3C63.0038 45.5467 62.7571 45.74 62.4371 45.88C62.1238 46.02 61.7538 46.09 61.3271 46.09Z" fill="white"/>
</svg>
