<svg width="76" height="61" viewBox="0 0 76 61" fill="none" xmlns="http://www.w3.org/2000/svg">
<path fill-rule="evenodd" clip-rule="evenodd" d="M47.1255 19.2868L49.0227 21.0127C49.4956 21.4295 49.5416 22.1506 49.1256 22.6242C48.7087 23.097 47.9877 23.143 47.5141 22.727L47.1255 22.3842V32.1562C47.1255 34.0498 45.5904 35.585 43.6967 35.585H40.2679C39.6367 35.585 39.125 35.0733 39.125 34.442V28.7274C39.1298 28.4297 39.0096 28.1436 38.7936 27.9388C38.5817 27.7164 38.2892 27.5887 37.9821 27.5845C37.3509 27.5845 36.8392 28.0962 36.8392 28.7274V34.442C36.8392 35.0733 36.3274 35.585 35.6962 35.585H32.2674C30.3738 35.585 28.8387 34.0498 28.8387 32.1562V22.3842L28.4501 22.727C27.9736 23.1108 27.2793 23.0513 26.8751 22.592C26.4709 22.1327 26.5001 21.4365 26.9414 21.0127L28.8387 19.2868L29.8102 18.4411L37.2277 11.8692C37.6592 11.4902 38.3049 11.4902 38.7364 11.8692L46.154 18.4411L47.1255 19.2868ZM43.6967 33.2992C44.3279 33.2992 44.8396 32.7875 44.8396 32.1563V20.3498L37.9821 14.258L31.1245 20.3498V32.1563C31.1245 32.7875 31.6362 33.2992 32.2674 33.2992H34.5533V28.7275C34.5533 26.8338 36.0884 25.2987 37.9821 25.2987C39.8757 25.2987 41.4108 26.8338 41.4108 28.7275V33.2992H43.6967Z" fill="white"/>
<path d="M12.895 39.635C13.635 39.635 14.2817 39.7783 14.835 40.065C15.395 40.345 15.825 40.7516 16.125 41.285C16.4317 41.8116 16.585 42.4283 16.585 43.135C16.585 43.8416 16.4317 44.455 16.125 44.975C15.825 45.495 15.395 45.895 14.835 46.175C14.2817 46.4483 13.635 46.585 12.895 46.585H10.625V39.635H12.895ZM12.895 45.655C13.7083 45.655 14.3317 45.435 14.765 44.995C15.1983 44.555 15.415 43.935 15.415 43.135C15.415 42.3283 15.1983 41.6983 14.765 41.245C14.3317 40.7916 13.7083 40.565 12.895 40.565H11.765V45.655H12.895ZM17.3348 43.805C17.3348 43.2516 17.4482 42.7616 17.6748 42.335C17.9082 41.9083 18.2215 41.5783 18.6148 41.345C19.0148 41.105 19.4548 40.985 19.9348 40.985C20.3682 40.985 20.7448 41.0716 21.0648 41.245C21.3915 41.4116 21.6515 41.6216 21.8448 41.875V41.075H22.9948V46.585H21.8448V45.765C21.6515 46.025 21.3882 46.2416 21.0548 46.415C20.7215 46.5883 20.3415 46.675 19.9148 46.675C19.4415 46.675 19.0082 46.555 18.6148 46.315C18.2215 46.0683 17.9082 45.7283 17.6748 45.295C17.4482 44.855 17.3348 44.3583 17.3348 43.805ZM21.8448 43.825C21.8448 43.445 21.7648 43.115 21.6048 42.835C21.4515 42.555 21.2482 42.3416 20.9948 42.195C20.7415 42.0483 20.4682 41.975 20.1748 41.975C19.8815 41.975 19.6082 42.0483 19.3548 42.195C19.1015 42.335 18.8948 42.545 18.7348 42.825C18.5815 43.0983 18.5048 43.425 18.5048 43.805C18.5048 44.185 18.5815 44.5183 18.7348 44.805C18.8948 45.0916 19.1015 45.3116 19.3548 45.465C19.6148 45.6116 19.8882 45.685 20.1748 45.685C20.4682 45.685 20.7415 45.6116 20.9948 45.465C21.2482 45.3183 21.4515 45.105 21.6048 44.825C21.7648 44.5383 21.8448 44.205 21.8448 43.825ZM26.4922 46.675C26.0589 46.675 25.6689 46.5983 25.3222 46.445C24.9822 46.285 24.7122 46.0716 24.5122 45.805C24.3122 45.5316 24.2055 45.2283 24.1922 44.895H25.3722C25.3922 45.1283 25.5022 45.325 25.7022 45.485C25.9089 45.6383 26.1655 45.715 26.4722 45.715C26.7922 45.715 27.0389 45.655 27.2122 45.535C27.3922 45.4083 27.4822 45.2483 27.4822 45.055C27.4822 44.8483 27.3822 44.695 27.1822 44.595C26.9889 44.495 26.6789 44.385 26.2522 44.265C25.8389 44.1516 25.5022 44.0416 25.2422 43.935C24.9822 43.8283 24.7555 43.665 24.5622 43.445C24.3755 43.225 24.2822 42.935 24.2822 42.575C24.2822 42.2816 24.3689 42.015 24.5422 41.775C24.7155 41.5283 24.9622 41.335 25.2822 41.195C25.6089 41.055 25.9822 40.985 26.4022 40.985C27.0289 40.985 27.5322 41.145 27.9122 41.465C28.2989 41.7783 28.5055 42.2083 28.5322 42.755H27.3922C27.3722 42.5083 27.2722 42.3116 27.0922 42.165C26.9122 42.0183 26.6689 41.945 26.3622 41.945C26.0622 41.945 25.8322 42.0016 25.6722 42.115C25.5122 42.2283 25.4322 42.3783 25.4322 42.565C25.4322 42.7116 25.4855 42.835 25.5922 42.935C25.6989 43.035 25.8289 43.115 25.9822 43.175C26.1355 43.2283 26.3622 43.2983 26.6622 43.385C27.0622 43.4916 27.3889 43.6016 27.6422 43.715C27.9022 43.8216 28.1255 43.9816 28.3122 44.195C28.4989 44.4083 28.5955 44.6916 28.6022 45.045C28.6022 45.3583 28.5155 45.6383 28.3422 45.885C28.1689 46.1316 27.9222 46.325 27.6022 46.465C27.2889 46.605 26.9189 46.675 26.4922 46.675ZM32.684 40.985C33.104 40.985 33.4773 41.075 33.804 41.255C34.1373 41.435 34.3973 41.7016 34.584 42.055C34.7773 42.4083 34.874 42.835 34.874 43.335V46.585H33.744V43.505C33.744 43.0116 33.6207 42.635 33.374 42.375C33.1273 42.1083 32.7907 41.975 32.364 41.975C31.9373 41.975 31.5973 42.1083 31.344 42.375C31.0973 42.635 30.974 43.0116 30.974 43.505V46.585H29.834V39.185H30.974V41.715C31.1673 41.4816 31.4107 41.3016 31.704 41.175C32.004 41.0483 32.3307 40.985 32.684 40.985ZM37.4681 41.895C37.6615 41.6283 37.9248 41.4116 38.2581 41.245C38.5981 41.0716 38.9748 40.985 39.3881 40.985C39.8748 40.985 40.3148 41.1016 40.7081 41.335C41.1015 41.5683 41.4115 41.9016 41.6381 42.335C41.8648 42.7616 41.9781 43.2516 41.9781 43.805C41.9781 44.3583 41.8648 44.855 41.6381 45.295C41.4115 45.7283 41.0981 46.0683 40.6981 46.315C40.3048 46.555 39.8681 46.675 39.3881 46.675C38.9615 46.675 38.5815 46.5916 38.2481 46.425C37.9215 46.2583 37.6615 46.045 37.4681 45.785V46.585H36.3281V39.185H37.4681V41.895ZM40.8181 43.805C40.8181 43.425 40.7381 43.0983 40.5781 42.825C40.4248 42.545 40.2181 42.335 39.9581 42.195C39.7048 42.0483 39.4315 41.975 39.1381 41.975C38.8515 41.975 38.5781 42.0483 38.3181 42.195C38.0648 42.3416 37.8581 42.555 37.6981 42.835C37.5448 43.115 37.4681 43.445 37.4681 43.825C37.4681 44.205 37.5448 44.5383 37.6981 44.825C37.8581 45.105 38.0648 45.3183 38.3181 45.465C38.5781 45.6116 38.8515 45.685 39.1381 45.685C39.4315 45.685 39.7048 45.6116 39.9581 45.465C40.2181 45.3116 40.4248 45.0916 40.5781 44.805C40.7381 44.5183 40.8181 44.185 40.8181 43.805ZM45.4955 46.675C44.9755 46.675 44.5055 46.5583 44.0855 46.325C43.6655 46.085 43.3355 45.7516 43.0955 45.325C42.8555 44.8916 42.7355 44.3916 42.7355 43.825C42.7355 43.265 42.8588 42.7683 43.1055 42.335C43.3521 41.9016 43.6888 41.5683 44.1155 41.335C44.5421 41.1016 45.0188 40.985 45.5455 40.985C46.0721 40.985 46.5488 41.1016 46.9755 41.335C47.4021 41.5683 47.7388 41.9016 47.9855 42.335C48.2321 42.7683 48.3555 43.265 48.3555 43.825C48.3555 44.385 48.2288 44.8816 47.9755 45.315C47.7221 45.7483 47.3755 46.085 46.9355 46.325C46.5021 46.5583 46.0221 46.675 45.4955 46.675ZM45.4955 45.685C45.7888 45.685 46.0621 45.615 46.3155 45.475C46.5755 45.335 46.7855 45.125 46.9455 44.845C47.1055 44.565 47.1855 44.225 47.1855 43.825C47.1855 43.425 47.1088 43.0883 46.9555 42.815C46.8021 42.535 46.5988 42.325 46.3455 42.185C46.0921 42.045 45.8188 41.975 45.5255 41.975C45.2321 41.975 44.9588 42.045 44.7055 42.185C44.4588 42.325 44.2621 42.535 44.1155 42.815C43.9688 43.0883 43.8955 43.425 43.8955 43.825C43.8955 44.4183 44.0455 44.8783 44.3455 45.205C44.6521 45.525 45.0355 45.685 45.4955 45.685ZM49.1024 43.805C49.1024 43.2516 49.2158 42.7616 49.4424 42.335C49.6758 41.9083 49.9891 41.5783 50.3824 41.345C50.7824 41.105 51.2224 40.985 51.7024 40.985C52.1358 40.985 52.5124 41.0716 52.8324 41.245C53.1591 41.4116 53.4191 41.6216 53.6124 41.875V41.075H54.7624V46.585H53.6124V45.765C53.4191 46.025 53.1558 46.2416 52.8224 46.415C52.4891 46.5883 52.1091 46.675 51.6824 46.675C51.2091 46.675 50.7758 46.555 50.3824 46.315C49.9891 46.0683 49.6758 45.7283 49.4424 45.295C49.2158 44.855 49.1024 44.3583 49.1024 43.805ZM53.6124 43.825C53.6124 43.445 53.5324 43.115 53.3724 42.835C53.2191 42.555 53.0158 42.3416 52.7624 42.195C52.5091 42.0483 52.2358 41.975 51.9424 41.975C51.6491 41.975 51.3758 42.0483 51.1224 42.195C50.8691 42.335 50.6624 42.545 50.5024 42.825C50.3491 43.0983 50.2724 43.425 50.2724 43.805C50.2724 44.185 50.3491 44.5183 50.5024 44.805C50.6624 45.0916 50.8691 45.3116 51.1224 45.465C51.3824 45.6116 51.6558 45.685 51.9424 45.685C52.2358 45.685 52.5091 45.6116 52.7624 45.465C53.0158 45.3183 53.2191 45.105 53.3724 44.825C53.5324 44.5383 53.6124 44.205 53.6124 43.825ZM57.3998 41.875C57.5664 41.595 57.7864 41.3783 58.0598 41.225C58.3398 41.065 58.6698 40.985 59.0498 40.985V42.165H58.7598C58.3131 42.165 57.9731 42.2783 57.7398 42.505C57.5131 42.7316 57.3998 43.125 57.3998 43.685V46.585H56.2598V41.075H57.3998V41.875ZM59.7177 43.805C59.7177 43.2516 59.831 42.7616 60.0577 42.335C60.291 41.9083 60.6043 41.5783 60.9977 41.345C61.3977 41.105 61.841 40.985 62.3277 40.985C62.6877 40.985 63.041 41.065 63.3877 41.225C63.741 41.3783 64.021 41.585 64.2277 41.845V39.185H65.3777V46.585H64.2277V45.755C64.041 46.0216 63.781 46.2416 63.4477 46.415C63.121 46.5883 62.7443 46.675 62.3177 46.675C61.8377 46.675 61.3977 46.555 60.9977 46.315C60.6043 46.0683 60.291 45.7283 60.0577 45.295C59.831 44.855 59.7177 44.3583 59.7177 43.805ZM64.2277 43.825C64.2277 43.445 64.1477 43.115 63.9877 42.835C63.8343 42.555 63.631 42.3416 63.3777 42.195C63.1243 42.0483 62.851 41.975 62.5577 41.975C62.2643 41.975 61.991 42.0483 61.7377 42.195C61.4843 42.335 61.2777 42.545 61.1177 42.825C60.9643 43.0983 60.8877 43.425 60.8877 43.805C60.8877 44.185 60.9643 44.5183 61.1177 44.805C61.2777 45.0916 61.4843 45.3116 61.7377 45.465C61.9977 45.6116 62.271 45.685 62.5577 45.685C62.851 45.685 63.1243 45.6116 63.3777 45.465C63.631 45.3183 63.8343 45.105 63.9877 44.825C64.1477 44.5383 64.2277 44.205 64.2277 43.825Z" fill="white"/>
</svg>
