<svg width="78" height="61" viewBox="0 0 78 61" fill="none" xmlns="http://www.w3.org/2000/svg">
<g filter="url(#filter0_b_1300_7667)">
<rect width="78" height="60.1724" rx="10" fill="#793020"/>
</g>
<path fill-rule="evenodd" clip-rule="evenodd" d="M48.1255 19.2019L50.0227 20.9277C50.4956 21.3446 50.5416 22.0656 50.1256 22.5392C49.7087 23.0121 48.9877 23.0581 48.5141 22.6421L48.1255 22.2992V32.0712C48.1255 33.9649 46.5904 35.5 44.6967 35.5H41.2679C40.6367 35.5 40.125 34.9883 40.125 34.3571V28.6424C40.1298 28.3448 40.0096 28.0587 39.7936 27.8538C39.5817 27.6315 39.2892 27.5038 38.9821 27.4995C38.3509 27.4995 37.8392 28.0112 37.8392 28.6424V34.3571C37.8392 34.9883 37.3274 35.5 36.6962 35.5H33.2674C31.3738 35.5 29.8387 33.9649 29.8387 32.0712V22.2992L29.4501 22.6421C28.9736 23.0259 28.2793 22.9663 27.8751 22.507C27.4709 22.0477 27.5001 21.3515 27.9414 20.9277L29.8387 19.2019L30.8102 18.3561L38.2277 11.7843C38.6592 11.4052 39.3049 11.4052 39.7364 11.7843L47.154 18.3561L48.1255 19.2019ZM44.6967 33.2142C45.3279 33.2142 45.8396 32.7025 45.8396 32.0713V20.2649L38.9821 14.1731L32.1245 20.2649V32.0713C32.1245 32.7025 32.6362 33.2142 33.2674 33.2142H35.5533V28.6425C35.5533 26.7489 37.0884 25.2137 38.9821 25.2137C40.8757 25.2137 42.4108 26.7489 42.4108 28.6425V33.2142H44.6967Z" fill="white"/>
<path d="M13.895 39.55C14.635 39.55 15.2817 39.6933 15.835 39.98C16.395 40.26 16.825 40.6667 17.125 41.2C17.4317 41.7267 17.585 42.3433 17.585 43.05C17.585 43.7567 17.4317 44.37 17.125 44.89C16.825 45.41 16.395 45.81 15.835 46.09C15.2817 46.3633 14.635 46.5 13.895 46.5H11.625V39.55H13.895ZM13.895 45.57C14.7083 45.57 15.3317 45.35 15.765 44.91C16.1983 44.47 16.415 43.85 16.415 43.05C16.415 42.2433 16.1983 41.6133 15.765 41.16C15.3317 40.7067 14.7083 40.48 13.895 40.48H12.765V45.57H13.895ZM18.3348 43.72C18.3348 43.1667 18.4482 42.6767 18.6748 42.25C18.9082 41.8233 19.2215 41.4933 19.6148 41.26C20.0148 41.02 20.4548 40.9 20.9348 40.9C21.3682 40.9 21.7448 40.9867 22.0648 41.16C22.3915 41.3267 22.6515 41.5367 22.8448 41.79V40.99H23.9948V46.5H22.8448V45.68C22.6515 45.94 22.3882 46.1567 22.0548 46.33C21.7215 46.5033 21.3415 46.59 20.9148 46.59C20.4415 46.59 20.0082 46.47 19.6148 46.23C19.2215 45.9833 18.9082 45.6433 18.6748 45.21C18.4482 44.77 18.3348 44.2733 18.3348 43.72ZM22.8448 43.74C22.8448 43.36 22.7648 43.03 22.6048 42.75C22.4515 42.47 22.2482 42.2567 21.9948 42.11C21.7415 41.9633 21.4682 41.89 21.1748 41.89C20.8815 41.89 20.6082 41.9633 20.3548 42.11C20.1015 42.25 19.8948 42.46 19.7348 42.74C19.5815 43.0133 19.5048 43.34 19.5048 43.72C19.5048 44.1 19.5815 44.4333 19.7348 44.72C19.8948 45.0067 20.1015 45.2267 20.3548 45.38C20.6148 45.5267 20.8882 45.6 21.1748 45.6C21.4682 45.6 21.7415 45.5267 21.9948 45.38C22.2482 45.2333 22.4515 45.02 22.6048 44.74C22.7648 44.4533 22.8448 44.12 22.8448 43.74ZM27.4922 46.59C27.0589 46.59 26.6689 46.5133 26.3222 46.36C25.9822 46.2 25.7122 45.9867 25.5122 45.72C25.3122 45.4467 25.2055 45.1433 25.1922 44.81H26.3722C26.3922 45.0433 26.5022 45.24 26.7022 45.4C26.9089 45.5533 27.1655 45.63 27.4722 45.63C27.7922 45.63 28.0389 45.57 28.2122 45.45C28.3922 45.3233 28.4822 45.1633 28.4822 44.97C28.4822 44.7633 28.3822 44.61 28.1822 44.51C27.9889 44.41 27.6789 44.3 27.2522 44.18C26.8389 44.0667 26.5022 43.9567 26.2422 43.85C25.9822 43.7433 25.7555 43.58 25.5622 43.36C25.3755 43.14 25.2822 42.85 25.2822 42.49C25.2822 42.1967 25.3689 41.93 25.5422 41.69C25.7155 41.4433 25.9622 41.25 26.2822 41.11C26.6089 40.97 26.9822 40.9 27.4022 40.9C28.0289 40.9 28.5322 41.06 28.9122 41.38C29.2989 41.6933 29.5055 42.1233 29.5322 42.67H28.3922C28.3722 42.4233 28.2722 42.2267 28.0922 42.08C27.9122 41.9333 27.6689 41.86 27.3622 41.86C27.0622 41.86 26.8322 41.9167 26.6722 42.03C26.5122 42.1433 26.4322 42.2933 26.4322 42.48C26.4322 42.6267 26.4855 42.75 26.5922 42.85C26.6989 42.95 26.8289 43.03 26.9822 43.09C27.1355 43.1433 27.3622 43.2133 27.6622 43.3C28.0622 43.4067 28.3889 43.5167 28.6422 43.63C28.9022 43.7367 29.1255 43.8967 29.3122 44.11C29.4989 44.3233 29.5955 44.6067 29.6022 44.96C29.6022 45.2733 29.5155 45.5533 29.3422 45.8C29.1689 46.0467 28.9222 46.24 28.6022 46.38C28.2889 46.52 27.9189 46.59 27.4922 46.59ZM33.684 40.9C34.104 40.9 34.4773 40.99 34.804 41.17C35.1373 41.35 35.3973 41.6167 35.584 41.97C35.7773 42.3233 35.874 42.75 35.874 43.25V46.5H34.744V43.42C34.744 42.9267 34.6207 42.55 34.374 42.29C34.1273 42.0233 33.7907 41.89 33.364 41.89C32.9373 41.89 32.5973 42.0233 32.344 42.29C32.0973 42.55 31.974 42.9267 31.974 43.42V46.5H30.834V39.1H31.974V41.63C32.1673 41.3967 32.4107 41.2167 32.704 41.09C33.004 40.9633 33.3307 40.9 33.684 40.9ZM38.4681 41.81C38.6615 41.5433 38.9248 41.3267 39.2581 41.16C39.5981 40.9867 39.9748 40.9 40.3881 40.9C40.8748 40.9 41.3148 41.0167 41.7081 41.25C42.1015 41.4833 42.4115 41.8167 42.6381 42.25C42.8648 42.6767 42.9781 43.1667 42.9781 43.72C42.9781 44.2733 42.8648 44.77 42.6381 45.21C42.4115 45.6433 42.0981 45.9833 41.6981 46.23C41.3048 46.47 40.8681 46.59 40.3881 46.59C39.9615 46.59 39.5815 46.5067 39.2481 46.34C38.9215 46.1733 38.6615 45.96 38.4681 45.7V46.5H37.3281V39.1H38.4681V41.81ZM41.8181 43.72C41.8181 43.34 41.7381 43.0133 41.5781 42.74C41.4248 42.46 41.2181 42.25 40.9581 42.11C40.7048 41.9633 40.4315 41.89 40.1381 41.89C39.8515 41.89 39.5781 41.9633 39.3181 42.11C39.0648 42.2567 38.8581 42.47 38.6981 42.75C38.5448 43.03 38.4681 43.36 38.4681 43.74C38.4681 44.12 38.5448 44.4533 38.6981 44.74C38.8581 45.02 39.0648 45.2333 39.3181 45.38C39.5781 45.5267 39.8515 45.6 40.1381 45.6C40.4315 45.6 40.7048 45.5267 40.9581 45.38C41.2181 45.2267 41.4248 45.0067 41.5781 44.72C41.7381 44.4333 41.8181 44.1 41.8181 43.72ZM46.4955 46.59C45.9755 46.59 45.5055 46.4733 45.0855 46.24C44.6655 46 44.3355 45.6667 44.0955 45.24C43.8555 44.8067 43.7355 44.3067 43.7355 43.74C43.7355 43.18 43.8588 42.6833 44.1055 42.25C44.3521 41.8167 44.6888 41.4833 45.1155 41.25C45.5421 41.0167 46.0188 40.9 46.5455 40.9C47.0721 40.9 47.5488 41.0167 47.9755 41.25C48.4021 41.4833 48.7388 41.8167 48.9855 42.25C49.2321 42.6833 49.3555 43.18 49.3555 43.74C49.3555 44.3 49.2288 44.7967 48.9755 45.23C48.7221 45.6633 48.3755 46 47.9355 46.24C47.5021 46.4733 47.0221 46.59 46.4955 46.59ZM46.4955 45.6C46.7888 45.6 47.0621 45.53 47.3155 45.39C47.5755 45.25 47.7855 45.04 47.9455 44.76C48.1055 44.48 48.1855 44.14 48.1855 43.74C48.1855 43.34 48.1088 43.0033 47.9555 42.73C47.8021 42.45 47.5988 42.24 47.3455 42.1C47.0921 41.96 46.8188 41.89 46.5255 41.89C46.2321 41.89 45.9588 41.96 45.7055 42.1C45.4588 42.24 45.2621 42.45 45.1155 42.73C44.9688 43.0033 44.8955 43.34 44.8955 43.74C44.8955 44.3333 45.0455 44.7933 45.3455 45.12C45.6521 45.44 46.0355 45.6 46.4955 45.6ZM50.1024 43.72C50.1024 43.1667 50.2158 42.6767 50.4424 42.25C50.6758 41.8233 50.9891 41.4933 51.3824 41.26C51.7824 41.02 52.2224 40.9 52.7024 40.9C53.1358 40.9 53.5124 40.9867 53.8324 41.16C54.1591 41.3267 54.4191 41.5367 54.6124 41.79V40.99H55.7624V46.5H54.6124V45.68C54.4191 45.94 54.1558 46.1567 53.8224 46.33C53.4891 46.5033 53.1091 46.59 52.6824 46.59C52.2091 46.59 51.7758 46.47 51.3824 46.23C50.9891 45.9833 50.6758 45.6433 50.4424 45.21C50.2158 44.77 50.1024 44.2733 50.1024 43.72ZM54.6124 43.74C54.6124 43.36 54.5324 43.03 54.3724 42.75C54.2191 42.47 54.0158 42.2567 53.7624 42.11C53.5091 41.9633 53.2358 41.89 52.9424 41.89C52.6491 41.89 52.3758 41.9633 52.1224 42.11C51.8691 42.25 51.6624 42.46 51.5024 42.74C51.3491 43.0133 51.2724 43.34 51.2724 43.72C51.2724 44.1 51.3491 44.4333 51.5024 44.72C51.6624 45.0067 51.8691 45.2267 52.1224 45.38C52.3824 45.5267 52.6558 45.6 52.9424 45.6C53.2358 45.6 53.5091 45.5267 53.7624 45.38C54.0158 45.2333 54.2191 45.02 54.3724 44.74C54.5324 44.4533 54.6124 44.12 54.6124 43.74ZM58.3998 41.79C58.5664 41.51 58.7864 41.2933 59.0598 41.14C59.3398 40.98 59.6698 40.9 60.0498 40.9V42.08H59.7598C59.3131 42.08 58.9731 42.1933 58.7398 42.42C58.5131 42.6467 58.3998 43.04 58.3998 43.6V46.5H57.2598V40.99H58.3998V41.79ZM60.7177 43.72C60.7177 43.1667 60.831 42.6767 61.0577 42.25C61.291 41.8233 61.6043 41.4933 61.9977 41.26C62.3977 41.02 62.841 40.9 63.3277 40.9C63.6877 40.9 64.041 40.98 64.3877 41.14C64.741 41.2933 65.021 41.5 65.2277 41.76V39.1H66.3777V46.5H65.2277V45.67C65.041 45.9367 64.781 46.1567 64.4477 46.33C64.121 46.5033 63.7443 46.59 63.3177 46.59C62.8377 46.59 62.3977 46.47 61.9977 46.23C61.6043 45.9833 61.291 45.6433 61.0577 45.21C60.831 44.77 60.7177 44.2733 60.7177 43.72ZM65.2277 43.74C65.2277 43.36 65.1477 43.03 64.9877 42.75C64.8343 42.47 64.631 42.2567 64.3777 42.11C64.1243 41.9633 63.851 41.89 63.5577 41.89C63.2643 41.89 62.991 41.9633 62.7377 42.11C62.4843 42.25 62.2777 42.46 62.1177 42.74C61.9643 43.0133 61.8877 43.34 61.8877 43.72C61.8877 44.1 61.9643 44.4333 62.1177 44.72C62.2777 45.0067 62.4843 45.2267 62.7377 45.38C62.9977 45.5267 63.271 45.6 63.5577 45.6C63.851 45.6 64.1243 45.5267 64.3777 45.38C64.631 45.2333 64.8343 45.02 64.9877 44.74C65.1477 44.4533 65.2277 44.12 65.2277 43.74Z" fill="white"/>
<defs>
<filter id="filter0_b_1300_7667" x="-187" y="-187" width="452" height="434.172" filterUnits="userSpaceOnUse" color-interpolation-filters="sRGB">
<feFlood flood-opacity="0" result="BackgroundImageFix"/>
<feGaussianBlur in="BackgroundImageFix" stdDeviation="93.5"/>
<feComposite in2="SourceAlpha" operator="in" result="effect1_backgroundBlur_1300_7667"/>
<feBlend mode="normal" in="SourceGraphic" in2="effect1_backgroundBlur_1300_7667" result="shape"/>
</filter>
</defs>
</svg>
