<svg width="45" height="46" viewBox="0 0 45 46" fill="none" xmlns="http://www.w3.org/2000/svg">
<path d="M22.0903 10.2666C23.8008 10.2666 25.1674 10.7361 26.1904 11.6752C27.2301 12.6143 27.7499 13.8971 27.7499 15.5237C27.7499 17.2174 27.2133 18.4919 26.1401 19.3471C25.0668 20.2023 23.6414 20.6299 21.8639 20.6299L21.7633 22.6171H19.2731L19.1473 18.6679H19.9774C21.604 18.6679 22.8449 18.4499 23.7001 18.0139C24.5721 17.5779 25.0081 16.7479 25.0081 15.5237C25.0081 14.6349 24.7482 13.939 24.2284 13.4359C23.7253 12.9329 23.021 12.6813 22.1155 12.6813C21.2099 12.6813 20.4972 12.9245 19.9774 13.4108C19.4575 13.8971 19.1976 14.5763 19.1976 15.4483H16.5062C16.5062 14.4421 16.7325 13.5449 17.1853 12.7568C17.6381 11.9686 18.2837 11.3566 19.1221 10.9206C19.9774 10.4846 20.9668 10.2666 22.0903 10.2666ZM20.4805 28.1761C19.9606 28.1761 19.5246 28 19.1725 27.6478C18.8203 27.2957 18.6442 26.8597 18.6442 26.3398C18.6442 25.82 18.8203 25.384 19.1725 25.0319C19.5246 24.6797 19.9606 24.5036 20.4805 24.5036C20.9835 24.5036 21.4111 24.6797 21.7633 25.0319C22.1155 25.384 22.2915 25.82 22.2915 26.3398C22.2915 26.8597 22.1155 27.2957 21.7633 27.6478C21.4111 28 20.9835 28.1761 20.4805 28.1761Z" fill="white"/>
<path d="M3.344 41.077C2.83067 41.077 2.36867 40.989 1.958 40.813C1.54733 40.6297 1.22467 40.373 0.99 40.043C0.755333 39.713 0.638 39.328 0.638 38.888H1.98C2.00933 39.218 2.13767 39.4893 2.365 39.702C2.59967 39.9147 2.926 40.021 3.344 40.021C3.77667 40.021 4.114 39.9183 4.356 39.713C4.598 39.5003 4.719 39.229 4.719 38.899C4.719 38.6423 4.642 38.4333 4.488 38.272C4.34133 38.1107 4.15433 37.986 3.927 37.898C3.707 37.81 3.399 37.7147 3.003 37.612C2.50433 37.48 2.09733 37.348 1.782 37.216C1.474 37.0767 1.21 36.864 0.99 36.578C0.77 36.292 0.66 35.9107 0.66 35.434C0.66 34.994 0.77 34.609 0.99 34.279C1.21 33.949 1.518 33.696 1.914 33.52C2.31 33.344 2.76833 33.256 3.289 33.256C4.02967 33.256 4.63467 33.443 5.104 33.817C5.58067 34.1837 5.84467 34.6897 5.896 35.335H4.51C4.488 35.0563 4.356 34.818 4.114 34.62C3.872 34.422 3.553 34.323 3.157 34.323C2.79767 34.323 2.50433 34.4147 2.277 34.598C2.04967 34.7813 1.936 35.0453 1.936 35.39C1.936 35.6247 2.00567 35.819 2.145 35.973C2.29167 36.1197 2.475 36.237 2.695 36.325C2.915 36.413 3.21567 36.5083 3.597 36.611C4.103 36.7503 4.51367 36.8897 4.829 37.029C5.15167 37.1683 5.423 37.3847 5.643 37.678C5.87033 37.964 5.984 38.349 5.984 38.833C5.984 39.2217 5.87767 39.5883 5.665 39.933C5.45967 40.2777 5.15533 40.5563 4.752 40.769C4.356 40.9743 3.88667 41.077 3.344 41.077ZM12.9527 34.939V41H11.6987V40.285C11.5007 40.5343 11.2403 40.7323 10.9177 40.879C10.6023 41.0183 10.265 41.088 9.90567 41.088C9.42901 41.088 9.00001 40.989 8.61867 40.791C8.24467 40.593 7.94767 40.2997 7.72767 39.911C7.51501 39.5223 7.40867 39.053 7.40867 38.503V34.939H8.65167V38.316C8.65167 38.8587 8.78734 39.2767 9.05867 39.57C9.33001 39.856 9.70034 39.999 10.1697 39.999C10.639 39.999 11.0093 39.856 11.2807 39.57C11.5593 39.2767 11.6987 38.8587 11.6987 38.316V34.939H12.9527ZM15.8612 35.83C16.0739 35.5513 16.3636 35.3167 16.7302 35.126C17.0969 34.9353 17.5112 34.84 17.9732 34.84C18.5012 34.84 18.9816 34.972 19.4142 35.236C19.8542 35.4927 20.1989 35.8557 20.4482 36.325C20.6976 36.7943 20.8222 37.3333 20.8222 37.942C20.8222 38.5507 20.6976 39.097 20.4482 39.581C20.1989 40.0577 19.8542 40.4317 19.4142 40.703C18.9816 40.967 18.5012 41.099 17.9732 41.099C17.5112 41.099 17.1006 41.0073 16.7412 40.824C16.3819 40.6333 16.0886 40.3987 15.8612 40.12V43.882H14.6072V34.939H15.8612V35.83ZM19.5462 37.942C19.5462 37.524 19.4582 37.1647 19.2822 36.864C19.1136 36.556 18.8862 36.325 18.6002 36.171C18.3216 36.0097 18.0209 35.929 17.6982 35.929C17.3829 35.929 17.0822 36.0097 16.7962 36.171C16.5176 36.3323 16.2902 36.567 16.1142 36.875C15.9456 37.183 15.8612 37.546 15.8612 37.964C15.8612 38.382 15.9456 38.7487 16.1142 39.064C16.2902 39.372 16.5176 39.6067 16.7962 39.768C17.0822 39.9293 17.3829 40.01 17.6982 40.01C18.0209 40.01 18.3216 39.9293 18.6002 39.768C18.8862 39.5993 19.1136 39.3573 19.2822 39.042C19.4582 38.7267 19.5462 38.36 19.5462 37.942ZM23.3163 35.83C23.529 35.5513 23.8186 35.3167 24.1853 35.126C24.552 34.9353 24.9663 34.84 25.4283 34.84C25.9563 34.84 26.4366 34.972 26.8693 35.236C27.3093 35.4927 27.654 35.8557 27.9033 36.325C28.1526 36.7943 28.2773 37.3333 28.2773 37.942C28.2773 38.5507 28.1526 39.097 27.9033 39.581C27.654 40.0577 27.3093 40.4317 26.8693 40.703C26.4366 40.967 25.9563 41.099 25.4283 41.099C24.9663 41.099 24.5556 41.0073 24.1963 40.824C23.837 40.6333 23.5436 40.3987 23.3163 40.12V43.882H22.0623V34.939H23.3163V35.83ZM27.0013 37.942C27.0013 37.524 26.9133 37.1647 26.7373 36.864C26.5686 36.556 26.3413 36.325 26.0553 36.171C25.7766 36.0097 25.476 35.929 25.1533 35.929C24.838 35.929 24.5373 36.0097 24.2513 36.171C23.9726 36.3323 23.7453 36.567 23.5693 36.875C23.4006 37.183 23.3163 37.546 23.3163 37.964C23.3163 38.382 23.4006 38.7487 23.5693 39.064C23.7453 39.372 23.9726 39.6067 24.2513 39.768C24.5373 39.9293 24.838 40.01 25.1533 40.01C25.476 40.01 25.7766 39.9293 26.0553 39.768C26.3413 39.5993 26.5686 39.3573 26.7373 39.042C26.9133 38.7267 27.0013 38.36 27.0013 37.942ZM32.1464 41.099C31.5744 41.099 31.0574 40.9707 30.5954 40.714C30.1334 40.45 29.7704 40.0833 29.5064 39.614C29.2424 39.1373 29.1104 38.5873 29.1104 37.964C29.1104 37.348 29.246 36.8017 29.5174 36.325C29.7887 35.8483 30.159 35.4817 30.6284 35.225C31.0977 34.9683 31.622 34.84 32.2014 34.84C32.7807 34.84 33.305 34.9683 33.7744 35.225C34.2437 35.4817 34.614 35.8483 34.8854 36.325C35.1567 36.8017 35.2924 37.348 35.2924 37.964C35.2924 38.58 35.153 39.1263 34.8744 39.603C34.5957 40.0797 34.2144 40.45 33.7304 40.714C33.2537 40.9707 32.7257 41.099 32.1464 41.099ZM32.1464 40.01C32.469 40.01 32.7697 39.933 33.0484 39.779C33.3344 39.625 33.5654 39.394 33.7414 39.086C33.9174 38.778 34.0054 38.404 34.0054 37.964C34.0054 37.524 33.921 37.1537 33.7524 36.853C33.5837 36.545 33.36 36.314 33.0814 36.16C32.8027 36.006 32.502 35.929 32.1794 35.929C31.8567 35.929 31.556 36.006 31.2774 36.16C31.006 36.314 30.7897 36.545 30.6284 36.853C30.467 37.1537 30.3864 37.524 30.3864 37.964C30.3864 38.6167 30.5514 39.1227 30.8814 39.482C31.2187 39.834 31.6404 40.01 32.1464 40.01ZM37.786 35.819C37.9694 35.511 38.2114 35.2727 38.512 35.104C38.82 34.928 39.183 34.84 39.601 34.84V36.138H39.282C38.7907 36.138 38.4167 36.2627 38.16 36.512C37.9107 36.7613 37.786 37.194 37.786 37.81V41H36.532V34.939H37.786V35.819ZM42.2167 35.962V39.317C42.2167 39.5443 42.268 39.7093 42.3707 39.812C42.4807 39.9073 42.664 39.955 42.9207 39.955H43.6907V41H42.7007C42.136 41 41.7034 40.868 41.4027 40.604C41.102 40.34 40.9517 39.911 40.9517 39.317V35.962H40.2367V34.939H40.9517V33.432H42.2167V34.939H43.6907V35.962H42.2167Z" fill="white"/>
</svg>
