<svg width="80" height="39" viewBox="0 0 80 39" fill="none" xmlns="http://www.w3.org/2000/svg">
<rect x="27.5" y="1" width="25" height="21" rx="3" stroke="white" stroke-width="2"/>
<path d="M47.66 16.5601H39.38" stroke="white" stroke-width="1.6" stroke-linecap="round"/>
<path d="M33 15.2803L36.7741 11.8836C37.2155 11.4863 37.2155 10.7942 36.7741 10.397L33 7.00027" stroke="white" stroke-width="1.8" stroke-linecap="round"/>
<path d="M22.9451 30.05V30.98H21.0951V37H19.9551V30.98H18.0951V30.05H22.9451ZM29.1496 34.11C29.1496 34.3167 29.1363 34.5033 29.1096 34.67H24.8996C24.9329 35.11 25.0963 35.4633 25.3896 35.73C25.6829 35.9967 26.0429 36.13 26.4696 36.13C27.0829 36.13 27.5163 35.8733 27.7696 35.36H28.9996C28.8329 35.8667 28.5296 36.2833 28.0896 36.61C27.6563 36.93 27.1163 37.09 26.4696 37.09C25.9429 37.09 25.4696 36.9733 25.0496 36.74C24.6363 36.5 24.3096 36.1667 24.0696 35.74C23.8363 35.3067 23.7196 34.8067 23.7196 34.24C23.7196 33.6733 23.8329 33.1767 24.0596 32.75C24.2929 32.3167 24.6163 31.9833 25.0296 31.75C25.4496 31.5167 25.9296 31.4 26.4696 31.4C26.9896 31.4 27.4529 31.5133 27.8596 31.74C28.2663 31.9667 28.5829 32.2867 28.8096 32.7C29.0363 33.1067 29.1496 33.5767 29.1496 34.11ZM27.9596 33.75C27.9529 33.33 27.8029 32.9933 27.5096 32.74C27.2163 32.4867 26.8529 32.36 26.4196 32.36C26.0263 32.36 25.6896 32.4867 25.4096 32.74C25.1296 32.9867 24.9629 33.3233 24.9096 33.75H27.9596ZM31.4115 32.29C31.5782 32.01 31.7982 31.7933 32.0715 31.64C32.3515 31.48 32.6815 31.4 33.0615 31.4V32.58H32.7715C32.3248 32.58 31.9848 32.6933 31.7515 32.92C31.5248 33.1467 31.4115 33.54 31.4115 34.1V37H30.2715V31.49H31.4115V32.29ZM40.7794 31.4C41.2127 31.4 41.5994 31.49 41.9394 31.67C42.286 31.85 42.556 32.1167 42.7494 32.47C42.9494 32.8233 43.0494 33.25 43.0494 33.75V37H41.9194V33.92C41.9194 33.4267 41.796 33.05 41.5494 32.79C41.3027 32.5233 40.966 32.39 40.5394 32.39C40.1127 32.39 39.7727 32.5233 39.5194 32.79C39.2727 33.05 39.1494 33.4267 39.1494 33.92V37H38.0194V33.92C38.0194 33.4267 37.896 33.05 37.6494 32.79C37.4027 32.5233 37.066 32.39 36.6394 32.39C36.2127 32.39 35.8727 32.5233 35.6194 32.79C35.3727 33.05 35.2494 33.4267 35.2494 33.92V37H34.1094V31.49H35.2494V32.12C35.436 31.8933 35.6727 31.7167 35.9594 31.59C36.246 31.4633 36.5527 31.4 36.8794 31.4C37.3194 31.4 37.7127 31.4933 38.0594 31.68C38.406 31.8667 38.6727 32.1367 38.8594 32.49C39.026 32.1567 39.286 31.8933 39.6394 31.7C39.9927 31.5 40.3727 31.4 40.7794 31.4ZM45.08 30.76C44.8733 30.76 44.7 30.69 44.56 30.55C44.42 30.41 44.35 30.2367 44.35 30.03C44.35 29.8233 44.42 29.65 44.56 29.51C44.7 29.37 44.8733 29.3 45.08 29.3C45.28 29.3 45.45 29.37 45.59 29.51C45.73 29.65 45.8 29.8233 45.8 30.03C45.8 30.2367 45.73 30.41 45.59 30.55C45.45 30.69 45.28 30.76 45.08 30.76ZM45.64 31.49V37H44.5V31.49H45.64ZM49.9167 31.4C50.3501 31.4 50.7367 31.49 51.0767 31.67C51.4234 31.85 51.6934 32.1167 51.8867 32.47C52.0801 32.8233 52.1767 33.25 52.1767 33.75V37H51.0467V33.92C51.0467 33.4267 50.9234 33.05 50.6767 32.79C50.4301 32.5233 50.0934 32.39 49.6667 32.39C49.2401 32.39 48.9001 32.5233 48.6467 32.79C48.4001 33.05 48.2767 33.4267 48.2767 33.92V37H47.1367V31.49H48.2767V32.12C48.4634 31.8933 48.7001 31.7167 48.9867 31.59C49.2801 31.4633 49.5901 31.4 49.9167 31.4ZM53.2509 34.22C53.2509 33.6667 53.3642 33.1767 53.5909 32.75C53.8242 32.3233 54.1375 31.9933 54.5309 31.76C54.9309 31.52 55.3709 31.4 55.8509 31.4C56.2842 31.4 56.6609 31.4867 56.9809 31.66C57.3075 31.8267 57.5675 32.0367 57.7609 32.29V31.49H58.9109V37H57.7609V36.18C57.5675 36.44 57.3042 36.6567 56.9709 36.83C56.6375 37.0033 56.2575 37.09 55.8309 37.09C55.3575 37.09 54.9242 36.97 54.5309 36.73C54.1375 36.4833 53.8242 36.1433 53.5909 35.71C53.3642 35.27 53.2509 34.7733 53.2509 34.22ZM57.7609 34.24C57.7609 33.86 57.6809 33.53 57.5209 33.25C57.3675 32.97 57.1642 32.7567 56.9109 32.61C56.6575 32.4633 56.3842 32.39 56.0909 32.39C55.7975 32.39 55.5242 32.4633 55.2709 32.61C55.0175 32.75 54.8109 32.96 54.6509 33.24C54.4975 33.5133 54.4209 33.84 54.4209 34.22C54.4209 34.6 54.4975 34.9333 54.6509 35.22C54.8109 35.5067 55.0175 35.7267 55.2709 35.88C55.5309 36.0267 55.8042 36.1 56.0909 36.1C56.3842 36.1 56.6575 36.0267 56.9109 35.88C57.1642 35.7333 57.3675 35.52 57.5209 35.24C57.6809 34.9533 57.7609 34.62 57.7609 34.24ZM61.5482 29.6V37H60.4082V29.6H61.5482Z" fill="white"/>
</svg>
