<svg width="80" height="61" viewBox="0 0 80 61" fill="none" xmlns="http://www.w3.org/2000/svg">
<g filter="url(#filter0_b_394_5301)">
<rect x="1" width="78" height="60.1724" rx="10" fill="#793020"/>
</g>
<rect x="27.5" y="11.1167" width="25" height="21" rx="3" stroke="white" stroke-width="2"/>
<path d="M47.66 26.6768H39.38" stroke="white" stroke-width="1.6" stroke-linecap="round"/>
<path d="M33 25.397L36.7741 22.0003C37.2155 21.603 37.2155 20.9109 36.7741 20.5137L33 17.117" stroke="white" stroke-width="1.8" stroke-linecap="round"/>
<path d="M22.9451 40.1667V41.0967H21.0951V47.1167H19.9551V41.0967H18.0951V40.1667H22.9451ZM29.1496 44.2267C29.1496 44.4334 29.1363 44.62 29.1096 44.7867H24.8996C24.9329 45.2267 25.0963 45.58 25.3896 45.8467C25.6829 46.1134 26.0429 46.2467 26.4696 46.2467C27.0829 46.2467 27.5163 45.99 27.7696 45.4767H28.9996C28.8329 45.9834 28.5296 46.4 28.0896 46.7267C27.6563 47.0467 27.1163 47.2067 26.4696 47.2067C25.9429 47.2067 25.4696 47.09 25.0496 46.8567C24.6363 46.6167 24.3096 46.2834 24.0696 45.8567C23.8363 45.4234 23.7196 44.9234 23.7196 44.3567C23.7196 43.79 23.8329 43.2934 24.0596 42.8667C24.2929 42.4334 24.6163 42.1 25.0296 41.8667C25.4496 41.6334 25.9296 41.5167 26.4696 41.5167C26.9896 41.5167 27.4529 41.63 27.8596 41.8567C28.2663 42.0834 28.5829 42.4034 28.8096 42.8167C29.0363 43.2234 29.1496 43.6934 29.1496 44.2267ZM27.9596 43.8667C27.9529 43.4467 27.8029 43.11 27.5096 42.8567C27.2163 42.6034 26.8529 42.4767 26.4196 42.4767C26.0263 42.4767 25.6896 42.6034 25.4096 42.8567C25.1296 43.1034 24.9629 43.44 24.9096 43.8667H27.9596ZM31.4115 42.4067C31.5782 42.1267 31.7982 41.91 32.0715 41.7567C32.3515 41.5967 32.6815 41.5167 33.0615 41.5167V42.6967H32.7715C32.3248 42.6967 31.9848 42.81 31.7515 43.0367C31.5248 43.2634 31.4115 43.6567 31.4115 44.2167V47.1167H30.2715V41.6067H31.4115V42.4067ZM40.7794 41.5167C41.2127 41.5167 41.5994 41.6067 41.9394 41.7867C42.286 41.9667 42.556 42.2334 42.7494 42.5867C42.9494 42.94 43.0494 43.3667 43.0494 43.8667V47.1167H41.9194V44.0367C41.9194 43.5434 41.796 43.1667 41.5494 42.9067C41.3027 42.64 40.966 42.5067 40.5394 42.5067C40.1127 42.5067 39.7727 42.64 39.5194 42.9067C39.2727 43.1667 39.1494 43.5434 39.1494 44.0367V47.1167H38.0194V44.0367C38.0194 43.5434 37.896 43.1667 37.6494 42.9067C37.4027 42.64 37.066 42.5067 36.6394 42.5067C36.2127 42.5067 35.8727 42.64 35.6194 42.9067C35.3727 43.1667 35.2494 43.5434 35.2494 44.0367V47.1167H34.1094V41.6067H35.2494V42.2367C35.436 42.01 35.6727 41.8334 35.9594 41.7067C36.246 41.58 36.5527 41.5167 36.8794 41.5167C37.3194 41.5167 37.7127 41.61 38.0594 41.7967C38.406 41.9834 38.6727 42.2534 38.8594 42.6067C39.026 42.2734 39.286 42.01 39.6394 41.8167C39.9927 41.6167 40.3727 41.5167 40.7794 41.5167ZM45.08 40.8767C44.8733 40.8767 44.7 40.8067 44.56 40.6667C44.42 40.5267 44.35 40.3534 44.35 40.1467C44.35 39.94 44.42 39.7667 44.56 39.6267C44.7 39.4867 44.8733 39.4167 45.08 39.4167C45.28 39.4167 45.45 39.4867 45.59 39.6267C45.73 39.7667 45.8 39.94 45.8 40.1467C45.8 40.3534 45.73 40.5267 45.59 40.6667C45.45 40.8067 45.28 40.8767 45.08 40.8767ZM45.64 41.6067V47.1167H44.5V41.6067H45.64ZM49.9167 41.5167C50.3501 41.5167 50.7367 41.6067 51.0767 41.7867C51.4234 41.9667 51.6934 42.2334 51.8867 42.5867C52.0801 42.94 52.1767 43.3667 52.1767 43.8667V47.1167H51.0467V44.0367C51.0467 43.5434 50.9234 43.1667 50.6767 42.9067C50.4301 42.64 50.0934 42.5067 49.6667 42.5067C49.2401 42.5067 48.9001 42.64 48.6467 42.9067C48.4001 43.1667 48.2767 43.5434 48.2767 44.0367V47.1167H47.1367V41.6067H48.2767V42.2367C48.4634 42.01 48.7001 41.8334 48.9867 41.7067C49.2801 41.58 49.5901 41.5167 49.9167 41.5167ZM53.2509 44.3367C53.2509 43.7834 53.3642 43.2934 53.5909 42.8667C53.8242 42.44 54.1375 42.11 54.5309 41.8767C54.9309 41.6367 55.3709 41.5167 55.8509 41.5167C56.2842 41.5167 56.6609 41.6034 56.9809 41.7767C57.3075 41.9434 57.5675 42.1534 57.7609 42.4067V41.6067H58.9109V47.1167H57.7609V46.2967C57.5675 46.5567 57.3042 46.7734 56.9709 46.9467C56.6375 47.12 56.2575 47.2067 55.8309 47.2067C55.3575 47.2067 54.9242 47.0867 54.5309 46.8467C54.1375 46.6 53.8242 46.26 53.5909 45.8267C53.3642 45.3867 53.2509 44.89 53.2509 44.3367ZM57.7609 44.3567C57.7609 43.9767 57.6809 43.6467 57.5209 43.3667C57.3675 43.0867 57.1642 42.8734 56.9109 42.7267C56.6575 42.58 56.3842 42.5067 56.0909 42.5067C55.7975 42.5067 55.5242 42.58 55.2709 42.7267C55.0175 42.8667 54.8109 43.0767 54.6509 43.3567C54.4975 43.63 54.4209 43.9567 54.4209 44.3367C54.4209 44.7167 54.4975 45.05 54.6509 45.3367C54.8109 45.6234 55.0175 45.8434 55.2709 45.9967C55.5309 46.1434 55.8042 46.2167 56.0909 46.2167C56.3842 46.2167 56.6575 46.1434 56.9109 45.9967C57.1642 45.85 57.3675 45.6367 57.5209 45.3567C57.6809 45.07 57.7609 44.7367 57.7609 44.3567ZM61.5482 39.7167V47.1167H60.4082V39.7167H61.5482Z" fill="white"/>
<defs>
<filter id="filter0_b_394_5301" x="-186" y="-187" width="452" height="434.172" filterUnits="userSpaceOnUse" color-interpolation-filters="sRGB">
<feFlood flood-opacity="0" result="BackgroundImageFix"/>
<feGaussianBlur in="BackgroundImageFix" stdDeviation="93.5"/>
<feComposite in2="SourceAlpha" operator="in" result="effect1_backgroundBlur_394_5301"/>
<feBlend mode="normal" in="SourceGraphic" in2="effect1_backgroundBlur_394_5301" result="shape"/>
</filter>
</defs>
</svg>
