<svg width="412" height="307" viewBox="0 0 412 307" fill="none" xmlns="http://www.w3.org/2000/svg">
<circle cx="196.5" cy="162.5" r="22.5" stroke="#F3F3F3" stroke-opacity="0.7" stroke-width="2"/>
<circle cx="197" cy="163" r="55" stroke="#F3F3F3" stroke-opacity="0.6" stroke-width="2"/>
<circle cx="196.5" cy="162.5" r="91.5" stroke="#F3F3F3" stroke-opacity="0.5" stroke-width="2"/>
<circle cx="197" cy="161" r="124" stroke="#F3F3F3" stroke-opacity="0.4" stroke-width="2"/>
<circle cx="197" cy="161" r="149" stroke="#F3F3F3" stroke-opacity="0.3" stroke-width="2"/>
<rect x="113" y="95" width="20.1644" height="20.1644" rx="4.20091" fill="#F3F3F3"/>
<g clip-path="url(#clip0_159_5900)">
<path d="M123.082 106.29V100.776" stroke="#B8B8B8" stroke-width="1.05023" stroke-linecap="round" stroke-linejoin="round"/>
<path d="M127.414 106.29V109.441H118.75V106.29" stroke="#B8B8B8" stroke-width="1.05023" stroke-linecap="round" stroke-linejoin="round"/>
<path d="M125.051 104.321L123.082 106.29L121.113 104.321" stroke="#B8B8B8" stroke-width="1.05023" stroke-linecap="round" stroke-linejoin="round"/>
</g>
<rect x="279" y="161" width="18" height="18" rx="3.75" fill="#F3F3F3"/>
<g clip-path="url(#clip1_159_5900)">
<path d="M288 171.078V166.157" stroke="#B8B8B8" stroke-width="0.9375" stroke-linecap="round" stroke-linejoin="round"/>
<path d="M291.867 171.078V173.891H284.133V171.078" stroke="#B8B8B8" stroke-width="0.9375" stroke-linecap="round" stroke-linejoin="round"/>
<path d="M289.758 169.32L288 171.078L286.242 169.32" stroke="#B8B8B8" stroke-width="0.9375" stroke-linecap="round" stroke-linejoin="round"/>
</g>
<rect x="66" y="191" width="18" height="18" rx="3.75" fill="#F3F3F3"/>
<g clip-path="url(#clip2_159_5900)">
<path d="M75 201.078V196.157" stroke="#B8B8B8" stroke-width="0.9375" stroke-linecap="round" stroke-linejoin="round"/>
<path d="M78.8672 201.078V203.891H71.1328V201.078" stroke="#B8B8B8" stroke-width="0.9375" stroke-linecap="round" stroke-linejoin="round"/>
<path d="M76.7578 199.32L75 201.078L73.2422 199.32" stroke="#B8B8B8" stroke-width="0.9375" stroke-linecap="round" stroke-linejoin="round"/>
</g>
<g opacity="0.8">
<rect x="263" y="53" width="20" height="20" rx="4.16667" fill="#F3F3F3"/>
<g clip-path="url(#clip3_159_5900)">
<path d="M277.731 57.9174H268.432C268.175 57.9174 267.967 58.1256 267.967 58.3824V67.6809C267.967 67.9377 268.175 68.1459 268.432 68.1459H277.731C277.987 68.1459 278.196 67.9377 278.196 67.6809V58.3824C278.196 58.1256 277.987 57.9174 277.731 57.9174Z" stroke="#B8B8B8" stroke-width="1.23981" stroke-linecap="round" stroke-linejoin="round"/>
<path d="M270.757 63.0319H275.406" stroke="#B8B8B8" stroke-width="1.23981" stroke-linecap="round" stroke-linejoin="round"/>
<path d="M273.081 60.7071V65.3564" stroke="#B8B8B8" stroke-width="1.23981" stroke-linecap="round" stroke-linejoin="round"/>
</g>
</g>
<g opacity="0.7">
<rect x="138" y="33" width="25" height="25" rx="5.20833" fill="#F3F3F3"/>
<path d="M144.866 45.4768V40.4935C144.866 40.3466 144.924 40.2058 145.028 40.1019C145.132 39.9981 145.273 39.9398 145.42 39.9398H152.064L155.94 43.8157V45.4768" stroke="#B8B8B8" stroke-width="1.10741" stroke-linecap="round" stroke-linejoin="round"/>
<path d="M152.064 39.9398V43.8157H155.94" stroke="#B8B8B8" stroke-width="1.10741" stroke-linecap="round" stroke-linejoin="round"/>
<path d="M145.357 47.7397C145.434 47.7397 145.496 47.8017 145.496 47.8782V50.0401C145.496 50.3962 145.394 50.6705 145.192 50.863C144.993 51.0555 144.724 51.1518 144.384 51.1518C144.028 51.1518 143.742 51.0507 143.527 50.8486C143.34 50.6723 143.234 50.4312 143.21 50.1255C143.204 50.0492 143.267 49.9872 143.343 49.9872H143.885C143.961 49.9872 144.021 50.0497 144.034 50.125C144.047 50.2005 144.072 50.262 144.11 50.3096C144.167 50.3802 144.251 50.4155 144.36 50.4155C144.459 50.4155 144.536 50.3834 144.591 50.3192C144.645 50.255 144.673 50.162 144.673 50.0401V47.8782C144.673 47.8017 144.735 47.7397 144.811 47.7397H145.357Z" fill="#B8B8B8"/>
<path d="M147.72 51.1518C147.472 51.1518 147.251 51.1117 147.055 51.0315C146.86 50.9512 146.702 50.8325 146.584 50.6753C146.494 50.5528 146.437 50.4108 146.413 50.2494C146.402 50.1722 146.465 50.1075 146.543 50.1075H147.152C147.223 50.1075 147.28 50.1622 147.302 50.2296C147.324 50.2972 147.359 50.3527 147.407 50.3962C147.48 50.4604 147.577 50.4925 147.695 50.4925C147.817 50.4925 147.914 50.4652 147.984 50.4106C148.055 50.3529 148.09 50.2743 148.09 50.1748C148.09 50.0914 148.061 50.0224 148.003 49.9679C147.949 49.9134 147.88 49.8684 147.797 49.8332C147.716 49.7979 147.601 49.7578 147.45 49.7128C147.232 49.6455 147.054 49.5781 146.916 49.5107C146.778 49.4433 146.659 49.3439 146.56 49.2123C146.46 49.0808 146.411 48.9092 146.411 48.6974C146.411 48.383 146.524 48.1376 146.752 47.9611C146.98 47.7814 147.277 47.6916 147.643 47.6916C148.015 47.6916 148.315 47.7814 148.542 47.9611C148.734 48.1098 148.851 48.3086 148.893 48.5575C148.906 48.6356 148.842 48.7022 148.763 48.7022H148.148C148.075 48.7022 148.018 48.6431 147.991 48.5751C147.971 48.5246 147.94 48.482 147.898 48.4472C147.824 48.383 147.729 48.3509 147.614 48.3509C147.514 48.3509 147.434 48.3782 147.373 48.4327C147.312 48.4841 147.282 48.5594 147.282 48.6589C147.282 48.768 147.333 48.853 147.436 48.914C147.538 48.9749 147.699 49.0407 147.917 49.1113C148.135 49.1851 148.311 49.2557 148.446 49.323C148.584 49.3904 148.703 49.4883 148.802 49.6166C148.902 49.7449 148.952 49.9102 148.952 50.1123C148.952 50.3048 148.902 50.4796 148.802 50.6368C148.706 50.794 148.565 50.9192 148.379 51.0122C148.193 51.1052 147.973 51.1518 147.72 51.1518Z" fill="#B8B8B8"/>
<path d="M151.393 51.1518C151.075 51.1518 150.783 51.078 150.517 50.9304C150.254 50.7828 150.043 50.5775 149.886 50.3144C149.732 50.0481 149.655 49.7497 149.655 49.4193C149.655 49.0888 149.732 48.7921 149.886 48.529C150.043 48.2659 150.254 48.0606 150.517 47.913C150.783 47.7654 151.075 47.6916 151.393 47.6916C151.71 47.6916 152.001 47.7654 152.264 47.913C152.53 48.0606 152.738 48.2659 152.889 48.529C153.043 48.7921 153.12 49.0888 153.12 49.4193C153.12 49.7497 153.043 50.0481 152.889 50.3144C152.735 50.5775 152.527 50.7828 152.264 50.9304C152.001 51.078 151.71 51.1518 151.393 51.1518ZM151.393 50.401C151.662 50.401 151.877 50.3112 152.037 50.1315C152.201 49.9519 152.283 49.7144 152.283 49.4193C152.283 49.1209 152.201 48.8835 152.037 48.707C151.877 48.5274 151.662 48.4375 151.393 48.4375C151.12 48.4375 150.902 48.5258 150.738 48.7022C150.578 48.8787 150.497 49.1177 150.497 49.4193C150.497 49.7177 150.578 49.9567 150.738 50.1363C150.902 50.3128 151.12 50.401 151.393 50.401Z" fill="#B8B8B8"/>
<path d="M156.937 50.9797C156.937 51.0561 156.875 51.1181 156.799 51.1181H156.189C156.142 51.1181 156.099 51.0947 156.073 51.0559L154.992 49.4187C154.916 49.3042 154.738 49.3578 154.738 49.495V50.9797C154.738 51.0561 154.676 51.1181 154.599 51.1181H154.053C153.977 51.1181 153.915 51.0561 153.915 50.9797V47.8782C153.915 47.8017 153.977 47.7397 154.053 47.7397H154.663C154.71 47.7397 154.753 47.7632 154.779 47.8021L155.86 49.4467C155.936 49.5615 156.114 49.5081 156.114 49.3706V47.8782C156.114 47.8017 156.176 47.7397 156.253 47.7397H156.799C156.875 47.7397 156.937 47.8017 156.937 47.8782V50.9797Z" fill="#B8B8B8"/>
</g>
<rect x="199" y="135" width="21.1643" height="21.1643" rx="4.40923" fill="#F3F3F3"/>
<path d="M204.812 145.562V141.344C204.812 141.219 204.862 141.1 204.95 141.012C205.038 140.924 205.157 140.875 205.281 140.875H210.906L214.188 144.156V145.562" stroke="#B8B8B8" stroke-width="0.9375" stroke-linecap="round" stroke-linejoin="round"/>
<path d="M210.906 140.875V144.156H214.188" stroke="#B8B8B8" stroke-width="0.9375" stroke-linecap="round" stroke-linejoin="round"/>
<path d="M206.001 147.39C206.066 147.39 206.119 147.442 206.119 147.507V147.831C206.119 147.896 206.066 147.948 206.001 147.948H205.478C205.413 147.948 205.361 148.001 205.361 148.065V150.133C205.361 150.198 205.308 150.25 205.244 150.25H204.781C204.717 150.25 204.664 150.198 204.664 150.133V148.065C204.664 148.001 204.612 147.948 204.547 147.948H204.023C203.959 147.948 203.906 147.896 203.906 147.831V147.507C203.906 147.442 203.959 147.39 204.023 147.39H206.001Z" fill="#B8B8B8"/>
<path d="M208.106 150.279C207.837 150.279 207.59 150.216 207.364 150.091C207.142 149.966 206.964 149.792 206.831 149.57C206.7 149.344 206.635 149.092 206.635 148.812C206.635 148.532 206.7 148.281 206.831 148.058C206.964 147.835 207.142 147.662 207.364 147.537C207.59 147.412 207.837 147.349 208.106 147.349C208.375 147.349 208.621 147.412 208.843 147.537C209.069 147.662 209.245 147.835 209.373 148.058C209.503 148.281 209.569 148.532 209.569 148.812C209.569 149.092 209.503 149.344 209.373 149.57C209.243 149.792 209.066 149.966 208.843 150.091C208.621 150.216 208.375 150.279 208.106 150.279ZM208.106 149.643C208.334 149.643 208.516 149.567 208.652 149.415C208.79 149.263 208.86 149.062 208.86 148.812C208.86 148.559 208.79 148.358 208.652 148.209C208.516 148.057 208.334 147.981 208.106 147.981C207.875 147.981 207.69 148.055 207.552 148.205C207.416 148.354 207.348 148.557 207.348 148.812C207.348 149.064 207.416 149.267 207.552 149.419C207.69 149.568 207.875 149.643 208.106 149.643Z" fill="#B8B8B8"/>
<path d="M213.363 147.39C213.428 147.39 213.48 147.442 213.48 147.507V150.133C213.48 150.198 213.428 150.25 213.363 150.25H212.901C212.836 150.25 212.784 150.198 212.784 150.133V149.184C212.784 149.054 212.602 149.021 212.557 149.143L212.172 150.174C212.155 150.22 212.112 150.25 212.063 150.25H211.663C211.614 150.25 211.57 150.22 211.553 150.174L211.165 149.137C211.119 149.015 210.938 149.047 210.938 149.178V150.133C210.938 150.198 210.886 150.25 210.821 150.25H210.359C210.294 150.25 210.241 150.198 210.241 150.133V147.507C210.241 147.442 210.294 147.39 210.359 147.39H210.985C211.033 147.39 211.076 147.419 211.094 147.463L211.758 149.101C211.797 149.198 211.936 149.198 211.975 149.1L212.632 147.464C212.65 147.419 212.693 147.39 212.741 147.39H213.363Z" fill="#B8B8B8"/>
<path d="M214.963 149.595C214.963 149.66 215.016 149.712 215.08 149.712H215.759C215.823 149.712 215.876 149.765 215.876 149.829V150.133C215.876 150.198 215.823 150.25 215.759 150.25H214.384C214.319 150.25 214.266 150.198 214.266 150.133V147.507C214.266 147.442 214.319 147.39 214.384 147.39H214.846C214.911 147.39 214.963 147.442 214.963 147.507V149.595Z" fill="#B8B8B8"/>
<rect x="336" y="172" width="21.1643" height="21.1643" rx="4.40923" fill="#F3F3F3"/>
<g clip-path="url(#clip4_159_5900)">
<path d="M341.625 186.562V179.25C341.625 179.142 341.668 179.039 341.744 178.963C341.82 178.887 341.924 178.844 342.031 178.844H344.739C344.827 178.844 344.913 178.872 344.983 178.925L346.5 180.062H350.156C350.264 180.062 350.367 180.105 350.444 180.181C350.52 180.258 350.562 180.361 350.562 180.469V181.688" stroke="#B8B8B8" stroke-width="0.8125" stroke-linecap="round" stroke-linejoin="round"/>
<path d="M341.625 186.562L343.158 181.965C343.185 181.884 343.236 181.814 343.305 181.764C343.375 181.714 343.458 181.687 343.543 181.688H351.781C351.846 181.687 351.909 181.703 351.966 181.732C352.024 181.761 352.073 181.804 352.111 181.856C352.148 181.908 352.173 181.969 352.183 182.032C352.193 182.096 352.187 182.161 352.167 182.222L350.719 186.562H341.625Z" stroke="#B8B8B8" stroke-width="0.8125" stroke-linecap="round" stroke-linejoin="round"/>
</g>
<defs>
<clipPath id="clip0_159_5900">
<rect width="12.6027" height="12.6027" fill="white" transform="translate(116.781 99.2009)"/>
</clipPath>
<clipPath id="clip1_159_5900">
<rect width="11.25" height="11.25" fill="white" transform="translate(282.375 164.75)"/>
</clipPath>
<clipPath id="clip2_159_5900">
<rect width="11.25" height="11.25" fill="white" transform="translate(69.375 194.75)"/>
</clipPath>
<clipPath id="clip3_159_5900">
<rect width="14.8777" height="14.8777" fill="white" transform="translate(265.643 55.593)"/>
</clipPath>
<clipPath id="clip4_159_5900">
<rect width="13" height="13" fill="white" transform="translate(340 176)"/>
</clipPath>
</defs>
</svg>
