<svg width="175" height="54" viewBox="0 0 175 54" fill="none" xmlns="http://www.w3.org/2000/svg">
<g clip-path="url(#clip0_159_6040)">
<path d="M169.636 11.4664H171.49V11.895H170.84V14.1626H170.289L170.297 11.895H169.639V11.4664H169.636ZM171.921 11.4664H172.633L173.468 13.5124L174.325 11.4664H175V14.1626H174.486L174.478 12.2098L173.644 14.1626H173.252L172.424 12.1787V14.1626H171.919V11.4664H171.921Z" fill="#252525"/>
<path d="M61.9911 6.19177H66.779V30.4767H63.1363L52.7282 15.6287V30.4767H47.9404V6.19177H51.5789L61.9911 20.986V6.19177Z" fill="#252525"/>
<path d="M85.8578 28.3085C84.0768 30.077 81.9024 30.9633 79.3366 30.9633C76.7708 30.9633 74.6006 30.0791 72.8321 28.3085C71.0635 26.54 70.1772 24.3718 70.1772 21.8039C70.1772 19.2361 71.0615 17.0679 72.8321 15.2994C74.6006 13.5309 76.7688 12.6445 79.3366 12.6445C81.9045 12.6445 84.0768 13.5288 85.8578 15.2994C87.6387 17.0679 88.5292 19.2361 88.5292 21.8039C88.5292 24.3718 87.6387 26.54 85.8578 28.3085ZM75.988 25.2374C76.8785 26.1403 77.9947 26.5897 79.3366 26.5897C80.6785 26.5897 81.7989 26.1382 82.7018 25.2374C83.6047 24.3345 84.054 23.1914 84.054 21.8039C84.054 20.4165 83.6026 19.2713 82.7018 18.3705C81.7989 17.4676 80.6785 17.0182 79.3366 17.0182C77.9947 17.0182 76.8785 17.4696 75.988 18.3705C75.0976 19.2733 74.6523 20.4165 74.6523 21.8039C74.6523 23.1914 75.0976 24.3366 75.988 25.2374Z" fill="#252525"/>
<path d="M100.948 6.19177C103.284 6.19177 105.249 6.9787 106.846 8.55048C108.443 10.1243 109.24 12.0544 109.24 14.3447C109.24 16.6351 108.443 18.5652 106.846 20.139C105.249 21.7129 103.284 22.4977 100.948 22.4977H96.6801V30.4767H91.8922V6.19177H100.946H100.948ZM100.948 18.0226C101.965 18.0226 102.81 17.6705 103.481 16.9644C104.152 16.2582 104.487 15.3864 104.487 14.3447C104.487 13.3031 104.152 12.4023 103.481 11.7085C102.81 11.0148 101.965 10.6669 100.948 10.6669H96.6801V18.0226H100.948Z" fill="#252525"/>
<path d="M125.788 28.3085C124.007 30.077 121.833 30.9633 119.267 30.9633C116.701 30.9633 114.531 30.0791 112.762 28.3085C110.994 26.54 110.108 24.3718 110.108 21.8039C110.108 19.2361 110.992 17.0679 112.762 15.2994C114.531 13.5309 116.699 12.6445 119.267 12.6445C121.835 12.6445 124.007 13.5288 125.788 15.2994C127.569 17.0679 128.459 19.2361 128.459 21.8039C128.459 24.3718 127.569 26.54 125.788 28.3085ZM115.918 25.2374C116.809 26.1403 117.925 26.5897 119.267 26.5897C120.609 26.5897 121.729 26.1382 122.632 25.2374C123.535 24.3345 123.984 23.1914 123.984 21.8039C123.984 20.4165 123.533 19.2713 122.632 18.3705C121.729 17.4676 120.609 17.0182 119.267 17.0182C117.925 17.0182 116.809 17.4696 115.918 18.3705C115.028 19.2733 114.583 20.4165 114.583 21.8039C114.583 23.1914 115.028 24.3366 115.918 25.2374Z" fill="#252525"/>
<path d="M136.093 16.1154C136.509 15.0054 137.196 14.1729 138.157 13.6179C139.116 13.063 140.187 12.7855 141.367 12.7855V17.7804C140.002 17.6188 138.783 17.8963 137.708 18.6129C136.633 19.3294 136.095 20.5201 136.095 22.1872V30.4789H131.62V13.1313H136.095V16.1154H136.093Z" fill="#252525"/>
<path d="M154.374 17.4325H150.454V24.6494C150.454 25.252 150.603 25.6911 150.906 25.9686C151.206 26.2461 151.645 26.4014 152.225 26.4366C152.802 26.4718 153.519 26.4656 154.376 26.42V30.4789C151.301 30.8268 149.131 30.5369 147.872 29.6112C146.611 28.6855 145.981 27.033 145.981 24.6494V17.4325H142.964V13.1313H145.981V9.62742L150.456 8.27515V13.1313H154.376V17.4325H154.374Z" fill="#252525"/>
<path d="M161.276 18.0578C161.276 18.5217 161.583 18.8965 162.196 19.1844C162.809 19.4743 163.554 19.729 164.434 19.9485C165.312 20.168 166.193 20.4455 167.071 20.781C167.949 21.1165 168.694 21.6777 169.309 22.4646C169.922 23.2515 170.229 24.2331 170.229 25.4135C170.229 27.1945 169.564 28.5654 168.234 29.5242C166.905 30.483 165.244 30.9634 163.256 30.9634C159.694 30.9634 157.265 29.5884 155.971 26.8341L159.856 24.6494C160.365 26.1528 161.498 26.9045 163.256 26.9045C164.853 26.9045 165.65 26.4075 165.65 25.4135C165.65 24.9517 165.344 24.5748 164.731 24.287C164.118 23.997 163.372 23.7382 162.492 23.5063C161.612 23.2764 160.734 22.9865 159.856 22.6386C158.976 22.2907 158.23 21.7419 157.617 20.9902C157.004 20.2384 156.698 19.2962 156.698 18.1634C156.698 16.4529 157.327 15.1048 158.588 14.1211C159.85 13.1375 161.415 12.6467 163.289 12.6467C164.7 12.6467 165.983 12.9656 167.141 13.6013C168.297 14.2371 169.21 15.1441 169.881 16.3245L166.064 18.4057C165.509 17.2253 164.584 16.6372 163.289 16.6372C162.711 16.6372 162.231 16.7656 161.85 17.0183C161.469 17.273 161.278 17.6209 161.278 18.0599L161.276 18.0578Z" fill="#252525"/>
<path d="M31.7131 5.44222C28.2051 1.93211 23.5395 0 18.5777 0C13.6159 0 8.95025 1.93211 5.44222 5.44222C1.93418 8.95232 0 13.6159 0 18.5777C0 23.5394 1.93211 28.2051 5.44222 31.7131C8.95232 35.2212 13.6159 37.1553 18.5777 37.1553C23.5395 37.1553 28.2051 35.2232 31.7131 31.7131C35.2212 28.203 37.1553 23.5394 37.1553 18.5777C37.1553 13.6159 35.2232 8.95025 31.7131 5.44222ZM30.0689 30.0544C29.1763 30.9469 28.0788 31.4004 26.8052 31.4004C25.5316 31.4004 24.4382 30.9469 23.5436 30.0544C23.5063 30.0171 23.4732 29.9757 23.4359 29.9363C21.9449 30.5762 20.3027 30.9324 18.5777 30.9324C11.7645 30.9324 6.22293 25.3908 6.22293 18.5777C6.22293 16.7512 6.62468 15.0179 7.33912 13.4564L6.10489 12.2222L5.22892 11.3462L6.10489 10.4703L10.4578 6.11732L11.3338 5.24134L12.2098 6.11732L13.4378 7.34534C15.0034 6.62468 16.745 6.22086 18.5777 6.22086C25.3908 6.22086 30.9324 11.7625 30.9324 18.5756C30.9324 20.2923 30.5804 21.9283 29.9446 23.4152C29.986 23.4525 30.0275 23.4877 30.0689 23.527C30.9614 24.4196 31.4149 25.5171 31.4149 26.7907C31.4149 28.0622 30.9614 29.1598 30.0689 30.0523V30.0544Z" fill="#252525"/>
<path d="M30.1745 26.7907C30.1745 27.7267 29.8473 28.5219 29.1908 29.1784C28.5344 29.8349 27.7392 30.1621 26.8031 30.1621C25.8671 30.1621 25.0719 29.8349 24.4154 29.1784C23.759 28.5219 23.4318 27.7288 23.4318 26.7907C23.4318 25.8547 23.759 25.0595 24.4154 24.403C25.0698 23.7486 25.8671 23.4214 26.8031 23.4193C27.7392 23.4193 28.5344 23.7465 29.1908 24.403C29.8473 25.0595 30.1745 25.8547 30.1745 26.7907ZM20.7956 23.6471L12.595 16.9645L6.97879 11.3483L11.3317 6.99536L16.9479 12.6115L23.6596 20.7831L20.7956 23.6471Z" fill="#F05E3E"/>
</g>
<path d="M54.705 42.645C55.265 42.745 55.74 43.04 56.13 43.53C56.52 44.02 56.715 44.575 56.715 45.195C56.715 45.725 56.575 46.205 56.295 46.635C56.025 47.055 55.63 47.39 55.11 47.64C54.59 47.88 53.985 48 53.295 48H49.125V37.575H53.1C53.81 37.575 54.42 37.695 54.93 37.935C55.44 38.175 55.825 38.5 56.085 38.91C56.345 39.31 56.475 39.76 56.475 40.26C56.475 40.86 56.315 41.36 55.995 41.76C55.675 42.16 55.245 42.455 54.705 42.645ZM50.835 41.955H52.95C53.51 41.955 53.945 41.83 54.255 41.58C54.575 41.32 54.735 40.95 54.735 40.47C54.735 40 54.575 39.635 54.255 39.375C53.945 39.105 53.51 38.97 52.95 38.97H50.835V41.955ZM53.145 46.605C53.725 46.605 54.18 46.465 54.51 46.185C54.84 45.905 55.005 45.515 55.005 45.015C55.005 44.505 54.83 44.1 54.48 43.8C54.13 43.5 53.665 43.35 53.085 43.35H50.835V46.605H53.145ZM66.0132 39.735L60.9432 51.885H59.1732L60.8532 47.865L57.5982 39.735H59.5032L61.8282 46.035L64.2432 39.735H66.0132ZM77.4852 45.87H73.1202L72.3702 48H70.5852L74.3202 37.56H76.3002L80.0352 48H78.2352L77.4852 45.87ZM77.0052 44.475L75.3102 39.63L73.6002 44.475H77.0052ZM83.6542 41.13V45.705C83.6542 46.015 83.7242 46.24 83.8642 46.38C84.0142 46.51 84.2642 46.575 84.6142 46.575H85.6642V48H84.3142C83.5442 48 82.9542 47.82 82.5442 47.46C82.1342 47.1 81.9292 46.515 81.9292 45.705V41.13H80.9542V39.735H81.9292V37.68H83.6542V39.735H85.6642V41.13H83.6542ZM90.2402 48.135C89.5902 48.135 89.0052 48.02 88.4852 47.79C87.9752 47.55 87.5702 47.23 87.2702 46.83C86.9702 46.42 86.8102 45.965 86.7902 45.465H88.5602C88.5902 45.815 88.7552 46.11 89.0552 46.35C89.3652 46.58 89.7502 46.695 90.2102 46.695C90.6902 46.695 91.0602 46.605 91.3202 46.425C91.5902 46.235 91.7252 45.995 91.7252 45.705C91.7252 45.395 91.5752 45.165 91.2752 45.015C90.9852 44.865 90.5202 44.7 89.8802 44.52C89.2602 44.35 88.7552 44.185 88.3652 44.025C87.9752 43.865 87.6352 43.62 87.3452 43.29C87.0652 42.96 86.9252 42.525 86.9252 41.985C86.9252 41.545 87.0552 41.145 87.3152 40.785C87.5752 40.415 87.9452 40.125 88.4252 39.915C88.9152 39.705 89.4752 39.6 90.1052 39.6C91.0452 39.6 91.8002 39.84 92.3702 40.32C92.9502 40.79 93.2602 41.435 93.3002 42.255H91.5902C91.5602 41.885 91.4102 41.59 91.1402 41.37C90.8702 41.15 90.5052 41.04 90.0452 41.04C89.5952 41.04 89.2502 41.125 89.0102 41.295C88.7702 41.465 88.6502 41.69 88.6502 41.97C88.6502 42.19 88.7302 42.375 88.8902 42.525C89.0502 42.675 89.2452 42.795 89.4752 42.885C89.7052 42.965 90.0452 43.07 90.4952 43.2C91.0952 43.36 91.5852 43.525 91.9652 43.695C92.3552 43.855 92.6902 44.095 92.9702 44.415C93.2502 44.735 93.3952 45.16 93.4052 45.69C93.4052 46.16 93.2752 46.58 93.0152 46.95C92.7552 47.32 92.3852 47.61 91.9052 47.82C91.4352 48.03 90.8802 48.135 90.2402 48.135ZM96.1229 38.64C95.8129 38.64 95.5529 38.535 95.3429 38.325C95.1329 38.115 95.0279 37.855 95.0279 37.545C95.0279 37.235 95.1329 36.975 95.3429 36.765C95.5529 36.555 95.8129 36.45 96.1229 36.45C96.4229 36.45 96.6779 36.555 96.8879 36.765C97.0979 36.975 97.2029 37.235 97.2029 37.545C97.2029 37.855 97.0979 38.115 96.8879 38.325C96.6779 38.535 96.4229 38.64 96.1229 38.64ZM96.9629 39.735V48H95.2529V39.735H96.9629ZM102.538 39.6C103.178 39.6 103.743 39.73 104.233 39.99C104.733 40.24 105.123 40.555 105.403 40.935V39.735H107.128V48.135C107.128 48.895 106.968 49.57 106.648 50.16C106.328 50.76 105.863 51.23 105.253 51.57C104.653 51.91 103.933 52.08 103.093 52.08C101.973 52.08 101.043 51.815 100.303 51.285C99.563 50.765 99.143 50.055 99.043 49.155H100.738C100.868 49.585 101.143 49.93 101.563 50.19C101.993 50.46 102.503 50.595 103.093 50.595C103.783 50.595 104.338 50.385 104.758 49.965C105.188 49.545 105.403 48.935 105.403 48.135V46.755C105.113 47.145 104.718 47.475 104.218 47.745C103.728 48.005 103.168 48.135 102.538 48.135C101.818 48.135 101.158 47.955 100.558 47.595C99.968 47.225 99.498 46.715 99.148 46.065C98.808 45.405 98.638 44.66 98.638 43.83C98.638 43 98.808 42.265 99.148 41.625C99.498 40.985 99.968 40.49 100.558 40.14C101.158 39.78 101.818 39.6 102.538 39.6ZM105.403 43.86C105.403 43.29 105.283 42.795 105.043 42.375C104.813 41.955 104.508 41.635 104.128 41.415C103.748 41.195 103.338 41.085 102.898 41.085C102.458 41.085 102.048 41.195 101.668 41.415C101.288 41.625 100.978 41.94 100.738 42.36C100.508 42.77 100.393 43.26 100.393 43.83C100.393 44.4 100.508 44.9 100.738 45.33C100.978 45.76 101.288 46.09 101.668 46.32C102.058 46.54 102.468 46.65 102.898 46.65C103.338 46.65 103.748 46.54 104.128 46.32C104.508 46.1 104.813 45.78 105.043 45.36C105.283 44.93 105.403 44.43 105.403 43.86ZM113.544 39.6C114.194 39.6 114.774 39.735 115.284 40.005C115.804 40.275 116.209 40.675 116.499 41.205C116.789 41.735 116.934 42.375 116.934 43.125V48H115.239V43.38C115.239 42.64 115.054 42.075 114.684 41.685C114.314 41.285 113.809 41.085 113.169 41.085C112.529 41.085 112.019 41.285 111.639 41.685C111.269 42.075 111.084 42.64 111.084 43.38V48H109.374V39.735H111.084V40.68C111.364 40.34 111.719 40.075 112.149 39.885C112.589 39.695 113.054 39.6 113.544 39.6Z" fill="black"/>
<defs>
<clipPath id="clip0_159_6040">
<rect width="175" height="37.1553" fill="white"/>
</clipPath>
</defs>
</svg>
