<svg width="1053" height="691" viewBox="0 0 1053 691" fill="none" xmlns="http://www.w3.org/2000/svg">
<g clip-path="url(#clip0_434_2324)">
<rect width="1053" height="691" fill="#F3F3F3"/>
<path fill-rule="evenodd" clip-rule="evenodd" d="M310.933 284.08C303.111 276.858 292.937 277.496 284.725 279.103C278.076 280.407 274.84 277.9 270.645 274.652L270.645 274.651C269.876 274.056 269.074 273.435 268.214 272.808C269.675 272.294 270.934 271.849 272.192 271.404C273.451 270.96 274.71 270.515 276.171 270.001C274.962 269.426 273.987 268.964 273.137 268.562L273.131 268.559L273.113 268.551L273.106 268.547L273.103 268.546L273.093 268.541C272.519 268.269 272.001 268.024 271.505 267.788C275.408 264.868 279.358 262.013 283.365 259.238H283.407C287.674 259.613 289.807 259.04 290.689 254.277C299.275 248.603 308.078 243.273 317.089 238.28C318.169 238.183 318.994 238.307 319.425 238.719C321.114 240.327 323.142 240.586 325.147 240.841C328.165 241.226 331.13 241.604 332.801 246.568C333.466 242.094 333.756 240.144 334.301 236.49C336.558 238.403 338.624 240.156 340.588 241.822L340.611 241.842C342.857 243.747 344.969 245.539 347.081 247.328C347.276 247.09 347.469 246.849 347.662 246.608L347.663 246.608C347.856 246.367 348.049 246.126 348.244 245.887C347.291 244.54 346.336 243.193 345.342 241.792L345.317 241.755C344.678 240.855 344.024 239.932 343.344 238.971C345.394 238.315 347.28 237.264 349.127 236.236C353.149 233.996 356.984 231.861 361.911 234.133C367.179 228.787 373.849 228.803 380.524 229.108C382.156 229.183 383.795 229.232 385.435 229.281C390.684 229.437 395.948 229.594 401.038 230.619C405.41 231.499 409.631 233.167 414.055 234.916C416.064 235.711 418.116 236.522 420.244 237.283C419.246 239.202 418.268 241.083 417.273 242.994L417.169 243.194L417.048 243.427L416.934 243.647C415.946 245.545 414.939 247.481 413.88 249.52C415.173 248.961 416.449 248.384 417.716 247.811C425.852 244.132 433.582 240.638 442.636 243.428C440.921 244.774 439.578 246.62 438.262 248.428C435.727 251.911 433.292 255.256 428.492 254.625C428.659 255.073 428.939 255.65 429.234 256.257C429.919 257.669 430.682 259.239 430.272 259.704C424.759 265.924 425.196 271.715 431.533 277.683C430.396 278.057 429.422 278.377 428.481 278.686C427.252 279.09 426.079 279.475 424.671 279.939C425.668 281.145 426.614 282.288 427.537 283.403L427.537 283.404C429.064 285.249 430.527 287.018 432.058 288.875L431.424 289.037L430.756 289.208L430.752 289.209L430.747 289.211C429.418 289.551 427.992 289.916 426.301 290.353C426.796 290.812 427.352 291.28 427.862 291.709C428.835 292.528 429.642 293.207 429.54 293.418C428.239 296.138 426.726 298.753 425.07 301.614L425.068 301.616L425.068 301.617C424.637 302.362 424.196 303.123 423.747 303.908C424.038 305.079 424.393 306.335 424.767 307.655L424.768 307.657L424.768 307.658C425.758 311.153 426.875 315.097 427.241 319.117C427.459 321.565 425.393 325.123 423.311 326.725C422.838 327.089 422.361 327.462 421.879 327.838L421.876 327.841C417.738 331.071 413.284 334.549 408.575 335.355C400.477 336.748 395.084 341.35 390.449 347.158C388.113 350.083 386.073 351.149 382.637 351.192C378.459 351.251 376.304 353.329 375.334 358.156C374.129 364.178 372.278 370.066 370.466 375.831L370.466 375.831L370.466 375.832L370.465 375.833C369.716 378.217 368.973 380.58 368.285 382.923C366.947 382.529 365.498 382.234 364.025 381.933C360.635 381.242 357.12 380.525 354.55 378.52C349.23 374.368 343.941 368.925 341.309 362.806C339.715 359.11 337.914 355.494 335.916 352.076C331.426 344.382 331.831 340.439 338.08 333.957C341.164 330.764 342.28 327.191 337.841 323.007C337.397 323.619 336.979 324.299 336.561 324.98C334.728 327.962 332.895 330.945 328.846 328.235C325.045 325.699 326.244 322.835 327.602 319.593C328.033 318.563 328.481 317.494 328.789 316.385L330.906 316.887C333.214 317.434 335.441 317.961 337.613 318.48C337.338 312.495 334.872 311.119 324.989 311.772C324.881 311.633 324.734 311.485 324.587 311.335C324.267 311.012 323.943 310.684 323.993 310.438C326.494 298.401 319.202 291.69 311.769 284.85C311.49 284.594 311.212 284.337 310.933 284.08ZM406.9 666.578C412.714 669.38 412.102 679.778 407.139 684.498C402.8 688.629 398.445 692.775 394.484 697.281C393.368 698.551 393.28 701.138 393.337 703.099C393.623 712.217 391.24 719.905 386.299 727.93C382.349 734.343 378.715 737.541 371.687 739.068C367.692 739.936 363.966 742.133 360.245 744.327L360.244 744.328L360.243 744.328L360.242 744.329L360.241 744.329L360.24 744.33L360.239 744.331L360.238 744.331L360.237 744.332L360.236 744.332L360.235 744.333L360.234 744.333L360.233 744.334L360.232 744.334L360.231 744.335L360.23 744.336L360.229 744.336C358.65 745.267 357.073 746.197 355.476 747.024C352.139 748.754 351.417 751.508 351.999 755.237C352.902 761.023 348.168 768.7 343.065 771.416C340.631 772.707 338.088 774.614 336.65 776.94C328.054 790.874 327.13 791.431 312.975 787.954C313.269 788.612 313.549 789.254 313.822 789.883C314.355 791.106 314.866 792.281 315.425 793.435C318.69 800.169 316.889 804.626 309.985 806.389C308.735 806.708 307.44 806.832 306.144 806.957C305.131 807.055 304.118 807.152 303.123 807.343C301.442 807.666 299.787 808.13 298.505 808.49C298.069 808.612 297.676 808.722 297.341 808.81C296.871 810.001 296.505 811.223 296.155 812.392C295.399 814.915 294.718 817.191 293.224 818.363C291.966 819.347 289.858 819.169 287.062 818.933C285.613 818.811 283.98 818.673 282.184 818.673C285.651 822.172 287.785 824.325 289.741 826.302C289.397 826.531 288.918 826.767 288.411 827.018C287.206 827.613 285.842 828.287 285.739 829.12C284.963 835.521 280.681 839.152 275.802 843.289L275.801 843.29C274.976 843.99 274.133 844.704 273.287 845.449C274.278 846.097 275.173 846.669 276.001 847.199L276.008 847.203L276.01 847.204C277.597 848.219 278.937 849.076 280.232 849.998C283.123 852.055 283.679 854.268 281.089 857.289C280.272 858.242 279.653 859.487 279.045 860.709C278.166 862.476 277.312 864.195 275.919 864.907C269.546 868.173 270.958 874.067 271.974 878.304C272.033 878.55 272.09 878.79 272.145 879.024C272.837 881.999 275.962 884.469 278.923 886.81L278.923 886.811C279.738 887.455 280.54 888.089 281.275 888.721C282.435 889.722 283.937 890.295 285.44 890.868L285.44 890.869L285.441 890.869C286.118 891.127 286.796 891.386 287.442 891.684C287.254 891.763 287.066 891.842 286.879 891.922C286.485 892.09 286.091 892.26 285.697 892.429L285.692 892.432L285.687 892.434C284.468 892.959 283.247 893.484 282.013 893.966C276.863 895.98 271.818 896.87 266.783 893.382C261.862 889.972 256.872 886.658 251.588 883.149C249.292 881.624 246.941 880.063 244.515 878.44C245.897 877.495 246.9 876.812 247.597 876.338C248.251 875.893 248.634 875.632 248.808 875.51C244.528 872.694 243.393 868.262 242.277 863.901L242.277 863.901C241.87 862.312 241.466 860.733 240.913 859.245C242.963 857.102 244.801 855.184 246.638 853.266C245.416 852.136 244.192 851.008 242.806 849.732L242.804 849.731L242.757 849.687C242.174 849.15 241.561 848.586 240.908 847.984C241.744 845.871 243.034 843.865 244.351 841.816C247.536 836.861 250.883 831.654 248.382 824.074C247.707 826.715 247.209 828.659 246.581 831.108C246.205 830.867 245.811 830.66 245.459 830.475C244.81 830.134 244.3 829.866 244.297 829.592L244.295 829.314L244.291 828.996C244.289 828.796 244.287 828.595 244.284 828.393C244.251 825.598 244.218 822.773 244.681 820.05C245.37 815.987 245.254 811.837 245.138 807.691C244.96 801.308 244.781 794.936 247.541 788.908C250.355 782.763 250.972 776.49 251.325 769.766C251.775 761.281 252.761 752.828 253.747 744.372C254.298 739.651 254.849 734.93 255.306 730.202C256.184 721.207 254.652 716.589 247.245 714.542C234.232 710.947 227.682 701.176 223.519 689.743C220.762 682.162 215.857 677.507 210.397 672.744C204.827 667.896 204.604 666.712 207.791 660.347C207.892 660.145 208.006 659.936 208.121 659.724L208.122 659.723C208.571 658.899 209.049 658.02 208.938 657.267C207.41 646.913 213.733 640.629 219.93 634.471L220.404 634C225.953 628.476 227.261 621.496 223.264 614.981C218.78 607.69 218.328 607.657 212.312 614.751C205.471 611.333 198.479 607.84 190.843 604.031C189.644 596.032 185.144 590.985 175.988 589.957C171.69 589.48 166.961 587.144 163.717 584.155C159.554 580.313 154.919 578.658 150.304 580.105C143.562 582.222 137.824 579.966 132.101 577.715C130.686 577.159 129.272 576.603 127.844 576.113C124.744 575.051 121.873 573.245 119.011 571.446L119.01 571.446C117.962 570.786 116.915 570.128 115.859 569.508C111.571 566.99 108.436 564.204 111.587 558.284C112.324 556.896 110.772 553.848 109.718 551.882C108.971 550.489 108.41 549.096 108 547.676C119.409 463.282 155.277 386.988 207.993 326.664C208.45 327.753 208.908 328.842 209.371 329.946C210.129 331.753 210.903 333.597 211.715 335.535C221.167 327.055 222.761 322.801 218.66 314.931C226.182 306.959 234.004 299.293 242.122 291.959C243.783 291.809 245.6 291.969 247.09 292.269C247.745 292.398 248.102 294.122 248.526 296.166C248.74 297.198 248.97 298.311 249.265 299.341C249.588 299.465 249.986 299.675 250.435 299.912C251.656 300.555 253.253 301.397 254.756 301.248C259.106 300.825 260.959 302.898 262.527 306.579C263.144 308.025 265.065 309.059 266.601 309.874C270.858 312.14 275.15 314.374 279.573 316.27C283.694 318.038 285.288 322.174 284.021 325.206C281.751 330.655 285.515 332.444 288.134 333.689C288.551 333.887 288.939 334.072 289.269 334.255C292.711 336.179 296.603 337.237 300.499 338.295C302.232 338.765 303.966 339.236 305.661 339.784C306.153 339.943 306.594 340.26 307.208 340.702C307.546 340.946 307.937 341.227 308.418 341.541C306.427 344.312 304.503 346.991 302.451 349.847L300.118 353.097C297.972 351.71 295.845 350.334 293.664 348.922C291.202 347.329 288.671 345.691 285.963 343.941C284.808 349.612 287.851 351.881 290.928 354.176C292.195 355.12 293.467 356.068 294.455 357.26C293.661 361.542 291.013 361.401 288.192 361.25C286.62 361.166 284.994 361.079 283.606 361.754C284.906 362.887 286.157 363.974 287.618 365.243L287.639 365.262L287.661 365.281C288.732 366.211 289.916 367.24 291.314 368.456C289.189 368.344 287.201 368.267 285.313 368.195H285.313C280.725 368.018 276.727 367.865 272.789 367.272C270.884 366.989 268.87 364.819 267.619 362.987C264.219 357.988 260.004 357.19 254.865 359.472C254.585 359.595 254.291 359.788 254.001 359.979C253.468 360.329 252.949 360.67 252.555 360.549C252.205 360.44 251.819 360.33 251.42 360.217C249.57 359.693 247.423 359.084 247.09 357.983C246.342 355.497 247.261 352.625 250.9 352.438C253.704 352.295 256.502 352.087 258.823 351.914L258.824 351.914L258.824 351.914C259.815 351.84 260.719 351.773 261.499 351.72C261.915 350.236 262.259 348.857 262.583 347.561L262.583 347.561C263.223 344.995 263.783 342.751 264.665 340.652C267.603 333.676 266.42 330.762 258.992 327.794C258.042 327.414 256.962 326.765 256.454 325.914L256.329 325.707C252.369 319.12 252.341 319.074 246.16 316.613C244.826 318.21 243.394 319.924 241.78 321.853C241.161 321.138 241.226 319.958 241.29 318.821C241.4 316.84 241.503 314.991 237.964 315.965C236.256 316.437 234.609 317.154 233.069 317.825L233.068 317.825L233.068 317.825L233.068 317.825L233.068 317.825L233.068 317.825C232.404 318.114 231.759 318.395 231.139 318.644C231.347 319.621 231.542 320.578 231.733 321.519C232.15 323.574 232.552 325.553 233.054 327.505C233.539 329.38 234.12 331.236 234.815 333.459C235.155 334.545 235.522 335.719 235.919 337.025C233.931 337.493 232.031 338.521 230.08 339.576C226.033 341.765 221.766 344.073 216.029 341.755C215.546 342.518 215.075 343.287 214.604 344.056L214.604 344.056L214.604 344.056C213.425 345.982 212.25 347.9 210.911 349.684C209.95 350.975 208.274 352.818 207.152 352.658C202.175 351.95 199.808 354.468 197.846 358.69C197.265 359.945 195.719 360.792 194.278 361.581C193.941 361.765 193.61 361.947 193.299 362.129C187.651 365.435 183.073 369.806 180.28 375.919C179.725 377.135 179.497 379.841 179.657 379.884C182.908 380.826 184.608 383.566 186.33 386.341C188.357 389.606 190.414 392.921 195.063 393.416C197.51 393.675 199.777 395.284 202.083 396.92C203.641 398.027 205.217 399.145 206.877 399.867C211.252 401.77 215.754 403.362 220.178 404.926L220.178 404.927L220.179 404.927L220.179 404.927L220.179 404.927L220.18 404.927L220.18 404.927L220.18 404.927L220.18 404.927L220.18 404.927L220.18 404.927L220.181 404.927C222.055 405.59 223.915 406.248 225.746 406.922C226.045 408.195 226.312 409.503 226.582 410.824C227.272 414.203 227.981 417.672 229.291 420.884C229.96 422.534 233.433 423.894 235.473 423.696C236.745 423.573 238.904 420.085 238.639 418.457C237.554 411.733 239.496 407.496 245.48 404.158C249.389 401.977 250.152 397.579 247.282 393.304C245.927 391.29 244.641 389.231 243.855 387.973L243.854 387.972C243.622 387.601 243.434 387.299 243.3 387.089L243.958 383.46L243.982 383.33L243.996 383.252C245.095 377.189 246.027 372.045 246.924 367.112C248.309 366.915 249.669 366.702 251.012 366.491L251.013 366.491H251.013L251.013 366.491L251.014 366.49L251.016 366.49L251.017 366.49C254.283 365.977 257.448 365.481 260.632 365.28C262.438 365.162 264.484 366.051 266.139 366.999C268.844 368.537 271.559 370.235 273.791 372.394C275.317 373.867 277.175 376.444 276.879 378.164C275.935 383.747 279.283 385.489 282.766 387.302C283.114 387.482 283.462 387.664 283.809 387.85C287.042 389.595 288.828 387.664 290.568 385.781L290.568 385.781L290.568 385.781L290.569 385.781L290.569 385.781L290.569 385.781L290.569 385.781L290.569 385.781L290.569 385.781L290.569 385.78L290.569 385.78L290.569 385.78L290.569 385.78L290.569 385.78L290.57 385.78L290.57 385.78L290.57 385.78C291.201 385.097 291.827 384.42 292.513 383.929C293.553 383.183 294.219 381.875 294.886 380.565C295.187 379.972 295.489 379.38 295.825 378.839C296.757 380.29 297.653 381.554 298.474 382.713L298.475 382.714L298.476 382.715L298.476 382.716C300.094 384.998 301.425 386.876 302.178 388.975C302.758 390.596 303.752 391.989 304.754 393.394C306.525 395.875 308.319 398.39 307.888 402.245C307.713 403.791 310.617 405.82 313.189 407.617C313.888 408.106 314.563 408.577 315.145 409.017C317.839 411.058 320.704 412.982 323.725 414.423C329.663 417.251 329.149 421.018 325.884 425.443C322.676 424.387 320.325 425.153 317.434 427.484C314.584 429.782 310.354 430.757 306.606 431.223C304.195 431.522 301.736 431.402 299.276 431.282C297.107 431.176 294.936 431.069 292.794 431.25C290.863 431.416 288.984 432.179 287.105 432.943C286.255 433.288 285.405 433.633 284.551 433.923C284.712 434.561 284.867 435.188 285.023 435.82C285.597 435.781 286.171 435.732 286.746 435.682L286.746 435.682C288.078 435.568 289.411 435.453 290.738 435.472C291.944 435.487 293.146 435.668 294.11 435.812L294.112 435.812C294.471 435.866 294.797 435.915 295.078 435.949C295.25 437.395 295.321 438.836 295.39 440.236V440.236C295.541 443.308 295.683 446.186 296.863 448.501C297.951 450.64 300.122 452.192 302.529 453.912C303.659 454.72 304.842 455.565 305.988 456.526C305.02 457.113 304.016 457.747 302.979 458.401L302.976 458.403L302.975 458.404L302.974 458.405C300.14 460.195 297.062 462.139 293.806 463.684C292.902 464.117 291.618 463.702 289.928 463.157C289.026 462.866 288.009 462.537 286.871 462.28C289.3 459.623 290.889 457.882 292.467 456.151C292.376 456.097 292.269 456.011 292.156 455.921C291.891 455.711 291.593 455.474 291.408 455.546C290.617 455.853 289.825 456.159 289.033 456.464L288.686 456.598L288.685 456.599L288.683 456.6L288.682 456.6L288.68 456.601L288.679 456.601L288.679 456.601C284.008 458.404 279.336 460.208 274.761 462.248C273.033 463.025 271.112 464.428 270.308 466.078C267.671 471.484 263.373 473.37 258 475.164C255.586 475.971 253.73 478.537 251.873 481.106C251.04 482.259 250.206 483.412 249.322 484.406C248.796 484.994 248.269 485.582 247.742 486.171C247.218 486.756 246.694 487.341 246.171 487.926C245.129 486.674 244.082 485.422 242.641 483.698L242.216 483.19C242.172 483.788 242.108 484.378 242.045 484.961V484.961V484.961V484.962V484.962V484.962V484.962V484.962V484.962V484.962V484.963V484.963V484.963V484.963C241.904 486.259 241.768 487.519 241.868 488.756C241.956 489.857 242.253 491.07 242.547 492.267L242.547 492.267C243.084 494.46 243.608 496.595 242.802 497.874C241.176 500.453 238.569 502.38 235.973 504.298L235.973 504.298C235.031 504.994 234.091 505.689 233.199 506.414C232.655 506.859 232.001 507.162 231.344 507.466C230.949 507.649 230.553 507.833 230.178 508.048C218.525 514.718 218.001 515.923 221.681 529.113C222.958 533.667 223.026 537.824 219.127 541.73C214.689 538.215 212.037 533.903 211.622 528.336C211.336 524.447 209.893 522.352 205.829 522.245C204.789 522.219 203.766 521.821 202.737 521.421L202.737 521.421C201.875 521.086 201.009 520.749 200.124 520.627C199.044 520.478 197.959 520.229 196.875 519.98C192.636 519.008 188.422 518.041 184.635 523.054C183.353 524.763 178.23 525.17 175.951 523.975C168.482 520.059 162.632 523.386 156.559 526.97C155.93 527.343 155.284 527.689 154.638 528.035L154.638 528.035C153.492 528.649 152.346 529.263 151.301 530.024C151.213 530.089 151.121 530.155 151.027 530.223L150.835 530.363L150.835 530.363C149.497 531.331 147.776 532.577 147.813 533.619C147.95 537.515 146.875 541.167 145.8 544.818C144.643 548.747 143.487 552.675 143.842 556.907C144.636 566.411 153.278 572.518 162.258 569.861C162.658 569.743 163.056 569.629 163.451 569.515C168.492 568.062 173.037 566.752 175.925 560.706C176.904 558.652 180.059 557.708 183.506 556.676C185.158 556.181 186.877 555.666 188.456 555C189.33 561.486 186.994 566.292 184.712 570.986C183.27 573.953 181.85 576.875 181.277 580.147C183.925 581.26 186.902 580.826 189.889 580.39C194.882 579.662 199.905 578.929 203.477 585.408C203.292 586.04 203.093 586.731 202.883 587.463C202.439 589.005 201.945 590.725 201.417 592.432C198.531 601.791 204.713 610.068 213.62 607.341C219.937 605.413 224.007 607.325 228.99 611.783C235.457 604.352 243.383 599.616 253.51 597.816C253.588 598.437 253.686 599.261 253.826 600.439L253.983 601.759C259.224 598.092 264.082 599.78 268.968 601.478L268.968 601.478C272.333 602.648 275.711 603.822 279.236 603.254C279.866 603.152 280.576 603.393 281.272 603.629C282.049 603.892 282.808 604.15 283.419 603.918C292.177 600.599 298.186 605.045 304.2 609.494C306.388 611.113 308.577 612.733 310.899 613.979C311.614 614.363 312.337 614.773 313.066 615.187C316.106 616.912 319.258 618.701 322.427 618.887C335.388 619.647 343.237 626.446 346.491 638.912C347.944 644.47 351.732 645.707 355.984 647.096L356.281 647.193L356.521 647.271C356.633 647.308 356.745 647.345 356.857 647.382C359.074 648.119 361.204 649.13 363.334 650.141L363.334 650.141L363.334 650.141L363.334 650.142L363.335 650.142L363.335 650.142L363.335 650.142L363.336 650.142L363.336 650.142L363.336 650.142L363.336 650.142L363.337 650.142L363.337 650.142L363.337 650.142L363.337 650.143L363.338 650.143L363.338 650.143C365.514 651.176 367.69 652.21 369.958 652.949L370.536 653.136C374.841 654.536 379.388 656.015 383.755 655.831C390.282 655.548 395.095 658.895 399.88 662.222C402.165 663.811 404.444 665.395 406.9 666.578ZM875.291 752.425C872.078 757.889 869.145 761.907 863.305 763.825C860.347 764.8 857.456 766.231 854.793 767.886C854.066 768.338 853.322 768.775 852.578 769.214L852.575 769.215C847.674 772.1 842.725 775.014 842.148 782.04C842.049 783.247 841.935 784.449 841.821 785.649C841.264 791.515 840.712 797.333 841.987 803.373L842.097 803.895C844.115 813.473 846.173 823.248 841.447 832.924C841.08 833.669 841.927 835.051 842.985 836.778L842.985 836.778L842.993 836.791C843.249 837.209 843.517 837.646 843.783 838.1C864.084 806.914 880.398 772.734 892.01 736.347C891.995 736.334 891.981 736.32 891.966 736.307C891.946 736.287 891.926 736.267 891.906 736.248L891.901 736.243C891.867 736.21 891.834 736.177 891.8 736.146C891.786 736.132 891.771 736.119 891.756 736.106C890.054 737.723 888.224 739.261 886.394 740.799C882.172 744.346 877.948 747.895 875.291 752.425ZM862.185 644.579C862.722 643.691 863.32 642.703 864.048 641.602C865.52 643.467 866.736 645.004 867.912 646.491L869.014 647.885C869.45 648.436 869.89 648.992 870.345 649.568C865.569 654.491 865.756 659.827 866.057 666.385C866.353 672.862 862.564 680.287 858.749 685.987C855.608 690.68 842.356 686.582 839.699 681.016C839.431 680.456 839.1 679.913 838.77 679.372L838.77 679.372C838.158 678.368 837.55 677.371 837.358 676.285C836.849 673.414 836.491 670.371 836.87 667.515C837.164 665.326 838.877 665.018 840.457 664.734C841.279 664.586 842.064 664.445 842.595 664.049C847.767 660.183 852.411 655.535 857.035 650.906C857.795 650.146 858.554 649.386 859.314 648.63C860.367 647.582 861.167 646.261 862.185 644.579ZM620.791 782.927C623.143 782.305 626.065 780.13 626.885 777.875C631.712 764.62 636.239 751.243 640.324 737.726C641.569 733.591 642.587 728.597 637.806 724.328C633.488 731.533 629.133 737.823 621.492 741C620.119 741.57 619.588 744.568 619.112 747.262C618.979 748.011 618.851 748.736 618.71 749.379C618.462 750.512 618.411 751.751 618.361 752.978C618.279 754.958 618.2 756.906 617.293 758.326C613.156 764.797 613.379 771.21 616.187 777.757C617.111 779.9 619.717 783.21 620.791 782.927ZM636.084 304.13C635.272 303.722 634.453 303.31 633.727 302.838C633.518 300.086 634.688 297.62 635.869 295.129C637.355 291.998 638.859 288.827 637.662 284.998C637.539 284.599 638.305 283.886 639.04 283.2C639.331 282.929 639.617 282.663 639.842 282.421C646.735 275.007 654.521 269.735 665.001 269.269C667.16 269.177 669.269 268.226 671.395 267.266C672.744 266.657 674.1 266.045 675.481 265.647C676.377 265.385 677.416 265.633 678.453 265.88C678.919 265.991 679.384 266.102 679.836 266.167C679.633 266.615 679.464 267.145 679.295 267.674C678.928 268.82 678.562 269.966 677.848 270.292C673.384 272.317 668.754 274.021 664.082 275.478C654.807 278.366 647.067 287.43 647.031 297.342C647.02 300.053 648.148 302.771 649.338 305.639C649.897 306.987 650.47 308.369 650.945 309.797C650.839 309.849 650.733 309.9 650.627 309.952L650.606 309.961C646.943 311.737 643.252 313.526 640.216 307.263C639.539 305.867 637.829 305.007 636.084 304.13ZM822.808 681.387C822.483 681.346 822.217 680.688 821.956 680.043C821.846 679.771 821.737 679.502 821.625 679.282L821.606 679.246L821.588 679.21L821.569 679.174C818.562 673.333 815.554 667.492 812.557 661.656C812.557 661.656 812.619 661.72 812.676 661.784L812.801 661.913C812.798 661.898 812.795 661.884 812.792 661.869L812.787 661.834L812.786 661.831C812.784 661.816 812.782 661.801 812.779 661.786C812.778 661.778 812.776 661.771 812.775 661.763C812.712 661.736 812.645 661.709 812.583 661.677C811.558 660.549 810.511 659.439 809.464 658.329L809.461 658.326L809.461 658.326C806.874 655.584 804.288 652.842 802.046 649.827C799.367 646.221 796.289 645.648 791.815 646.066C791.973 646.724 792.07 647.354 792.158 647.935C792.331 649.065 792.475 650.007 792.993 650.598C801.36 660.118 806.214 671.615 810.673 683.364L810.739 683.539C811.766 686.236 812.804 688.963 814.166 691.48C816.33 695.504 821.718 697.952 823.25 695.52C825.487 691.962 827.153 687.639 827.708 683.455C828.06 680.766 826.324 681.017 824.609 681.264C823.969 681.356 823.333 681.448 822.808 681.387ZM425.341 350.945C425.17 350.666 427.573 347.939 427.978 348.138C431.569 349.862 434.718 348.641 437.965 347.382C440.337 346.463 442.762 345.523 445.45 345.695L446.2 346.423L446.31 346.53L446.333 346.553C447.65 347.832 449.125 349.265 450.449 350.554C446.327 361.006 440.067 364.22 431.835 360.915C428.819 359.7 427.864 357.093 426.911 354.49C426.46 353.258 426.01 352.027 425.341 350.945ZM888.875 668.563C887.502 668.563 886.219 668.522 885.005 668.482C882.348 668.396 880.014 668.32 877.756 668.713C875.545 669.099 872.285 670.422 871.688 672.142C868.963 680.044 867.271 688.246 869.773 696.593C870.062 696.664 870.352 696.734 870.642 696.804C870.987 696.887 871.331 696.969 871.673 697.054C872.607 694.573 873.541 692.093 874.507 689.537C875.449 690.607 876.373 691.654 877.285 692.69L879.451 695.148L881.343 697.295C881.657 697.091 881.973 696.887 882.289 696.683C882.604 696.48 882.919 696.277 883.232 696.073L882.371 693.827L882.364 693.808C880.927 690.063 879.502 686.348 878.145 682.83C879.646 681.164 880.912 679.749 882.656 677.794C879.713 676.498 877.491 675.517 874.917 674.371C876.719 672.679 878.969 672.634 881.198 672.589C884.157 672.53 887.081 672.471 888.875 668.563ZM332.19 436.952C333.508 437.554 334.84 438.163 335.927 439.038C337.477 440.289 338.737 441.923 340.289 443.936C341.05 444.923 341.881 446.002 342.851 447.17C334.558 445.975 327.508 444.963 320.259 443.922L315.642 443.26C316.698 441.445 317.752 439.635 318.803 437.829L318.96 437.559L319.022 437.451L319.033 437.433C321.286 433.561 323.53 429.705 325.779 425.848C325.932 426.669 326.025 427.542 326.118 428.416C326.346 430.564 326.574 432.713 327.7 434.077C328.796 435.402 330.481 436.172 332.19 436.952ZM851.227 704.999C848.373 700.515 844.059 700.13 839.709 699.742C836.762 699.48 833.8 699.216 831.263 697.676C829.743 696.754 824.713 698.49 824.152 700.07C822.872 703.699 826.195 704.41 828.764 704.96C828.931 704.996 829.096 705.031 829.255 705.066C829.308 705.078 829.359 705.089 829.41 705.101C834.7 706.308 840.021 707.371 846.021 708.568L846.027 708.57L846.03 708.57L846.034 708.571L846.043 708.573L846.048 708.574C848.424 709.048 850.907 709.544 853.537 710.078C853.099 709.104 852.767 708.311 852.487 707.642L852.486 707.64L852.485 707.638C852.002 706.484 851.674 705.701 851.227 704.999ZM437.454 420.742C437.593 416.309 437.721 412.241 442.258 409.228C445.072 407.364 447.35 406.196 449.691 408.221C450.223 408.677 449.961 410.044 449.682 411.5C449.511 412.391 449.334 413.314 449.328 414.082C449.287 419.981 447.158 424.304 441.22 425.734C440.562 425.893 439.847 425.803 438.907 425.684C438.388 425.619 437.8 425.544 437.114 425.499C437.355 423.888 437.405 422.292 437.454 420.742ZM203.643 552.694C203.64 553.01 203.636 553.325 203.632 553.64C203.628 553.954 203.624 554.269 203.622 554.585C204.538 554.43 205.49 554.167 206.442 553.904C208.552 553.321 210.663 552.737 212.394 553.332C218.026 555.255 224.047 557.451 228.444 561.309C233.505 565.745 237.802 565.327 244.4 562.814C240.947 561.375 237.646 559.633 234.404 557.921C224.48 552.683 215.114 547.739 203.643 552.694ZM882.542 598.714C878.53 605.47 879.848 609.456 886.892 611.99C887.208 612.104 887.364 612.684 887.606 613.581C887.75 614.113 887.924 614.758 888.179 615.483C881.631 613.11 878.107 611.833 876.541 609.33C874.716 606.416 875.545 601.839 877.341 591.932C881.94 592.843 884.442 595.532 882.542 598.714ZM252.559 566.548C252.643 570.874 250.128 570.671 247.626 570.469C246.76 570.399 245.895 570.33 245.141 570.448C245.194 570.66 245.247 570.871 245.3 571.081L245.385 571.42L245.39 571.442C245.473 571.773 245.556 572.104 245.639 572.436L257.936 571.568L270.233 570.7C270.261 570.422 270.289 570.144 270.317 569.866L270.317 569.861L270.317 569.857C270.376 569.27 270.434 568.685 270.498 568.102C269.235 567.807 267.975 567.497 266.715 567.186C263.441 566.381 260.168 565.575 256.851 565.037C255.465 564.812 252.543 566.039 252.559 566.548ZM890.836 647.725C887.581 644.928 884.327 642.132 880.081 638.478C881.063 638.108 882.024 637.746 882.974 637.388L884.765 636.714L885.026 636.616L885.047 636.608C887.848 635.553 890.598 634.518 893.52 633.416C897.038 636.649 895.267 639.351 893.339 642.293C892.235 643.977 891.08 645.74 890.836 647.725ZM213.411 357.106C214.916 358.274 216.437 359.452 218.311 360.904C220.023 358.427 221.385 356.455 222.745 354.485L222.759 354.465C223.342 354.925 223.884 355.479 224.416 356.023C226.372 358.022 228.193 359.884 231.417 356.468C226.953 352.975 222.546 349.525 217.511 345.577C215.762 350.5 214.625 353.698 213.411 357.106ZM819.867 655.515C820.098 658.34 820.328 661.157 821.505 663.752C820.991 664.159 820.477 664.566 820.01 664.968L812.815 661.754C812.457 659.926 812.217 658.026 811.977 656.126C811.425 651.753 810.873 647.38 808.876 643.892C805.654 638.266 805.529 632.665 805.402 626.949C805.361 625.105 805.32 623.248 805.175 621.375C804.749 615.959 803.329 610.628 801.899 605.263C801.271 602.906 800.641 600.542 800.093 598.162C798.894 598.531 797.804 598.867 796.71 599.204C794.66 599.835 792.599 600.47 789.789 601.333C792.467 592.962 788.979 587.363 785.604 581.945C783.634 578.782 781.702 575.68 781.059 572.125C780.007 572.57 778.988 572.997 777.994 573.414C775.55 574.44 773.254 575.404 770.973 576.406C770.731 576.512 770.481 576.616 770.229 576.72C769.193 577.149 768.122 577.592 767.386 578.35C765.207 580.6 763.095 582.936 760.984 585.272C756.731 589.977 752.48 594.681 747.672 598.676C742.803 602.726 742.196 607.2 742.373 612.562C742.658 621.102 741.241 628.817 732.837 634.721C724.267 615.686 718.495 596.49 717.063 575.966C716.349 576.052 715.584 576.229 714.808 576.408C713.026 576.818 711.19 577.241 709.801 576.615C707.398 575.527 705.155 572.8 707.787 569.355C707.953 569.136 707.195 567.984 706.697 567.437C705.762 566.416 704.788 565.427 703.813 564.438C701.931 562.528 700.05 560.619 698.459 558.48C695.994 555.153 693.212 554.681 689.407 555.056C687.12 555.284 684.801 555.103 682.478 554.921C680.54 554.769 678.6 554.618 676.674 554.703C671.348 554.928 667.938 552.667 666.604 547.54C654.806 549.656 653.342 548.938 647.212 537.704C646.956 537.236 646.714 536.751 646.473 536.267C644.877 533.069 643.315 529.939 638.076 532.298C637.706 539.838 642.195 545.421 646.212 550.418C646.482 550.754 646.75 551.088 647.015 551.419C653.722 559.828 654.455 559.32 663.205 553.269L663.448 553.101C664.25 553.901 665.043 554.703 665.833 555.503C667.631 557.321 669.416 559.126 671.265 560.864C675.065 564.421 676.01 567.818 673.788 573.309C670.155 582.299 664.787 588.54 656.124 592.515C653.673 593.644 651.474 595.374 649.277 597.102C646.981 598.909 644.685 600.715 642.104 601.832C638.018 603.61 633.601 604.587 629.184 605.563C628.332 605.751 627.48 605.94 626.631 606.134C626.082 605.427 625.269 604.792 624.453 604.156C624.273 604.016 624.093 603.875 623.916 603.734C623.858 603.623 623.714 602.939 623.485 601.851C622.48 597.071 619.833 584.493 615.647 578.527C614.897 577.46 614.038 576.467 613.18 575.475C610.85 572.782 608.528 570.097 608.406 565.959C608.166 558.064 604.212 551.857 600.27 545.671C599.095 543.826 597.921 541.984 596.847 540.099C596.325 539.172 595.018 538.721 593.711 538.271C593.105 538.062 592.5 537.853 591.972 537.597C593.763 546.426 595.762 554.194 599.452 560.987C601.24 564.275 602.218 567.899 603.195 571.513C604.611 576.758 606.022 581.983 609.891 586.135C610.139 586.403 610.111 586.914 610.082 587.452C610.057 587.902 610.031 588.371 610.166 588.733C610.238 588.926 610.31 589.121 610.382 589.317C610.916 590.763 611.469 592.263 612.393 593.405C613.83 595.175 616.043 597.672 618.135 600.033C621.24 603.536 624.079 606.74 623.729 606.83C624.876 615.445 627.399 617.239 635.642 615.316C636.76 615.056 637.867 614.751 638.974 614.445C640.081 614.14 641.188 613.835 642.307 613.575C643.604 613.273 644.914 613.032 646.535 612.734C647.359 612.583 648.264 612.416 649.288 612.22C649.232 613.065 649.23 613.885 649.228 614.674C649.225 616.279 649.221 617.755 648.759 619.056C648.086 620.944 647.434 622.847 646.782 624.751C644.461 631.532 642.132 638.333 638.813 644.557C636.658 648.596 633.384 651.995 630.112 655.391C628.711 656.846 627.31 658.3 625.997 659.804C625.737 660.099 625.397 660.328 625.06 660.554C624.651 660.829 624.247 661.101 623.994 661.486C622.389 663.909 620.625 666.252 618.861 668.597C614.13 674.883 609.391 681.179 607.69 689.05C606.465 694.734 606.896 701.65 608.941 707.061C612.215 715.748 610.783 724.136 609.375 732.386C609.285 732.913 609.195 733.44 609.107 733.966C608.536 737.378 603.984 740.871 600.464 742.805C592.367 747.231 589.72 751.318 590.54 760.801C590.693 762.587 590.686 764.386 590.679 766.185C590.675 767.371 590.67 768.556 590.711 769.737C590.831 773.396 589.829 776.128 585.941 777.066C582.006 778.009 581.025 780.752 580.423 784.845C578.95 794.96 572.21 801.881 565.619 808.648C564.918 809.368 564.219 810.086 563.527 810.806C561.135 813.292 557.05 814.744 553.546 815.232C548.632 815.917 543.6 815.765 538.598 815.614C537.972 815.595 537.347 815.576 536.723 815.558C532.69 815.441 529.435 811.31 530.593 806.537C532.819 797.343 529.471 789.875 525.563 782.15C524.042 779.155 523.383 775.373 523.383 771.939C523.388 759.306 521.172 747.391 515.28 736.135C511.584 729.069 514.211 721.312 517.787 715.772C522.55 708.384 521.479 700.96 520.448 693.814C520.355 693.172 520.263 692.532 520.175 691.894C518.945 682.958 515.97 674.011 509.55 667.063C506.555 663.827 505.023 660.345 506.648 655.775C507.091 654.529 507.239 653.177 507.387 651.822C507.466 651.096 507.546 650.369 507.671 649.657C509.513 639.146 508.61 637.699 498.576 636.788C495.53 636.51 494.315 635.278 493.131 632.331C490.801 626.54 487.193 625.511 481.271 627.183C480.047 627.528 478.825 627.898 477.602 628.268C470.357 630.462 463.079 632.666 455.312 629.733C454.082 629.267 452.125 629.256 451.128 629.969C445.914 633.704 442.555 631 438.709 627.904C438.313 627.585 437.912 627.262 437.503 626.942C429.831 620.931 423.182 614.341 419.356 605.035C418.702 603.444 417.586 601.869 416.294 600.766C409.245 594.744 407.537 588.02 410.947 578.784C412.728 573.947 411.975 567.62 410.849 562.305C410.132 558.967 410.402 557.023 412.074 554.296C412.98 552.815 413.852 551.308 414.723 549.804C419.126 542.196 423.5 534.639 432.089 530.707C435.473 529.164 437.02 526.046 436.704 521.91C436.247 515.792 437.954 511.292 444.365 508.737C446.349 507.945 447.78 505.682 449.322 503.243C450.055 502.083 450.814 500.884 451.668 499.785C457.44 503.32 463.539 502.436 469.773 499.377C478.638 495.035 488.022 495.242 497.394 495.449C500.671 495.522 503.947 495.594 507.198 495.472C508.299 495.429 509.866 497.931 510.546 499.549C511.087 500.834 511.073 502.403 511.059 503.909C511.057 504.18 511.054 504.449 511.055 504.713C511.086 512.921 512.041 514.035 519.038 516.258C520.78 516.81 522.387 517.786 523.999 518.766C525.034 519.395 526.07 520.025 527.146 520.544C530.163 522.001 533.219 523.373 536.486 524.84C537.856 525.455 539.263 526.087 540.72 526.748C541.039 525.564 541.286 524.649 541.494 523.879C541.742 522.961 541.934 522.25 542.126 521.535C543.507 516.387 545.557 515.128 550.182 516.826C551.074 517.149 551.892 517.684 552.71 518.22C553.115 518.486 553.521 518.751 553.935 518.991C562.007 523.636 570.592 524.648 579.577 522.827C580.143 522.71 580.714 522.605 581.285 522.499C581.844 522.396 582.404 522.292 582.961 522.178C584.032 521.96 585.296 521.842 586.562 521.724C589.391 521.461 592.227 521.197 592.922 519.805C594.494 516.642 594.735 512.749 594.973 508.899C595.048 507.69 595.122 506.485 595.237 505.308C595.314 504.542 594.871 503.723 594.552 503.133C594.439 502.923 594.341 502.742 594.288 502.603C592.322 502.603 590.381 502.68 588.469 502.756C583.987 502.934 579.66 503.106 575.523 502.265C572.414 501.632 569.588 498.494 567.104 495.735C566.855 495.459 566.609 495.186 566.367 494.92C565.202 493.639 564.755 491.6 564.328 489.659C564.234 489.23 564.141 488.805 564.041 488.395C562.792 483.249 562.16 480.613 560.694 480.013C559.158 479.383 556.707 480.988 551.672 484.28C552.841 486.156 554.002 488.032 555.342 490.197C555.9 491.098 556.489 492.05 557.122 493.072C554.734 494.759 552.331 496.452 550.11 498.017C548.947 496.305 547.658 494.716 546.416 493.183C543.808 489.966 541.404 487 540.803 483.691C539.107 474.328 532.956 470.495 526.332 466.366C525.921 466.11 525.509 465.853 525.096 465.594C523.71 464.724 522.453 463.634 521.141 462.497C519.197 460.811 517.134 459.022 514.356 457.697C514.422 458.346 514.411 459.068 514.4 459.79C514.377 461.346 514.354 462.896 515.098 463.687C518.319 467.138 521.862 470.269 525.402 473.398C526.33 474.218 527.257 475.038 528.179 475.864C529.588 477.128 531.065 478.307 532.066 479.106C532.419 479.388 532.712 479.622 532.923 479.796C532.198 482.219 531.546 484.397 530.931 486.45C530.293 488.582 529.695 490.578 529.098 492.574C528.527 492.729 527.956 492.879 527.385 493.034C527.639 484.543 522.651 480.621 516.645 476.903C514.135 475.345 512.176 472.813 510.225 470.291C509.453 469.293 508.682 468.296 507.878 467.362C506.842 466.159 505.891 464.876 504.907 463.55C504.471 462.962 504.029 462.365 503.57 461.763C502.087 462.412 500.7 463.315 499.333 464.204C495.732 466.547 492.271 468.799 487.572 466.081C486.856 465.669 484.089 467.067 484.094 467.608C484.134 471.853 481.558 473.669 478.919 475.53C478.1 476.107 477.276 476.688 476.521 477.348C474.507 479.11 473.163 482.014 472.197 484.677C469.145 493.115 459.055 500.256 448.206 494.818C446.685 494.055 444.983 493.672 443.214 493.273C442.375 493.084 441.521 492.892 440.664 492.654C438.702 488.079 437.731 483.654 439.595 478.296C440.369 476.067 440.056 473.43 439.697 470.421C439.523 468.954 439.337 467.399 439.263 465.76C443.879 462.879 448.943 463.573 454.139 464.286C458.22 464.846 462.383 465.417 466.477 464.276C470.261 455.49 465.238 451.253 460.287 447.076C458.636 445.683 456.992 444.296 455.686 442.75C456.081 439.708 458.119 439.751 460.275 439.797C462.477 439.843 464.802 439.892 465.621 436.653C466.006 435.12 468.91 434.265 471.815 433.411C473.142 433.02 474.469 432.63 475.556 432.175C475.417 431.535 475.283 430.895 475.149 430.255C475.083 429.936 475.016 429.617 474.948 429.298C472.07 429.534 469.193 429.77 466.284 430.009C462.531 430.317 458.724 430.63 454.788 430.953C454.749 430.296 454.701 429.64 454.654 428.987C454.204 422.818 453.777 416.959 461.255 413.156C454.611 408.329 449.011 403.298 452.052 394.507C452.178 394.143 452.297 393.764 452.418 393.38C453.336 390.452 454.349 387.222 459.273 388.207C459.138 389.76 459.003 391.346 458.868 392.932C459.917 393.209 460.967 393.481 462.219 393.806C462.88 393.978 463.597 394.164 464.401 394.373C461.25 400.229 463.84 404.777 467.126 408.924C469.344 411.727 471.747 414.374 474.291 417.176C475.403 418.402 476.542 419.657 477.705 420.967C477.153 422.28 476.458 423.951 475.543 426.155L475.125 427.16C475.856 427.152 476.57 427.166 477.264 427.18C481.627 427.265 485.178 427.335 487.064 421.792C487.707 419.901 491.564 418.733 494.144 418.074C500.985 416.333 501.649 415.465 499.885 408.243C498.87 404.094 498.338 401.919 498.931 400.114C499.586 398.125 501.608 396.586 505.859 393.35C506.081 395.924 506.293 398.318 506.511 400.776C506.633 402.16 506.758 403.565 506.887 405.034L508.429 404.041C510.151 402.933 511.787 401.88 513.448 400.807C512.315 398.054 511.23 395.419 510.041 392.533C509.389 390.949 508.706 389.29 507.966 387.494C507.293 387.845 506.598 388.198 505.889 388.558C504.303 389.364 502.651 390.203 501.037 391.121C494.683 394.743 490.572 392.739 489.462 385.389C489.284 384.225 489.152 383.049 489.021 381.873C488.764 379.58 488.507 377.288 487.91 375.092C487.095 372.092 487.531 370.217 489.903 368.138L490.467 367.643C497.714 361.287 504.981 354.914 511.735 348.021C518.452 341.174 525.495 332.174 527.073 320.318C527.359 318.148 530.452 314.929 532.503 314.709C536.123 314.32 539.447 312.829 542.766 311.339C547.271 309.318 551.767 307.3 556.982 308.05C557.725 308.156 558.565 307.549 559.549 306.838C560.057 306.47 560.605 306.075 561.197 305.735C564.004 307.283 566.527 309.361 569.081 311.464C573.069 314.747 577.13 318.091 582.458 319.573C586.487 320.695 590.184 323.128 593.87 325.553C595.342 326.521 596.811 327.488 598.3 328.37C601.17 330.074 603.911 332.254 602.266 336.165C600.47 340.451 597.075 342.68 592.46 341.362C590.813 340.892 589.181 340.364 587.531 339.83C584.554 338.868 581.521 337.887 578.238 337.194C583.486 341.132 585.718 346.751 587.981 352.516C588.656 354.225 591.723 354.937 594.713 354.755C594.414 353.932 594.116 353.109 593.788 352.207C593.2 350.588 592.52 348.715 591.583 346.13C593.375 346.845 594.865 347.439 596.168 347.958C597.617 348.536 598.834 349.021 599.977 349.478C600.218 348.671 600.393 347.78 600.568 346.887C600.969 344.842 601.374 342.782 602.587 341.667C603.973 340.389 606.063 339.931 608.298 339.442C609.305 339.221 610.341 338.994 611.354 338.683C611.537 336.333 611.725 333.872 611.916 331.36C612.073 329.31 612.232 327.225 612.393 325.14C619.81 326.217 620.231 327.02 618.149 333.203C617.758 334.356 617.957 335.726 618.156 337.095C618.247 337.723 618.338 338.35 618.372 338.956C618.835 339.176 619.299 339.396 619.763 339.616C620.226 339.836 620.688 340.055 621.149 340.274C621.401 339.796 621.627 339.289 621.852 338.781C622.352 337.658 622.852 336.531 623.646 335.705C624.132 335.198 624.616 334.682 625.102 334.165C627.538 331.569 630.013 328.931 632.948 327.176C633.332 326.946 633.717 326.7 634.107 326.451C637.074 324.56 640.266 322.525 644.528 326.238C645.793 327.342 648.551 326.616 651.316 325.888C652.59 325.552 653.866 325.217 654.998 325.059C655.414 325.003 655.855 324.896 656.298 324.789C657.326 324.541 658.363 324.291 659.114 324.658C664.589 327.327 664.427 324.532 664.264 321.721C664.207 320.734 664.15 319.745 664.336 318.99C672.257 315.346 677.849 319.599 684.119 324.368C685.343 325.299 686.593 326.249 687.891 327.165C687.715 326.004 687.619 324.961 687.533 324.018C687.367 322.21 687.235 320.773 686.635 319.59C682.368 311.173 683.194 300.485 689.594 294.008C691.042 292.551 694.504 292.187 696.643 292.797C698.231 293.258 700.162 296.06 700.229 297.887C700.282 299.455 700.245 301.022 700.208 302.587C700.104 307.06 699.999 311.509 701.984 315.888C703.354 318.92 703.92 322.44 704.377 325.809C704.521 326.87 704.618 327.938 704.717 329.026C704.957 331.66 705.207 334.415 706.162 337.478C706.362 336.875 706.559 336.271 706.756 335.667C707.319 333.943 707.882 332.219 708.493 330.513C709.386 328.029 710.319 325.562 711.209 323.208C711.473 322.511 711.732 321.823 711.986 321.149C711.745 321.09 711.273 320.999 710.703 320.889C708.995 320.559 706.397 320.058 706.417 319.729C706.532 317.849 705.864 315.964 705.187 314.052C703.92 310.477 702.621 306.81 706.354 302.917C707.069 303.624 707.685 304.494 708.297 305.357C710.125 307.936 711.91 310.453 716.134 308.366C715.063 307.022 714.035 305.739 712.604 303.952L711.96 303.148C716.544 302.371 718.48 300.126 715.547 295.069L716.612 295.585C722.67 298.52 727.668 300.942 733.221 303.641V313.863C737.083 309.545 737.286 304.498 734.145 301.707C733.32 300.965 732.229 300.497 731.198 300.055L731.14 300.03C726.884 298.208 725.399 294.244 726.894 290.601C727.813 288.367 731.586 286.749 734.348 286.111C736.798 285.536 739.418 285.722 741.231 285.85C741.834 285.893 742.347 285.929 742.736 285.929C743.452 284.366 744.022 282.874 744.552 281.489C745.624 278.686 746.529 276.319 748.134 274.684C749.224 273.57 750.345 273.029 751.487 272.889C826.607 331.451 881.265 416.456 902.49 514.501L901.018 515.382C899.218 516.46 897.343 517.582 895.083 518.932C895.083 518 895.081 517.178 895.079 516.43C895.076 514.89 895.074 513.664 895.088 512.439C895.099 511.636 895.164 510.814 895.229 509.992C895.533 506.171 895.836 502.36 890.676 500.61C889.83 500.32 889.113 498.89 888.791 497.84C887.562 493.872 886.956 491.885 885.791 491.471C884.624 491.056 882.897 492.219 879.422 494.55C879.303 494.628 879.13 494.618 878.796 494.597C878.579 494.584 878.294 494.566 877.912 494.566V485.502C875.453 487.721 873.244 489.718 871.075 491.68C869.159 493.412 867.273 495.117 865.272 496.924C866.295 498.777 867.504 500.974 868.2 502.244H880.933C881.006 502.564 881.081 502.882 881.156 503.199C881.219 503.464 881.281 503.729 881.343 503.995C880.989 504.233 880.634 504.468 880.279 504.703C879.4 505.285 878.521 505.867 877.663 506.481C871.631 510.815 870.645 514.86 874.029 521.557C874.445 522.381 874.927 523.172 875.409 523.961C876.004 524.936 876.598 525.91 877.066 526.946C879.35 532.004 881.338 537.495 879.033 542.799C878.105 544.931 877.293 547.148 876.479 549.369C873.704 556.942 870.909 564.569 863.456 569.093C859.184 571.691 854.678 573.984 850.058 575.832C845.812 577.536 842.527 579.009 845.184 584.71C845.797 586.017 845.439 588.572 844.525 589.654C843.801 590.514 842.535 590.883 841.266 591.253C840.715 591.414 840.164 591.575 839.656 591.776C839.556 591.215 839.376 590.537 839.196 589.859C838.809 588.402 838.422 586.945 838.826 586.649C843.165 583.483 842.112 580.381 839.355 577.016C828.232 580.011 826.29 586.435 832.67 596.11C835.981 601.146 838.265 607.087 840.092 612.921C841.499 617.432 839.828 621.697 835.737 624.606C833.316 626.325 830.951 628.128 828.723 629.825C827.75 630.566 826.804 631.287 825.891 631.972C822.53 627.302 819.106 622.542 815.343 617.31L811.777 612.354C806.535 624.627 805.699 634.646 814.949 642.81C819.13 646.501 819.5 651.02 819.867 655.515ZM551.708 396.864C550.93 391.871 550.38 388.335 549.689 383.862C555.871 382.721 561.56 381.671 567.779 380.524C562.339 374.578 560.75 374.267 555.498 376.774L555.354 376.843C553.484 377.739 550.899 378.979 549.497 378.274C542.728 374.872 540.917 362.057 545.708 355.934C547.577 353.548 549.21 350.969 551.041 348.078C551.915 346.697 552.835 345.245 553.847 343.708C543.787 340.982 542.728 341.769 540.419 348.868C539.526 351.6 537.465 354.316 535.238 356.127C527.598 362.352 526.191 370.511 532.311 378.124C535.384 381.949 533.795 384.505 531.205 387.339C530.897 387.679 530.553 388.027 530.203 388.381C528.966 389.633 527.649 390.965 527.556 392.327C527.177 398.027 525.454 402.104 519.671 403.813C517.974 404.31 516.394 405.239 514.794 406.18C514.065 406.609 513.332 407.04 512.581 407.434C513.235 412.781 517.112 414.335 520.673 414.051C520.916 414.031 521.161 414.012 521.409 413.993C526.545 413.594 532.532 413.128 536.048 410.108C538.98 407.583 540.73 403.601 542.515 399.537C543.303 397.746 544.097 395.939 545.002 394.234C546.378 394.775 548.277 395.52 551.708 396.864ZM595.17 476.764C598.632 478.468 602.852 478.918 606.766 479.116C608.045 479.182 609.366 478.352 610.687 477.523C611.284 477.148 611.882 476.772 612.476 476.48C612.18 475.855 611.927 475.183 611.673 474.512C611.113 473.027 610.553 471.543 609.538 470.565C607.017 468.128 604.261 465.95 601.546 463.803C600.471 462.953 599.402 462.108 598.357 461.254C598.813 459.541 599.226 457.988 599.63 456.466C600.101 454.694 600.561 452.963 601.067 451.065C598.912 451.976 596.958 452.799 594.986 453.631C593.176 454.394 591.35 455.164 589.336 456.015C590.405 457.049 591.282 457.897 592.065 458.654C592.828 459.392 593.502 460.044 594.179 460.697C587.836 463.316 587.818 463.292 584.291 458.397L584.088 458.115C583.172 456.841 582.001 455.768 580.347 454.254C579.441 453.424 578.391 452.463 577.158 451.263C576.126 453.578 575.171 455.693 574.276 457.677C572.422 461.786 570.822 465.331 569.31 468.915C566.709 475.087 568.251 477.734 574.786 478.002C576.977 478.093 579.572 477.809 581.342 476.651C586.149 473.517 590.322 474.38 595.17 476.764Z" fill="#E8E8E8"/>
<g opacity="0.75">
<g filter="url(#filter0_d_434_2324)">
<circle cx="555.016" cy="562.529" r="17.9838" fill="white"/>
</g>
<path d="M564.415 565.209H563.726V557.1C563.726 556.562 563.508 556.047 563.12 555.667C562.733 555.286 562.207 555.073 561.658 555.073H549.251C548.703 555.073 548.177 555.286 547.789 555.667C547.401 556.047 547.184 556.562 547.184 557.1V565.209H546.494C546.311 565.209 546.136 565.28 546.007 565.407C545.878 565.534 545.805 565.706 545.805 565.885V567.236C545.805 567.774 546.023 568.29 546.411 568.67C546.798 569.05 547.324 569.264 547.873 569.264H563.037C563.585 569.264 564.111 569.05 564.499 568.67C564.887 568.29 565.105 567.774 565.105 567.236V565.885C565.105 565.706 565.032 565.534 564.903 565.407C564.773 565.28 564.598 565.209 564.415 565.209ZM548.562 557.1C548.562 556.921 548.635 556.749 548.764 556.622C548.893 556.495 549.069 556.424 549.251 556.424H561.658C561.841 556.424 562.016 556.495 562.146 556.622C562.275 556.749 562.348 556.921 562.348 557.1V565.209H548.562V557.1ZM563.726 567.236C563.726 567.416 563.653 567.587 563.524 567.714C563.395 567.841 563.22 567.912 563.037 567.912H547.873C547.69 567.912 547.515 567.841 547.385 567.714C547.256 567.587 547.184 567.416 547.184 567.236V566.561H563.726V567.236ZM557.523 558.452C557.523 558.631 557.45 558.803 557.321 558.929C557.191 559.056 557.016 559.127 556.833 559.127H554.076C553.893 559.127 553.718 559.056 553.589 558.929C553.46 558.803 553.387 558.631 553.387 558.452C553.387 558.272 553.46 558.1 553.589 557.974C553.718 557.847 553.893 557.776 554.076 557.776H556.833C557.016 557.776 557.191 557.847 557.321 557.974C557.45 558.1 557.523 558.272 557.523 558.452Z" fill="black"/>
<g filter="url(#filter1_d_434_2324)">
<circle cx="461.984" cy="439.984" r="17.9838" fill="white"/>
</g>
<g clip-path="url(#clip1_434_2324)">
<path d="M468.843 432.446H455.132C454.586 432.446 454.063 432.662 453.677 433.048C453.292 433.434 453.075 433.957 453.075 434.502V444.1C453.075 444.646 453.292 445.169 453.677 445.554C454.063 445.94 454.586 446.157 455.132 446.157H461.302V447.528H459.245C459.063 447.528 458.889 447.6 458.76 447.729C458.632 447.857 458.559 448.032 458.559 448.213C458.559 448.395 458.632 448.57 458.76 448.698C458.889 448.827 459.063 448.899 459.245 448.899H464.729C464.911 448.899 465.085 448.827 465.214 448.698C465.343 448.57 465.415 448.395 465.415 448.213C465.415 448.032 465.343 447.857 465.214 447.729C465.085 447.6 464.911 447.528 464.729 447.528H462.673V446.157H468.843C469.388 446.157 469.911 445.94 470.297 445.554C470.682 445.169 470.899 444.646 470.899 444.1V434.502C470.899 433.957 470.682 433.434 470.297 433.048C469.911 432.662 469.388 432.446 468.843 432.446ZM455.132 433.817H468.843C469.024 433.817 469.199 433.889 469.327 434.018C469.456 434.146 469.528 434.321 469.528 434.502V441.358H454.446V434.502C454.446 434.321 454.518 434.146 454.647 434.018C454.775 433.889 454.95 433.817 455.132 433.817ZM468.843 444.786H455.132C454.95 444.786 454.775 444.713 454.647 444.585C454.518 444.456 454.446 444.282 454.446 444.1V442.729H469.528V444.1C469.528 444.282 469.456 444.456 469.327 444.585C469.199 444.713 469.024 444.786 468.843 444.786Z" fill="black"/>
</g>
<g filter="url(#filter2_d_434_2324)">
<circle cx="223.906" cy="534.925" r="17.9838" fill="white"/>
</g>
<path d="M223.906 525.714C218.741 525.714 214.695 527.893 214.695 530.674V539.176C214.695 541.957 218.741 544.136 223.906 544.136C229.071 544.136 233.118 541.957 233.118 539.176V530.674C233.118 527.893 229.071 525.714 223.906 525.714ZM231.582 534.925C231.582 535.777 230.826 536.646 229.509 537.309C228.026 538.056 226.036 538.468 223.906 538.468C221.777 538.468 219.787 538.056 218.304 537.309C216.986 536.646 216.23 535.777 216.23 534.925V533.451C217.867 534.78 220.666 535.634 223.906 535.634C227.147 535.634 229.945 534.776 231.582 533.451V534.925ZM218.304 528.289C219.787 527.543 221.777 527.131 223.906 527.131C226.036 527.131 228.026 527.543 229.509 528.289C230.826 528.953 231.582 529.822 231.582 530.674C231.582 531.526 230.826 532.395 229.509 533.058C228.026 533.805 226.036 534.217 223.906 534.217C221.777 534.217 219.787 533.805 218.304 533.058C216.986 532.395 216.23 531.526 216.23 530.674C216.23 529.822 216.986 528.953 218.304 528.289ZM229.509 541.561C228.026 542.307 226.036 542.719 223.906 542.719C221.777 542.719 219.787 542.307 218.304 541.561C216.986 540.897 216.23 540.028 216.23 539.176V537.703C217.867 539.031 220.666 539.885 223.906 539.885C227.147 539.885 229.945 539.028 231.582 537.703V539.176C231.582 540.028 230.826 540.897 229.509 541.561Z" fill="black"/>
<g filter="url(#filter3_d_434_2324)">
<circle cx="170.394" cy="380.528" r="17.9838" fill="white"/>
</g>
<path d="M171.007 376.794C170.95 376.68 170.862 376.584 170.754 376.517C170.646 376.45 170.521 376.415 170.393 376.415C170.266 376.415 170.141 376.45 170.033 376.517C169.924 376.584 169.837 376.68 169.78 376.794L163.612 389.131C163.53 389.293 163.517 389.482 163.574 389.654C163.632 389.827 163.756 389.969 163.918 390.051C164.081 390.132 164.269 390.145 164.441 390.088C164.614 390.03 164.756 389.907 164.838 389.744L166.024 387.382H174.771L175.953 389.744C176.009 389.858 176.096 389.953 176.204 390.02C176.311 390.087 176.435 390.122 176.562 390.123C176.678 390.123 176.793 390.093 176.895 390.036C176.997 389.979 177.083 389.897 177.144 389.798C177.206 389.698 177.241 389.585 177.246 389.468C177.251 389.351 177.226 389.235 177.174 389.131L171.007 376.794ZM170.393 378.634L172.712 383.269H168.075L170.393 378.634ZM166.71 386.011L167.395 384.64H173.4L174.086 386.011H166.71ZM173.095 377.593C173.166 377.198 173.149 376.793 173.046 376.406C172.943 376.018 172.756 375.658 172.499 375.351C172.242 375.043 171.92 374.796 171.557 374.626C171.194 374.457 170.798 374.369 170.397 374.369C169.996 374.369 169.6 374.457 169.237 374.626C168.874 374.796 168.552 375.043 168.295 375.351C168.037 375.658 167.851 376.018 167.748 376.406C167.644 376.793 167.628 377.198 167.698 377.593C167.717 377.682 167.717 377.775 167.699 377.864C167.681 377.954 167.646 378.039 167.594 378.114C167.543 378.19 167.477 378.255 167.401 378.304C167.324 378.354 167.239 378.388 167.149 378.405C167.059 378.421 166.967 378.419 166.878 378.399C166.789 378.379 166.704 378.342 166.63 378.289C166.556 378.236 166.492 378.169 166.444 378.091C166.396 378.014 166.364 377.927 166.35 377.837C166.242 377.245 166.266 376.636 166.42 376.054C166.574 375.471 166.854 374.93 167.24 374.468C167.625 374.006 168.108 373.634 168.654 373.379C169.199 373.124 169.794 372.991 170.396 372.991C170.998 372.991 171.593 373.124 172.138 373.379C172.684 373.634 173.167 374.006 173.552 374.468C173.938 374.93 174.218 375.471 174.372 376.054C174.526 376.636 174.55 377.245 174.442 377.837C174.414 377.995 174.331 378.138 174.208 378.241C174.085 378.344 173.929 378.401 173.769 378.401C173.728 378.4 173.687 378.397 173.646 378.39C173.557 378.374 173.473 378.341 173.397 378.292C173.321 378.244 173.255 378.181 173.203 378.107C173.152 378.033 173.115 377.949 173.096 377.861C173.077 377.773 173.075 377.682 173.091 377.593H173.095ZM164.923 381.231C164.155 380.214 163.686 379.003 163.569 377.734C163.452 376.464 163.69 375.188 164.259 374.047C164.827 372.906 165.702 371.946 166.786 371.275C167.869 370.604 169.119 370.249 170.393 370.249C171.668 370.249 172.917 370.604 174.001 371.275C175.085 371.946 175.96 372.906 176.528 374.047C177.096 375.188 177.335 376.464 177.218 377.734C177.1 379.003 176.631 380.214 175.863 381.231C175.753 381.373 175.591 381.466 175.412 381.489C175.234 381.513 175.053 381.465 174.91 381.356C174.766 381.248 174.671 381.087 174.645 380.909C174.619 380.731 174.664 380.55 174.77 380.405C175.384 379.591 175.759 378.622 175.853 377.606C175.947 376.591 175.756 375.57 175.301 374.657C174.846 373.745 174.146 372.977 173.279 372.44C172.412 371.904 171.413 371.62 170.393 371.62C169.374 371.62 168.374 371.904 167.508 372.44C166.641 372.977 165.941 373.745 165.486 374.657C165.031 375.57 164.84 376.591 164.934 377.606C165.028 378.622 165.402 379.591 166.017 380.405C166.123 380.55 166.168 380.731 166.142 380.909C166.116 381.087 166.021 381.248 165.877 381.356C165.734 381.465 165.553 381.513 165.375 381.489C165.196 381.466 165.034 381.373 164.923 381.231Z" fill="black"/>
<g filter="url(#filter4_d_434_2324)">
<circle cx="330.932" cy="327.016" r="17.9838" fill="white"/>
</g>
<g clip-path="url(#clip2_434_2324)">
<path d="M337.822 333.468L335.264 326.696L337.768 323.987C338.262 323.453 338.523 322.745 338.494 322.019C338.466 321.292 338.15 320.607 337.616 320.113C337.082 319.62 336.374 319.359 335.647 319.387C334.921 319.416 334.235 319.732 333.742 320.266L331.238 322.975L324.286 320.957C324.164 320.921 324.034 320.921 323.911 320.955C323.789 320.989 323.678 321.057 323.592 321.15L321.731 323.163C321.662 323.238 321.611 323.327 321.58 323.423C321.55 323.52 321.542 323.622 321.556 323.723C321.57 323.823 321.606 323.919 321.661 324.004C321.717 324.089 321.791 324.16 321.877 324.213L327.127 327.423L326.026 328.614L324.373 328.678C324.283 328.682 324.195 328.703 324.113 328.741C324.031 328.778 323.958 328.832 323.897 328.898L322.036 330.911C321.959 330.994 321.904 331.094 321.876 331.202C321.847 331.311 321.845 331.425 321.871 331.534C321.897 331.643 321.949 331.745 322.023 331.829C322.097 331.914 322.191 331.979 322.296 332.018L325.485 333.238L326.951 336.321C326.999 336.423 327.071 336.511 327.161 336.578C327.251 336.646 327.357 336.69 327.468 336.707C327.579 336.724 327.692 336.713 327.798 336.676C327.904 336.639 327.999 336.576 328.075 336.494L329.936 334.48C329.997 334.414 330.045 334.337 330.076 334.252C330.107 334.168 330.122 334.078 330.118 333.988L330.052 332.335L331.153 331.144L334.765 336.125C334.825 336.207 334.902 336.275 334.991 336.324C335.08 336.373 335.178 336.401 335.279 336.407C335.381 336.413 335.482 336.397 335.576 336.359C335.67 336.321 335.755 336.263 335.823 336.189L337.684 334.175C337.771 334.082 337.829 333.966 337.854 333.841C337.878 333.716 337.867 333.587 337.822 333.468ZM335.384 334.644L331.772 329.663C331.713 329.581 331.636 329.513 331.547 329.464C331.458 329.416 331.359 329.387 331.258 329.381C331.157 329.375 331.056 329.391 330.961 329.429C330.867 329.467 330.783 329.525 330.714 329.6L328.853 331.613C328.792 331.679 328.745 331.756 328.713 331.841C328.682 331.925 328.668 332.015 328.671 332.105L328.737 333.758L327.756 334.82L326.607 332.403C326.531 332.244 326.397 332.12 326.233 332.057L323.73 331.098L324.711 330.037L326.364 329.972C326.454 329.969 326.542 329.947 326.624 329.91C326.706 329.872 326.779 329.818 326.84 329.752L328.701 327.739C328.77 327.665 328.821 327.576 328.851 327.479C328.882 327.382 328.89 327.28 328.876 327.18C328.862 327.079 328.826 326.983 328.77 326.898C328.715 326.814 328.641 326.742 328.555 326.689L323.305 323.48L324.311 322.391L331.263 324.409C331.385 324.445 331.515 324.445 331.637 324.411C331.76 324.377 331.871 324.309 331.957 324.216L334.748 321.196C334.995 320.929 335.338 320.771 335.701 320.757C336.064 320.742 336.418 320.873 336.685 321.12C336.952 321.367 337.11 321.709 337.125 322.072C337.139 322.436 337.008 322.79 336.761 323.057L333.97 326.077C333.884 326.17 333.825 326.286 333.801 326.411C333.776 326.536 333.787 326.665 333.832 326.784L336.39 333.556L335.384 334.644Z" fill="black"/>
</g>
<path d="M141.444 381.844C44.2889 408.229 183.633 483.778 207.677 506.414" stroke="white" stroke-width="2.63177" stroke-linecap="round"/>
<path d="M433.5 444.5C347.5 520.5 237.944 385.637 197.15 385.883" stroke="url(#paint0_linear_434_2324)" stroke-width="2.63177" stroke-linecap="round"/>
<path d="M537.5 535C496.708 466.574 556.849 429.314 493 439" stroke="url(#paint1_linear_434_2324)" stroke-width="2.63177" stroke-linecap="round"/>
<path d="M461.835 413.734C455.916 372.126 496.048 368.994 494.732 383.907" stroke="url(#paint2_linear_434_2324)" stroke-width="2.63177" stroke-linecap="round"/>
<path d="M305.491 319.998C246.167 300.274 231.185 311.905 194.08 363.002" stroke="url(#paint3_linear_434_2324)" stroke-width="2.63177" stroke-linecap="round"/>
</g>
</g>
<defs>
<filter id="filter0_d_434_2324" x="529.983" y="540.373" width="50.0668" height="50.0665" filterUnits="userSpaceOnUse" color-interpolation-filters="sRGB">
<feFlood flood-opacity="0" result="BackgroundImageFix"/>
<feColorMatrix in="SourceAlpha" type="matrix" values="0 0 0 0 0 0 0 0 0 0 0 0 0 0 0 0 0 0 127 0" result="hardAlpha"/>
<feOffset dy="2.8774"/>
<feGaussianBlur stdDeviation="3.52482"/>
<feComposite in2="hardAlpha" operator="out"/>
<feColorMatrix type="matrix" values="0 0 0 0 0 0 0 0 0 0 0 0 0 0 0 0 0 0 0.25 0"/>
<feBlend mode="normal" in2="BackgroundImageFix" result="effect1_dropShadow_434_2324"/>
<feBlend mode="normal" in="SourceGraphic" in2="effect1_dropShadow_434_2324" result="shape"/>
</filter>
<filter id="filter1_d_434_2324" x="436.95" y="417.828" width="50.0668" height="50.0665" filterUnits="userSpaceOnUse" color-interpolation-filters="sRGB">
<feFlood flood-opacity="0" result="BackgroundImageFix"/>
<feColorMatrix in="SourceAlpha" type="matrix" values="0 0 0 0 0 0 0 0 0 0 0 0 0 0 0 0 0 0 127 0" result="hardAlpha"/>
<feOffset dy="2.8774"/>
<feGaussianBlur stdDeviation="3.52482"/>
<feComposite in2="hardAlpha" operator="out"/>
<feColorMatrix type="matrix" values="0 0 0 0 0 0 0 0 0 0 0 0 0 0 0 0 0 0 0.25 0"/>
<feBlend mode="normal" in2="BackgroundImageFix" result="effect1_dropShadow_434_2324"/>
<feBlend mode="normal" in="SourceGraphic" in2="effect1_dropShadow_434_2324" result="shape"/>
</filter>
<filter id="filter2_d_434_2324" x="198.873" y="512.769" width="50.0668" height="50.0665" filterUnits="userSpaceOnUse" color-interpolation-filters="sRGB">
<feFlood flood-opacity="0" result="BackgroundImageFix"/>
<feColorMatrix in="SourceAlpha" type="matrix" values="0 0 0 0 0 0 0 0 0 0 0 0 0 0 0 0 0 0 127 0" result="hardAlpha"/>
<feOffset dy="2.8774"/>
<feGaussianBlur stdDeviation="3.52482"/>
<feComposite in2="hardAlpha" operator="out"/>
<feColorMatrix type="matrix" values="0 0 0 0 0 0 0 0 0 0 0 0 0 0 0 0 0 0 0.25 0"/>
<feBlend mode="normal" in2="BackgroundImageFix" result="effect1_dropShadow_434_2324"/>
<feBlend mode="normal" in="SourceGraphic" in2="effect1_dropShadow_434_2324" result="shape"/>
</filter>
<filter id="filter3_d_434_2324" x="145.36" y="358.372" width="50.0668" height="50.0665" filterUnits="userSpaceOnUse" color-interpolation-filters="sRGB">
<feFlood flood-opacity="0" result="BackgroundImageFix"/>
<feColorMatrix in="SourceAlpha" type="matrix" values="0 0 0 0 0 0 0 0 0 0 0 0 0 0 0 0 0 0 127 0" result="hardAlpha"/>
<feOffset dy="2.8774"/>
<feGaussianBlur stdDeviation="3.52482"/>
<feComposite in2="hardAlpha" operator="out"/>
<feColorMatrix type="matrix" values="0 0 0 0 0 0 0 0 0 0 0 0 0 0 0 0 0 0 0.25 0"/>
<feBlend mode="normal" in2="BackgroundImageFix" result="effect1_dropShadow_434_2324"/>
<feBlend mode="normal" in="SourceGraphic" in2="effect1_dropShadow_434_2324" result="shape"/>
</filter>
<filter id="filter4_d_434_2324" x="305.898" y="304.86" width="50.0668" height="50.0665" filterUnits="userSpaceOnUse" color-interpolation-filters="sRGB">
<feFlood flood-opacity="0" result="BackgroundImageFix"/>
<feColorMatrix in="SourceAlpha" type="matrix" values="0 0 0 0 0 0 0 0 0 0 0 0 0 0 0 0 0 0 127 0" result="hardAlpha"/>
<feOffset dy="2.8774"/>
<feGaussianBlur stdDeviation="3.52482"/>
<feComposite in2="hardAlpha" operator="out"/>
<feColorMatrix type="matrix" values="0 0 0 0 0 0 0 0 0 0 0 0 0 0 0 0 0 0 0.25 0"/>
<feBlend mode="normal" in2="BackgroundImageFix" result="effect1_dropShadow_434_2324"/>
<feBlend mode="normal" in="SourceGraphic" in2="effect1_dropShadow_434_2324" result="shape"/>
</filter>
<linearGradient id="paint0_linear_434_2324" x1="287.888" y1="442.34" x2="137.763" y2="468.741" gradientUnits="userSpaceOnUse">
<stop offset="0.355" stop-color="white"/>
<stop offset="0.73" stop-color="white"/>
</linearGradient>
<linearGradient id="paint1_linear_434_2324" x1="550.684" y1="543.26" x2="328.3" y2="535.364" gradientUnits="userSpaceOnUse">
<stop offset="0.355" stop-color="white"/>
<stop offset="0.3551" stop-color="#EAEAEA"/>
</linearGradient>
<linearGradient id="paint2_linear_434_2324" x1="549.941" y1="518.985" x2="399.816" y2="545.386" gradientUnits="userSpaceOnUse">
<stop offset="0.355" stop-color="white"/>
<stop offset="0.73" stop-color="white"/>
</linearGradient>
<linearGradient id="paint3_linear_434_2324" x1="290.433" y1="326.009" x2="223.029" y2="365.176" gradientUnits="userSpaceOnUse">
<stop offset="0.7299" stop-color="white"/>
<stop offset="0.73" stop-color="#E8E8E8"/>
</linearGradient>
<clipPath id="clip0_434_2324">
<rect width="1053" height="691" fill="white"/>
</clipPath>
<clipPath id="clip1_434_2324">
<rect width="21.9314" height="21.9314" fill="white" transform="translate(451.018 429.018)"/>
</clipPath>
<clipPath id="clip2_434_2324">
<rect width="21.9314" height="21.9314" fill="white" transform="translate(330.493 311.664) rotate(42.746)"/>
</clipPath>
</defs>
</svg>
