<svg width="33" height="42" viewBox="0 0 33 42" fill="none" xmlns="http://www.w3.org/2000/svg">
<path d="M26.5625 9.6354L24.8333 8.06248L23.9375 7.29165L17.1875 1.30207C16.7942 0.956603 16.2057 0.956603 15.8125 1.30207L9.06246 7.29165L8.16662 8.06248L6.43746 9.6354C6.03529 10.0217 6.00866 10.6562 6.37705 11.0748C6.74544 11.4934 7.37817 11.5477 7.81246 11.1979L8.16662 10.8854V19.7917C8.16662 21.5175 9.56573 22.9167 11.2916 22.9167H13.375V16.6666C13.375 14.9408 14.7741 13.5417 16.5 13.5417C18.2258 13.5417 19.625 14.9408 19.625 16.6666V22.9167H21.7083C23.4342 22.9167 24.8333 21.5175 24.8333 19.7917V10.8854L25.1875 11.1979C25.6191 11.577 26.2762 11.5351 26.6562 11.1041C27.0353 10.6725 26.9934 10.0154 26.5625 9.6354Z" fill="#E1E0E2"/>
<path d="M6.93537 29.355V37H5.68137V33.656H2.08437V37H0.830371V29.355H2.08437V32.633H5.68137V29.355H6.93537ZM11.2152 37.099C10.6432 37.099 10.1262 36.9707 9.66423 36.714C9.20223 36.45 8.83923 36.0833 8.57523 35.614C8.31123 35.1373 8.17923 34.5873 8.17923 33.964C8.17923 33.348 8.3149 32.8017 8.58623 32.325C8.85756 31.8483 9.2279 31.4817 9.69723 31.225C10.1666 30.9683 10.6909 30.84 11.2702 30.84C11.8496 30.84 12.3739 30.9683 12.8432 31.225C13.3126 31.4817 13.6829 31.8483 13.9542 32.325C14.2256 32.8017 14.3612 33.348 14.3612 33.964C14.3612 34.58 14.2219 35.1263 13.9432 35.603C13.6646 36.0797 13.2832 36.45 12.7992 36.714C12.3226 36.9707 11.7946 37.099 11.2152 37.099ZM11.2152 36.01C11.5379 36.01 11.8386 35.933 12.1172 35.779C12.4032 35.625 12.6342 35.394 12.8102 35.086C12.9862 34.778 13.0742 34.404 13.0742 33.964C13.0742 33.524 12.9899 33.1537 12.8212 32.853C12.6526 32.545 12.4289 32.314 12.1502 32.16C11.8716 32.006 11.5709 31.929 11.2482 31.929C10.9256 31.929 10.6249 32.006 10.3462 32.16C10.0749 32.314 9.85856 32.545 9.69723 32.853C9.5359 33.1537 9.45523 33.524 9.45523 33.964C9.45523 34.6167 9.62023 35.1227 9.95023 35.482C10.2876 35.834 10.7092 36.01 11.2152 36.01ZM22.9379 30.84C23.4145 30.84 23.8399 30.939 24.2139 31.137C24.5952 31.335 24.8922 31.6283 25.1049 32.017C25.3249 32.4057 25.4349 32.875 25.4349 33.425V37H24.1919V33.612C24.1919 33.0693 24.0562 32.655 23.7849 32.369C23.5135 32.0757 23.1432 31.929 22.6739 31.929C22.2045 31.929 21.8305 32.0757 21.5519 32.369C21.2805 32.655 21.1449 33.0693 21.1449 33.612V37H19.9019V33.612C19.9019 33.0693 19.7662 32.655 19.4949 32.369C19.2235 32.0757 18.8532 31.929 18.3839 31.929C17.9145 31.929 17.5405 32.0757 17.2619 32.369C16.9905 32.655 16.8549 33.0693 16.8549 33.612V37H15.6009V30.939H16.8549V31.632C17.0602 31.3827 17.3205 31.1883 17.6359 31.049C17.9512 30.9097 18.2885 30.84 18.6479 30.84C19.1319 30.84 19.5645 30.9427 19.9459 31.148C20.3272 31.3533 20.6205 31.6503 20.8259 32.039C21.0092 31.6723 21.2952 31.3827 21.6839 31.17C22.0725 30.95 22.4905 30.84 22.9379 30.84ZM32.5856 33.821C32.5856 34.0483 32.5709 34.2537 32.5416 34.437H27.9106C27.9472 34.921 28.1269 35.3097 28.4496 35.603C28.7722 35.8963 29.1682 36.043 29.6376 36.043C30.3122 36.043 30.7889 35.7607 31.0676 35.196H32.4206C32.2372 35.7533 31.9036 36.2117 31.4196 36.571C30.9429 36.923 30.3489 37.099 29.6376 37.099C29.0582 37.099 28.5376 36.9707 28.0756 36.714C27.6209 36.45 27.2616 36.0833 26.9976 35.614C26.7409 35.1373 26.6126 34.5873 26.6126 33.964C26.6126 33.3407 26.7372 32.7943 26.9866 32.325C27.2432 31.8483 27.5989 31.4817 28.0536 31.225C28.5156 30.9683 29.0436 30.84 29.6376 30.84C30.2096 30.84 30.7192 30.9647 31.1666 31.214C31.6139 31.4633 31.9622 31.8153 32.2116 32.27C32.4609 32.7173 32.5856 33.2343 32.5856 33.821ZM31.2766 33.425C31.2692 32.963 31.1042 32.5927 30.7816 32.314C30.4589 32.0353 30.0592 31.896 29.5826 31.896C29.1499 31.896 28.7796 32.0353 28.4716 32.314C28.1636 32.5853 27.9802 32.9557 27.9216 33.425H31.2766Z" fill="white"/>
</svg>
