<svg width="26" height="38" viewBox="0 0 26 38" fill="none" xmlns="http://www.w3.org/2000/svg">
<path fill-rule="evenodd" clip-rule="evenodd" d="M13 22.9152C7.31846 22.8164 2.76436 18.1825 2.76436 12.5001C2.76436 6.81768 7.31846 2.18374 13 2.08499C18.6815 2.18374 23.2356 6.81768 23.2356 12.5001C23.2356 18.1825 18.6815 22.8164 13 22.9152ZM18.2296 13.546L14.0386 13.5386L14.0459 17.7297C14.0471 18.0075 13.9372 18.2742 13.7408 18.4706C13.5444 18.667 13.2777 18.7768 13 18.7757C12.7231 18.7745 12.4581 18.6632 12.2634 18.4663C12.0665 18.2716 11.9552 18.0066 11.9541 17.7297L11.9614 13.5386L7.77036 13.546C7.49348 13.5449 7.22844 13.4336 7.03379 13.2366C6.83687 13.042 6.72556 12.777 6.72443 12.5001C6.72329 12.2223 6.83312 11.9556 7.02952 11.7592C7.22591 11.5628 7.49261 11.453 7.77036 11.4542L11.9614 11.4615L11.9541 7.27044C11.9541 6.89676 12.1534 6.55147 12.477 6.36463C12.8006 6.1778 13.1994 6.1778 13.523 6.36463C13.8466 6.55147 14.0459 6.89676 14.0459 7.27044L14.0386 11.4615L18.2296 11.4542C18.6033 11.4542 18.9486 11.6535 19.1354 11.9771C19.3223 12.3007 19.3223 12.6994 19.1354 13.023C18.9486 13.3467 18.6033 13.546 18.2296 13.546ZM13.0031 4.17138C17.6043 4.17053 21.3354 7.89891 21.338 12.5001C21.3532 14.7161 20.4796 16.8457 18.9126 18.4127C17.3457 19.9797 15.216 20.8533 13 20.838C8.39883 20.8355 4.67045 17.1043 4.6713 12.5032C4.67215 7.902 8.40192 4.17224 13.0031 4.17138Z" fill="white"/>
<path d="M7.70903 33H6.45503L2.68203 27.291V33H1.42803V25.344H2.68203L6.45503 31.042V25.344H7.70903V33ZM14.9108 29.821C14.9108 30.0483 14.8961 30.2537 14.8668 30.437H10.2358C10.2724 30.921 10.4521 31.3097 10.7748 31.603C11.0974 31.8963 11.4934 32.043 11.9628 32.043C12.6374 32.043 13.1141 31.7607 13.3928 31.196H14.7458C14.5624 31.7533 14.2288 32.2117 13.7448 32.571C13.2681 32.923 12.6741 33.099 11.9628 33.099C11.3834 33.099 10.8628 32.9707 10.4008 32.714C9.9461 32.45 9.58676 32.0833 9.32276 31.614C9.0661 31.1373 8.93776 30.5873 8.93776 29.964C8.93776 29.3407 9.06243 28.7943 9.31176 28.325C9.56843 27.8483 9.9241 27.4817 10.3788 27.225C10.8408 26.9683 11.3688 26.84 11.9628 26.84C12.5348 26.84 13.0444 26.9647 13.4918 27.214C13.9391 27.4633 14.2874 27.8153 14.5368 28.27C14.7861 28.7173 14.9108 29.2343 14.9108 29.821ZM13.6018 29.425C13.5944 28.963 13.4294 28.5927 13.1068 28.314C12.7841 28.0353 12.3844 27.896 11.9078 27.896C11.4751 27.896 11.1048 28.0353 10.7968 28.314C10.4888 28.5853 10.3054 28.9557 10.2468 29.425H13.6018ZM24.2848 26.939L22.4038 33H21.0838L19.8628 28.523L18.6418 33H17.3218L15.4298 26.939H16.7058L17.9708 31.812L19.2578 26.939H20.5668L21.7988 31.79L23.0528 26.939H24.2848Z" fill="white"/>
</svg>
