<svg width="70" height="70" viewBox="0 0 70 70" fill="none" xmlns="http://www.w3.org/2000/svg">
<g filter="url(#filter0_b_74_415)">
<rect width="70" height="70" rx="10" fill="#793020"/>
</g>
<path fill-rule="evenodd" clip-rule="evenodd" d="M34.5 38.9152C28.8185 38.8164 24.2644 34.1825 24.2644 28.5001C24.2644 22.8177 28.8185 18.1837 34.5 18.085C40.1815 18.1837 44.7356 22.8177 44.7356 28.5001C44.7356 34.1825 40.1815 38.8164 34.5 38.9152ZM39.7296 29.546L35.5386 29.5386L35.5459 33.7297C35.5471 34.0075 35.4372 34.2742 35.2408 34.4706C35.0444 34.667 34.7777 34.7768 34.5 34.7757C34.2231 34.7745 33.9581 34.6632 33.7634 34.4663C33.5665 34.2716 33.4552 34.0066 33.4541 33.7297L33.4614 29.5386L29.2704 29.546C28.9935 29.5449 28.7284 29.4336 28.5338 29.2366C28.3369 29.042 28.2256 28.777 28.2244 28.5001C28.2233 28.2223 28.3331 27.9556 28.5295 27.7592C28.7259 27.5628 28.9926 27.453 29.2704 27.4542L33.4614 27.4615L33.4541 23.2704C33.4541 22.8968 33.6534 22.5515 33.977 22.3646C34.3006 22.1778 34.6994 22.1778 35.023 22.3646C35.3466 22.5515 35.5459 22.8968 35.5459 23.2704L35.5386 27.4615L39.7296 27.4542C40.1033 27.4542 40.4486 27.6535 40.6354 27.9771C40.8223 28.3007 40.8223 28.6994 40.6354 29.023C40.4486 29.3467 40.1033 29.546 39.7296 29.546ZM34.5031 20.1714C39.1043 20.1705 42.8354 23.8989 42.838 28.5001C42.8532 30.7161 41.9796 32.8457 40.4126 34.4127C38.8457 35.9797 36.716 36.8533 34.5 36.838C29.8988 36.8355 26.1704 33.1043 26.1713 28.5032C26.1722 23.902 29.9019 20.1722 34.5031 20.1714Z" fill="white"/>
<path d="M29.209 49H27.955L24.182 43.291V49H22.928V41.344H24.182L27.955 47.042V41.344H29.209V49ZM36.4108 45.821C36.4108 46.0483 36.3961 46.2537 36.3668 46.437H31.7358C31.7724 46.921 31.9521 47.3097 32.2748 47.603C32.5974 47.8963 32.9934 48.043 33.4628 48.043C34.1374 48.043 34.6141 47.7607 34.8928 47.196H36.2458C36.0624 47.7533 35.7288 48.2117 35.2448 48.571C34.7681 48.923 34.1741 49.099 33.4628 49.099C32.8834 49.099 32.3628 48.9707 31.9008 48.714C31.4461 48.45 31.0868 48.0833 30.8228 47.614C30.5661 47.1373 30.4378 46.5873 30.4378 45.964C30.4378 45.3407 30.5624 44.7943 30.8118 44.325C31.0684 43.8483 31.4241 43.4817 31.8788 43.225C32.3408 42.9683 32.8688 42.84 33.4628 42.84C34.0348 42.84 34.5444 42.9647 34.9918 43.214C35.4391 43.4633 35.7874 43.8153 36.0368 44.27C36.2861 44.7173 36.4108 45.2343 36.4108 45.821ZM35.1018 45.425C35.0944 44.963 34.9294 44.5927 34.6068 44.314C34.2841 44.0353 33.8844 43.896 33.4078 43.896C32.9751 43.896 32.6048 44.0353 32.2968 44.314C31.9888 44.5853 31.8054 44.9557 31.7468 45.425H35.1018ZM45.7848 42.939L43.9038 49H42.5838L41.3628 44.523L40.1418 49H38.8218L36.9298 42.939H38.2058L39.4708 47.812L40.7578 42.939H42.0668L43.2988 47.79L44.5528 42.939H45.7848Z" fill="white"/>
<defs>
<filter id="filter0_b_74_415" x="-187" y="-187" width="444" height="444" filterUnits="userSpaceOnUse" color-interpolation-filters="sRGB">
<feFlood flood-opacity="0" result="BackgroundImageFix"/>
<feGaussianBlur in="BackgroundImageFix" stdDeviation="93.5"/>
<feComposite in2="SourceAlpha" operator="in" result="effect1_backgroundBlur_74_415"/>
<feBlend mode="normal" in="SourceGraphic" in2="effect1_backgroundBlur_74_415" result="shape"/>
</filter>
</defs>
</svg>
