<svg width="70" height="70" viewBox="0 0 70 70" fill="none" xmlns="http://www.w3.org/2000/svg">
<g filter="url(#filter0_b_8_8544)">
<rect width="70" height="70" rx="10" fill="black" fill-opacity="0.5"/>
</g>
<path fill-rule="evenodd" clip-rule="evenodd" d="M34.5 37.4152C28.8185 37.3164 24.2644 32.6825 24.2644 27.0001C24.2644 21.3177 28.8185 16.6837 34.5 16.585C40.1815 16.6837 44.7356 21.3177 44.7356 27.0001C44.7356 32.6825 40.1815 37.3164 34.5 37.4152ZM39.7296 28.046L35.5386 28.0386L35.5459 32.2297C35.5471 32.5075 35.4372 32.7742 35.2408 32.9706C35.0444 33.167 34.7777 33.2768 34.5 33.2757C34.2231 33.2745 33.9581 33.1632 33.7634 32.9663C33.5665 32.7716 33.4552 32.5066 33.4541 32.2297L33.4614 28.0386L29.2704 28.046C28.9935 28.0449 28.7284 27.9336 28.5338 27.7366C28.3369 27.542 28.2256 27.277 28.2244 27.0001C28.2233 26.7223 28.3331 26.4556 28.5295 26.2592C28.7259 26.0628 28.9926 25.953 29.2704 25.9542L33.4614 25.9615L33.4541 21.7704C33.4541 21.3968 33.6534 21.0515 33.977 20.8646C34.3006 20.6778 34.6994 20.6778 35.023 20.8646C35.3466 21.0515 35.5459 21.3968 35.5459 21.7704L35.5386 25.9615L39.7296 25.9542C40.1033 25.9542 40.4486 26.1535 40.6354 26.4771C40.8223 26.8007 40.8223 27.1994 40.6354 27.523C40.4486 27.8467 40.1033 28.046 39.7296 28.046ZM34.5031 18.6714C39.1043 18.6705 42.8354 22.3989 42.838 27.0001C42.8532 29.2161 41.9796 31.3457 40.4126 32.9127C38.8457 34.4797 36.716 35.3533 34.5 35.338C29.8988 35.3355 26.1704 31.6043 26.1713 27.0032C26.1722 22.402 29.9019 18.6722 34.5031 18.6714Z" fill="white"/>
<path d="M29.209 50.5H27.955L24.182 44.791V50.5H22.928V42.844H24.182L27.955 48.542V42.844H29.209V50.5ZM36.4108 47.321C36.4108 47.5483 36.3961 47.7537 36.3668 47.937H31.7358C31.7724 48.421 31.9521 48.8097 32.2748 49.103C32.5974 49.3963 32.9934 49.543 33.4628 49.543C34.1374 49.543 34.6141 49.2607 34.8928 48.696H36.2458C36.0624 49.2533 35.7288 49.7117 35.2448 50.071C34.7681 50.423 34.1741 50.599 33.4628 50.599C32.8834 50.599 32.3628 50.4707 31.9008 50.214C31.4461 49.95 31.0868 49.5833 30.8228 49.114C30.5661 48.6373 30.4378 48.0873 30.4378 47.464C30.4378 46.8407 30.5624 46.2943 30.8118 45.825C31.0684 45.3483 31.4241 44.9817 31.8788 44.725C32.3408 44.4683 32.8688 44.34 33.4628 44.34C34.0348 44.34 34.5444 44.4647 34.9918 44.714C35.4391 44.9633 35.7874 45.3153 36.0368 45.77C36.2861 46.2173 36.4108 46.7343 36.4108 47.321ZM35.1018 46.925C35.0944 46.463 34.9294 46.0927 34.6068 45.814C34.2841 45.5353 33.8844 45.396 33.4078 45.396C32.9751 45.396 32.6048 45.5353 32.2968 45.814C31.9888 46.0853 31.8054 46.4557 31.7468 46.925H35.1018ZM45.7848 44.439L43.9038 50.5H42.5838L41.3628 46.023L40.1418 50.5H38.8218L36.9298 44.439H38.2058L39.4708 49.312L40.7578 44.439H42.0668L43.2988 49.29L44.5528 44.439H45.7848Z" fill="white"/>
<defs>
<filter id="filter0_b_8_8544" x="-187" y="-187" width="444" height="444" filterUnits="userSpaceOnUse" color-interpolation-filters="sRGB">
<feFlood flood-opacity="0" result="BackgroundImageFix"/>
<feGaussianBlur in="BackgroundImageFix" stdDeviation="93.5"/>
<feComposite in2="SourceAlpha" operator="in" result="effect1_backgroundBlur_8_8544"/>
<feBlend mode="normal" in="SourceGraphic" in2="effect1_backgroundBlur_8_8544" result="shape"/>
</filter>
</defs>
</svg>
