<svg width="80" height="50" viewBox="0 0 80 50" fill="none" xmlns="http://www.w3.org/2000/svg">
<path d="M30.0735 10.2343L28.775 11.2195C27.1652 12.4409 27.0661 15.4162 28.574 16.7613C30.8216 18.7662 33.8137 21.4531 36.2139 23.6128C37.2417 24.5376 38.798 24.5473 39.8374 23.6356L52.1701 12.8193C53.4794 11.671 53.3916 9.60644 51.9896 8.5734L43.0582 1.99232C42.2319 1.38348 41.1337 1.29012 40.2165 1.75072L38.0147 2.85645M30.0735 10.2343V10.2343C28.5963 10.0701 28.1089 8.16446 29.326 7.31126L36.1838 2.50374C36.7841 2.08289 37.6137 2.24269 38.0147 2.85645V2.85645M30.0735 10.2343L38.0147 2.85645M30.0735 10.2343V10.2343C30.0735 12.1872 32.3385 13.267 33.8558 12.0375L36.9707 9.51331C37.514 9.07303 37.5254 8.24798 36.9945 7.79286V7.79286C36.5071 7.37516 36.4699 6.63419 36.9128 6.16967L37.5938 5.45547C38.028 5 38.2298 4.37071 38.1413 3.74764L38.0147 2.85645" stroke="white" stroke-width="2"/>
<path d="M37.7814 19.8564L48.7814 10.8564M42.2814 7.35645L44.2814 9.35645M40.7814 10.3564L41.7814 11.3564" stroke="white" stroke-width="2" stroke-linecap="round"/>
<path fill-rule="evenodd" clip-rule="evenodd" d="M37.6082 3.25681C37.2241 2.75949 36.5095 2.66771 36.0122 3.05182L29.6819 7.9411C29.1846 8.32521 29.0928 9.03975 29.4769 9.53707L30.1682 10.4321C30.1705 10.4351 30.1749 10.4357 30.1779 10.4333C30.1809 10.431 30.1852 10.4316 30.1875 10.4346L30.934 11.4011C31.3486 11.9379 32.1199 12.037 32.6567 11.6223L36.079 8.97905C36.6158 8.56445 36.7149 7.7932 36.3003 7.2564C35.8857 6.71961 35.9847 5.94835 36.5215 5.53375L37.4032 4.85277C37.9005 4.46866 37.9923 3.75412 37.6082 3.25681Z" fill="#F05E3E"/>
<path d="M29.8966 32.8664C29.8966 33.255 29.8049 33.6217 29.6216 33.9664C29.4383 34.311 29.1449 34.5934 28.7416 34.8134C28.3383 35.026 27.8213 35.1324 27.1906 35.1324H25.8046V38.2344H24.5506V30.5894H27.1906C27.7773 30.5894 28.2723 30.692 28.6756 30.8974C29.0863 31.0954 29.3906 31.3667 29.5886 31.7114C29.7939 32.056 29.8966 32.441 29.8966 32.8664ZM27.1906 34.1094C27.6673 34.1094 28.0229 34.003 28.2576 33.7904C28.4923 33.5704 28.6096 33.2624 28.6096 32.8664C28.6096 32.0304 28.1366 31.6124 27.1906 31.6124H25.8046V34.1094H27.1906ZM31.7306 31.3704C31.5032 31.3704 31.3126 31.2934 31.1586 31.1394C31.0046 30.9854 30.9276 30.7947 30.9276 30.5674C30.9276 30.34 31.0046 30.1494 31.1586 29.9954C31.3126 29.8414 31.5032 29.7644 31.7306 29.7644C31.9506 29.7644 32.1376 29.8414 32.2916 29.9954C32.4456 30.1494 32.5226 30.34 32.5226 30.5674C32.5226 30.7947 32.4456 30.9854 32.2916 31.1394C32.1376 31.2934 31.9506 31.3704 31.7306 31.3704ZM32.3466 32.1734V38.2344H31.0926V32.1734H32.3466ZM33.575 34.3954C33.575 33.6474 33.7473 32.9764 34.092 32.3824C34.444 31.7884 34.917 31.3264 35.511 30.9964C36.1123 30.659 36.7686 30.4904 37.48 30.4904C38.294 30.4904 39.0163 30.692 39.647 31.0954C40.285 31.4914 40.747 32.056 41.033 32.7894H39.526C39.328 32.386 39.053 32.0854 38.701 31.8874C38.349 31.6894 37.942 31.5904 37.48 31.5904C36.974 31.5904 36.523 31.704 36.127 31.9314C35.731 32.1587 35.4193 32.485 35.192 32.9104C34.972 33.3357 34.862 33.8307 34.862 34.3954C34.862 34.96 34.972 35.455 35.192 35.8804C35.4193 36.3057 35.731 36.6357 36.127 36.8704C36.523 37.0977 36.974 37.2114 37.48 37.2114C37.942 37.2114 38.349 37.1124 38.701 36.9144C39.053 36.7164 39.328 36.4157 39.526 36.0124H41.033C40.747 36.7457 40.285 37.3104 39.647 37.7064C39.0163 38.1024 38.294 38.3004 37.48 38.3004C36.7613 38.3004 36.105 38.1354 35.511 37.8054C34.917 37.468 34.444 37.0024 34.092 36.4084C33.7473 35.8144 33.575 35.1434 33.575 34.3954ZM42.0828 35.1764C42.0828 34.5677 42.2074 34.0287 42.4568 33.5594C42.7134 33.09 43.0581 32.727 43.4908 32.4704C43.9308 32.2064 44.4148 32.0744 44.9428 32.0744C45.4194 32.0744 45.8338 32.1697 46.1858 32.3604C46.5451 32.5437 46.8311 32.7747 47.0438 33.0534V32.1734H48.3088V38.2344H47.0438V37.3324C46.8311 37.6184 46.5414 37.8567 46.1748 38.0474C45.8081 38.238 45.3901 38.3334 44.9208 38.3334C44.4001 38.3334 43.9234 38.2014 43.4908 37.9374C43.0581 37.666 42.7134 37.292 42.4568 36.8154C42.2074 36.3314 42.0828 35.785 42.0828 35.1764ZM47.0438 35.1984C47.0438 34.7804 46.9558 34.4174 46.7798 34.1094C46.6111 33.8014 46.3874 33.5667 46.1088 33.4054C45.8301 33.244 45.5294 33.1634 45.2068 33.1634C44.8841 33.1634 44.5834 33.244 44.3048 33.4054C44.0261 33.5594 43.7988 33.7904 43.6228 34.0984C43.4541 34.399 43.3698 34.7584 43.3698 35.1764C43.3698 35.5944 43.4541 35.961 43.6228 36.2764C43.7988 36.5917 44.0261 36.8337 44.3048 37.0024C44.5908 37.1637 44.8914 37.2444 45.2068 37.2444C45.5294 37.2444 45.8301 37.1637 46.1088 37.0024C46.3874 36.841 46.6111 36.6064 46.7798 36.2984C46.9558 35.983 47.0438 35.6164 47.0438 35.1984ZM53.0139 32.0744C53.4905 32.0744 53.9159 32.1734 54.2899 32.3714C54.6712 32.5694 54.9682 32.8627 55.1809 33.2514C55.3935 33.64 55.4999 34.1094 55.4999 34.6594V38.2344H54.2569V34.8464C54.2569 34.3037 54.1212 33.8894 53.8499 33.6034C53.5785 33.31 53.2082 33.1634 52.7389 33.1634C52.2695 33.1634 51.8955 33.31 51.6169 33.6034C51.3455 33.8894 51.2099 34.3037 51.2099 34.8464V38.2344H49.9559V32.1734H51.2099V32.8664C51.4152 32.617 51.6755 32.4227 51.9909 32.2834C52.3135 32.144 52.6545 32.0744 53.0139 32.0744ZM19.6265 48.3114C18.9151 48.3114 18.2588 48.1464 17.6575 47.8164C17.0635 47.479 16.5905 47.0134 16.2385 46.4194C15.8938 45.818 15.7215 45.1434 15.7215 44.3954C15.7215 43.6474 15.8938 42.9764 16.2385 42.3824C16.5905 41.7884 17.0635 41.3264 17.6575 40.9964C18.2588 40.659 18.9151 40.4904 19.6265 40.4904C20.3451 40.4904 21.0015 40.659 21.5955 40.9964C22.1968 41.3264 22.6698 41.7884 23.0145 42.3824C23.3591 42.9764 23.5315 43.6474 23.5315 44.3954C23.5315 45.1434 23.3591 45.818 23.0145 46.4194C22.6698 47.0134 22.1968 47.479 21.5955 47.8164C21.0015 48.1464 20.3451 48.3114 19.6265 48.3114ZM19.6265 47.2224C20.1325 47.2224 20.5835 47.1087 20.9795 46.8814C21.3755 46.6467 21.6835 46.3167 21.9035 45.8914C22.1308 45.4587 22.2445 44.96 22.2445 44.3954C22.2445 43.8307 22.1308 43.3357 21.9035 42.9104C21.6835 42.485 21.3755 42.1587 20.9795 41.9314C20.5835 41.704 20.1325 41.5904 19.6265 41.5904C19.1205 41.5904 18.6695 41.704 18.2735 41.9314C17.8775 42.1587 17.5658 42.485 17.3385 42.9104C17.1185 43.3357 17.0085 43.8307 17.0085 44.3954C17.0085 44.96 17.1185 45.4587 17.3385 45.8914C17.5658 46.3167 17.8775 46.6467 18.2735 46.8814C18.6695 47.1087 19.1205 47.2224 19.6265 47.2224ZM27.8234 42.0744C28.3001 42.0744 28.7254 42.1734 29.0994 42.3714C29.4808 42.5694 29.7778 42.8627 29.9904 43.2514C30.2031 43.64 30.3094 44.1094 30.3094 44.6594V48.2344H29.0664V44.8464C29.0664 44.3037 28.9308 43.8894 28.6594 43.6034C28.3881 43.31 28.0178 43.1634 27.5484 43.1634C27.0791 43.1634 26.7051 43.31 26.4264 43.6034C26.1551 43.8894 26.0194 44.3037 26.0194 44.8464V48.2344H24.7654V42.1734H26.0194V42.8664C26.2248 42.617 26.4851 42.4227 26.8004 42.2834C27.1231 42.144 27.4641 42.0744 27.8234 42.0744ZM33.163 43.0754C33.3757 42.782 33.6653 42.5437 34.032 42.3604C34.406 42.1697 34.8203 42.0744 35.275 42.0744C35.8103 42.0744 36.2943 42.2027 36.727 42.4594C37.1597 42.716 37.5007 43.0827 37.75 43.5594C37.9993 44.0287 38.124 44.5677 38.124 45.1764C38.124 45.785 37.9993 46.3314 37.75 46.8154C37.5007 47.292 37.156 47.666 36.716 47.9374C36.2833 48.2014 35.803 48.3334 35.275 48.3334C34.8057 48.3334 34.3877 48.2417 34.021 48.0584C33.6617 47.875 33.3757 47.6404 33.163 47.3544V48.2344H31.909V40.0944H33.163V43.0754ZM36.848 45.1764C36.848 44.7584 36.76 44.399 36.584 44.0984C36.4153 43.7904 36.188 43.5594 35.902 43.4054C35.6233 43.244 35.3227 43.1634 35 43.1634C34.6847 43.1634 34.384 43.244 34.098 43.4054C33.8193 43.5667 33.592 43.8014 33.416 44.1094C33.2473 44.4174 33.163 44.7804 33.163 45.1984C33.163 45.6164 33.2473 45.983 33.416 46.2984C33.592 46.6064 33.8193 46.841 34.098 47.0024C34.384 47.1637 34.6847 47.2444 35 47.2444C35.3227 47.2444 35.6233 47.1637 35.902 47.0024C36.188 46.8337 36.4153 46.5917 36.584 46.2764C36.76 45.961 36.848 45.5944 36.848 45.1764ZM41.9931 48.3334C41.4211 48.3334 40.9041 48.205 40.4421 47.9484C39.9801 47.6844 39.6171 47.3177 39.3531 46.8484C39.0891 46.3717 38.9571 45.8217 38.9571 45.1984C38.9571 44.5824 39.0927 44.036 39.3641 43.5594C39.6354 43.0827 40.0057 42.716 40.4751 42.4594C40.9444 42.2027 41.4687 42.0744 42.0481 42.0744C42.6274 42.0744 43.1517 42.2027 43.6211 42.4594C44.0904 42.716 44.4607 43.0827 44.7321 43.5594C45.0034 44.036 45.1391 44.5824 45.1391 45.1984C45.1391 45.8144 44.9997 46.3607 44.7211 46.8374C44.4424 47.314 44.0611 47.6844 43.5771 47.9484C43.1004 48.205 42.5724 48.3334 41.9931 48.3334ZM41.9931 47.2444C42.3157 47.2444 42.6164 47.1674 42.8951 47.0134C43.1811 46.8594 43.4121 46.6284 43.5881 46.3204C43.7641 46.0124 43.8521 45.6384 43.8521 45.1984C43.8521 44.7584 43.7677 44.388 43.5991 44.0874C43.4304 43.7794 43.2067 43.5484 42.9281 43.3944C42.6494 43.2404 42.3487 43.1634 42.0261 43.1634C41.7034 43.1634 41.4027 43.2404 41.1241 43.3944C40.8527 43.5484 40.6364 43.7794 40.4751 44.0874C40.3137 44.388 40.2331 44.7584 40.2331 45.1984C40.2331 45.851 40.3981 46.357 40.7281 46.7164C41.0654 47.0684 41.4871 47.2444 41.9931 47.2444ZM45.9607 45.1764C45.9607 44.5677 46.0854 44.0287 46.3347 43.5594C46.5914 43.09 46.936 42.727 47.3687 42.4704C47.8087 42.2064 48.2927 42.0744 48.8207 42.0744C49.2974 42.0744 49.7117 42.1697 50.0637 42.3604C50.423 42.5437 50.709 42.7747 50.9217 43.0534V42.1734H52.1867V48.2344H50.9217V47.3324C50.709 47.6184 50.4194 47.8567 50.0527 48.0474C49.686 48.238 49.268 48.3334 48.7987 48.3334C48.278 48.3334 47.8014 48.2014 47.3687 47.9374C46.936 47.666 46.5914 47.292 46.3347 46.8154C46.0854 46.3314 45.9607 45.785 45.9607 45.1764ZM50.9217 45.1984C50.9217 44.7804 50.8337 44.4174 50.6577 44.1094C50.489 43.8014 50.2654 43.5667 49.9867 43.4054C49.708 43.244 49.4074 43.1634 49.0847 43.1634C48.762 43.1634 48.4614 43.244 48.1827 43.4054C47.904 43.5594 47.6767 43.7904 47.5007 44.0984C47.332 44.399 47.2477 44.7584 47.2477 45.1764C47.2477 45.5944 47.332 45.961 47.5007 46.2764C47.6767 46.5917 47.904 46.8337 48.1827 47.0024C48.4687 47.1637 48.7694 47.2444 49.0847 47.2444C49.4074 47.2444 49.708 47.1637 49.9867 47.0024C50.2654 46.841 50.489 46.6064 50.6577 46.2984C50.8337 45.983 50.9217 45.6164 50.9217 45.1984ZM55.0878 43.0534C55.2711 42.7454 55.5131 42.507 55.8138 42.3384C56.1218 42.1624 56.4848 42.0744 56.9028 42.0744V43.3724H56.5838C56.0925 43.3724 55.7185 43.497 55.4618 43.7464C55.2125 43.9957 55.0878 44.4284 55.0878 45.0444V48.2344H53.8338V42.1734H55.0878V43.0534ZM57.6375 45.1764C57.6375 44.5677 57.7621 44.0287 58.0115 43.5594C58.2681 43.09 58.6128 42.727 59.0455 42.4704C59.4855 42.2064 59.9731 42.0744 60.5085 42.0744C60.9045 42.0744 61.2931 42.1624 61.6745 42.3384C62.0631 42.507 62.3711 42.7344 62.5985 43.0204V40.0944H63.8635V48.2344H62.5985V47.3214C62.3931 47.6147 62.1071 47.8567 61.7405 48.0474C61.3811 48.238 60.9668 48.3334 60.4975 48.3334C59.9695 48.3334 59.4855 48.2014 59.0455 47.9374C58.6128 47.666 58.2681 47.292 58.0115 46.8154C57.7621 46.3314 57.6375 45.785 57.6375 45.1764ZM62.5985 45.1984C62.5985 44.7804 62.5105 44.4174 62.3345 44.1094C62.1658 43.8014 61.9421 43.5667 61.6635 43.4054C61.3848 43.244 61.0841 43.1634 60.7615 43.1634C60.4388 43.1634 60.1381 43.244 59.8595 43.4054C59.5808 43.5594 59.3535 43.7904 59.1775 44.0984C59.0088 44.399 58.9245 44.7584 58.9245 45.1764C58.9245 45.5944 59.0088 45.961 59.1775 46.2764C59.3535 46.5917 59.5808 46.8337 59.8595 47.0024C60.1455 47.1637 60.4461 47.2444 60.7615 47.2444C61.0841 47.2444 61.3848 47.1637 61.6635 47.0024C61.9421 46.841 62.1658 46.6064 62.3345 46.2984C62.5105 45.983 62.5985 45.6164 62.5985 45.1984Z" fill="white"/>
</svg>
