<svg width="70" height="70" viewBox="0 0 70 70" fill="none" xmlns="http://www.w3.org/2000/svg">
<g filter="url(#filter0_b_74_414)">
<rect width="70" height="70" rx="10" fill="#793020"/>
</g>
<path fill-rule="evenodd" clip-rule="evenodd" d="M44.198 23.4896L42.8334 23.0417L43.4792 21.7709C43.6846 21.3699 43.6089 20.8824 43.2917 20.5625L40.4375 17.698C40.1177 17.3807 39.6302 17.3051 39.2292 17.5105L37.9584 18.1667L37.5105 16.8125C37.3652 16.3653 36.9384 16.0708 36.4688 16.0938H32.4792C32.0096 16.0708 31.5827 16.3653 31.4375 16.8125L31.0417 18.1667L29.7709 17.5105C29.3699 17.3051 28.8824 17.3807 28.5625 17.698L25.698 20.5625C25.3807 20.8824 25.3051 21.3699 25.5105 21.7709L26.1667 23.0417L24.8125 23.4896C24.3653 23.6348 24.0708 24.0616 24.0938 24.5313V28.573C24.0708 29.0426 24.3653 29.4694 24.8125 29.6146L26.1667 30.0625L25.5209 31.3334C25.3155 31.7343 25.3912 32.2218 25.7084 32.5417L28.5625 35.3021C28.8824 35.6193 29.3699 35.695 29.7709 35.4896L31.0417 34.8334L31.4896 36.1875C31.6348 36.6348 32.0616 36.9293 32.5313 36.9063H36.573C37.0426 36.9293 37.4694 36.6348 37.6146 36.1875L38.0625 34.8334L39.3334 35.4792C39.7343 35.6846 40.2218 35.6089 40.5417 35.2917L43.4063 32.4271C43.7235 32.1073 43.7991 31.6197 43.5938 31.2188L42.8334 29.9584L44.1875 29.5105C44.6348 29.3652 44.9293 28.9384 44.9063 28.4688V24.4792C44.9074 24.0314 44.6222 23.6329 44.198 23.4896ZM29.2917 26.5C29.2917 23.6236 31.6236 21.2917 34.5 21.2917C35.8814 21.2917 37.2061 21.8404 38.1829 22.8172C39.1596 23.7939 39.7084 25.1187 39.7084 26.5C39.7084 29.3765 37.3765 31.7084 34.5 31.7084C31.6236 31.7084 29.2917 29.3765 29.2917 26.5ZM31.375 26.5C31.375 28.2259 32.7741 29.625 34.5 29.625C35.3288 29.625 36.1237 29.2958 36.7097 28.7097C37.2958 28.1237 37.625 27.3288 37.625 26.5C37.625 24.7741 36.2259 23.375 34.5 23.375C32.7741 23.375 31.375 24.7741 31.375 26.5ZM42.198 27.9792L42.8334 27.7709V25.2292L42.198 25.0209C41.6196 24.8342 41.1517 24.4042 40.9167 23.8438C40.6859 23.2811 40.7126 22.6456 40.9896 22.1042L41.2917 21.5L39.5 19.7084L38.8959 20.0105C38.3544 20.2835 37.7208 20.307 37.1605 20.0749C36.6003 19.8428 36.169 19.3781 35.9792 18.8021L35.7709 18.1667H33.2292L33.0209 18.8021C32.8311 19.3781 32.3998 19.8428 31.8395 20.0749C31.2793 20.307 30.6457 20.2835 30.1042 20.0105L29.5 19.7084L27.7084 21.5L28.0105 22.1042C28.2875 22.6456 28.3141 23.2811 28.0834 23.8438C27.8484 24.4042 27.3804 24.8342 26.8021 25.0209L26.1667 25.2292V27.7709L26.8021 27.9792C27.3804 28.1659 27.8484 28.5958 28.0834 29.1563C28.3141 29.719 28.2875 30.3544 28.0105 30.8959L27.7084 31.5L29.5 33.2917L30.1042 32.9896C30.6457 32.7166 31.2793 32.6931 31.8395 32.9252C32.3998 33.1573 32.8311 33.622 33.0209 34.198L33.2292 34.8334H35.7709L35.9792 34.198C36.169 33.622 36.6003 33.1573 37.1605 32.9252C37.7208 32.6931 38.3544 32.7166 38.8959 32.9896L39.5 33.2917L41.2917 31.5L40.9896 30.8959C40.7126 30.3544 40.6859 29.719 40.9167 29.1563C41.1517 28.5958 41.6196 28.1659 42.198 27.9792Z" fill="white"/>
<path d="M15.3499 51.077C14.8365 51.077 14.3745 50.989 13.9639 50.813C13.5532 50.6297 13.2305 50.373 12.9959 50.043C12.7612 49.713 12.6439 49.328 12.6439 48.888H13.9859C14.0152 49.218 14.1435 49.4893 14.3709 49.702C14.6055 49.9147 14.9319 50.021 15.3499 50.021C15.7825 50.021 16.1199 49.9183 16.3619 49.713C16.6039 49.5003 16.7249 49.229 16.7249 48.899C16.7249 48.6423 16.6479 48.4333 16.4939 48.272C16.3472 48.1107 16.1602 47.986 15.9329 47.898C15.7129 47.81 15.4049 47.7147 15.0089 47.612C14.5102 47.48 14.1032 47.348 13.7879 47.216C13.4799 47.0767 13.2159 46.864 12.9959 46.578C12.7759 46.292 12.6659 45.9107 12.6659 45.434C12.6659 44.994 12.7759 44.609 12.9959 44.279C13.2159 43.949 13.5239 43.696 13.9199 43.52C14.3159 43.344 14.7742 43.256 15.2949 43.256C16.0355 43.256 16.6405 43.443 17.1099 43.817C17.5865 44.1837 17.8505 44.6897 17.9019 45.335H16.5159C16.4939 45.0563 16.3619 44.818 16.1199 44.62C15.8779 44.422 15.5589 44.323 15.1629 44.323C14.8035 44.323 14.5102 44.4147 14.2829 44.598C14.0555 44.7813 13.9419 45.0453 13.9419 45.39C13.9419 45.6247 14.0115 45.819 14.1509 45.973C14.2975 46.1197 14.4809 46.237 14.7009 46.325C14.9209 46.413 15.2215 46.5083 15.6029 46.611C16.1089 46.7503 16.5195 46.8897 16.8349 47.029C17.1575 47.1683 17.4289 47.3847 17.6489 47.678C17.8762 47.964 17.9899 48.349 17.9899 48.833C17.9899 49.2217 17.8835 49.5883 17.6709 49.933C17.4655 50.2777 17.1612 50.5563 16.7579 50.769C16.3619 50.9743 15.8925 51.077 15.3499 51.077ZM25.0245 47.821C25.0245 48.0483 25.0099 48.2537 24.9805 48.437H20.3495C20.3862 48.921 20.5659 49.3097 20.8885 49.603C21.2112 49.8963 21.6072 50.043 22.0765 50.043C22.7512 50.043 23.2279 49.7607 23.5065 49.196H24.8595C24.6762 49.7533 24.3425 50.2117 23.8585 50.571C23.3819 50.923 22.7879 51.099 22.0765 51.099C21.4972 51.099 20.9765 50.9707 20.5145 50.714C20.0599 50.45 19.7005 50.0833 19.4365 49.614C19.1799 49.1373 19.0515 48.5873 19.0515 47.964C19.0515 47.3407 19.1762 46.7943 19.4255 46.325C19.6822 45.8483 20.0379 45.4817 20.4925 45.225C20.9545 44.9683 21.4825 44.84 22.0765 44.84C22.6485 44.84 23.1582 44.9647 23.6055 45.214C24.0529 45.4633 24.4012 45.8153 24.6505 46.27C24.8999 46.7173 25.0245 47.2343 25.0245 47.821ZM23.7155 47.425C23.7082 46.963 23.5432 46.5927 23.2205 46.314C22.8979 46.0353 22.4982 45.896 22.0215 45.896C21.5889 45.896 21.2185 46.0353 20.9105 46.314C20.6025 46.5853 20.4192 46.9557 20.3605 47.425H23.7155ZM27.7216 45.962V49.317C27.7216 49.5443 27.7729 49.7093 27.8756 49.812C27.9856 49.9073 28.1689 49.955 28.4256 49.955H29.1956V51H28.2056C27.6409 51 27.2083 50.868 26.9076 50.604C26.6069 50.34 26.4566 49.911 26.4566 49.317V45.962H25.7416V44.939H26.4566V43.432H27.7216V44.939H29.1956V45.962H27.7216ZM31.8144 45.962V49.317C31.8144 49.5443 31.8657 49.7093 31.9684 49.812C32.0784 49.9073 32.2617 49.955 32.5184 49.955H33.2884V51H32.2984C31.7337 51 31.301 50.868 31.0004 50.604C30.6997 50.34 30.5494 49.911 30.5494 49.317V45.962H29.8344V44.939H30.5494V43.432H31.8144V44.939H33.2884V45.962H31.8144ZM35.0821 44.136C34.8548 44.136 34.6641 44.059 34.5101 43.905C34.3561 43.751 34.2791 43.5603 34.2791 43.333C34.2791 43.1057 34.3561 42.915 34.5101 42.761C34.6641 42.607 34.8548 42.53 35.0821 42.53C35.3021 42.53 35.4891 42.607 35.6431 42.761C35.7971 42.915 35.8741 43.1057 35.8741 43.333C35.8741 43.5603 35.7971 43.751 35.6431 43.905C35.4891 44.059 35.3021 44.136 35.0821 44.136ZM35.6981 44.939V51H34.4441V44.939H35.6981ZM40.4025 44.84C40.8792 44.84 41.3045 44.939 41.6785 45.137C42.0599 45.335 42.3569 45.6283 42.5695 46.017C42.7822 46.4057 42.8885 46.875 42.8885 47.425V51H41.6455V47.612C41.6455 47.0693 41.5099 46.655 41.2385 46.369C40.9672 46.0757 40.5969 45.929 40.1275 45.929C39.6582 45.929 39.2842 46.0757 39.0055 46.369C38.7342 46.655 38.5985 47.0693 38.5985 47.612V51H37.3445V44.939H38.5985V45.632C38.8039 45.3827 39.0642 45.1883 39.3795 45.049C39.7022 44.9097 40.0432 44.84 40.4025 44.84ZM46.9301 44.84C47.3994 44.84 47.8138 44.9353 48.1731 45.126C48.5398 45.3093 48.8258 45.5403 49.0311 45.819V44.939H50.2961V51.099C50.2961 51.6563 50.1788 52.1513 49.9441 52.584C49.7094 53.024 49.3684 53.3687 48.9211 53.618C48.4811 53.8673 47.9531 53.992 47.3371 53.992C46.5158 53.992 45.8338 53.7977 45.2911 53.409C44.7484 53.0277 44.4404 52.507 44.3671 51.847H45.6101C45.7054 52.1623 45.9071 52.4153 46.2151 52.606C46.5304 52.804 46.9044 52.903 47.3371 52.903C47.8431 52.903 48.2501 52.749 48.5581 52.441C48.8734 52.133 49.0311 51.6857 49.0311 51.099V50.087C48.8184 50.373 48.5288 50.615 48.1621 50.813C47.8028 51.0037 47.3921 51.099 46.9301 51.099C46.4021 51.099 45.9181 50.967 45.4781 50.703C45.0454 50.4317 44.7008 50.0577 44.4441 49.581C44.1948 49.097 44.0701 48.5507 44.0701 47.942C44.0701 47.3333 44.1948 46.7943 44.4441 46.325C44.7008 45.8557 45.0454 45.4927 45.4781 45.236C45.9181 44.972 46.4021 44.84 46.9301 44.84ZM49.0311 47.964C49.0311 47.546 48.9431 47.183 48.7671 46.875C48.5984 46.567 48.3748 46.3323 48.0961 46.171C47.8174 46.0097 47.5168 45.929 47.1941 45.929C46.8714 45.929 46.5708 46.0097 46.2921 46.171C46.0134 46.325 45.7861 46.556 45.6101 46.864C45.4414 47.1647 45.3571 47.524 45.3571 47.942C45.3571 48.36 45.4414 48.7267 45.6101 49.042C45.7861 49.3573 46.0134 49.5993 46.2921 49.768C46.5781 49.9293 46.8788 50.01 47.1941 50.01C47.5168 50.01 47.8174 49.9293 48.0961 49.768C48.3748 49.6067 48.5984 49.372 48.7671 49.064C48.9431 48.7487 49.0311 48.382 49.0311 47.964ZM54.1432 51.099C53.6665 51.099 53.2375 51.0147 52.8562 50.846C52.4822 50.67 52.1852 50.4353 51.9652 50.142C51.7452 49.8413 51.6278 49.5077 51.6132 49.141H52.9112C52.9332 49.3977 53.0542 49.614 53.2742 49.79C53.5015 49.9587 53.7838 50.043 54.1212 50.043C54.4732 50.043 54.7445 49.977 54.9352 49.845C55.1332 49.7057 55.2322 49.5297 55.2322 49.317C55.2322 49.0897 55.1222 48.921 54.9022 48.811C54.6895 48.701 54.3485 48.58 53.8792 48.448C53.4245 48.3233 53.0542 48.2023 52.7682 48.085C52.4822 47.9677 52.2328 47.788 52.0202 47.546C51.8148 47.304 51.7122 46.985 51.7122 46.589C51.7122 46.2663 51.8075 45.973 51.9982 45.709C52.1888 45.4377 52.4602 45.225 52.8122 45.071C53.1715 44.917 53.5822 44.84 54.0442 44.84C54.7335 44.84 55.2872 45.016 55.7052 45.368C56.1305 45.7127 56.3578 46.1857 56.3872 46.787H55.1332C55.1112 46.5157 55.0012 46.2993 54.8032 46.138C54.6052 45.9767 54.3375 45.896 54.0002 45.896C53.6702 45.896 53.4172 45.9583 53.2412 46.083C53.0652 46.2077 52.9772 46.3727 52.9772 46.578C52.9772 46.7393 53.0358 46.875 53.1532 46.985C53.2705 47.095 53.4135 47.183 53.5822 47.249C53.7508 47.3077 54.0002 47.3847 54.3302 47.48C54.7702 47.5973 55.1295 47.7183 55.4082 47.843C55.6942 47.9603 55.9398 48.1363 56.1452 48.371C56.3505 48.6057 56.4568 48.9173 56.4642 49.306C56.4642 49.6507 56.3688 49.9587 56.1782 50.23C55.9875 50.5013 55.7162 50.714 55.3642 50.868C55.0195 51.022 54.6125 51.099 54.1432 51.099Z" fill="white"/>
<defs>
<filter id="filter0_b_74_414" x="-187" y="-187" width="444" height="444" filterUnits="userSpaceOnUse" color-interpolation-filters="sRGB">
<feFlood flood-opacity="0" result="BackgroundImageFix"/>
<feGaussianBlur in="BackgroundImageFix" stdDeviation="93.5"/>
<feComposite in2="SourceAlpha" operator="in" result="effect1_backgroundBlur_74_414"/>
<feBlend mode="normal" in="SourceGraphic" in2="effect1_backgroundBlur_74_414" result="shape"/>
</filter>
</defs>
</svg>
