<svg width="45" height="42" viewBox="0 0 45 42" fill="none" xmlns="http://www.w3.org/2000/svg">
<path fill-rule="evenodd" clip-rule="evenodd" d="M32.1979 9.48962L30.8333 9.0417L31.4791 7.77087C31.6845 7.36992 31.6088 6.8824 31.2916 6.56253L28.4375 3.69795C28.1176 3.38075 27.6301 3.3051 27.2291 3.51045L25.9583 4.1667L25.5104 2.81253C25.3652 2.36531 24.9384 2.0708 24.4687 2.09378H20.4791C20.0095 2.0708 19.5827 2.36531 19.4375 2.81253L19.0416 4.1667L17.7708 3.51045C17.3699 3.3051 16.8823 3.38075 16.5625 3.69795L13.6979 6.56253C13.3807 6.8824 13.305 7.36992 13.5104 7.77087L14.1666 9.0417L12.8125 9.48962C12.3652 9.63482 12.0707 10.0616 12.0937 10.5313V14.573C12.0707 15.0426 12.3652 15.4694 12.8125 15.6146L14.1666 16.0625L13.5208 17.3334C13.3155 17.7343 13.3911 18.2218 13.7083 18.5417L16.5625 21.3021C16.8823 21.6193 17.3699 21.695 17.7708 21.4896L19.0416 20.8334L19.4896 22.1875C19.6348 22.6348 20.0616 22.9293 20.5312 22.9063H24.5729C25.0425 22.9293 25.4694 22.6348 25.6146 22.1875L26.0625 20.8334L27.3333 21.4792C27.7343 21.6846 28.2218 21.6089 28.5416 21.2917L31.4062 18.4271C31.7234 18.1073 31.7991 17.6197 31.5937 17.2188L30.8333 15.9584L32.1875 15.5105C32.6347 15.3652 32.9292 14.9384 32.9062 14.4688V10.4792C32.9074 10.0314 32.6222 9.63292 32.1979 9.48962ZM17.2916 12.5C17.2916 9.62355 19.6235 7.2917 22.5 7.2917C23.8813 7.2917 25.2061 7.84044 26.1828 8.81719C27.1596 9.79394 27.7083 11.1187 27.7083 12.5C27.7083 15.3765 25.3765 17.7084 22.5 17.7084C19.6235 17.7084 17.2916 15.3765 17.2916 12.5ZM19.375 12.5C19.375 14.2259 20.7741 15.625 22.5 15.625C23.3288 15.625 24.1236 15.2958 24.7097 14.7097C25.2957 14.1237 25.625 13.3288 25.625 12.5C25.625 10.7741 24.2259 9.37503 22.5 9.37503C20.7741 9.37503 19.375 10.7741 19.375 12.5ZM30.1979 13.9792L30.8333 13.7709V11.2292L30.1979 11.0209C29.6196 10.8342 29.1516 10.4042 28.9166 9.84379C28.6859 9.28108 28.7125 8.64562 28.9896 8.1042L29.2916 7.50004L27.5 5.70837L26.8958 6.01045C26.3543 6.28348 25.7207 6.30701 25.1605 6.07491C24.6002 5.8428 24.1689 5.3781 23.9791 4.80212L23.7708 4.1667H21.2291L21.0208 4.80212C20.831 5.3781 20.3997 5.8428 19.8395 6.07491C19.2792 6.30701 18.6456 6.28348 18.1041 6.01045L17.5 5.70837L15.7083 7.50004L16.0104 8.1042C16.2875 8.64562 16.3141 9.28108 16.0833 9.84379C15.8483 10.4042 15.3804 10.8342 14.8021 11.0209L14.1666 11.2292V13.7709L14.8021 13.9792C15.3804 14.1659 15.8483 14.5958 16.0833 15.1563C16.3141 15.719 16.2875 16.3544 16.0104 16.8959L15.7083 17.5L17.5 19.2917L18.1041 18.9896C18.6456 18.7166 19.2792 18.6931 19.8395 18.9252C20.3997 19.1573 20.831 19.622 21.0208 20.198L21.2291 20.8334H23.7708L23.9791 20.198C24.1689 19.622 24.6002 19.1573 25.1605 18.9252C25.7207 18.6931 26.3543 18.7166 26.8958 18.9896L27.5 19.2917L29.2916 17.5L28.9896 16.8959C28.7125 16.3544 28.6859 15.719 28.9166 15.1563C29.1516 14.5958 29.6196 14.1659 30.1979 13.9792Z" fill="white"/>
<path d="M3.34986 37.077C2.83653 37.077 2.37453 36.989 1.96386 36.813C1.55319 36.6297 1.23053 36.373 0.995859 36.043C0.761193 35.713 0.643859 35.328 0.643859 34.888H1.98586C2.01519 35.218 2.14353 35.4893 2.37086 35.702C2.60553 35.9147 2.93186 36.021 3.34986 36.021C3.78253 36.021 4.11986 35.9183 4.36186 35.713C4.60386 35.5003 4.72486 35.229 4.72486 34.899C4.72486 34.6423 4.64786 34.4333 4.49386 34.272C4.34719 34.1107 4.16019 33.986 3.93286 33.898C3.71286 33.81 3.40486 33.7147 3.00886 33.612C2.51019 33.48 2.10319 33.348 1.78786 33.216C1.47986 33.0767 1.21586 32.864 0.995859 32.578C0.775859 32.292 0.665859 31.9107 0.665859 31.434C0.665859 30.994 0.775859 30.609 0.995859 30.279C1.21586 29.949 1.52386 29.696 1.91986 29.52C2.31586 29.344 2.77419 29.256 3.29486 29.256C4.03553 29.256 4.64053 29.443 5.10986 29.817C5.58653 30.1837 5.85053 30.6897 5.90186 31.335H4.51586C4.49386 31.0563 4.36186 30.818 4.11986 30.62C3.87786 30.422 3.55886 30.323 3.16286 30.323C2.80353 30.323 2.51019 30.4147 2.28286 30.598C2.05553 30.7813 1.94186 31.0453 1.94186 31.39C1.94186 31.6247 2.01153 31.819 2.15086 31.973C2.29753 32.1197 2.48086 32.237 2.70086 32.325C2.92086 32.413 3.22153 32.5083 3.60286 32.611C4.10886 32.7503 4.51953 32.8897 4.83486 33.029C5.15753 33.1683 5.42886 33.3847 5.64886 33.678C5.87619 33.964 5.98986 34.349 5.98986 34.833C5.98986 35.2217 5.88353 35.5883 5.67086 35.933C5.46553 36.2777 5.16119 36.5563 4.75786 36.769C4.36186 36.9743 3.89253 37.077 3.34986 37.077ZM13.0245 33.821C13.0245 34.0483 13.0099 34.2537 12.9805 34.437H8.34953C8.3862 34.921 8.56586 35.3097 8.88853 35.603C9.2112 35.8963 9.6072 36.043 10.0765 36.043C10.7512 36.043 11.2279 35.7607 11.5065 35.196H12.8595C12.6762 35.7533 12.3425 36.2117 11.8585 36.571C11.3819 36.923 10.7879 37.099 10.0765 37.099C9.4972 37.099 8.97653 36.9707 8.51453 36.714C8.05986 36.45 7.70053 36.0833 7.43653 35.614C7.17986 35.1373 7.05153 34.5873 7.05153 33.964C7.05153 33.3407 7.1762 32.7943 7.42553 32.325C7.6822 31.8483 8.03786 31.4817 8.49253 31.225C8.95453 30.9683 9.48253 30.84 10.0765 30.84C10.6485 30.84 11.1582 30.9647 11.6055 31.214C12.0529 31.4633 12.4012 31.8153 12.6505 32.27C12.8999 32.7173 13.0245 33.2343 13.0245 33.821ZM11.7155 33.425C11.7082 32.963 11.5432 32.5927 11.2205 32.314C10.8979 32.0353 10.4982 31.896 10.0215 31.896C9.58886 31.896 9.21853 32.0353 8.91053 32.314C8.60253 32.5853 8.4192 32.9557 8.36053 33.425H11.7155ZM15.7216 31.962V35.317C15.7216 35.5443 15.7729 35.7093 15.8756 35.812C15.9856 35.9073 16.1689 35.955 16.4256 35.955H17.1956V37H16.2056C15.6409 37 15.2083 36.868 14.9076 36.604C14.6069 36.34 14.4566 35.911 14.4566 35.317V31.962H13.7416V30.939H14.4566V29.432H15.7216V30.939H17.1956V31.962H15.7216ZM19.8144 31.962V35.317C19.8144 35.5443 19.8657 35.7093 19.9684 35.812C20.0784 35.9073 20.2617 35.955 20.5184 35.955H21.2884V37H20.2984C19.7337 37 19.301 36.868 19.0004 36.604C18.6997 36.34 18.5494 35.911 18.5494 35.317V31.962H17.8344V30.939H18.5494V29.432H19.8144V30.939H21.2884V31.962H19.8144ZM23.0821 30.136C22.8548 30.136 22.6641 30.059 22.5101 29.905C22.3561 29.751 22.2791 29.5603 22.2791 29.333C22.2791 29.1057 22.3561 28.915 22.5101 28.761C22.6641 28.607 22.8548 28.53 23.0821 28.53C23.3021 28.53 23.4891 28.607 23.6431 28.761C23.7971 28.915 23.8741 29.1057 23.8741 29.333C23.8741 29.5603 23.7971 29.751 23.6431 29.905C23.4891 30.059 23.3021 30.136 23.0821 30.136ZM23.6981 30.939V37H22.4441V30.939H23.6981ZM28.4025 30.84C28.8792 30.84 29.3045 30.939 29.6785 31.137C30.0599 31.335 30.3569 31.6283 30.5695 32.017C30.7822 32.4057 30.8885 32.875 30.8885 33.425V37H29.6455V33.612C29.6455 33.0693 29.5099 32.655 29.2385 32.369C28.9672 32.0757 28.5969 31.929 28.1275 31.929C27.6582 31.929 27.2842 32.0757 27.0055 32.369C26.7342 32.655 26.5985 33.0693 26.5985 33.612V37H25.3445V30.939H26.5985V31.632C26.8039 31.3827 27.0642 31.1883 27.3795 31.049C27.7022 30.9097 28.0432 30.84 28.4025 30.84ZM34.9301 30.84C35.3994 30.84 35.8138 30.9353 36.1731 31.126C36.5398 31.3093 36.8258 31.5403 37.0311 31.819V30.939H38.2961V37.099C38.2961 37.6563 38.1788 38.1513 37.9441 38.584C37.7094 39.024 37.3684 39.3687 36.9211 39.618C36.4811 39.8673 35.9531 39.992 35.3371 39.992C34.5158 39.992 33.8338 39.7977 33.2911 39.409C32.7484 39.0277 32.4404 38.507 32.3671 37.847H33.6101C33.7054 38.1623 33.9071 38.4153 34.2151 38.606C34.5304 38.804 34.9044 38.903 35.3371 38.903C35.8431 38.903 36.2501 38.749 36.5581 38.441C36.8734 38.133 37.0311 37.6857 37.0311 37.099V36.087C36.8184 36.373 36.5288 36.615 36.1621 36.813C35.8028 37.0037 35.3921 37.099 34.9301 37.099C34.4021 37.099 33.9181 36.967 33.4781 36.703C33.0454 36.4317 32.7008 36.0577 32.4441 35.581C32.1948 35.097 32.0701 34.5507 32.0701 33.942C32.0701 33.3333 32.1948 32.7943 32.4441 32.325C32.7008 31.8557 33.0454 31.4927 33.4781 31.236C33.9181 30.972 34.4021 30.84 34.9301 30.84ZM37.0311 33.964C37.0311 33.546 36.9431 33.183 36.7671 32.875C36.5984 32.567 36.3748 32.3323 36.0961 32.171C35.8174 32.0097 35.5168 31.929 35.1941 31.929C34.8714 31.929 34.5708 32.0097 34.2921 32.171C34.0134 32.325 33.7861 32.556 33.6101 32.864C33.4414 33.1647 33.3571 33.524 33.3571 33.942C33.3571 34.36 33.4414 34.7267 33.6101 35.042C33.7861 35.3573 34.0134 35.5993 34.2921 35.768C34.5781 35.9293 34.8788 36.01 35.1941 36.01C35.5168 36.01 35.8174 35.9293 36.0961 35.768C36.3748 35.6067 36.5984 35.372 36.7671 35.064C36.9431 34.7487 37.0311 34.382 37.0311 33.964ZM42.1432 37.099C41.6665 37.099 41.2375 37.0147 40.8562 36.846C40.4822 36.67 40.1852 36.4353 39.9652 36.142C39.7452 35.8413 39.6278 35.5077 39.6132 35.141H40.9112C40.9332 35.3977 41.0542 35.614 41.2742 35.79C41.5015 35.9587 41.7838 36.043 42.1212 36.043C42.4732 36.043 42.7445 35.977 42.9352 35.845C43.1332 35.7057 43.2322 35.5297 43.2322 35.317C43.2322 35.0897 43.1222 34.921 42.9022 34.811C42.6895 34.701 42.3485 34.58 41.8792 34.448C41.4245 34.3233 41.0542 34.2023 40.7682 34.085C40.4822 33.9677 40.2328 33.788 40.0202 33.546C39.8148 33.304 39.7122 32.985 39.7122 32.589C39.7122 32.2663 39.8075 31.973 39.9982 31.709C40.1888 31.4377 40.4602 31.225 40.8122 31.071C41.1715 30.917 41.5822 30.84 42.0442 30.84C42.7335 30.84 43.2872 31.016 43.7052 31.368C44.1305 31.7127 44.3578 32.1857 44.3872 32.787H43.1332C43.1112 32.5157 43.0012 32.2993 42.8032 32.138C42.6052 31.9767 42.3375 31.896 42.0002 31.896C41.6702 31.896 41.4172 31.9583 41.2412 32.083C41.0652 32.2077 40.9772 32.3727 40.9772 32.578C40.9772 32.7393 41.0358 32.875 41.1532 32.985C41.2705 33.095 41.4135 33.183 41.5822 33.249C41.7508 33.3077 42.0002 33.3847 42.3302 33.48C42.7702 33.5973 43.1295 33.7183 43.4082 33.843C43.6942 33.9603 43.9398 34.1363 44.1452 34.371C44.3505 34.6057 44.4568 34.9173 44.4642 35.306C44.4642 35.6507 44.3688 35.9587 44.1782 36.23C43.9875 36.5013 43.7162 36.714 43.3642 36.868C43.0195 37.022 42.6125 37.099 42.1432 37.099Z" fill="white"/>
</svg>
