<svg width="70" height="70" viewBox="0 0 70 70" fill="none" xmlns="http://www.w3.org/2000/svg">
<g filter="url(#filter0_b_74_423)">
<rect width="70" height="70" rx="10" fill="#793020"/>
</g>
<path d="M44.5625 23.6354L42.8334 22.0625L41.9375 21.2917L35.1875 15.3021C34.7943 14.9566 34.2058 14.9566 33.8125 15.3021L27.0625 21.2917L26.1667 22.0625L24.4375 23.6354C24.0353 24.0217 24.0087 24.6562 24.3771 25.0748C24.7455 25.4934 25.3782 25.5477 25.8125 25.1979L26.1667 24.8854V33.7916C26.1667 35.5175 27.5658 36.9166 29.2917 36.9166H31.375V30.6666C31.375 28.9408 32.7741 27.5417 34.5 27.5417C36.2259 27.5417 37.625 28.9408 37.625 30.6666V36.9166H39.7084C41.4342 36.9166 42.8334 35.5175 42.8334 33.7916V24.8854L43.1875 25.1979C43.6192 25.577 44.2763 25.5351 44.6563 25.1042C45.0354 24.6725 44.9935 24.0154 44.5625 23.6354Z" fill="white"/>
<path d="M24.9354 43.355V51H23.6814V47.656H20.0844V51H18.8304V43.355H20.0844V46.633H23.6814V43.355H24.9354ZM29.2152 51.099C28.6432 51.099 28.1262 50.9707 27.6642 50.714C27.2022 50.45 26.8392 50.0833 26.5752 49.614C26.3112 49.1373 26.1792 48.5873 26.1792 47.964C26.1792 47.348 26.3149 46.8017 26.5862 46.325C26.8576 45.8483 27.2279 45.4817 27.6972 45.225C28.1666 44.9683 28.6909 44.84 29.2702 44.84C29.8496 44.84 30.3739 44.9683 30.8432 45.225C31.3126 45.4817 31.6829 45.8483 31.9542 46.325C32.2256 46.8017 32.3612 47.348 32.3612 47.964C32.3612 48.58 32.2219 49.1263 31.9432 49.603C31.6646 50.0797 31.2832 50.45 30.7992 50.714C30.3226 50.9707 29.7946 51.099 29.2152 51.099ZM29.2152 50.01C29.5379 50.01 29.8386 49.933 30.1172 49.779C30.4032 49.625 30.6342 49.394 30.8102 49.086C30.9862 48.778 31.0742 48.404 31.0742 47.964C31.0742 47.524 30.9899 47.1537 30.8212 46.853C30.6526 46.545 30.4289 46.314 30.1502 46.16C29.8716 46.006 29.5709 45.929 29.2482 45.929C28.9256 45.929 28.6249 46.006 28.3462 46.16C28.0749 46.314 27.8586 46.545 27.6972 46.853C27.5359 47.1537 27.4552 47.524 27.4552 47.964C27.4552 48.6167 27.6202 49.1227 27.9502 49.482C28.2876 49.834 28.7092 50.01 29.2152 50.01ZM40.9379 44.84C41.4145 44.84 41.8399 44.939 42.2139 45.137C42.5952 45.335 42.8922 45.6283 43.1049 46.017C43.3249 46.4057 43.4349 46.875 43.4349 47.425V51H42.1919V47.612C42.1919 47.0693 42.0562 46.655 41.7849 46.369C41.5135 46.0757 41.1432 45.929 40.6739 45.929C40.2045 45.929 39.8305 46.0757 39.5519 46.369C39.2805 46.655 39.1449 47.0693 39.1449 47.612V51H37.9019V47.612C37.9019 47.0693 37.7662 46.655 37.4949 46.369C37.2235 46.0757 36.8532 45.929 36.3839 45.929C35.9145 45.929 35.5405 46.0757 35.2619 46.369C34.9905 46.655 34.8549 47.0693 34.8549 47.612V51H33.6009V44.939H34.8549V45.632C35.0602 45.3827 35.3205 45.1883 35.6359 45.049C35.9512 44.9097 36.2885 44.84 36.6479 44.84C37.1319 44.84 37.5645 44.9427 37.9459 45.148C38.3272 45.3533 38.6205 45.6503 38.8259 46.039C39.0092 45.6723 39.2952 45.3827 39.6839 45.17C40.0725 44.95 40.4905 44.84 40.9379 44.84ZM50.5856 47.821C50.5856 48.0483 50.5709 48.2537 50.5416 48.437H45.9106C45.9472 48.921 46.1269 49.3097 46.4496 49.603C46.7722 49.8963 47.1682 50.043 47.6376 50.043C48.3122 50.043 48.7889 49.7607 49.0676 49.196H50.4206C50.2372 49.7533 49.9036 50.2117 49.4196 50.571C48.9429 50.923 48.3489 51.099 47.6376 51.099C47.0582 51.099 46.5376 50.9707 46.0756 50.714C45.6209 50.45 45.2616 50.0833 44.9976 49.614C44.7409 49.1373 44.6126 48.5873 44.6126 47.964C44.6126 47.3407 44.7372 46.7943 44.9866 46.325C45.2432 45.8483 45.5989 45.4817 46.0536 45.225C46.5156 44.9683 47.0436 44.84 47.6376 44.84C48.2096 44.84 48.7192 44.9647 49.1666 45.214C49.6139 45.4633 49.9622 45.8153 50.2116 46.27C50.4609 46.7173 50.5856 47.2343 50.5856 47.821ZM49.2766 47.425C49.2692 46.963 49.1042 46.5927 48.7816 46.314C48.4589 46.0353 48.0592 45.896 47.5826 45.896C47.1499 45.896 46.7796 46.0353 46.4716 46.314C46.1636 46.5853 45.9802 46.9557 45.9216 47.425H49.2766Z" fill="white"/>
<defs>
<filter id="filter0_b_74_423" x="-187" y="-187" width="444" height="444" filterUnits="userSpaceOnUse" color-interpolation-filters="sRGB">
<feFlood flood-opacity="0" result="BackgroundImageFix"/>
<feGaussianBlur in="BackgroundImageFix" stdDeviation="93.5"/>
<feComposite in2="SourceAlpha" operator="in" result="effect1_backgroundBlur_74_423"/>
<feBlend mode="normal" in="SourceGraphic" in2="effect1_backgroundBlur_74_423" result="shape"/>
</filter>
</defs>
</svg>
