<svg width="80" height="70" viewBox="0 0 80 70" fill="none" xmlns="http://www.w3.org/2000/svg">
<g filter="url(#filter0_b_74_419)">
<rect x="5" width="70" height="70" rx="10" fill="#793020"/>
</g>
<path d="M37.4805 30.3958L48.4805 21.3958M41.9805 17.8958L43.9805 19.8958M40.4805 20.8958L41.4805 21.8958" stroke="white" stroke-width="2" stroke-linecap="round"/>
<path fill-rule="evenodd" clip-rule="evenodd" d="M43.3504 11.7266C42.2212 10.8945 40.7204 10.7669 39.4668 11.3964L37.8927 12.1869C37.1303 11.6847 36.1056 11.6657 35.3088 12.2243L28.451 17.0318C27.0718 17.9986 27.0436 19.7996 27.9701 20.8859L27.8696 20.9622C26.7636 21.8014 26.2501 23.1705 26.2051 24.4481C26.16 25.7259 26.5757 27.1265 27.6074 28.0469C29.8534 30.0503 32.8442 32.736 35.2441 34.8955C36.6487 36.1593 38.7756 36.1725 40.1959 34.9268L52.5286 24.1104C54.3179 22.5411 54.198 19.7195 52.2819 18.3077L43.3504 11.7266ZM34.1844 23.3538C32.503 24.7163 30.1799 24.0968 29.2176 22.4499L29.0785 22.5555C28.5748 22.9377 28.2338 23.6669 28.2038 24.5185C28.1738 25.3701 28.4626 26.1296 28.9388 26.5544C31.188 28.5608 34.1814 31.2488 36.5819 33.4088C37.2329 33.9946 38.2185 34.0008 38.8771 33.4231L51.2098 22.6068C52.039 21.8796 51.9834 20.572 51.0955 19.9178L42.164 13.3367C41.6407 12.9511 40.9453 12.892 40.3644 13.1837L38.8049 13.9668L38.8304 14.1463C38.962 15.0725 38.6621 16.0079 38.0166 16.6849L37.3356 17.3991C37.2881 17.4488 37.2921 17.5282 37.3443 17.5729C38.3494 18.4344 38.3279 19.9962 37.2994 20.8296L34.1844 23.3538ZM36.0842 19.1728C36.333 18.7526 36.316 18.2058 35.9994 17.7958C35.5847 17.259 35.6838 16.4877 36.2206 16.0731L37.1023 15.3921C37.5996 15.008 37.6914 14.2935 37.3073 13.7961C36.9231 13.2988 36.2086 13.2071 35.7113 13.5912L29.381 18.4804C28.8837 18.8646 28.7919 19.5791 29.176 20.0764L29.8673 20.9715C29.8696 20.9745 29.8739 20.975 29.8769 20.9727C29.8799 20.9704 29.8842 20.9709 29.8865 20.9739L30.6331 21.9405C31.0477 22.4773 31.819 22.5764 32.3558 22.1618L32.5398 22.0197C32.6736 21.971 32.8036 21.8985 32.9252 21.7999L34.977 20.1373L35.7781 19.5186C35.8518 19.4617 35.9172 19.398 35.9742 19.3292L36.0402 19.2757C36.0725 19.2495 36.0873 19.2106 36.0842 19.1728Z" fill="white"/>
<path d="M29.8966 43.4843C29.8966 43.873 29.8049 44.2396 29.6216 44.5843C29.4383 44.929 29.1449 45.2113 28.7416 45.4313C28.3383 45.644 27.8213 45.7503 27.1906 45.7503H25.8046V48.8523H24.5506V41.2073H27.1906C27.7773 41.2073 28.2723 41.31 28.6756 41.5153C29.0863 41.7133 29.3906 41.9846 29.5886 42.3293C29.7939 42.674 29.8966 43.059 29.8966 43.4843ZM27.1906 44.7273C27.6673 44.7273 28.0229 44.621 28.2576 44.4083C28.4923 44.1883 28.6096 43.8803 28.6096 43.4843C28.6096 42.6483 28.1366 42.2303 27.1906 42.2303H25.8046V44.7273H27.1906ZM31.7306 41.9883C31.5032 41.9883 31.3126 41.9113 31.1586 41.7573C31.0046 41.6033 30.9276 41.4126 30.9276 41.1853C30.9276 40.958 31.0046 40.7673 31.1586 40.6133C31.3126 40.4593 31.5032 40.3823 31.7306 40.3823C31.9506 40.3823 32.1376 40.4593 32.2916 40.6133C32.4456 40.7673 32.5226 40.958 32.5226 41.1853C32.5226 41.4126 32.4456 41.6033 32.2916 41.7573C32.1376 41.9113 31.9506 41.9883 31.7306 41.9883ZM32.3466 42.7913V48.8523H31.0926V42.7913H32.3466ZM33.575 45.0133C33.575 44.2653 33.7473 43.5943 34.092 43.0003C34.444 42.4063 34.917 41.9443 35.511 41.6143C36.1123 41.277 36.7686 41.1083 37.48 41.1083C38.294 41.1083 39.0163 41.31 39.647 41.7133C40.285 42.1093 40.747 42.674 41.033 43.4073H39.526C39.328 43.004 39.053 42.7033 38.701 42.5053C38.349 42.3073 37.942 42.2083 37.48 42.2083C36.974 42.2083 36.523 42.322 36.127 42.5493C35.731 42.7766 35.4193 43.103 35.192 43.5283C34.972 43.9536 34.862 44.4486 34.862 45.0133C34.862 45.578 34.972 46.073 35.192 46.4983C35.4193 46.9236 35.731 47.2536 36.127 47.4883C36.523 47.7156 36.974 47.8293 37.48 47.8293C37.942 47.8293 38.349 47.7303 38.701 47.5323C39.053 47.3343 39.328 47.0336 39.526 46.6303H41.033C40.747 47.3636 40.285 47.9283 39.647 48.3243C39.0163 48.7203 38.294 48.9183 37.48 48.9183C36.7613 48.9183 36.105 48.7533 35.511 48.4233C34.917 48.086 34.444 47.6203 34.092 47.0263C33.7473 46.4323 33.575 45.7613 33.575 45.0133ZM42.0828 45.7943C42.0828 45.1856 42.2074 44.6466 42.4568 44.1773C42.7134 43.708 43.0581 43.345 43.4908 43.0883C43.9308 42.8243 44.4148 42.6923 44.9428 42.6923C45.4194 42.6923 45.8338 42.7876 46.1858 42.9783C46.5451 43.1616 46.8311 43.3926 47.0438 43.6713V42.7913H48.3088V48.8523H47.0438V47.9503C46.8311 48.2363 46.5414 48.4746 46.1748 48.6653C45.8081 48.856 45.3901 48.9513 44.9208 48.9513C44.4001 48.9513 43.9234 48.8193 43.4908 48.5553C43.0581 48.284 42.7134 47.91 42.4568 47.4333C42.2074 46.9493 42.0828 46.403 42.0828 45.7943ZM47.0438 45.8163C47.0438 45.3983 46.9558 45.0353 46.7798 44.7273C46.6111 44.4193 46.3874 44.1846 46.1088 44.0233C45.8301 43.862 45.5294 43.7813 45.2068 43.7813C44.8841 43.7813 44.5834 43.862 44.3048 44.0233C44.0261 44.1773 43.7988 44.4083 43.6228 44.7163C43.4541 45.017 43.3698 45.3763 43.3698 45.7943C43.3698 46.2123 43.4541 46.579 43.6228 46.8943C43.7988 47.2096 44.0261 47.4516 44.3048 47.6203C44.5908 47.7816 44.8914 47.8623 45.2068 47.8623C45.5294 47.8623 45.8301 47.7816 46.1088 47.6203C46.3874 47.459 46.6111 47.2243 46.7798 46.9163C46.9558 46.601 47.0438 46.2343 47.0438 45.8163ZM53.0139 42.6923C53.4905 42.6923 53.9159 42.7913 54.2899 42.9893C54.6712 43.1873 54.9682 43.4806 55.1809 43.8693C55.3935 44.258 55.4999 44.7273 55.4999 45.2773V48.8523H54.2569V45.4643C54.2569 44.9216 54.1212 44.5073 53.8499 44.2213C53.5785 43.928 53.2082 43.7813 52.7389 43.7813C52.2695 43.7813 51.8955 43.928 51.6169 44.2213C51.3455 44.5073 51.2099 44.9216 51.2099 45.4643V48.8523H49.9559V42.7913H51.2099V43.4843C51.4152 43.235 51.6755 43.0406 51.9909 42.9013C52.3135 42.762 52.6545 42.6923 53.0139 42.6923ZM19.6265 58.9293C18.9151 58.9293 18.2588 58.7643 17.6575 58.4343C17.0635 58.097 16.5905 57.6313 16.2385 57.0373C15.8938 56.436 15.7215 55.7613 15.7215 55.0133C15.7215 54.2653 15.8938 53.5943 16.2385 53.0003C16.5905 52.4063 17.0635 51.9443 17.6575 51.6143C18.2588 51.277 18.9151 51.1083 19.6265 51.1083C20.3451 51.1083 21.0015 51.277 21.5955 51.6143C22.1968 51.9443 22.6698 52.4063 23.0145 53.0003C23.3591 53.5943 23.5315 54.2653 23.5315 55.0133C23.5315 55.7613 23.3591 56.436 23.0145 57.0373C22.6698 57.6313 22.1968 58.097 21.5955 58.4343C21.0015 58.7643 20.3451 58.9293 19.6265 58.9293ZM19.6265 57.8403C20.1325 57.8403 20.5835 57.7266 20.9795 57.4993C21.3755 57.2646 21.6835 56.9346 21.9035 56.5093C22.1308 56.0766 22.2445 55.578 22.2445 55.0133C22.2445 54.4486 22.1308 53.9536 21.9035 53.5283C21.6835 53.103 21.3755 52.7766 20.9795 52.5493C20.5835 52.322 20.1325 52.2083 19.6265 52.2083C19.1205 52.2083 18.6695 52.322 18.2735 52.5493C17.8775 52.7766 17.5658 53.103 17.3385 53.5283C17.1185 53.9536 17.0085 54.4486 17.0085 55.0133C17.0085 55.578 17.1185 56.0766 17.3385 56.5093C17.5658 56.9346 17.8775 57.2646 18.2735 57.4993C18.6695 57.7266 19.1205 57.8403 19.6265 57.8403ZM27.8234 52.6923C28.3001 52.6923 28.7254 52.7913 29.0994 52.9893C29.4808 53.1873 29.7778 53.4806 29.9904 53.8693C30.2031 54.258 30.3094 54.7273 30.3094 55.2773V58.8523H29.0664V55.4643C29.0664 54.9216 28.9308 54.5073 28.6594 54.2213C28.3881 53.928 28.0178 53.7813 27.5484 53.7813C27.0791 53.7813 26.7051 53.928 26.4264 54.2213C26.1551 54.5073 26.0194 54.9216 26.0194 55.4643V58.8523H24.7654V52.7913H26.0194V53.4843C26.2248 53.235 26.4851 53.0406 26.8004 52.9013C27.1231 52.762 27.4641 52.6923 27.8234 52.6923ZM33.163 53.6933C33.3757 53.4 33.6653 53.1616 34.032 52.9783C34.406 52.7876 34.8203 52.6923 35.275 52.6923C35.8103 52.6923 36.2943 52.8206 36.727 53.0773C37.1597 53.334 37.5007 53.7006 37.75 54.1773C37.9993 54.6466 38.124 55.1856 38.124 55.7943C38.124 56.403 37.9993 56.9493 37.75 57.4333C37.5007 57.91 37.156 58.284 36.716 58.5553C36.2833 58.8193 35.803 58.9513 35.275 58.9513C34.8057 58.9513 34.3877 58.8596 34.021 58.6763C33.6617 58.493 33.3757 58.2583 33.163 57.9723V58.8523H31.909V50.7123H33.163V53.6933ZM36.848 55.7943C36.848 55.3763 36.76 55.017 36.584 54.7163C36.4153 54.4083 36.188 54.1773 35.902 54.0233C35.6233 53.862 35.3227 53.7813 35 53.7813C34.6847 53.7813 34.384 53.862 34.098 54.0233C33.8193 54.1846 33.592 54.4193 33.416 54.7273C33.2473 55.0353 33.163 55.3983 33.163 55.8163C33.163 56.2343 33.2473 56.601 33.416 56.9163C33.592 57.2243 33.8193 57.459 34.098 57.6203C34.384 57.7816 34.6847 57.8623 35 57.8623C35.3227 57.8623 35.6233 57.7816 35.902 57.6203C36.188 57.4516 36.4153 57.2096 36.584 56.8943C36.76 56.579 36.848 56.2123 36.848 55.7943ZM41.9931 58.9513C41.4211 58.9513 40.9041 58.823 40.4421 58.5663C39.9801 58.3023 39.6171 57.9356 39.3531 57.4663C39.0891 56.9896 38.9571 56.4396 38.9571 55.8163C38.9571 55.2003 39.0927 54.654 39.3641 54.1773C39.6354 53.7006 40.0057 53.334 40.4751 53.0773C40.9444 52.8206 41.4687 52.6923 42.0481 52.6923C42.6274 52.6923 43.1517 52.8206 43.6211 53.0773C44.0904 53.334 44.4607 53.7006 44.7321 54.1773C45.0034 54.654 45.1391 55.2003 45.1391 55.8163C45.1391 56.4323 44.9997 56.9786 44.7211 57.4553C44.4424 57.932 44.0611 58.3023 43.5771 58.5663C43.1004 58.823 42.5724 58.9513 41.9931 58.9513ZM41.9931 57.8623C42.3157 57.8623 42.6164 57.7853 42.8951 57.6313C43.1811 57.4773 43.4121 57.2463 43.5881 56.9383C43.7641 56.6303 43.8521 56.2563 43.8521 55.8163C43.8521 55.3763 43.7677 55.006 43.5991 54.7053C43.4304 54.3973 43.2067 54.1663 42.9281 54.0123C42.6494 53.8583 42.3487 53.7813 42.0261 53.7813C41.7034 53.7813 41.4027 53.8583 41.1241 54.0123C40.8527 54.1663 40.6364 54.3973 40.4751 54.7053C40.3137 55.006 40.2331 55.3763 40.2331 55.8163C40.2331 56.469 40.3981 56.975 40.7281 57.3343C41.0654 57.6863 41.4871 57.8623 41.9931 57.8623ZM45.9607 55.7943C45.9607 55.1856 46.0854 54.6466 46.3347 54.1773C46.5914 53.708 46.936 53.345 47.3687 53.0883C47.8087 52.8243 48.2927 52.6923 48.8207 52.6923C49.2974 52.6923 49.7117 52.7876 50.0637 52.9783C50.423 53.1616 50.709 53.3926 50.9217 53.6713V52.7913H52.1867V58.8523H50.9217V57.9503C50.709 58.2363 50.4194 58.4746 50.0527 58.6653C49.686 58.856 49.268 58.9513 48.7987 58.9513C48.278 58.9513 47.8014 58.8193 47.3687 58.5553C46.936 58.284 46.5914 57.91 46.3347 57.4333C46.0854 56.9493 45.9607 56.403 45.9607 55.7943ZM50.9217 55.8163C50.9217 55.3983 50.8337 55.0353 50.6577 54.7273C50.489 54.4193 50.2654 54.1846 49.9867 54.0233C49.708 53.862 49.4074 53.7813 49.0847 53.7813C48.762 53.7813 48.4614 53.862 48.1827 54.0233C47.904 54.1773 47.6767 54.4083 47.5007 54.7163C47.332 55.017 47.2477 55.3763 47.2477 55.7943C47.2477 56.2123 47.332 56.579 47.5007 56.8943C47.6767 57.2096 47.904 57.4516 48.1827 57.6203C48.4687 57.7816 48.7694 57.8623 49.0847 57.8623C49.4074 57.8623 49.708 57.7816 49.9867 57.6203C50.2654 57.459 50.489 57.2243 50.6577 56.9163C50.8337 56.601 50.9217 56.2343 50.9217 55.8163ZM55.0878 53.6713C55.2711 53.3633 55.5131 53.125 55.8138 52.9563C56.1218 52.7803 56.4848 52.6923 56.9028 52.6923V53.9903H56.5838C56.0925 53.9903 55.7185 54.115 55.4618 54.3643C55.2125 54.6136 55.0878 55.0463 55.0878 55.6623V58.8523H53.8338V52.7913H55.0878V53.6713ZM57.6375 55.7943C57.6375 55.1856 57.7621 54.6466 58.0115 54.1773C58.2681 53.708 58.6128 53.345 59.0455 53.0883C59.4855 52.8243 59.9731 52.6923 60.5085 52.6923C60.9045 52.6923 61.2931 52.7803 61.6745 52.9563C62.0631 53.125 62.3711 53.3523 62.5985 53.6383V50.7123H63.8635V58.8523H62.5985V57.9393C62.3931 58.2326 62.1071 58.4746 61.7405 58.6653C61.3811 58.856 60.9668 58.9513 60.4975 58.9513C59.9695 58.9513 59.4855 58.8193 59.0455 58.5553C58.6128 58.284 58.2681 57.91 58.0115 57.4333C57.7621 56.9493 57.6375 56.403 57.6375 55.7943ZM62.5985 55.8163C62.5985 55.3983 62.5105 55.0353 62.3345 54.7273C62.1658 54.4193 61.9421 54.1846 61.6635 54.0233C61.3848 53.862 61.0841 53.7813 60.7615 53.7813C60.4388 53.7813 60.1381 53.862 59.8595 54.0233C59.5808 54.1773 59.3535 54.4083 59.1775 54.7163C59.0088 55.017 58.9245 55.3763 58.9245 55.7943C58.9245 56.2123 59.0088 56.579 59.1775 56.8943C59.3535 57.2096 59.5808 57.4516 59.8595 57.6203C60.1455 57.7816 60.4461 57.8623 60.7615 57.8623C61.0841 57.8623 61.3848 57.7816 61.6635 57.6203C61.9421 57.459 62.1658 57.2243 62.3345 56.9163C62.5105 56.601 62.5985 56.2343 62.5985 55.8163Z" fill="white"/>
<defs>
<filter id="filter0_b_74_419" x="-182" y="-187" width="444" height="444" filterUnits="userSpaceOnUse" color-interpolation-filters="sRGB">
<feFlood flood-opacity="0" result="BackgroundImageFix"/>
<feGaussianBlur in="BackgroundImageFix" stdDeviation="93.5"/>
<feComposite in2="SourceAlpha" operator="in" result="effect1_backgroundBlur_74_419"/>
<feBlend mode="normal" in="SourceGraphic" in2="effect1_backgroundBlur_74_419" result="shape"/>
</filter>
</defs>
</svg>
