<svg width="78" height="61" viewBox="0 0 78 61" fill="none" xmlns="http://www.w3.org/2000/svg">
<g filter="url(#filter0_b_394_5340)">
<rect width="78" height="60.1724" rx="10" fill="#793020"/>
</g>
<path d="M39.0903 17.2666C40.8008 17.2666 42.1674 17.7361 43.1904 18.6752C44.2301 19.6143 44.7499 20.8971 44.7499 22.5237C44.7499 24.2174 44.2133 25.4919 43.1401 26.3471C42.0668 27.2023 40.6414 27.6299 38.8639 27.6299L38.7633 29.6171H36.2731L36.1473 25.6679H36.9774C38.604 25.6679 39.8449 25.4499 40.7001 25.0139C41.5721 24.5779 42.0081 23.7479 42.0081 22.5237C42.0081 21.6349 41.7482 20.939 41.2284 20.4359C40.7253 19.9329 40.021 19.6813 39.1155 19.6813C38.2099 19.6813 37.4972 19.9245 36.9774 20.4108C36.4575 20.8971 36.1976 21.5763 36.1976 22.4483H33.5062C33.5062 21.4421 33.7325 20.5449 34.1853 19.7568C34.6381 18.9686 35.2837 18.3566 36.1221 17.9206C36.9774 17.4846 37.9668 17.2666 39.0903 17.2666ZM37.4805 35.1761C36.9606 35.1761 36.5246 35 36.1725 34.6478C35.8203 34.2957 35.6442 33.8597 35.6442 33.3398C35.6442 32.82 35.8203 32.384 36.1725 32.0319C36.5246 31.6797 36.9606 31.5036 37.4805 31.5036C37.9835 31.5036 38.4111 31.6797 38.7633 32.0319C39.1155 32.384 39.2915 32.82 39.2915 33.3398C39.2915 33.8597 39.1155 34.2957 38.7633 34.6478C38.4111 35 37.9835 35.1761 37.4805 35.1761Z" fill="white"/>
<path d="M20.344 48.077C19.8307 48.077 19.3687 47.989 18.958 47.813C18.5473 47.6297 18.2247 47.373 17.99 47.043C17.7553 46.713 17.638 46.328 17.638 45.888H18.98C19.0093 46.218 19.1377 46.4893 19.365 46.702C19.5997 46.9147 19.926 47.021 20.344 47.021C20.7767 47.021 21.114 46.9183 21.356 46.713C21.598 46.5003 21.719 46.229 21.719 45.899C21.719 45.6423 21.642 45.4333 21.488 45.272C21.3413 45.1107 21.1543 44.986 20.927 44.898C20.707 44.81 20.399 44.7147 20.003 44.612C19.5043 44.48 19.0973 44.348 18.782 44.216C18.474 44.0767 18.21 43.864 17.99 43.578C17.77 43.292 17.66 42.9107 17.66 42.434C17.66 41.994 17.77 41.609 17.99 41.279C18.21 40.949 18.518 40.696 18.914 40.52C19.31 40.344 19.7683 40.256 20.289 40.256C21.0297 40.256 21.6347 40.443 22.104 40.817C22.5807 41.1837 22.8447 41.6897 22.896 42.335H21.51C21.488 42.0563 21.356 41.818 21.114 41.62C20.872 41.422 20.553 41.323 20.157 41.323C19.7977 41.323 19.5043 41.4147 19.277 41.598C19.0497 41.7813 18.936 42.0453 18.936 42.39C18.936 42.6247 19.0057 42.819 19.145 42.973C19.2917 43.1197 19.475 43.237 19.695 43.325C19.915 43.413 20.2157 43.5083 20.597 43.611C21.103 43.7503 21.5137 43.8897 21.829 44.029C22.1517 44.1683 22.423 44.3847 22.643 44.678C22.8703 44.964 22.984 45.349 22.984 45.833C22.984 46.2217 22.8777 46.5883 22.665 46.933C22.4597 47.2777 22.1553 47.5563 21.752 47.769C21.356 47.9743 20.8867 48.077 20.344 48.077ZM29.9527 41.939V48H28.6987V47.285C28.5007 47.5343 28.2403 47.7323 27.9177 47.879C27.6023 48.0183 27.265 48.088 26.9057 48.088C26.429 48.088 26 47.989 25.6187 47.791C25.2447 47.593 24.9477 47.2997 24.7277 46.911C24.515 46.5223 24.4087 46.053 24.4087 45.503V41.939H25.6517V45.316C25.6517 45.8587 25.7873 46.2767 26.0587 46.57C26.33 46.856 26.7003 46.999 27.1697 46.999C27.639 46.999 28.0093 46.856 28.2807 46.57C28.5593 46.2767 28.6987 45.8587 28.6987 45.316V41.939H29.9527ZM32.8612 42.83C33.0739 42.5513 33.3636 42.3167 33.7302 42.126C34.0969 41.9353 34.5112 41.84 34.9732 41.84C35.5012 41.84 35.9816 41.972 36.4142 42.236C36.8542 42.4927 37.1989 42.8557 37.4482 43.325C37.6976 43.7943 37.8222 44.3333 37.8222 44.942C37.8222 45.5507 37.6976 46.097 37.4482 46.581C37.1989 47.0577 36.8542 47.4317 36.4142 47.703C35.9816 47.967 35.5012 48.099 34.9732 48.099C34.5112 48.099 34.1006 48.0073 33.7412 47.824C33.3819 47.6333 33.0886 47.3987 32.8612 47.12V50.882H31.6072V41.939H32.8612V42.83ZM36.5462 44.942C36.5462 44.524 36.4582 44.1647 36.2822 43.864C36.1136 43.556 35.8862 43.325 35.6002 43.171C35.3216 43.0097 35.0209 42.929 34.6982 42.929C34.3829 42.929 34.0822 43.0097 33.7962 43.171C33.5176 43.3323 33.2902 43.567 33.1142 43.875C32.9456 44.183 32.8612 44.546 32.8612 44.964C32.8612 45.382 32.9456 45.7487 33.1142 46.064C33.2902 46.372 33.5176 46.6067 33.7962 46.768C34.0822 46.9293 34.3829 47.01 34.6982 47.01C35.0209 47.01 35.3216 46.9293 35.6002 46.768C35.8862 46.5993 36.1136 46.3573 36.2822 46.042C36.4582 45.7267 36.5462 45.36 36.5462 44.942ZM40.3163 42.83C40.529 42.5513 40.8186 42.3167 41.1853 42.126C41.552 41.9353 41.9663 41.84 42.4283 41.84C42.9563 41.84 43.4366 41.972 43.8693 42.236C44.3093 42.4927 44.654 42.8557 44.9033 43.325C45.1526 43.7943 45.2773 44.3333 45.2773 44.942C45.2773 45.5507 45.1526 46.097 44.9033 46.581C44.654 47.0577 44.3093 47.4317 43.8693 47.703C43.4366 47.967 42.9563 48.099 42.4283 48.099C41.9663 48.099 41.5556 48.0073 41.1963 47.824C40.837 47.6333 40.5436 47.3987 40.3163 47.12V50.882H39.0623V41.939H40.3163V42.83ZM44.0013 44.942C44.0013 44.524 43.9133 44.1647 43.7373 43.864C43.5686 43.556 43.3413 43.325 43.0553 43.171C42.7766 43.0097 42.476 42.929 42.1533 42.929C41.838 42.929 41.5373 43.0097 41.2513 43.171C40.9726 43.3323 40.7453 43.567 40.5693 43.875C40.4006 44.183 40.3163 44.546 40.3163 44.964C40.3163 45.382 40.4006 45.7487 40.5693 46.064C40.7453 46.372 40.9726 46.6067 41.2513 46.768C41.5373 46.9293 41.838 47.01 42.1533 47.01C42.476 47.01 42.7766 46.9293 43.0553 46.768C43.3413 46.5993 43.5686 46.3573 43.7373 46.042C43.9133 45.7267 44.0013 45.36 44.0013 44.942ZM49.1464 48.099C48.5744 48.099 48.0574 47.9707 47.5954 47.714C47.1334 47.45 46.7704 47.0833 46.5064 46.614C46.2424 46.1373 46.1104 45.5873 46.1104 44.964C46.1104 44.348 46.246 43.8017 46.5174 43.325C46.7887 42.8483 47.159 42.4817 47.6284 42.225C48.0977 41.9683 48.622 41.84 49.2014 41.84C49.7807 41.84 50.305 41.9683 50.7744 42.225C51.2437 42.4817 51.614 42.8483 51.8854 43.325C52.1567 43.8017 52.2924 44.348 52.2924 44.964C52.2924 45.58 52.153 46.1263 51.8744 46.603C51.5957 47.0797 51.2144 47.45 50.7304 47.714C50.2537 47.9707 49.7257 48.099 49.1464 48.099ZM49.1464 47.01C49.469 47.01 49.7697 46.933 50.0484 46.779C50.3344 46.625 50.5654 46.394 50.7414 46.086C50.9174 45.778 51.0054 45.404 51.0054 44.964C51.0054 44.524 50.921 44.1537 50.7524 43.853C50.5837 43.545 50.36 43.314 50.0814 43.16C49.8027 43.006 49.502 42.929 49.1794 42.929C48.8567 42.929 48.556 43.006 48.2774 43.16C48.006 43.314 47.7897 43.545 47.6284 43.853C47.467 44.1537 47.3864 44.524 47.3864 44.964C47.3864 45.6167 47.5514 46.1227 47.8814 46.482C48.2187 46.834 48.6404 47.01 49.1464 47.01ZM54.786 42.819C54.9694 42.511 55.2114 42.2727 55.512 42.104C55.82 41.928 56.183 41.84 56.601 41.84V43.138H56.282C55.7907 43.138 55.4167 43.2627 55.16 43.512C54.9107 43.7613 54.786 44.194 54.786 44.81V48H53.532V41.939H54.786V42.819ZM59.2167 42.962V46.317C59.2167 46.5443 59.268 46.7093 59.3707 46.812C59.4807 46.9073 59.664 46.955 59.9207 46.955H60.6907V48H59.7007C59.136 48 58.7034 47.868 58.4027 47.604C58.102 47.34 57.9517 46.911 57.9517 46.317V42.962H57.2367V41.939H57.9517V40.432H59.2167V41.939H60.6907V42.962H59.2167Z" fill="white"/>
<defs>
<filter id="filter0_b_394_5340" x="-187" y="-187" width="452" height="434.172" filterUnits="userSpaceOnUse" color-interpolation-filters="sRGB">
<feFlood flood-opacity="0" result="BackgroundImageFix"/>
<feGaussianBlur in="BackgroundImageFix" stdDeviation="93.5"/>
<feComposite in2="SourceAlpha" operator="in" result="effect1_backgroundBlur_394_5340"/>
<feBlend mode="normal" in="SourceGraphic" in2="effect1_backgroundBlur_394_5340" result="shape"/>
</filter>
</defs>
</svg>
