<svg width="171" height="171" viewBox="0 0 171 171" fill="none" xmlns="http://www.w3.org/2000/svg">
<rect width="171" height="171" rx="20" fill="#FF5C35"/>
<path d="M85.89 29C116.71 29 141.78 54.07 141.78 84.89C141.78 115.71 116.71 140.78 85.89 140.78C55.07 140.78 30 115.71 30 84.89C30 54.07 55.07 29 85.89 29ZM49.33 64.41C50.33 67.3 52.35 70.3 55.48 73.54C54.16 77.08 53.43 80.9 53.43 84.89C53.43 102.79 67.99 117.35 85.89 117.35C90.04 117.35 94 116.56 97.65 115.14C98.21 116.08 98.89 116.96 99.7 117.77C102.38 120.45 105.61 121.87 109.05 121.87C109.3 121.87 109.55 121.87 109.8 121.85C113.28 121.64 116.42 120.24 118.88 117.78C121.34 115.32 122.78 112.18 123.03 108.73C123.22 106.12 122.66 102.23 118.96 98.53C118.13 97.7 117.21 97 116.24 96.43C117.61 92.85 118.36 88.96 118.36 84.91C118.36 67.01 103.8 52.45 85.9 52.45C82 52.45 78.25 53.14 74.78 54.41C74.21 53.81 73.7 53.28 73.25 52.83C70.13 49.71 66.67 48.07 62.96 47.94C62.81 47.94 62.65 47.94 62.5 47.94C58.88 47.94 55.52 49.39 52.77 52.14C47.82 57.09 48.5 61.96 49.35 64.43L49.33 64.41Z" fill="white"/>
<path d="M94.1328 84.0551L76.9328 64.3951C73.5728 60.5751 71.1128 57.8751 69.5428 56.3151C67.4128 54.1851 65.1928 53.0851 62.8828 53.0051C60.5728 52.9251 58.5128 53.7951 56.6928 55.6251C54.4828 57.8351 53.7728 60.0651 54.5528 62.3351C55.3328 64.6051 57.1628 67.1751 60.0328 70.0451C61.7228 71.7351 63.5328 73.3651 65.4528 74.9351L86.0728 92.245C88.5128 94.325 90.6228 95.665 92.4228 96.285C94.2228 96.905 95.7928 96.5251 97.1528 95.1651C98.5128 93.8051 98.9128 92.2351 98.2828 90.5251C97.6528 88.8151 96.2628 86.6551 94.1128 84.0451L94.1328 84.0551ZM115.183 113.645C116.753 112.075 117.603 110.205 117.763 108.025C117.913 105.845 117.083 103.845 115.263 102.025C113.673 100.435 111.763 99.645 109.533 99.635C107.303 99.635 105.373 100.445 103.763 102.055C102.153 103.665 101.323 105.605 101.303 107.865C101.283 110.125 102.063 112.045 103.653 113.635C105.453 115.435 107.433 116.265 109.613 116.135C111.793 116.005 113.653 115.175 115.193 113.635L115.183 113.645Z" fill="white"/>
</svg>
