<svg width="171" height="171" viewBox="0 0 171 171" fill="none" xmlns="http://www.w3.org/2000/svg">
<rect width="171" height="171" rx="20" fill="#FF5C35"/>
<path d="M85.89 29C55.07 29 30 54.07 30 84.89C30 115.71 55.07 140.78 85.89 140.78C116.71 140.78 141.78 115.71 141.78 84.89C141.78 54.07 116.71 29 85.89 29ZM122.45 64.41C121.45 67.3 119.43 70.3 116.3 73.54C117.62 77.08 118.35 80.9 118.35 84.89C118.35 102.79 103.79 117.35 85.89 117.35C81.74 117.35 77.78 116.56 74.13 115.14C73.57 116.08 72.89 116.96 72.08 117.77C69.4 120.45 66.17 121.87 62.73 121.87C62.48 121.87 62.23 121.87 61.98 121.85C58.5 121.64 55.36 120.24 52.9 117.78C50.44 115.32 49 112.18 48.75 108.73C48.56 106.12 49.12 102.23 52.82 98.53C53.65 97.7 54.57 97 55.54 96.43C54.17 92.85 53.42 88.96 53.42 84.91C53.42 67.01 67.98 52.45 85.88 52.45C89.78 52.45 93.53 53.14 97 54.41C97.57 53.81 98.08 53.28 98.53 52.83C101.65 49.71 105.11 48.07 108.82 47.94C108.97 47.94 109.13 47.94 109.28 47.94C112.9 47.94 116.26 49.39 119.01 52.14C123.96 57.09 123.28 61.96 122.43 64.43L122.45 64.41Z" fill="white"/>
<path d="M77.6472 84.0551L94.8472 64.3951C98.2072 60.5751 100.667 57.8751 102.237 56.3151C104.367 54.1851 106.587 53.0851 108.897 53.0051C111.207 52.9251 113.267 53.7951 115.087 55.6251C117.297 57.8351 118.007 60.0651 117.227 62.3351C116.447 64.6051 114.617 67.1751 111.747 70.0451C110.057 71.7351 108.247 73.3651 106.327 74.9351L85.7072 92.245C83.2672 94.3251 81.1572 95.6651 79.3572 96.285C77.5572 96.905 75.9872 96.5251 74.6272 95.1651C73.2672 93.8051 72.8672 92.2351 73.4972 90.5251C74.1272 88.8151 75.5172 86.6551 77.6672 84.0451L77.6472 84.0551ZM56.5972 113.645C55.0272 112.075 54.1772 110.205 54.0172 108.025C53.8672 105.845 54.6972 103.845 56.5172 102.025C58.1072 100.435 60.0172 99.645 62.2472 99.635C64.4772 99.635 66.4072 100.445 68.0172 102.055C69.6272 103.665 70.4572 105.605 70.4772 107.865C70.4972 110.125 69.7172 112.045 68.1272 113.635C66.3272 115.435 64.3472 116.265 62.1672 116.135C59.9872 116.005 58.1272 115.175 56.5872 113.635L56.5972 113.645Z" fill="white"/>
</svg>
