<svg width="132" height="74" viewBox="0 0 132 74" fill="none" xmlns="http://www.w3.org/2000/svg">
<path d="M13.1022 19.6985C13.1776 16.5136 15.8207 13.9928 19.0056 14.0682L86.3301 15.6623L84.9748 72.9024L17.6503 71.3084C14.4654 71.233 11.9446 68.5899 12.02 65.4049L13.1022 19.6985Z" fill="#6B6B6B"/>
<path d="M121.258 56.9139C121.201 59.3536 119.614 61.4929 117.296 62.2563L84.9744 72.9023L86.3297 15.6621L114.651 5.65048C118.459 4.30427 122.436 7.18771 122.34 11.2257L121.258 56.9139Z" fill="#929292"/>
<path d="M47.0252 1.07415L87.0933 2.02286L86.7597 16.1127L12.3095 13.8119L47.0252 1.07415Z" fill="#585858"/>
<path d="M12.3096 13.8122L86.3299 15.6623L80.2965 31.1057C79.4138 33.365 77.212 34.8308 74.7869 34.7734L10.754 33.2573C6.34291 33.1528 3.67747 28.3362 5.93179 24.5432L12.3096 13.8122Z" fill="#8E8E8E"/>
<path d="M86.6531 2.01367L121.868 3.27425L86.3299 15.6633L86.6531 2.01367Z" fill="#7B7B7B"/>
<path d="M86.3297 15.6618L121.872 3.06645L127.994 16.2322C129.431 19.3219 127.891 22.9771 124.676 24.1067L100.732 32.5203C98.0289 33.47 95.0384 32.2921 93.7093 29.754L86.3297 15.6618Z" fill="#B0B0B0"/>
</svg>
