<svg width="113" height="112" viewBox="0 0 113 112" fill="none" xmlns="http://www.w3.org/2000/svg">
<g clip-path="url(#clip0_1534_12325)">
<path d="M84.66 72.3691C85.1 72.6691 85.51 73.0091 85.91 73.4091C87.73 75.2291 88.57 77.2291 88.41 79.4091C88.26 81.5891 87.4 83.4591 85.83 85.0291C84.29 86.5691 82.43 87.3991 80.25 87.5291C80.1 87.5291 79.96 87.5391 79.82 87.5391C77.81 87.5391 75.97 86.6991 74.29 85.0291C73.91 84.6491 73.58 84.2491 73.29 83.8291C77.97 81.0291 81.89 77.0691 84.66 72.3691Z" fill="white"/>
<path d="M33.27 24.3809C33.36 24.3809 33.46 24.3809 33.55 24.3809C35.86 24.4609 38.08 25.5609 40.21 27.6909C40.27 27.7509 40.34 27.8209 40.4 27.8809C35.62 30.6609 31.62 34.6209 28.78 39.3709C27 37.3109 25.81 35.4309 25.22 33.7109C24.44 31.4409 25.15 29.2009 27.36 27.0009C29.11 25.2509 31.08 24.3809 33.28 24.3809H33.27Z" fill="white"/>
<path d="M0.780029 55.9603C0.780029 86.7803 25.85 111.85 56.67 111.85C87.49 111.85 112.56 86.7803 112.56 55.9603C112.56 25.1403 87.49 0.0703125 56.67 0.0703125C25.85 0.0703125 0.780029 25.1403 0.780029 55.9603ZM23.53 23.1903C26.28 20.4403 29.65 18.9903 33.26 18.9903C33.41 18.9903 33.57 18.9903 33.72 18.9903C37.43 19.1103 40.9 20.7603 44.01 23.8803C44.46 24.3303 44.97 24.8603 45.54 25.4603C49.01 24.1903 52.75 23.5003 56.66 23.5003C74.56 23.5003 89.12 38.0603 89.12 55.9603C89.12 60.0203 88.37 63.9003 87 67.4803C87.97 68.0603 88.88 68.7503 89.72 69.5803C93.42 73.2803 93.97 77.1703 93.79 79.7803C93.55 83.2303 92.11 86.3703 89.64 88.8303C87.17 91.2903 84.04 92.7003 80.56 92.9003C80.31 92.9103 80.06 92.9203 79.81 92.9203C76.37 92.9203 73.14 91.5003 70.46 88.8203C69.65 88.0103 68.98 87.1303 68.41 86.1903C64.76 87.6103 60.8 88.4003 56.65 88.4003C38.75 88.4003 24.19 73.8403 24.19 55.9403C24.19 51.9503 24.92 48.1203 26.24 44.5903C23.11 41.3503 21.09 38.3503 20.09 35.4603C19.24 32.9903 18.56 28.1203 23.51 23.1703L23.53 23.1903Z" fill="white"/>
<path d="M68.96 61.9204C69.59 63.6304 69.21 65.1704 67.83 66.5604C66.47 67.9204 64.89 68.2904 63.1 67.6804C61.3 67.0604 59.19 65.7204 56.75 63.6404L36.13 46.3304C34.21 44.7704 32.4 43.1404 30.71 41.4404C27.84 38.5704 26.01 36.0004 25.23 33.7304C24.45 31.4604 25.16 29.2204 27.37 27.0204C29.19 25.2004 31.26 24.3304 33.56 24.4004C35.86 24.4704 38.09 25.5804 40.22 27.7104C41.78 29.2704 44.25 31.9704 47.61 35.7904L64.81 55.4504C66.96 58.0704 68.36 60.2304 68.98 61.9304L68.96 61.9204ZM80.25 87.5304C78.07 87.6604 76.08 86.8204 74.29 85.0304C72.7 83.4404 71.92 81.5204 71.94 79.2604C71.97 77.0004 72.79 75.0704 74.4 73.4504C76.01 71.8304 77.94 71.0304 80.17 71.0304C82.4 71.0304 84.31 71.8304 85.9 73.4204C87.72 75.2404 88.56 77.2404 88.4 79.4204C88.25 81.6004 87.39 83.4704 85.82 85.0404C84.28 86.5804 82.42 87.4104 80.24 87.5404L80.25 87.5304Z" fill="white"/>
</g>
<defs>
<clipPath id="clip0_1534_12325">
<rect width="113" height="112" fill="white"/>
</clipPath>
</defs>
</svg>
