<svg width="153" height="48" viewBox="0 0 153 48" fill="none" xmlns="http://www.w3.org/2000/svg">
<g id="64791b63d98fbc88523e62c1_Logo-NoPorts-Final(060123)" clip-path="url(#clip0_8_8214)">
<path id="Vector" d="M25.6355 41.6087L25.5632 41.6967C25.3561 41.9605 25.1158 42.1969 24.8461 42.3981C24.5687 42.6072 24.2482 42.7518 23.9102 42.8241C23.623 42.8886 23.326 42.8886 23.0387 42.8241C22.6636 42.7401 22.3412 42.5017 22.1477 42.1695C22.009 41.9409 21.9172 41.6869 21.8762 41.4231C21.8175 41.0597 21.8039 40.6924 21.8371 40.327C21.9289 39.0335 22.4213 37.8025 23.2439 36.8021C23.5565 36.4211 23.9356 36.1006 24.3596 35.8525C24.6507 35.6825 24.9712 35.5672 25.3033 35.5086C25.5788 35.4578 25.8602 35.4676 26.1318 35.5379C26.4014 35.6141 26.6476 35.7607 26.845 35.96L26.9231 36.0381C26.9563 35.917 26.9896 35.8017 27.0208 35.6884H28.1697C28.1697 35.706 28.1697 35.7255 28.1697 35.7431C27.8688 36.7904 27.609 37.8514 27.3647 38.9123C27.2377 39.4614 27.1127 40.0085 26.9661 40.5497C26.9368 40.667 26.9075 40.7861 26.8743 40.8995C26.8176 41.1007 26.7785 41.3078 26.757 41.515C26.7043 41.8745 26.6828 42.236 26.6906 42.5994C26.6984 42.9022 26.761 43.2012 26.8743 43.4826C26.9329 43.6271 27.0189 43.7581 27.1263 43.8714C27.2533 44.0003 27.4253 44.0765 27.607 44.0844C27.8239 44.0922 28.0369 44.0472 28.2323 43.9534C28.4355 43.8616 28.6269 43.7424 28.795 43.5959C28.9024 43.504 29.0119 43.4122 29.1232 43.3282C29.3343 43.1699 29.5844 43.0742 29.8462 43.0507C30.0299 43.0351 30.2135 43.0703 30.3757 43.1562C30.5437 43.2383 30.7157 43.3106 30.8935 43.3692C31.21 43.4747 31.5422 43.5177 31.8763 43.4962C32.1401 43.4826 32.398 43.4024 32.6227 43.2637C32.6677 43.2344 32.7126 43.2031 32.7536 43.168C32.9471 43.0195 33.0311 42.7674 32.9666 42.5329C32.9666 42.4548 32.9138 42.3786 32.8904 42.3004C32.867 42.2223 32.8357 42.1109 32.8142 42.0152C32.7947 41.9331 32.8181 41.8471 32.8767 41.7866C32.9392 41.7143 33.0076 41.642 33.0799 41.5736C33.1639 41.4954 33.2343 41.4055 33.289 41.3059C33.3339 41.2277 33.3515 41.1398 33.3437 41.0499C33.3398 40.9698 33.2929 40.8995 33.2226 40.8623C33.1522 40.8233 33.0741 40.8057 32.994 40.8076H32.6989H32.7575C32.8552 40.794 32.951 40.7744 33.0448 40.749C33.203 40.7021 33.3437 40.6103 33.4512 40.4833C33.5215 40.4071 33.5371 40.2938 33.4903 40.2019C33.4629 40.1374 33.4238 40.0788 33.373 40.0319C33.33 39.987 33.2812 39.944 33.2382 39.8971C33.119 39.7916 33.1073 39.6099 33.2128 39.4907C33.2206 39.4809 33.2284 39.4731 33.2382 39.4653C33.3124 39.393 33.3926 39.3266 33.4766 39.266C33.5821 39.1839 33.6935 39.1097 33.8048 39.0276C33.8889 38.9612 33.9651 38.885 34.0276 38.799C34.1253 38.6857 34.1253 38.5176 34.0276 38.4063C33.9592 38.3242 33.8849 38.246 33.8048 38.1738C33.5997 37.992 33.4121 37.7927 33.2421 37.5778C33.0956 37.3902 32.9764 37.1831 32.8884 36.9623C32.824 36.7787 32.7888 36.5852 32.7829 36.3898C32.7751 36.1573 32.781 35.9248 32.7986 35.6923C32.8103 35.4383 32.7732 35.1823 32.6872 34.942C32.5348 34.4965 32.2651 34.1018 31.9056 33.7989C31.5832 33.5254 31.2159 33.3104 30.8192 33.1678C30.2956 32.9705 29.7505 32.8298 29.1955 32.7516C28.5957 32.6676 27.988 32.6363 27.3823 32.6598C26.3584 32.6969 25.3463 32.8943 24.383 33.2421C23.4706 33.5684 22.6167 34.0373 21.8527 34.6333C21.6593 34.7915 21.4756 34.9615 21.3037 35.1432C20.8386 35.618 20.4322 36.1495 20.0981 36.7239C19.7894 37.2554 19.551 37.826 19.3908 38.4199C19.3419 38.5958 19.2931 38.7736 19.2599 38.9573C19.1602 39.4887 19.1231 40.028 19.1524 40.5673C19.1895 41.3215 19.3693 42.0621 19.6799 42.7518C20.0922 43.6584 20.7175 44.4517 21.503 45.0633C21.9836 45.4521 22.5112 45.7823 23.072 46.0461C23.7226 46.3411 24.4123 46.5463 25.1177 46.6577C25.6218 46.7358 26.1318 46.7671 26.6398 46.7495C27.0599 46.7358 27.478 46.6909 27.8903 46.6147C28.4276 46.5268 28.9552 46.3919 29.4691 46.2083C29.6723 46.136 29.8677 46.0481 30.065 45.966H30.108L30.3601 46.687L30.3269 46.7065C29.4906 47.193 28.5859 47.5506 27.6422 47.7675C27.2064 47.8691 26.7629 47.9375 26.3155 47.9746C25.8661 48.0098 25.4127 48.0098 24.9633 47.9746C23.4452 47.8808 21.9856 47.3669 20.7429 46.4877C19.7249 45.7706 18.9062 44.8073 18.3591 43.6877C18.0914 43.1602 17.8804 42.6052 17.7338 42.0308C17.5345 41.2414 17.4603 40.4266 17.515 39.6138C17.5697 38.8303 17.7319 38.0604 17.9996 37.3218C18.107 37.0248 18.2165 36.7259 18.3474 36.4387C18.8163 35.4402 19.4846 34.5492 20.3111 33.8204C21.2196 33.0095 22.2748 32.3804 23.4217 31.9681C24.1153 31.7141 24.8344 31.5363 25.5652 31.4386C26.2256 31.3428 26.8938 31.3018 27.5621 31.3174C28.3065 31.3448 29.0431 31.464 29.7583 31.6672C30.2194 31.7923 30.6688 31.9583 31.1006 32.1654C31.6516 32.4331 32.1499 32.7966 32.5739 33.2401C32.994 33.6778 33.2753 34.2288 33.3828 34.8247C33.4316 35.1178 33.4316 35.4187 33.3828 35.7118C33.3457 35.9189 33.33 36.13 33.3378 36.341C33.3476 36.7572 33.5059 37.1558 33.7833 37.4645C33.9475 37.6521 34.1116 37.8318 34.2835 38.0135L34.5415 38.291C34.6157 38.3652 34.6411 38.4747 34.6098 38.5763C34.5864 38.674 34.5454 38.7658 34.4887 38.8479C34.3715 39.0198 34.2269 39.1742 34.0628 39.3031C33.9572 39.3871 33.8478 39.4633 33.7345 39.5356C33.6563 39.5767 33.6251 39.6744 33.6661 39.7525C33.6739 39.7662 33.6837 39.7799 33.6954 39.7916C33.754 39.8541 33.8029 39.9245 33.842 40.0007C33.9143 40.1453 33.9221 40.3153 33.8615 40.4657C33.8283 40.5536 33.7794 40.6337 33.7169 40.7041L33.6192 40.8155C33.5997 40.8428 33.5997 40.8799 33.6192 40.9073C33.6388 40.9464 33.6544 40.9854 33.672 41.0245C33.7189 41.1281 33.7228 41.2453 33.6876 41.3528C33.6407 41.4935 33.5586 41.6185 33.4492 41.7201L33.3515 41.8217C33.287 41.8979 33.2441 41.9917 33.2265 42.0894C33.2167 42.1617 33.2284 42.234 33.2597 42.2985C33.2831 42.3571 33.3085 42.4157 33.3359 42.4724C33.3965 42.5994 33.4336 42.7362 33.4473 42.8749C33.4883 43.1875 33.3437 43.4943 33.078 43.6643C32.8064 43.8479 32.4957 43.971 32.1714 44.0218C31.847 44.0746 31.5168 44.0863 31.1885 44.0511C30.9169 44.0297 30.6473 43.9906 30.3796 43.9359C30.0689 43.8812 29.7505 43.9495 29.4886 44.1254C29.3206 44.229 29.1682 44.354 29.0334 44.4986C28.8907 44.651 28.7325 44.7897 28.5644 44.9148C28.3143 45.1043 28.0251 45.2372 27.7203 45.3075C27.3979 45.3818 27.058 45.3407 26.761 45.1922C26.5499 45.0867 26.3624 44.9382 26.2119 44.7565C25.9911 44.483 25.8328 44.1645 25.7469 43.8225C25.6081 43.3243 25.5437 42.8104 25.5573 42.2946C25.5612 42.0796 25.5886 41.8647 25.6394 41.6556C25.6394 41.64 25.6335 41.6244 25.6296 41.6107L25.6355 41.6087ZM23.1188 41.0851C23.1188 41.2883 23.1364 41.4915 23.1775 41.6908C23.2107 41.8647 23.281 42.0308 23.3846 42.1754C23.5116 42.3512 23.7285 42.4372 23.9414 42.3942C24.1153 42.3649 24.2814 42.2985 24.4299 42.2008C24.6136 42.0816 24.7816 41.9409 24.9301 41.7787C25.2447 41.4368 25.4948 41.0402 25.6628 40.6064C26.0771 39.5825 26.376 38.5137 26.5538 37.4234C26.589 37.1773 26.589 36.9291 26.5538 36.6829C26.5382 36.5149 26.4874 36.3527 26.4073 36.2042C26.3096 36.0225 26.1357 35.8955 25.9325 35.8564C25.8074 35.831 25.6785 35.831 25.5534 35.8564C25.3287 35.9033 25.1177 36.0029 24.9379 36.1475C24.7426 36.3019 24.5687 36.4836 24.4202 36.6849C24.1544 37.0385 23.9336 37.4254 23.7656 37.8338C23.5272 38.4141 23.3494 39.0178 23.238 39.6353C23.1442 40.1081 23.0934 40.5868 23.0876 41.0695L23.1208 41.0831L23.1188 41.0851Z" fill="#FF5C35"/>
<path id="Vector_2" d="M38.1659 38.1796C38.4375 37.6774 38.8068 37.2847 39.2738 37.0073C39.7408 36.7278 40.2586 36.5891 40.8252 36.5891C41.3352 36.5891 41.7826 36.6888 42.1637 36.89C42.5447 37.0913 42.8495 37.3394 43.0781 37.6384V36.6946H44.4341V43.1914H43.0781V42.2242C42.8495 42.531 42.5388 42.7869 42.1461 42.9902C41.7533 43.1953 41.3039 43.2969 40.8018 43.2969C40.243 43.2969 39.733 43.1543 39.2699 42.8671C38.8068 42.5798 38.4395 42.1793 38.1679 41.6634C37.8963 41.1496 37.7615 40.5653 37.7615 39.9127C37.7615 39.2601 37.8963 38.6818 38.1679 38.1796H38.1659ZM42.7987 38.7697C42.6131 38.4395 42.3727 38.1874 42.0738 38.0155C41.7748 37.8435 41.4524 37.7556 41.1066 37.7556C40.7607 37.7556 40.4383 37.8396 40.1394 38.0096C39.8404 38.1796 39.5982 38.4258 39.4145 38.7521C39.2289 39.0784 39.137 39.4653 39.137 39.9127C39.137 40.3602 39.2289 40.7549 39.4145 41.0909C39.5982 41.429 39.8424 41.6869 40.1453 41.8627C40.4481 42.0405 40.7686 42.1285 41.1066 42.1285C41.4446 42.1285 41.7748 42.0425 42.0738 41.8686C42.3727 41.6967 42.615 41.4426 42.7987 41.1085C42.9823 40.7744 43.0761 40.3836 43.0761 39.9362C43.0761 39.4887 42.9843 39.0999 42.7987 38.7697Z" fill="black"/>
<path id="Vector_3" d="M47.5331 37.7908V41.386C47.5331 41.6302 47.5898 41.8041 47.705 41.9116C47.8184 42.0171 48.0138 42.0699 48.2893 42.0699H49.1138V43.1895H48.0528C47.4471 43.1895 46.984 43.0488 46.6616 42.7655C46.3392 42.4821 46.179 42.023 46.179 41.386V37.7908H45.4131V36.6946H46.179V35.0787H47.535V36.6946H49.1158V37.7908H47.535H47.5331Z" fill="black"/>
<path id="Vector_4" d="M51.1009 43.0195C50.6964 42.8358 50.376 42.5837 50.1396 42.2652C49.9031 41.9468 49.7781 41.5911 49.7625 41.1984H51.1536C51.1771 41.4739 51.308 41.7045 51.5483 41.8881C51.7887 42.0738 52.0896 42.1656 52.451 42.1656C52.8125 42.1656 53.1212 42.0933 53.3303 41.9468C53.5394 41.8022 53.6429 41.6146 53.6429 41.386C53.6429 41.1417 53.5277 40.962 53.2951 40.8428C53.0626 40.7256 52.6953 40.5946 52.1931 40.454C51.7066 40.3211 51.308 40.1902 51.0032 40.0651C50.6964 39.9401 50.4307 39.7466 50.2079 39.4868C49.9832 39.2269 49.8719 38.885 49.8719 38.461C49.8719 38.1151 49.9735 37.7986 50.1786 37.5114C50.3838 37.2241 50.6749 36.9994 51.0579 36.8334C51.4389 36.6692 51.8766 36.5852 52.3729 36.5852C53.1115 36.5852 53.7074 36.7728 54.1588 37.146C54.6101 37.5192 54.8524 38.0292 54.8837 38.672H53.5394C53.5159 38.3809 53.3987 38.1503 53.1857 37.9764C52.9727 37.8045 52.6855 37.7165 52.324 37.7165C51.9626 37.7165 51.6988 37.783 51.5112 37.9178C51.3217 38.0506 51.2279 38.2285 51.2279 38.4492C51.2279 38.6231 51.2904 38.7677 51.4174 38.885C51.5425 39.0022 51.6968 39.096 51.8766 39.1624C52.0583 39.2289 52.324 39.3148 52.6777 39.4164C53.1486 39.5415 53.5355 39.6704 53.8383 39.7994C54.1412 39.9284 54.403 40.1198 54.6218 40.3719C54.8426 40.624 54.956 40.9581 54.9638 41.3743C54.9638 41.7436 54.8622 42.0738 54.657 42.3649C54.4519 42.656 54.1646 42.8846 53.7895 43.0488C53.4163 43.2129 52.9786 43.2969 52.4745 43.2969C51.9704 43.2969 51.5053 43.2051 51.1009 43.0195Z" fill="black"/>
<path id="Vector_5" d="M56.2474 35.5848C56.0833 35.4207 55.9993 35.2155 55.9993 34.9713C55.9993 34.7271 56.0813 34.5238 56.2474 34.3578C56.4135 34.1917 56.6167 34.1096 56.8609 34.1096C57.1052 34.1096 57.2967 34.1917 57.4628 34.3578C57.6288 34.5238 57.7109 34.7271 57.7109 34.9713C57.7109 35.2155 57.6288 35.4187 57.4628 35.5848C57.2967 35.7509 57.0974 35.833 56.8609 35.833C56.6245 35.833 56.4135 35.7509 56.2474 35.5848ZM57.5214 36.6927V43.1895H56.1771V36.6927H57.5214Z" fill="black"/>
<path id="Vector_6" d="M63.0081 36.8881C63.397 37.0893 63.7018 37.3375 63.9226 37.6364V36.6927H65.2786V43.295C65.2786 43.8929 65.1535 44.4243 64.9015 44.8933C64.6494 45.3603 64.286 45.7276 63.8112 45.9953C63.3364 46.263 62.7678 46.3958 62.1074 46.3958C61.2262 46.3958 60.4954 46.1887 59.9151 45.7764C59.3328 45.3642 59.0026 44.8034 58.9244 44.0961H60.257C60.3586 44.4341 60.5775 44.7076 60.9116 44.9148C61.2457 45.1238 61.6443 45.2274 62.1074 45.2274C62.6506 45.2274 63.0883 45.0633 63.4224 44.7331C63.7565 44.4028 63.9226 43.9241 63.9226 43.295V42.2105C63.694 42.5173 63.3852 42.7752 62.9964 42.9823C62.6076 43.1914 62.166 43.295 61.6697 43.295C61.1031 43.295 60.5872 43.1523 60.1183 42.8651C59.6513 42.5779 59.282 42.1773 59.0104 41.6615C58.7388 41.1476 58.604 40.5634 58.604 39.9108C58.604 39.2582 58.7388 38.6798 59.0104 38.1776C59.282 37.6755 59.6513 37.2828 60.1183 37.0053C60.5853 36.7259 61.1031 36.5872 61.6697 36.5872C62.1719 36.5872 62.6193 36.6868 63.0081 36.8881ZM63.6451 38.7677C63.4595 38.4375 63.2192 38.1855 62.9202 38.0135C62.6213 37.8416 62.2989 37.7536 61.953 37.7536C61.6072 37.7536 61.2848 37.8377 60.9858 38.0077C60.6869 38.1776 60.4446 38.4238 60.2609 38.7501C60.0753 39.0765 59.9835 39.4633 59.9835 39.9108C59.9835 40.3582 60.0753 40.7529 60.2609 41.089C60.4446 41.427 60.6888 41.6849 60.9917 41.8608C61.2946 42.0386 61.615 42.1265 61.953 42.1265C62.2911 42.1265 62.6213 42.0405 62.9202 41.8667C63.2192 41.6947 63.4615 41.4407 63.6451 41.1066C63.8288 40.7725 63.9226 40.3817 63.9226 39.9342C63.9226 39.4868 63.8307 39.0979 63.6451 38.7677Z" fill="black"/>
<path id="Vector_7" d="M71.4626 36.9056C71.867 37.1186 72.1836 37.4332 72.4122 37.8494C72.6408 38.2656 72.7541 38.7697 72.7541 39.3578V43.1895H71.4215V39.5571C71.4215 38.9748 71.277 38.5294 70.9858 38.2187C70.6947 37.908 70.298 37.7536 69.7959 37.7536C69.2937 37.7536 68.8932 37.908 68.6001 38.2187C68.305 38.5294 68.1585 38.9748 68.1585 39.5571V43.1895H66.8142V36.6927H68.1585V37.4352C68.3793 37.1675 68.6587 36.9604 69.0006 36.8099C69.3426 36.6614 69.706 36.5852 70.0909 36.5852C70.6009 36.5852 71.0601 36.6907 71.4645 36.9037L71.4626 36.9056Z" fill="black"/>
<path id="Vector_8" d="M22.1477 24.7581H16.1159L6.03175 9.48628V24.7581H0V0H6.03175L16.1179 15.3422V0H22.1496V24.7581H22.1477Z" fill="black"/>
<path id="Vector_9" d="M30.2779 23.8066C28.7382 22.984 27.5268 21.8077 26.6456 20.2797C25.7643 18.7518 25.3228 16.9639 25.3228 14.9182C25.3228 12.8724 25.7682 11.1159 26.6631 9.57421C27.5561 8.03452 28.7792 6.8524 30.3306 6.0298C31.8821 5.2072 33.623 4.79492 35.5496 4.79492C37.4761 4.79492 39.2171 5.2072 40.7685 6.0298C42.3199 6.8524 43.5431 8.03452 44.436 9.57421C45.3289 11.1139 45.7764 12.8959 45.7764 14.9182C45.7764 16.9405 45.3231 18.7225 44.4184 20.2622C43.5138 21.8018 42.2789 22.984 40.7157 23.8066C39.1526 24.6292 37.4058 25.0414 35.4792 25.0414C33.5527 25.0414 31.8176 24.6311 30.2779 23.8066ZM38.4238 18.5525C39.2347 17.7064 39.6411 16.495 39.6411 14.9201C39.6411 13.3453 39.2464 12.1338 38.459 11.2878C37.6715 10.4418 36.7004 10.0177 35.5496 10.0177C34.3987 10.0177 33.3983 10.4359 32.6226 11.2702C31.8469 12.1045 31.4581 13.3218 31.4581 14.9201C31.4581 16.5184 31.8391 17.7064 32.605 18.5525C33.369 19.3985 34.3264 19.8225 35.4792 19.8225C36.632 19.8225 37.6129 19.3985 38.4238 18.5525Z" fill="black"/>
<path id="Vector_10" d="M74.3447 11.9033C73.6862 13.0913 72.6741 14.0487 71.3122 14.7775C69.9484 15.5063 68.2563 15.8717 66.234 15.8717H62.4961V24.7601H56.4644V0H66.234C68.2094 0 69.878 0.341936 71.2418 1.0219C72.6057 1.70382 73.6276 2.64365 74.3095 3.84336C74.9914 5.04307 75.3314 6.41863 75.3314 7.97004C75.3314 9.40422 75.0012 10.7153 74.3447 11.9033ZM68.35 10.2639C68.9147 9.72271 69.1961 8.95872 69.1961 7.97199C69.1961 6.98526 68.9147 6.22128 68.35 5.68005C67.7854 5.13881 66.9276 4.86917 65.7748 4.86917H62.4942V11.0768H65.7748C66.9256 11.0768 67.7854 10.8071 68.35 10.2659V10.2639Z" fill="black"/>
<path id="Vector_11" d="M109.613 5.80116C110.67 5.17786 111.846 4.86719 113.14 4.86719V11.2506H111.483C109.978 11.2506 108.849 11.575 108.097 12.2198C107.344 12.8665 106.967 14.0018 106.967 15.6235V24.7581H100.936V5.07821H106.967V8.35884C107.673 7.27832 108.554 6.42446 109.613 5.80116Z" fill="black"/>
<path id="Vector_12" d="M126.999 19.6447V24.7581H123.931C121.745 24.7581 120.039 24.2228 118.818 23.154C117.595 22.0852 116.983 20.3384 116.983 17.9175V10.0881H114.586V5.0802H116.983V0.281372H123.015V5.07825H126.966V10.0861H123.015V17.9858C123.015 18.574 123.156 18.998 123.439 19.2559C123.72 19.5158 124.191 19.6447 124.85 19.6447H127.001H126.999Z" fill="black"/>
<path id="Vector_13" d="M133.771 24.1583C132.431 23.5701 131.374 22.7651 130.598 21.7432C129.822 20.7213 129.387 19.5744 129.293 18.3043H135.252C135.323 18.9862 135.641 19.5392 136.204 19.9612C136.769 20.3853 137.462 20.5963 138.285 20.5963C139.037 20.5963 139.619 20.4497 140.03 20.1547C140.44 19.8616 140.647 19.4786 140.647 19.0077C140.647 18.4431 140.352 18.0269 139.766 17.7553C139.178 17.4856 138.226 17.1847 136.909 16.8565C135.499 16.5282 134.322 16.1804 133.383 15.815C132.443 15.4516 131.63 14.8752 130.95 14.0878C130.268 13.3003 129.928 12.2354 129.928 10.8951C129.928 9.76569 130.239 8.73793 130.862 7.80982C131.485 6.88171 132.402 6.14703 133.613 5.6058C134.825 5.06456 136.265 4.79492 137.933 4.79492C140.403 4.79492 142.347 5.4065 143.77 6.62965C145.192 7.85281 146.009 9.47456 146.22 11.4969H140.647C140.553 10.8149 140.252 10.2737 139.748 9.87511C139.242 9.47651 138.578 9.27526 137.755 9.27526C137.05 9.27526 136.509 9.41008 136.134 9.68168C135.757 9.95327 135.569 10.3226 135.569 10.7935C135.569 11.3581 135.868 11.7802 136.468 12.0635C137.068 12.3449 138.002 12.6282 139.272 12.9096C140.729 13.2867 141.917 13.6559 142.834 14.0213C143.75 14.3867 144.555 14.9729 145.249 15.7838C145.942 16.5946 146.3 17.683 146.325 19.0468C146.325 20.1996 146.001 21.2274 145.356 22.1321C144.709 23.0367 143.781 23.7499 142.57 24.2657C141.358 24.7835 139.954 25.0414 138.355 25.0414C136.638 25.0414 135.11 24.7484 133.771 24.1602V24.1583Z" fill="black"/>
<path id="Vector_14" d="M2.42279 36.9564C2.81553 36.7591 3.25125 36.6594 3.73387 36.6594C4.30051 36.6594 4.81244 36.7962 5.27161 37.0678C5.73078 37.3394 6.0903 37.7263 6.35408 38.2265C6.61786 38.7267 6.75072 39.3011 6.75072 39.944C6.75072 40.5868 6.61786 41.1652 6.35408 41.6732C6.0903 42.1812 5.72687 42.5778 5.26575 42.8612C4.80267 43.1445 4.29269 43.2871 3.73387 43.2871C3.23758 43.2871 2.79599 43.1894 2.41107 42.996C2.02615 42.8025 1.72133 42.5524 1.49663 42.2496V43.1816H0.169922V34.5609H1.49859V37.7184C1.72329 37.4078 2.03201 37.1538 2.42475 36.9564H2.42279ZM5.12506 38.797C4.94335 38.4746 4.70106 38.2304 4.40211 38.0623C4.10316 37.8963 3.78272 37.8122 3.44078 37.8122C3.09885 37.8122 2.79013 37.8982 2.49118 38.0682C2.19223 38.2382 1.9519 38.4883 1.76823 38.8146C1.58651 39.1409 1.49468 39.5258 1.49468 39.9674C1.49468 40.409 1.58651 40.7959 1.76823 41.1261C1.94994 41.4563 2.19223 41.7064 2.49118 41.8783C2.79013 42.0483 3.10666 42.1343 3.44078 42.1343C3.7749 42.1343 4.10316 42.0464 4.40211 41.8725C4.70106 41.6986 4.94139 41.4426 5.12506 41.1085C5.30678 40.7744 5.39861 40.3855 5.39861 39.944C5.39861 39.5024 5.30678 39.1194 5.12506 38.797Z" fill="black"/>
<path id="Vector_15" d="M13.8454 36.765L9.90828 46.2005H8.53272L9.83794 43.0781L7.30957 36.765H8.78869L10.5941 41.6576L12.4699 36.765H13.8435H13.8454Z" fill="black"/>
<path id="Vector_16" d="M146.224 3.18298H148.561V3.72422H147.74V6.5828H147.044L147.054 3.72422H146.224V3.18298ZM152.984 3.18298V6.5828H152.337L152.328 4.11891L151.275 6.5828H150.782L149.739 4.08179V6.5828H149.102V3.18298H150.001L151.054 5.76216L152.136 3.18298H152.986H152.984Z" fill="black"/>
<path id="Vector_17" d="M81.8068 17.853C81.7208 17.9116 81.6407 17.9781 81.5625 18.0562C81.2069 18.4118 81.0428 18.8026 81.0741 19.2286C81.1034 19.6545 81.2714 20.0199 81.5782 20.3267C81.8791 20.6276 82.2425 20.7898 82.6685 20.8152C82.6978 20.8152 82.7251 20.8171 82.7525 20.8171C83.1452 20.8171 83.5047 20.653 83.833 20.3267C83.9072 20.2524 83.9717 20.1743 84.0284 20.0922C83.114 19.5451 82.348 18.7714 81.8068 17.853Z" fill="#FF5C35"/>
<path id="Vector_18" d="M91.848 8.47607C91.8304 8.47607 91.8109 8.47607 91.7933 8.47607C91.3419 8.49171 90.9081 8.70664 90.492 9.12282C90.4802 9.13454 90.4666 9.14822 90.4548 9.15995C91.3888 9.70314 92.1704 10.4769 92.7253 11.405C93.0731 11.0025 93.3056 10.6352 93.4209 10.2991C93.5733 9.85554 93.4346 9.41786 93.0027 8.988C92.6608 8.64607 92.2759 8.47607 91.846 8.47607H91.848Z" fill="#FF5C35"/>
<path id="Vector_19" d="M87.2757 3.72607C81.2537 3.72607 76.3552 8.62455 76.3552 14.6465C76.3552 20.6685 81.2537 25.567 87.2757 25.567C93.2977 25.567 98.1961 20.6685 98.1961 14.6465C98.1961 8.62455 93.2977 3.72607 87.2757 3.72607ZM94.4192 10.6449C94.2238 11.2096 93.8291 11.7958 93.2176 12.4288C93.4755 13.1205 93.6181 13.8669 93.6181 14.6465C93.6181 18.144 90.7732 20.989 87.2757 20.989C86.4648 20.989 85.6911 20.8346 84.9779 20.5571C84.8685 20.7408 84.7356 20.9128 84.5773 21.071C84.0537 21.5947 83.4226 21.8721 82.7504 21.8721C82.7016 21.8721 82.6527 21.8721 82.6039 21.8682C81.9239 21.8272 81.3104 21.5536 80.8297 21.073C80.349 20.5923 80.0677 19.9788 80.0188 19.3047C79.9817 18.7947 80.0911 18.0346 80.8141 17.3117C80.9762 17.1495 81.156 17.0127 81.3455 16.9014C81.0779 16.2019 80.9313 15.4418 80.9313 14.6504C80.9313 11.1529 83.7762 8.30802 87.2737 8.30802C88.0358 8.30802 88.7685 8.44284 89.4465 8.69098C89.5579 8.57375 89.6575 8.47019 89.7454 8.38227C90.3551 7.77264 91.0311 7.4522 91.756 7.4268C91.7853 7.4268 91.8166 7.4268 91.8459 7.4268C92.5532 7.4268 93.2097 7.71012 93.7471 8.24745C94.7143 9.21464 94.5814 10.1662 94.4153 10.6488L94.4192 10.6449Z" fill="#FF5C35"/>
<path id="Vector_20" d="M85.6891 14.545L89.0498 10.7036C89.7063 9.95716 90.187 9.4296 90.4938 9.12479C90.91 8.7086 91.3437 8.49367 91.7951 8.47804C92.2464 8.46241 92.6489 8.6324 93.0046 8.98996C93.4364 9.42178 93.5751 9.85751 93.4227 10.301C93.2703 10.7446 92.9127 11.2467 92.3519 11.8075C92.0217 12.1377 91.6681 12.4562 91.2929 12.763L87.2639 16.1452C86.7872 16.5516 86.3749 16.8135 86.0232 16.9346C85.6715 17.0557 85.3647 16.9815 85.099 16.7158C84.8333 16.45 84.7551 16.1433 84.8782 15.8091C85.0013 15.475 85.2729 15.053 85.693 14.543L85.6891 14.545ZM81.5761 20.3266C81.2693 20.0198 81.1032 19.6545 81.072 19.2285C81.0427 18.8026 81.2048 18.4118 81.5604 18.0562C81.8711 17.7455 82.2443 17.5911 82.68 17.5892C83.1158 17.5892 83.4929 17.7474 83.8075 18.062C84.122 18.3766 84.2842 18.7557 84.2881 19.1972C84.292 19.6388 84.1396 20.014 83.8289 20.3247C83.4772 20.6764 83.0904 20.8385 82.6644 20.8131C82.2385 20.7877 81.875 20.6256 81.5741 20.3247L81.5761 20.3266Z" fill="#FF5C35"/>
</g>
<defs>
<clipPath id="clip0_8_8214">
<rect width="152.984" height="48" fill="white"/>
</clipPath>
</defs>
</svg>
