<svg width="783" height="246" viewBox="0 0 783 246" fill="none" xmlns="http://www.w3.org/2000/svg">
<g clip-path="url(#clip0_462_112)">
<path d="M131.2 212.95L130.83 213.4C129.77 214.75 128.54 215.96 127.16 216.99C125.74 218.06 124.1 218.8 122.37 219.17C120.9 219.5 119.38 219.5 117.91 219.17C115.99 218.74 114.34 217.52 113.35 215.82C112.64 214.65 112.17 213.35 111.96 212C111.66 210.14 111.59 208.26 111.76 206.39C112.23 199.77 114.75 193.47 118.96 188.35C120.56 186.4 122.5 184.76 124.67 183.49C126.16 182.62 127.8 182.03 129.5 181.73C130.91 181.47 132.35 181.52 133.74 181.88C135.12 182.27 136.38 183.02 137.39 184.04L137.79 184.44C137.96 183.82 138.13 183.23 138.29 182.65H144.17C144.17 182.74 144.17 182.84 144.17 182.93C142.63 188.29 141.3 193.72 140.05 199.15C139.4 201.96 138.76 204.76 138.01 207.53C137.86 208.13 137.71 208.74 137.54 209.32C137.25 210.35 137.05 211.41 136.94 212.47C136.67 214.31 136.56 216.16 136.6 218.02C136.64 219.57 136.96 221.1 137.54 222.54C137.84 223.28 138.28 223.95 138.83 224.53C139.48 225.19 140.36 225.58 141.29 225.62C142.4 225.66 143.49 225.43 144.49 224.95C145.53 224.48 146.51 223.87 147.37 223.12C147.92 222.65 148.48 222.18 149.05 221.75C150.13 220.94 151.41 220.45 152.75 220.33C153.69 220.25 154.63 220.43 155.46 220.87C156.32 221.29 157.2 221.66 158.11 221.96C159.73 222.5 161.43 222.72 163.14 222.61C164.49 222.54 165.81 222.13 166.96 221.42C167.19 221.27 167.42 221.11 167.63 220.93C168.62 220.17 169.05 218.88 168.72 217.68C168.72 217.28 168.45 216.89 168.33 216.49C168.21 216.09 168.05 215.52 167.94 215.03C167.84 214.61 167.96 214.17 168.26 213.86C168.58 213.49 168.93 213.12 169.3 212.77C169.73 212.37 170.09 211.91 170.37 211.4C170.6 211 170.69 210.55 170.65 210.09C170.63 209.68 170.39 209.32 170.03 209.13C169.67 208.93 169.27 208.84 168.86 208.85H167.35H167.65C168.15 208.78 168.64 208.68 169.12 208.55C169.93 208.31 170.65 207.84 171.2 207.19C171.56 206.8 171.64 206.22 171.4 205.75C171.26 205.42 171.06 205.12 170.8 204.88C170.58 204.65 170.33 204.43 170.11 204.19C169.5 203.65 169.44 202.72 169.98 202.11C170.02 202.06 170.06 202.02 170.11 201.98C170.49 201.61 170.9 201.27 171.33 200.96C171.87 200.54 172.44 200.16 173.01 199.74C173.44 199.4 173.83 199.01 174.15 198.57C174.65 197.99 174.65 197.13 174.15 196.56C173.8 196.14 173.42 195.74 173.01 195.37C171.96 194.44 171 193.42 170.13 192.32C169.38 191.36 168.77 190.3 168.32 189.17C167.99 188.23 167.81 187.24 167.78 186.24C167.74 185.05 167.77 183.86 167.86 182.67C167.92 181.37 167.73 180.06 167.29 178.83C166.51 176.55 165.13 174.53 163.29 172.98C161.64 171.58 159.76 170.48 157.73 169.75C155.05 168.74 152.26 168.02 149.42 167.62C146.35 167.19 143.24 167.03 140.14 167.15C134.9 167.34 129.72 168.35 124.79 170.13C120.12 171.8 115.75 174.2 111.84 177.25C110.85 178.06 109.91 178.93 109.03 179.86C106.65 182.29 104.57 185.01 102.86 187.95C101.28 190.67 100.06 193.59 99.2401 196.63C98.9901 197.53 98.7401 198.44 98.5701 199.38C98.0601 202.1 97.8701 204.86 98.0201 207.62C98.2101 211.48 99.1301 215.27 100.72 218.8C102.83 223.44 106.03 227.5 110.05 230.63C112.51 232.62 115.21 234.31 118.08 235.66C121.41 237.17 124.94 238.22 128.55 238.79C131.13 239.19 133.74 239.35 136.34 239.26C138.49 239.19 140.63 238.96 142.74 238.57C145.49 238.12 148.19 237.43 150.82 236.49C151.86 236.12 152.86 235.67 153.87 235.25H154.09L155.38 238.94L155.21 239.04C150.93 241.53 146.3 243.36 141.47 244.47C139.24 244.99 136.97 245.34 134.68 245.53C132.38 245.71 130.06 245.71 127.76 245.53C119.99 245.05 112.52 242.42 106.16 237.92C100.95 234.25 96.7601 229.32 93.9601 223.59C92.5901 220.89 91.5101 218.05 90.7601 215.11C89.7401 211.07 89.3601 206.9 89.6401 202.74C89.9201 198.73 90.7501 194.79 92.1201 191.01C92.6701 189.49 93.2301 187.96 93.9001 186.49C96.3001 181.38 99.7201 176.82 103.95 173.09C108.6 168.94 114 165.72 119.87 163.61C123.42 162.31 127.1 161.4 130.84 160.9C134.22 160.41 137.64 160.2 141.06 160.28C144.87 160.42 148.64 161.03 152.3 162.07C154.66 162.71 156.96 163.56 159.17 164.62C161.99 165.99 164.54 167.85 166.71 170.12C168.86 172.36 170.3 175.18 170.85 178.23C171.1 179.73 171.1 181.27 170.85 182.77C170.66 183.83 170.58 184.91 170.62 185.99C170.67 188.12 171.48 190.16 172.9 191.74C173.74 192.7 174.58 193.62 175.46 194.55L176.78 195.97C177.16 196.35 177.29 196.91 177.13 197.43C177.01 197.93 176.8 198.4 176.51 198.82C175.91 199.7 175.17 200.49 174.33 201.15C173.79 201.58 173.23 201.97 172.65 202.34C172.25 202.55 172.09 203.05 172.3 203.45C172.34 203.52 172.39 203.59 172.45 203.65C172.75 203.97 173 204.33 173.2 204.72C173.57 205.46 173.61 206.33 173.3 207.1C173.13 207.55 172.88 207.96 172.56 208.32L172.06 208.89C171.96 209.03 171.96 209.22 172.06 209.36C172.16 209.56 172.24 209.76 172.33 209.96C172.57 210.49 172.59 211.09 172.41 211.64C172.17 212.36 171.75 213 171.19 213.52L170.69 214.04C170.36 214.43 170.14 214.91 170.05 215.41C170 215.78 170.06 216.15 170.22 216.48C170.34 216.78 170.47 217.08 170.61 217.37C170.92 218.02 171.11 218.72 171.18 219.43C171.39 221.03 170.65 222.6 169.29 223.47C167.9 224.41 166.31 225.04 164.65 225.3C162.99 225.57 161.3 225.63 159.62 225.45C158.23 225.34 156.85 225.14 155.48 224.86C153.89 224.58 152.26 224.93 150.92 225.83C150.06 226.36 149.28 227 148.59 227.74C147.86 228.52 147.05 229.23 146.19 229.87C144.91 230.84 143.43 231.52 141.87 231.88C140.22 232.26 138.48 232.05 136.96 231.29C135.88 230.75 134.92 229.99 134.15 229.06C133.02 227.66 132.21 226.03 131.77 224.28C131.06 221.73 130.73 219.1 130.8 216.46C130.82 215.36 130.96 214.26 131.22 213.19C131.22 213.11 131.19 213.03 131.17 212.96L131.2 212.95ZM118.31 210.27C118.31 211.31 118.4 212.35 118.61 213.37C118.78 214.26 119.14 215.11 119.67 215.85C120.32 216.75 121.43 217.19 122.52 216.97C123.41 216.82 124.26 216.48 125.02 215.98C125.96 215.37 126.82 214.65 127.58 213.82C129.19 212.07 130.47 210.04 131.33 207.82C133.45 202.58 134.98 197.11 135.89 191.53C136.07 190.27 136.07 189 135.89 187.74C135.81 186.88 135.55 186.05 135.14 185.29C134.64 184.36 133.75 183.71 132.71 183.51C132.07 183.38 131.41 183.38 130.77 183.51C129.62 183.75 128.54 184.26 127.62 185C126.62 185.79 125.73 186.72 124.97 187.75C123.61 189.56 122.48 191.54 121.62 193.63C120.4 196.6 119.49 199.69 118.92 202.85C118.44 205.27 118.18 207.72 118.15 210.19L118.32 210.26L118.31 210.27Z" fill="#F05E3E"/>
<path d="M195.33 195.4C196.72 192.83 198.61 190.82 201 189.4C203.39 187.97 206.04 187.26 208.94 187.26C211.55 187.26 213.84 187.77 215.79 188.8C217.74 189.83 219.3 191.1 220.47 192.63V187.8H227.41V221.05H220.47V216.1C219.3 217.67 217.71 218.98 215.7 220.02C213.69 221.07 211.39 221.59 208.82 221.59C205.96 221.59 203.35 220.86 200.98 219.39C198.61 217.92 196.73 215.87 195.34 213.23C193.95 210.6 193.26 207.61 193.26 204.27C193.26 200.93 193.95 197.97 195.34 195.4H195.33ZM219.05 198.41C218.1 196.72 216.87 195.43 215.34 194.55C213.81 193.67 212.16 193.22 210.39 193.22C208.62 193.22 206.97 193.65 205.44 194.52C203.91 195.39 202.67 196.65 201.73 198.32C200.78 199.99 200.31 201.97 200.31 204.26C200.31 206.55 200.78 208.57 201.73 210.29C202.67 212.02 203.92 213.34 205.47 214.24C207.02 215.15 208.66 215.6 210.39 215.6C212.12 215.6 213.81 215.16 215.34 214.27C216.87 213.39 218.11 212.09 219.05 210.38C219.99 208.67 220.47 206.67 220.47 204.38C220.47 202.09 220 200.1 219.05 198.41Z" fill="white"/>
<path d="M243.27 193.41V211.81C243.27 213.06 243.56 213.95 244.15 214.5C244.73 215.04 245.73 215.31 247.14 215.31H251.36V221.04H245.93C242.83 221.04 240.46 220.32 238.81 218.87C237.16 217.42 236.34 215.07 236.34 211.81V193.41H232.42V187.8H236.34V179.53H243.28V187.8H251.37V193.41H243.28H243.27Z" fill="white"/>
<path d="M261.53 220.17C259.46 219.23 257.82 217.94 256.61 216.31C255.4 214.68 254.76 212.86 254.68 210.85H261.8C261.92 212.26 262.59 213.44 263.82 214.38C265.05 215.33 266.59 215.8 268.44 215.8C270.29 215.8 271.87 215.43 272.94 214.68C274.01 213.94 274.54 212.98 274.54 211.81C274.54 210.56 273.95 209.64 272.76 209.03C271.57 208.43 269.69 207.76 267.12 207.04C264.63 206.36 262.59 205.69 261.03 205.05C259.46 204.41 258.1 203.42 256.96 202.09C255.81 200.76 255.24 199.01 255.24 196.84C255.24 195.07 255.76 193.45 256.81 191.98C257.86 190.51 259.35 189.36 261.31 188.51C263.26 187.67 265.5 187.24 268.04 187.24C271.82 187.24 274.87 188.2 277.18 190.11C279.49 192.02 280.73 194.63 280.89 197.92H274.01C273.89 196.43 273.29 195.25 272.2 194.36C271.11 193.48 269.64 193.03 267.79 193.03C265.94 193.03 264.59 193.37 263.63 194.06C262.66 194.74 262.18 195.65 262.18 196.78C262.18 197.67 262.5 198.41 263.15 199.01C263.79 199.61 264.58 200.09 265.5 200.43C266.43 200.77 267.79 201.21 269.6 201.73C272.01 202.37 273.99 203.03 275.54 203.69C277.09 204.35 278.43 205.33 279.55 206.62C280.68 207.91 281.26 209.62 281.3 211.75C281.3 213.64 280.78 215.33 279.73 216.82C278.68 218.31 277.21 219.48 275.29 220.32C273.38 221.16 271.14 221.59 268.56 221.59C265.98 221.59 263.6 221.12 261.53 220.17Z" fill="white"/>
<path d="M287.87 182.12C287.03 181.28 286.6 180.23 286.6 178.98C286.6 177.73 287.02 176.69 287.87 175.84C288.72 174.99 289.76 174.57 291.01 174.57C292.26 174.57 293.24 174.99 294.09 175.84C294.94 176.69 295.36 177.73 295.36 178.98C295.36 180.23 294.94 181.27 294.09 182.12C293.24 182.97 292.22 183.39 291.01 183.39C289.8 183.39 288.72 182.97 287.87 182.12ZM294.38 187.79V221.04H287.5V187.79H294.38Z" fill="white"/>
<path d="M322.47 188.79C324.46 189.82 326.02 191.09 327.15 192.62V187.79H334.09V221.58C334.09 224.64 333.45 227.36 332.16 229.76C330.87 232.15 329.01 234.03 326.58 235.4C324.15 236.77 321.24 237.45 317.86 237.45C313.35 237.45 309.61 236.39 306.64 234.28C303.66 232.17 301.97 229.3 301.57 225.68H308.39C308.91 227.41 310.03 228.81 311.74 229.87C313.45 230.94 315.49 231.47 317.86 231.47C320.64 231.47 322.88 230.63 324.59 228.94C326.3 227.25 327.15 224.8 327.15 221.58V216.03C325.98 217.6 324.4 218.92 322.41 219.98C320.42 221.05 318.16 221.58 315.62 221.58C312.72 221.58 310.08 220.85 307.68 219.38C305.29 217.91 303.4 215.86 302.01 213.22C300.62 210.59 299.93 207.6 299.93 204.26C299.93 200.92 300.62 197.96 302.01 195.39C303.4 192.82 305.29 190.81 307.68 189.39C310.07 187.96 312.72 187.25 315.62 187.25C318.19 187.25 320.48 187.76 322.47 188.79ZM325.73 198.41C324.78 196.72 323.55 195.43 322.02 194.55C320.49 193.67 318.84 193.22 317.07 193.22C315.3 193.22 313.65 193.65 312.12 194.52C310.59 195.39 309.35 196.65 308.41 198.32C307.46 199.99 306.99 201.97 306.99 204.26C306.99 206.55 307.46 208.57 308.41 210.29C309.35 212.02 310.6 213.34 312.15 214.24C313.7 215.15 315.34 215.6 317.07 215.6C318.8 215.6 320.49 215.16 322.02 214.27C323.55 213.39 324.79 212.09 325.73 210.38C326.67 208.67 327.15 206.67 327.15 204.38C327.15 202.09 326.68 200.1 325.73 198.41Z" fill="white"/>
<path d="M365.74 188.88C367.81 189.97 369.43 191.58 370.6 193.71C371.77 195.84 372.35 198.42 372.35 201.43V221.04H365.53V202.45C365.53 199.47 364.79 197.19 363.3 195.6C361.81 194.01 359.78 193.22 357.21 193.22C354.64 193.22 352.59 194.01 351.09 195.6C349.58 197.19 348.83 199.47 348.83 202.45V221.04H341.95V187.79H348.83V191.59C349.96 190.22 351.39 189.16 353.14 188.39C354.89 187.63 356.75 187.24 358.72 187.24C361.33 187.24 363.68 187.78 365.75 188.87L365.74 188.88Z" fill="white"/>
<path d="M113.35 126.71H82.48L30.87 48.55V126.71H0V0H30.87L82.49 78.52V0H113.36V126.71H113.35Z" fill="white"/>
<path d="M154.96 121.84C147.08 117.63 140.88 111.61 136.37 103.79C131.86 95.97 129.6 86.82 129.6 76.35C129.6 65.88 131.88 56.89 136.46 49C141.03 41.12 147.29 35.07 155.23 30.86C163.17 26.65 172.08 24.54 181.94 24.54C191.8 24.54 200.71 26.65 208.65 30.86C216.59 35.07 222.85 41.12 227.42 49C231.99 56.88 234.28 66 234.28 76.35C234.28 86.7 231.96 95.82 227.33 103.7C222.7 111.58 216.38 117.63 208.38 121.84C200.38 126.05 191.44 128.16 181.58 128.16C171.72 128.16 162.84 126.06 154.96 121.84ZM196.65 94.94C200.8 90.61 202.88 84.41 202.88 76.35C202.88 68.29 200.86 62.09 196.83 57.76C192.8 53.43 187.83 51.26 181.94 51.26C176.05 51.26 170.93 53.4 166.96 57.67C162.99 61.94 161 68.17 161 76.35C161 84.53 162.95 90.61 166.87 94.94C170.78 99.27 175.68 101.44 181.58 101.44C187.48 101.44 192.5 99.27 196.65 94.94Z" fill="white"/>
<path d="M380.49 60.92C377.12 67 371.94 71.9 364.97 75.63C357.99 79.36 349.33 81.23 338.98 81.23H319.85V126.72H288.98V0H338.98C349.09 0 357.63 1.75 364.61 5.23C371.59 8.72 376.82 13.53 380.31 19.67C383.8 25.81 385.54 32.85 385.54 40.79C385.54 48.13 383.85 54.84 380.49 60.92ZM349.81 52.52C352.7 49.75 354.14 45.84 354.14 40.79C354.14 35.74 352.7 31.83 349.81 29.06C346.92 26.29 342.53 24.91 336.63 24.91H319.84V56.68H336.63C342.52 56.68 346.92 55.3 349.81 52.53V52.52Z" fill="white"/>
<path d="M560.99 29.6899C566.4 26.4999 572.42 24.9099 579.04 24.9099V57.5799H570.56C562.86 57.5799 557.08 59.2399 553.23 62.5399C549.38 65.8499 547.45 71.6599 547.45 79.9599V126.71H516.58V25.9899H547.45V42.7799C551.06 37.2499 555.57 32.8799 560.99 29.6899Z" fill="white"/>
<path d="M649.97 100.54V126.71H634.27C623.08 126.71 614.35 123.97 608.1 118.5C601.84 113.03 598.71 104.09 598.71 91.6999V51.6299H586.44V25.9999H598.71V1.43994H629.58V25.9899H649.8V51.6199H629.58V92.0499C629.58 95.0599 630.3 97.2299 631.75 98.5499C633.19 99.8799 635.6 100.54 638.97 100.54H649.98H649.97Z" fill="white"/>
<path d="M684.63 123.64C677.77 120.63 672.36 116.51 668.39 111.28C664.42 106.05 662.19 100.18 661.71 93.68H692.21C692.57 97.17 694.2 100 697.08 102.16C699.97 104.33 703.52 105.41 707.73 105.41C711.58 105.41 714.56 104.66 716.66 103.15C718.76 101.65 719.82 99.69 719.82 97.28C719.82 94.39 718.31 92.26 715.31 90.87C712.3 89.49 707.43 87.95 700.69 86.27C693.47 84.59 687.45 82.81 682.64 80.94C677.83 79.08 673.67 76.13 670.19 72.1C666.7 68.07 664.96 62.62 664.96 55.76C664.96 49.98 666.55 44.72 669.74 39.97C672.93 35.22 677.62 31.46 683.82 28.69C690.02 25.92 697.39 24.54 705.93 24.54C718.57 24.54 728.52 27.67 735.8 33.93C743.08 40.19 747.26 48.49 748.34 58.84H719.82C719.34 55.35 717.8 52.58 715.22 50.54C712.63 48.5 709.23 47.47 705.02 47.47C701.41 47.47 698.64 48.16 696.72 49.55C694.79 50.94 693.83 52.83 693.83 55.24C693.83 58.13 695.36 60.29 698.43 61.74C701.5 63.18 706.28 64.63 712.78 66.07C720.24 68 726.32 69.89 731.01 71.76C735.7 73.63 739.82 76.63 743.37 80.78C746.92 84.93 748.75 90.5 748.88 97.48C748.88 103.38 747.22 108.64 743.92 113.27C740.61 117.9 735.86 121.55 729.66 124.19C723.46 126.84 716.27 128.16 708.09 128.16C699.3 128.16 691.48 126.66 684.63 123.65V123.64Z" fill="white"/>
<path d="M12.4001 189.14C14.4101 188.13 16.6401 187.62 19.1101 187.62C22.0101 187.62 24.6301 188.32 26.9801 189.71C29.3301 191.1 31.1701 193.08 32.5201 195.64C33.8701 198.2 34.5501 201.14 34.5501 204.43C34.5501 207.72 33.8701 210.68 32.5201 213.28C31.1701 215.88 29.3101 217.91 26.9501 219.36C24.5801 220.81 21.9701 221.54 19.1101 221.54C16.5701 221.54 14.3101 221.04 12.3401 220.05C10.3701 219.06 8.81012 217.78 7.66012 216.23V221H0.870117V176.88H7.67012V193.04C8.82012 191.45 10.4001 190.15 12.4101 189.14H12.4001ZM26.2301 198.56C25.3001 196.91 24.0601 195.66 22.5301 194.8C21.0001 193.95 19.3601 193.52 17.6101 193.52C15.8601 193.52 14.2801 193.96 12.7501 194.83C11.2201 195.7 9.99012 196.98 9.05012 198.65C8.12012 200.32 7.65012 202.29 7.65012 204.55C7.65012 206.81 8.12012 208.79 9.05012 210.48C9.98012 212.17 11.2201 213.45 12.7501 214.33C14.2801 215.2 15.9001 215.64 17.6101 215.64C19.3201 215.64 21.0001 215.19 22.5301 214.3C24.0601 213.41 25.2901 212.1 26.2301 210.39C27.1601 208.68 27.6301 206.69 27.6301 204.43C27.6301 202.17 27.1601 200.21 26.2301 198.56Z" fill="white"/>
<path d="M70.8602 188.16L50.7102 236.45H43.6702L50.3502 220.47L37.4102 188.16H44.9802L54.2202 213.2L63.8202 188.16H70.8502H70.8602Z" fill="white"/>
<path d="M748.36 16.29H760.32V19.06H756.12V33.69H752.56L752.61 19.06H748.36V16.29ZM782.96 16.29V33.69H779.65L779.6 21.08L774.21 33.69H771.69L766.35 20.89V33.69H763.09V16.29H767.69L773.08 29.49L778.62 16.29H782.97H782.96Z" fill="white"/>
<path d="M474.66 91.3701C475.1 91.6701 475.51 92.0101 475.91 92.4101C477.73 94.2301 478.57 96.2301 478.41 98.4101C478.26 100.59 477.4 102.46 475.83 104.03C474.29 105.57 472.43 106.4 470.25 106.53C470.1 106.53 469.96 106.54 469.82 106.54C467.81 106.54 465.97 105.7 464.29 104.03C463.91 103.65 463.58 103.25 463.29 102.83C467.97 100.03 471.89 96.0701 474.66 91.3701Z" fill="white"/>
<path d="M423.27 43.3799C423.36 43.3799 423.46 43.3799 423.55 43.3799C425.86 43.4599 428.08 44.5599 430.21 46.6899C430.27 46.7499 430.34 46.8199 430.4 46.8799C425.62 49.6599 421.62 53.6199 418.78 58.3699C417 56.3099 415.81 54.4299 415.22 52.7099C414.44 50.4399 415.15 48.1999 417.36 45.9999C419.11 44.2499 421.08 43.3799 423.28 43.3799H423.27Z" fill="white"/>
<path d="M390.78 74.9601C390.78 105.78 415.85 130.85 446.67 130.85C477.49 130.85 502.56 105.78 502.56 74.9601C502.56 44.1401 477.49 19.0701 446.67 19.0701C415.85 19.0701 390.78 44.1401 390.78 74.9601ZM413.53 42.1901C416.28 39.4401 419.65 37.9901 423.26 37.9901C423.41 37.9901 423.57 37.9901 423.72 37.9901C427.43 38.1101 430.9 39.7601 434.01 42.8801C434.46 43.3301 434.97 43.8601 435.54 44.4601C439.01 43.1901 442.75 42.5001 446.66 42.5001C464.56 42.5001 479.12 57.0601 479.12 74.9601C479.12 79.0201 478.37 82.9001 477 86.4801C477.97 87.0601 478.88 87.7501 479.72 88.5801C483.42 92.2801 483.97 96.1701 483.79 98.7801C483.55 102.23 482.11 105.37 479.64 107.83C477.17 110.29 474.04 111.7 470.56 111.9C470.31 111.91 470.06 111.92 469.81 111.92C466.37 111.92 463.14 110.5 460.46 107.82C459.65 107.01 458.98 106.13 458.41 105.19C454.76 106.61 450.8 107.4 446.65 107.4C428.75 107.4 414.19 92.8401 414.19 74.9401C414.19 70.9501 414.92 67.1201 416.24 63.5901C413.11 60.3501 411.09 57.3501 410.09 54.4601C409.24 51.9901 408.56 47.1201 413.51 42.1701L413.53 42.1901Z" fill="#F05E3E"/>
<path d="M458.96 80.9199C459.59 82.6299 459.21 84.1699 457.83 85.5599C456.47 86.9199 454.89 87.2899 453.1 86.6799C451.3 86.0599 449.19 84.7199 446.75 82.6399L426.13 65.3299C424.21 63.7699 422.4 62.1399 420.71 60.4399C417.84 57.5699 416.01 54.9999 415.23 52.7299C414.45 50.4599 415.16 48.2199 417.37 46.0199C419.19 44.1999 421.26 43.3299 423.56 43.3999C425.86 43.4699 428.09 44.5799 430.22 46.7099C431.78 48.2699 434.25 50.9699 437.61 54.7899L454.81 74.4499C456.96 77.0699 458.36 79.2299 458.98 80.9299L458.96 80.9199ZM470.25 106.53C468.07 106.66 466.08 105.82 464.29 104.03C462.7 102.44 461.92 100.52 461.94 98.2599C461.97 95.9999 462.79 94.0699 464.4 92.4499C466.01 90.8299 467.94 90.0299 470.17 90.0299C472.4 90.0299 474.31 90.8299 475.9 92.4199C477.72 94.2399 478.56 96.2399 478.4 98.4199C478.25 100.6 477.39 102.47 475.82 104.04C474.28 105.58 472.42 106.41 470.24 106.54L470.25 106.53Z" fill="#F05E3E"/>
</g>
<defs>
<clipPath id="clip0_462_112">
<rect width="782.96" height="245.66" fill="white"/>
</clipPath>
</defs>
</svg>
