<svg width="832" height="541" viewBox="0 0 832 541" fill="none"
    xmlns="http://www.w3.org/2000/svg">
    <g clip-path="url(#clip0_564_1879)">
        <rect x="2.20117" y="0.550781" width="832" height="540.36" fill="url(#paint0_linear_564_1879)"/>
        <path d="M397.614 515.817L397.546 515.901C397.351 516.154 397.128 516.376 396.875 516.569C396.612 516.77 396.32 516.905 395.999 516.975C395.727 517.037 395.455 517.037 395.184 516.975C395.008 516.935 394.848 516.86 394.703 516.752C394.558 516.643 394.441 516.509 394.351 516.351C394.221 516.13 394.136 515.893 394.096 515.639C394.041 515.292 394.028 514.943 394.059 514.593C394.081 514.287 394.125 513.984 394.192 513.685C394.26 513.385 394.35 513.093 394.462 512.808C394.573 512.523 394.706 512.248 394.859 511.984C395.013 511.719 395.186 511.468 395.377 511.231C395.672 510.866 396.021 510.564 396.422 510.326C396.697 510.163 396.992 510.054 397.305 509.998C397.565 509.949 397.824 509.958 398.08 510.026C398.338 510.101 398.56 510.235 398.748 510.429L398.823 510.505C398.854 510.39 398.885 510.28 398.915 510.171H399.991C399.99 510.189 399.99 510.207 399.991 510.224C399.709 511.223 399.466 512.235 399.237 513.246C399.118 513.77 399.001 514.292 398.862 514.807C398.834 514.919 398.806 515.031 398.776 515.141C398.724 515.334 398.687 515.529 398.666 515.728C398.616 516.07 398.596 516.414 398.604 516.76C398.612 517.052 398.67 517.332 398.776 517.603C398.832 517.742 398.91 517.866 399.012 517.974C399.071 518.036 399.14 518.085 399.218 518.12C399.296 518.155 399.377 518.174 399.462 518.177C399.667 518.185 399.862 518.143 400.047 518.052C400.24 517.966 400.415 517.852 400.575 517.712C400.676 517.625 400.777 517.537 400.881 517.456C401.082 517.303 401.307 517.215 401.557 517.191C401.732 517.175 401.897 517.208 402.053 517.291C402.21 517.369 402.372 517.437 402.538 517.494C402.836 517.595 403.143 517.636 403.457 517.615C403.709 517.602 403.943 517.528 404.158 517.393C404.2 517.366 404.241 517.335 404.28 517.302C404.324 517.268 404.363 517.227 404.395 517.181C404.427 517.135 404.453 517.084 404.47 517.031C404.488 516.977 404.498 516.921 404.5 516.864C404.501 516.808 404.494 516.752 404.48 516.697C404.48 516.621 404.43 516.55 404.409 516.475C404.388 516.4 404.357 516.294 404.338 516.204C404.329 516.164 404.33 516.126 404.34 516.087C404.351 516.048 404.369 516.014 404.397 515.985C404.455 515.916 404.519 515.848 404.587 515.782C404.666 515.708 404.732 515.623 404.783 515.526C404.825 515.45 404.843 515.37 404.835 515.283C404.833 515.245 404.822 515.21 404.802 515.178C404.782 515.146 404.755 515.122 404.722 515.104C404.655 515.068 404.584 515.05 404.508 515.051H404.287C404.378 515.038 404.468 515.019 404.557 514.996C404.708 514.949 404.834 514.865 404.936 514.743C404.969 514.707 404.989 514.664 404.996 514.615C405.003 514.566 404.996 514.52 404.973 514.475C404.948 514.413 404.911 514.359 404.863 514.313C404.823 514.269 404.778 514.229 404.738 514.185C404.711 514.161 404.69 514.132 404.674 514.099C404.658 514.067 404.649 514.032 404.647 513.996C404.645 513.96 404.65 513.924 404.661 513.89C404.673 513.855 404.69 513.824 404.714 513.797C404.721 513.789 404.729 513.78 404.738 513.773C404.808 513.703 404.883 513.639 404.963 513.582C405.061 513.503 405.165 513.432 405.269 513.352C405.349 513.29 405.419 513.217 405.478 513.134C405.5 513.108 405.517 513.079 405.529 513.047C405.541 513.015 405.547 512.981 405.547 512.947C405.547 512.913 405.541 512.879 405.529 512.847C405.517 512.814 405.5 512.786 405.478 512.759C405.413 512.681 405.344 512.607 405.269 512.538C405.078 512.364 404.902 512.175 404.744 511.97C404.605 511.791 404.494 511.596 404.411 511.384C404.35 511.207 404.318 511.025 404.313 510.838C404.305 510.616 404.311 510.394 404.328 510.173C404.34 509.928 404.305 509.689 404.224 509.458C404.152 509.246 404.055 509.047 403.93 508.862C403.806 508.677 403.659 508.513 403.491 508.368C403.187 508.105 402.848 507.905 402.473 507.766C401.981 507.577 401.474 507.444 400.953 507.369C400.39 507.289 399.824 507.26 399.255 507.282C398.291 507.319 397.355 507.504 396.448 507.838C395.588 508.151 394.799 508.593 394.078 509.164C393.896 509.315 393.724 509.478 393.563 509.652C393.125 510.106 392.75 510.609 392.437 511.159C392.146 511.669 391.925 512.207 391.775 512.776C391.729 512.945 391.683 513.114 391.652 513.288C391.558 513.796 391.525 514.308 391.551 514.824C391.587 515.55 391.751 516.244 392.044 516.906C392.237 517.338 392.478 517.741 392.767 518.114C393.055 518.486 393.383 518.818 393.75 519.111C394.203 519.482 394.692 519.795 395.219 520.047C395.831 520.329 396.469 520.524 397.133 520.63C397.606 520.705 398.081 520.734 398.559 520.718C398.952 520.705 399.343 520.662 399.73 520.59C400.234 520.506 400.726 520.377 401.207 520.203C401.397 520.134 401.583 520.05 401.765 519.972H401.805L402.041 520.66L402.01 520.679C401.222 521.144 400.385 521.481 399.497 521.69C399.088 521.786 398.674 521.851 398.255 521.885C397.833 521.918 397.411 521.918 396.989 521.885C396.635 521.863 396.285 521.816 395.938 521.745C395.591 521.673 395.25 521.577 394.916 521.457C394.582 521.337 394.257 521.195 393.943 521.029C393.628 520.864 393.327 520.676 393.037 520.468C392.561 520.126 392.134 519.729 391.756 519.277C391.378 518.825 391.061 518.332 390.806 517.799C390.554 517.294 390.36 516.768 390.222 516.22C390.034 515.462 389.966 514.694 390.016 513.914C390.067 513.164 390.218 512.436 390.469 511.729C390.571 511.445 390.672 511.161 390.794 510.888C391.014 510.412 391.279 509.964 391.589 509.543C391.898 509.122 392.247 508.738 392.634 508.39C393.059 508.003 393.516 507.661 394.006 507.364C394.495 507.067 395.009 506.82 395.545 506.624C396.196 506.38 396.865 506.211 397.553 506.118C398.173 506.027 398.796 505.988 399.423 506.003C400.121 506.03 400.807 506.141 401.479 506.337C401.912 506.456 402.331 506.614 402.736 506.811C403.255 507.069 403.715 507.411 404.115 507.836C404.311 508.044 404.474 508.277 404.603 508.534C404.732 508.792 404.821 509.062 404.872 509.346C404.918 509.628 404.918 509.91 404.872 510.192C404.838 510.391 404.823 510.591 404.829 510.792C404.833 510.99 404.871 511.181 404.943 511.365C405.015 511.55 405.115 511.715 405.246 511.862C405.399 512.04 405.553 512.212 405.715 512.387L405.957 512.653C405.992 512.688 406.014 512.731 406.026 512.779C406.037 512.828 406.036 512.877 406.021 512.925C405.999 513.018 405.962 513.104 405.908 513.183C405.798 513.349 405.665 513.494 405.51 513.617C405.412 513.697 405.31 513.77 405.204 513.839C405.186 513.848 405.171 513.861 405.158 513.876C405.145 513.892 405.136 513.909 405.13 513.929C405.124 513.948 405.122 513.968 405.124 513.988C405.126 514.008 405.131 514.027 405.14 514.045C405.147 514.059 405.156 514.072 405.167 514.083C405.222 514.143 405.268 514.21 405.305 514.283C405.339 514.353 405.358 514.426 405.361 514.503C405.364 514.58 405.351 514.655 405.323 514.727C405.292 514.812 405.247 514.888 405.188 514.956L405.096 515.062C405.087 515.075 405.083 515.09 405.083 515.106C405.083 515.122 405.087 515.136 405.096 515.149C405.115 515.188 405.13 515.226 405.146 515.262C405.19 515.364 405.195 515.468 405.161 515.574C405.115 515.71 405.04 515.827 404.936 515.923L404.844 516.017C404.782 516.091 404.743 516.176 404.728 516.273C404.719 516.342 404.729 516.409 404.758 516.473C404.78 516.529 404.804 516.585 404.829 516.638C404.885 516.759 404.92 516.887 404.933 517.02C404.943 517.093 404.942 517.166 404.931 517.239C404.92 517.312 404.899 517.383 404.868 517.449C404.838 517.516 404.798 517.577 404.751 517.633C404.703 517.688 404.648 517.736 404.587 517.775C404.329 517.953 404.046 518.066 403.738 518.116C403.433 518.167 403.126 518.176 402.818 518.143C402.564 518.123 402.311 518.086 402.061 518.034C401.916 518.008 401.771 518.011 401.627 518.042C401.483 518.073 401.35 518.131 401.228 518.215C401.07 518.315 400.928 518.434 400.801 518.571C400.667 518.717 400.521 518.849 400.363 518.968C400.126 519.15 399.862 519.275 399.573 519.342C399.421 519.378 399.268 519.386 399.114 519.367C398.96 519.349 398.813 519.304 398.674 519.233C398.474 519.132 398.302 518.993 398.159 518.818C397.95 518.554 397.806 518.257 397.724 517.928C397.594 517.451 397.535 516.965 397.546 516.47C397.55 516.265 397.575 516.062 397.621 515.862C397.621 515.846 397.618 515.832 397.614 515.817ZM395.257 515.318C395.255 515.512 395.274 515.704 395.312 515.895C395.344 516.063 395.408 516.217 395.505 516.357C395.534 516.398 395.568 516.434 395.607 516.466C395.647 516.497 395.689 516.521 395.736 516.54C395.782 516.558 395.829 516.57 395.879 516.574C395.929 516.579 395.977 516.576 396.026 516.566C396.191 516.538 396.344 516.476 396.483 516.382C396.656 516.268 396.812 516.133 396.952 515.978C397.25 515.65 397.479 515.277 397.638 514.861C398.027 513.881 398.305 512.869 398.472 511.826C398.506 511.591 398.506 511.356 398.472 511.121C398.458 510.959 398.412 510.807 398.334 510.664C398.289 510.578 398.227 510.506 398.149 510.448C398.071 510.39 397.985 510.351 397.89 510.333C397.771 510.31 397.653 510.31 397.534 510.333C397.321 510.38 397.129 510.472 396.958 510.611C396.774 510.76 396.612 510.93 396.473 511.124C396.223 511.462 396.019 511.827 395.861 512.219C395.637 512.774 395.472 513.346 395.368 513.936C395.279 514.387 395.231 514.843 395.226 515.303L395.257 515.318Z" fill="black"/>
        <path d="M409.346 512.55C409.405 512.434 409.472 512.324 409.546 512.218C409.62 512.113 409.7 512.013 409.788 511.918C409.875 511.824 409.968 511.736 410.068 511.654C410.167 511.573 410.271 511.499 410.381 511.433C410.49 511.366 410.603 511.307 410.72 511.256C410.838 511.206 410.958 511.163 411.081 511.129C411.204 511.095 411.329 511.07 411.455 511.054C411.581 511.038 411.708 511.03 411.836 511.031C412.314 511.031 412.731 511.127 413.088 511.318C413.426 511.492 413.711 511.73 413.945 512.032V511.133H415.213V517.326H413.945V516.406C413.731 516.698 413.44 516.941 413.072 517.136C412.705 517.332 412.285 517.429 411.814 517.429C411.561 517.431 411.312 517.397 411.068 517.328C410.824 517.258 410.594 517.155 410.379 517.018C410.159 516.878 409.961 516.711 409.786 516.516C409.611 516.322 409.464 516.107 409.347 515.871C409.093 515.38 408.966 514.824 408.966 514.202C408.965 513.58 409.092 513.029 409.346 512.55ZM413.685 513.112C413.524 512.808 413.298 512.568 413.006 512.392C412.727 512.226 412.425 512.143 412.101 512.145C411.939 512.143 411.78 512.164 411.623 512.206C411.467 512.249 411.319 512.312 411.18 512.396C411.04 512.48 410.914 512.581 410.802 512.699C410.689 512.818 410.594 512.95 410.517 513.095C410.344 513.406 410.257 513.776 410.257 514.204C410.258 514.632 410.344 515.006 410.517 515.327C410.677 515.639 410.905 515.884 411.202 516.064C411.479 516.233 411.779 516.317 412.102 516.317C412.426 516.318 412.728 516.235 413.006 516.068C413.3 515.891 413.526 515.649 413.685 515.342C413.858 515.025 413.945 514.652 413.945 514.223C413.945 513.795 413.858 513.424 413.685 513.112Z" fill="black"/>
        <path d="M418.116 512.174V515.603C418.116 515.836 418.17 516.002 418.276 516.103C418.383 516.204 418.565 516.255 418.823 516.256H419.595V517.323H418.602C418.035 517.323 417.601 517.188 417.299 516.918C416.998 516.648 416.847 516.21 416.847 515.603V512.174H416.129V511.128H416.847V509.588H418.116V511.128H419.595V512.174H418.116Z" fill="black"/>
        <path d="M421.455 517.164C421.076 516.988 420.776 516.748 420.555 516.445C420.446 516.298 420.361 516.138 420.301 515.964C420.241 515.79 420.207 515.612 420.201 515.427H421.503C421.526 515.69 421.649 515.909 421.874 516.085C422.098 516.261 422.38 516.349 422.718 516.35C423.071 516.35 423.346 516.28 423.54 516.142C423.735 516.003 423.833 515.824 423.833 515.606C423.833 515.374 423.725 515.202 423.507 515.089C423.29 514.977 422.946 514.854 422.476 514.72C422.097 514.619 421.726 514.495 421.361 514.349C421.069 514.227 420.821 514.044 420.616 513.798C420.407 513.551 420.302 513.225 420.302 512.82C420.301 512.657 420.325 512.499 420.374 512.344C420.423 512.189 420.494 512.046 420.588 511.914C420.779 511.641 421.053 511.426 421.41 511.268C421.767 511.11 422.177 511.031 422.641 511.031C423.333 511.031 423.89 511.21 424.314 511.567C424.737 511.924 424.963 512.409 424.992 513.023H423.735C423.728 512.893 423.696 512.77 423.639 512.654C423.581 512.539 423.503 512.44 423.403 512.358C423.204 512.193 422.936 512.111 422.597 512.111C422.266 512.111 422.012 512.175 421.836 512.302C421.752 512.357 421.686 512.431 421.639 512.52C421.592 512.611 421.569 512.706 421.571 512.809C421.57 512.888 421.584 512.964 421.615 513.036C421.646 513.109 421.69 513.172 421.748 513.225C421.873 513.343 422.017 513.431 422.178 513.489C422.347 513.553 422.598 513.633 422.929 513.731C423.3 513.826 423.663 513.948 424.017 514.096C424.303 514.221 424.548 514.402 424.752 514.642C424.957 514.881 425.064 515.2 425.071 515.597C425.074 515.766 425.05 515.931 425.001 516.092C424.952 516.254 424.88 516.404 424.785 516.542C424.593 516.819 424.323 517.036 423.973 517.194C423.624 517.351 423.213 517.43 422.742 517.43C422.263 517.429 421.834 517.341 421.455 517.164Z" fill="black"/>
        <path d="M426.274 510.072C426.237 510.033 426.205 509.991 426.175 509.945C426.147 509.9 426.122 509.852 426.102 509.802C426.082 509.752 426.067 509.7 426.057 509.647C426.047 509.594 426.042 509.541 426.042 509.487C426.042 509.433 426.047 509.379 426.057 509.326C426.067 509.273 426.082 509.222 426.102 509.171C426.122 509.121 426.147 509.074 426.175 509.028C426.205 508.983 426.237 508.941 426.274 508.902C426.35 508.824 426.438 508.765 426.537 508.724C426.637 508.683 426.741 508.663 426.848 508.666C426.954 508.664 427.056 508.684 427.154 508.725C427.252 508.766 427.337 508.825 427.411 508.902C427.448 508.941 427.481 508.983 427.51 509.028C427.539 509.074 427.563 509.121 427.583 509.171C427.603 509.222 427.618 509.273 427.628 509.326C427.638 509.379 427.644 509.433 427.644 509.487C427.644 509.541 427.638 509.594 427.628 509.647C427.618 509.7 427.603 509.752 427.583 509.802C427.563 509.852 427.539 509.9 427.51 509.945C427.481 509.991 427.448 510.033 427.411 510.072C427.337 510.149 427.252 510.208 427.154 510.249C427.056 510.29 426.954 510.309 426.848 510.307C426.741 510.31 426.637 510.291 426.537 510.25C426.438 510.209 426.35 510.149 426.274 510.072ZM427.466 511.128V517.321H426.208V511.128H427.466Z" fill="black"/>
        <path d="M432.605 511.314C432.969 511.506 433.255 511.743 433.461 512.028V511.129H434.73V517.425C434.73 517.995 434.612 518.503 434.377 518.949C434.26 519.171 434.115 519.371 433.941 519.55C433.767 519.729 433.572 519.879 433.356 520C432.91 520.255 432.379 520.382 431.761 520.382C430.936 520.382 430.252 520.185 429.708 519.792C429.163 519.398 428.854 518.864 428.78 518.19H430.028C430.123 518.512 430.327 518.772 430.64 518.971C430.953 519.171 431.327 519.27 431.761 519.269C432.269 519.269 432.679 519.112 432.992 518.797C433.304 518.482 433.46 518.025 433.461 517.425V516.391C433.247 516.683 432.958 516.929 432.594 517.128C432.23 517.327 431.816 517.426 431.352 517.425C431.096 517.428 430.845 517.394 430.598 517.324C430.351 517.255 430.119 517.151 429.901 517.015C429.68 516.876 429.481 516.709 429.305 516.514C429.128 516.319 428.981 516.104 428.863 515.868C428.609 515.377 428.482 514.82 428.482 514.199C428.482 513.576 428.609 513.025 428.863 512.546C428.922 512.43 428.988 512.32 429.062 512.214C429.136 512.109 429.217 512.009 429.304 511.914C429.392 511.82 429.485 511.732 429.584 511.651C429.684 511.569 429.788 511.495 429.897 511.429C430.006 511.362 430.12 511.303 430.237 511.252C430.354 511.202 430.474 511.16 430.598 511.126C430.72 511.092 430.845 511.066 430.972 511.05C431.098 511.034 431.225 511.026 431.352 511.027C431.823 511.028 432.24 511.123 432.605 511.314ZM433.201 513.108C433.04 512.804 432.814 512.564 432.522 512.389C432.242 512.222 431.941 512.14 431.617 512.141C431.455 512.14 431.296 512.16 431.139 512.203C430.983 512.245 430.835 512.309 430.695 512.392C430.556 512.476 430.43 512.577 430.317 512.696C430.205 512.815 430.11 512.946 430.033 513.091C429.86 513.402 429.773 513.772 429.773 514.2C429.773 514.628 429.859 515.002 430.033 515.324C430.192 515.635 430.421 515.881 430.717 516.061C430.995 516.229 431.295 516.314 431.618 516.313C431.942 516.315 432.243 516.232 432.523 516.066C432.817 515.889 433.043 515.647 433.202 515.339C433.375 515.021 433.461 514.648 433.462 514.221C433.462 513.793 433.375 513.422 433.201 513.108Z" fill="black"/>
        <path d="M440.52 511.333C440.709 511.435 440.88 511.562 441.031 511.715C441.182 511.869 441.308 512.042 441.408 512.234C441.622 512.631 441.728 513.111 441.729 513.673V517.326H440.483V513.863C440.483 513.309 440.347 512.884 440.074 512.587C439.802 512.291 439.43 512.143 438.959 512.143C438.488 512.143 438.115 512.291 437.839 512.587C437.563 512.884 437.425 513.309 437.426 513.863V517.326H436.166V511.133H437.424V511.841C437.64 511.578 437.903 511.379 438.213 511.245C438.538 511.101 438.878 511.029 439.234 511.031C439.712 511.031 440.141 511.131 440.52 511.333Z" fill="black"/>
    </g>
    <defs>
        <linearGradient id="paint0_linear_564_1879" x1="418.201" y1="0.550781" x2="418.201" y2="540.911" gradientUnits="userSpaceOnUse">
            <stop stop-color="white" stop-opacity="0.45"/>
            <stop offset="0.786458" stop-color="#FEFEFE"/>
        </linearGradient>
        <clipPath id="clip0_564_1879">
            <rect width="832" height="540.36" rx="10.7079" fill="white"/>
        </clipPath>
    </defs>
</svg>
